<?xml version="1.0" encoding="utf-8"?>
<svg width="800px" height="800px" viewBox="0 -7.57 81.801 81.801" xmlns="http://www.w3.org/2000/svg">
  <g id="mac_screen" data-name="mac screen" transform="translate(-61.168 -435.413)">
    <path id="Path_1" data-name="Path 1" d="M141.3,435.413H62.835a1.673,1.673,0,0,0-1.667,1.667v47.965h81.8V437.08A1.67,1.67,0,0,0,141.3,435.413Zm-.832,46.5H63.673V438.819h76.791Z" fill="#163844"/>
    <path id="Path_2" data-name="Path 2" d="M61.168,485.045v5.432a1.677,1.677,0,0,0,1.667,1.668H141.3a1.674,1.674,0,0,0,1.673-1.668v-5.432Z" fill="#f4f4f4"/>
    <path id="Path_3" data-name="Path 3" d="M102.523,437.11a.456.456,0,1,1-.455-.451A.456.456,0,0,1,102.523,437.11Z" fill="#fbfbfb"/>
    <rect id="Rectangle_1" data-name="Rectangle 1" width="76.791" height="43.094" transform="translate(63.673 438.819)" fill="#576d78"/>
    <path id="Path_4" data-name="Path 4" d="M115.225,500.59H88.912a.8.8,0,0,0-.843.736v.739H116.06v-.739A.789.789,0,0,0,115.225,500.59Z" fill="#c9d1d1"/>
    <path id="Path_5" data-name="Path 5" d="M93.382,492.145l-1.947,8.445H112.7l-1.949-8.445Z" fill="#e4e7e7"/>
    <path id="Path_6" data-name="Path 6" d="M129.4,435.413H62.835a1.673,1.673,0,0,0-1.667,1.667v47.965H79.761Z" fill="#ffffff" opacity="0.1"/>
  </g>
</svg>
