<svg width="194" height="183" viewBox="0 0 194 183" fill="none" xmlns="http://www.w3.org/2000/svg">
  <path d="M172.754 142.076c-11.739 26.766-39.916 36.844-62.148 18.873-8.682-7.012-14.098-18.17-24.728-22.648-9.974-4.199-22.61-2.963-33.395-5.237C29.514 128.252-1.41 109.992.95 81.858c1.033-12.324 9.346-26.012 13.456-37.543 4.718-13.267 7.549-29.866 20.038-37.797 21.411-13.617 47.238-2.487 66.526 8.493 10.38 5.902 16.094 9.53 27.271 7.506 10.347-1.887 19.666-8.492 29.777-.655 7.591 5.883 8.219 17.806 14.593 24.808 7.181 7.889 14.461 8.46 18.193 20.316 4.525 14.386-2.142 23.374-6.648 36.226-4.505 12.853-5.874 26.271-11.403 38.864" fill="#ECF6FC"/>
  <path d="M148.611 182c12.452 0 22.547-2.276 22.547-5.084s-10.095-5.084-22.547-5.084-22.546 2.276-22.546 5.084S136.159 182 148.611 182" fill="#435C68" stroke="#435C68" stroke-width=".431" stroke-linecap="round" stroke-linejoin="round"/>
  <path d="M131.226 62s-3.05 1.865-3.016 2.684c.035.819-1.137 15.748-1.271 17.613s-1.908 5.718-2.046 7.467.301 3.503.814 4.308c.513.806 2.396 3.382 2.396 3.382l5.062-7.82c.124-1.707.15-3.42.078-5.13-.078-3.728-2.017-22.504-2.017-22.504" fill="#fff" stroke="#435C68" stroke-width=".431" stroke-linecap="round" stroke-linejoin="round"/>
  <path d="M150.705 25.007s-5.386-.345-8.453 3.39c-3.068 3.736-2.409 9.45-2.43 11.203s-5.231 6.893-4.653 8.987c.577 2.094 2.111 2.331 1.62 4.08s-3.697 2.801-3.232 5.02c.466 2.219 2.154 5.364 2.154 5.364l31.022.211s1.107-3.266-.074-5.717c-1.18-2.452-2.856-3.262-2.585-4.43.272-1.167 1.771-3.968 1.194-6.066-.578-2.098-2.585-2.68-2.796-6.415-.212-3.736-.763-9.91-3.727-12.926s-8.04-2.701-8.04-2.701" fill="#435C68" stroke="#435C68" stroke-width=".431" stroke-linecap="round" stroke-linejoin="round"/>
  <path d="M141.166 168.958a27.6 27.6 0 0 1-3.447 5.136c-1.982 2.219-3.903 3.387-3.839 4.554s4.391 1.396 6.679.577c2.287-.818 3.951-2.451 4.412-2.585s1.749 0 1.779-1.637-.22-6.299-.22-6.299z" fill="#fff" stroke="#435C68" stroke-width=".431" stroke-linecap="round" stroke-linejoin="round"/>
  <path d="M140.55 179.225c2.292-.818 3.951-2.451 4.412-2.585s1.749 0 1.779-1.637c0-.862-.047-2.585-.107-3.994a4.07 4.07 0 0 1-3.49 2.154s-.043-.818-1.293-2.214c-.806-.914-1.62-.194-2.094.431l-.383.577-.03.056a21 21 0 0 1-1.629 2.098c-1.982 2.219-3.904 3.387-3.839 4.554s4.386 1.379 6.674.56m16.579-10.275a32 32 0 0 0 4.007 5.131c2.219 2.215 4.265 3.378 4.308 4.545.044 1.168-4.239 1.401-6.617.586-2.379-.814-4.214-2.447-4.684-2.563s-1.753 0-1.956-1.629c-.202-1.628-.457-6.299-.457-6.299z" fill="#fff" stroke="#435C68" stroke-width=".431" stroke-linecap="round" stroke-linejoin="round"/>
  <path d="M158.844 179.212c-2.374-.814-4.214-2.447-4.683-2.563-.47-.117-1.754 0-1.956-1.629-.108-.862-.229-2.585-.319-3.998a4.56 4.56 0 0 0 3.718 2.128s-.043-.818 1.047-2.219c.711-.909 1.603-.194 2.154.431.142.19.289.379.431.578l.039.056a26 26 0 0 0 1.852 2.098c2.219 2.214 4.266 3.378 4.309 4.545.043 1.168-4.214 1.388-6.592.573" fill="#fff" stroke="#435C68" stroke-width=".431" stroke-linecap="round" stroke-linejoin="round"/>
  <path d="M131.795 107.377s.719 24.261 1.676 29.043c.956 4.783 5.226 32.194 5.226 32.194 1.305.552 2.711.828 4.128.81h4.666l.431-20.414.159-29.63 2.34 50.156s6.428.228 7.122.112a47 47 0 0 0 1.271-.233l4.131-31.732 2.366-21.112.129-8.397s-19.75-.685-25.489-1.15c-5.739-.466-8.1-.582-8.1-.582z" fill="#1E42A2" stroke="#435C68" stroke-width=".431" stroke-linecap="round" stroke-linejoin="round"/>
  <path d="M158.465 150.212c-.052.405-.103.78-.164 1.124m.693-30.331s.401 17.285-.301 26.669m-20.875-28.057s.496 11.435.987 13.999" stroke="#435C68" stroke-width=".431" stroke-linecap="round" stroke-linejoin="round"/>
  <path d="M156.229 112.332v8.729c1.118.301 2.262.498 3.416.59 1.771.116 5.076 0 5.076 0l.237-3.305zm-24.068 6.721s4.485 1.417 6.373 1.534 3.653.353 3.653.353l-.232-2.357-10.031-.943z" fill="#435C68" stroke="#435C68" stroke-width=".431" stroke-linecap="round" stroke-linejoin="round"/>
  <path d="m145.776 52.775-3.52 3.968-9.763 7.122 2.081 43.167s7.781 2.094 14.46 2.676c6.678.581 15.265-.948 15.265-.948l-1.263-45.24s-3.8-5.6-5.747-7.113c-1.948-1.512-2.84-2.912-5.421-3.145-2.58-.233-6.092-.487-6.092-.487" fill="#1E42A2" stroke="#435C68" stroke-width=".431" stroke-linecap="round" stroke-linejoin="round"/>
  <path d="m141.692 54.9-10.466 7.121 1.642 26.243-.556 2.637-4.399 5.067 1.874 8.901-.836 12.56s4.158 1.4 6.976 1.744q3.149.338 6.316.349l.362-17.147s1.392-28.467 1.555-29.729 1.616-19.82 1.616-19.82z" fill="#fff" stroke="#435C68" stroke-width=".431" stroke-linecap="round" stroke-linejoin="round"/>
  <path d="m141.86 55.972-5.067 12.706 5.467 2.27-5.161.94 4.571 17.91" stroke="#435C68" stroke-width=".431" stroke-linecap="round" stroke-linejoin="round"/>
  <path d="M144.897 49.393s1.818 12.128 3.249 14.929c1.43 2.8 1.835 3.731 1.835 3.731s3.111-9.453 3.735-10.853c.625-1.4 1.293-6.415 1.293-6.415s-6.2 1.986-10.112-1.392" fill="#fff" stroke="#435C68" stroke-width=".431" stroke-linecap="round" stroke-linejoin="round"/>
  <path d="M144.897 49.393s.164 1.103.431 2.719c.909.693 3.317 2.408 5.097 2.499 1.357.069 3.08-.81 4.226-1.513.207-1.27.349-2.313.349-2.313s-6.191 1.986-10.103-1.392" fill="#435C68" stroke="#435C68" stroke-width=".431" stroke-linecap="round" stroke-linejoin="round"/>
  <path d="M142.429 41.009s-1.241-1.767-2.077 0 1.293 4.381 1.887 4.739c1.689 1.004 1.241-.862 1.241-.862zm15.411.762s1.047-1.827 2.072-.103-.823 4.433-1.374 4.817c-1.577 1.09-1.327-.78-1.327-.78z" fill="#fff" stroke="#435C68" stroke-width=".431" stroke-linecap="round" stroke-linejoin="round"/>
  <path d="M142.136 39.449s4.498-1.051 6.764-2.391a12.4 12.4 0 0 0 3.563-3.245s1.948 3.68 3.662 5.17c1.715 1.491 2.073 1.578 2.073 1.578s-.823 6.44-1.754 8.681c-.93 2.24-3.968 4.42-6.803 3.792-1.611-.354-4.403-1.517-5.213-3.477s-2.292-10.108-2.292-10.108" fill="#fff" stroke="#435C68" stroke-width=".431" stroke-linecap="round" stroke-linejoin="round"/>
  <path d="M153.613 44.4c-1.396.034-6.071.043-8.483-1.414a16 16 0 0 1-2.702-1.977c.086.43.19.97.302 1.53l.525.383 1.319 4.98-.616.134q.195.764.469 1.503c.81 1.96 3.602 3.124 5.214 3.477 2.83.625 5.859-1.542 6.798-3.778a2.13 2.13 0 0 1-.185-1.409c.272-1.409.608-3.878.608-3.878l.96-.861c.052-.315.095-.616.138-.892-1.163.806-3.343 2.176-4.347 2.202" fill="#1E42A2" stroke="#435C68" stroke-width=".431" stroke-linecap="round" stroke-linejoin="round"/>
  <path d="M148.482 42.318s-1.504-1.826-3.477-1.658m7.35 2.02a4.26 4.26 0 0 1 3.787-1.266m-12.003-1.668s2.154-.861 4.063-.457m4.33.471a3.1 3.1 0 0 1 3.528.49" stroke="#435C68" stroke-width=".431" stroke-linecap="round" stroke-linejoin="round"/>
  <path d="M147.034 41.72a.5.5 0 0 1-.243.511.5.5 0 0 1-.188.066.534.534 0 0 1-.473-.556.5.5 0 0 1 .094-.38.5.5 0 0 1 .336-.197.54.54 0 0 1 .474.555m7.803.561a.5.5 0 0 1-.091.381.5.5 0 0 1-.34.196.53.53 0 0 1-.474-.551.51.51 0 0 1 .241-.515.5.5 0 0 1 .19-.063.53.53 0 0 1 .474.552" fill="#435C68"/>
  <path d="M166.439 59.527s2.512 1.163 3.447 3.016 8.41 21.926 8.376 23.442-2.508 3.266-4.826 3.503-5.695-3.964-6.199-4.662c-.505-.698-.595-8.867-.595-8.867z" fill="#fff" stroke="#435C68" stroke-width=".431" stroke-linecap="round" stroke-linejoin="round"/>
  <path d="m154.6 54.167 1.224 40.13.431 25.312c2.346.576 4.749.887 7.165.926a15.3 15.3 0 0 0 5.894-1.051s-.733-15.748-.862-18.316-.982-7.467-.982-7.467l-1.017-34.174s-9.466-4.43-11.853-5.36" fill="#fff" stroke="#435C68" stroke-width=".431" stroke-linecap="round" stroke-linejoin="round"/>
  <path d="m157.288 56.381 4.339 14.154-3.955 1.073 3.847 1.865-4.799 15.248" fill="#fff"/>
  <path d="m157.288 56.381 4.339 14.154-3.955 1.073 3.847 1.865-4.799 15.248" stroke="#435C68" stroke-width=".431" stroke-linecap="round" stroke-linejoin="round"/>
  <path d="m160.313 69.328-5.381 25.782s3.679 1.164 6.368 1.293c2.688.13 8.289.112 8.289.112l5.601-24.033s-11.025-1.055-14.877-3.154" fill="#435C68" stroke="#435C68" stroke-width=".431" stroke-linecap="round" stroke-linejoin="round"/>
  <path d="m162.188 93.357.176-8.057 4.27.9s-2.822 6.218-4.446 7.157" fill="#fff" stroke="#435C68" stroke-width=".431" stroke-linecap="round" stroke-linejoin="round"/>
  <path d="M165.457 82.388s-1.137-1.63-1.503-1.982c-.366-.354-2.176-1.396-2.525-1.396s-2.223-.117-2.585-.117-.771.819-.401 1.168c.371.349 1.659.465 1.659.465l.883 1.293-3.985-.35s-.664.703-.513 1.293q.17.6.431 1.168-.023 1.286.134 2.563c.155.703.861.936 1.831 1.517.969.582 4.213.233 4.213.233h1.5z" fill="#fff" stroke="#435C68" stroke-width=".431" stroke-linecap="round" stroke-linejoin="round"/>
  <path d="m175.173 83.198-10.34-1.392s-.806 6.652-1.62 8.867c-.814 2.214-1.025 2.684-1.025 2.684s10.835-.241 13.39-.474 3.99-1.754 3.878-3.852-1.392-4.2-1.392-4.2" fill="#fff"/>
  <path d="m175.173 83.198-10.34-1.392s-.806 6.652-1.62 8.867c-.814 2.214-1.025 2.684-1.025 2.684s10.835-.241 13.39-.474 3.99-1.754 3.878-3.852-1.392-4.2-1.392-4.2" stroke="#435C68" stroke-width=".431" stroke-linecap="round" stroke-linejoin="round"/>
  <path d="M132.053 90.462s2.413 1.512 3.016 1.982.655 3.498 1.039 4.08-.069.935-.767.935-1.754-2.215-1.754-2.215l-.043-.819-4.929 1.638-1.292-2.215s1.465-3.386 4.73-3.386" fill="#fff" stroke="#435C68" stroke-width=".431" stroke-linecap="round" stroke-linejoin="round"/>
  <path d="M96.147 182c12.452 0 22.546-2.276 22.546-5.084s-10.094-5.084-22.546-5.084-22.547 2.276-22.547 5.084S83.695 182 96.147 182" fill="#435C68" stroke="#435C68" stroke-width=".431" stroke-linecap="round" stroke-linejoin="round"/>
  <path d="M113.755 56.101s2.956 14.835 3.482 17.579c.525 2.744 1.49 9.268 2.585 12.128 1.094 2.861.737 6.523.189 7.553a17 17 0 0 1-1.882 2.516l-3.671-4.786s-2.185-23.456-2.267-26.778 1.564-8.212 1.564-8.212" fill="#fff" stroke="#435C68" stroke-width=".431" stroke-linecap="round" stroke-linejoin="round"/>
  <path d="M115.703 90.505s2.327 1.452 2.736 2.068.702 1.4.383 2.068-2.055 2.684-2.494 3.076-.81-1.172-.862-2.516.237-4.696.237-4.696m-12.512 81.344s7.294 3.546 7.755 4.236c.461.689-1.202 1.607-5.549 1.607s-4.477-.573-6.204-1.03c-1.728-.457-5.17-.116-5.636-1.146-.465-1.03.345-4.576.345-4.576z" fill="#fff" stroke="#435C68" stroke-width=".431" stroke-linecap="round" stroke-linejoin="round"/>
  <path d="M93.506 173.68s6.032 3.663 5.502 4.921-4.89 1.258-7.187.913c-2.296-.345-7.178-3.447-7.436-4.576-.259-1.128.387-2.86 3.925-3.201 3.537-.34 5.196 1.943 5.196 1.943m18.311-59.84s-3.447 26.544-4.046 30.435-2.499 10.069-3.524 14.761a78 78 0 0 0-1.293 8.354 7.8 7.8 0 0 0 .056 2.4 22 22 0 0 1 .168 2.059 31 31 0 0 1-4.67.802c-1.944.116-4.576.116-4.576.116l-.862-7.437s.642-10.986 1.021-14.187c.38-3.202.785-28.376.767-29.066l-.168-6.751 11.741-1.258s1.603-4.576 4.011-4.347 1.375 4.119 1.375 4.119" fill="#fff" stroke="#435C68" stroke-width=".431" stroke-linecap="round" stroke-linejoin="round"/>
  <path d="M110.46 109.721c-2.409-.229-4.012 4.347-4.012 4.347l-11.753 1.258s.039 1.611.077 3.266c1.254.112 2.413.177 3.404.177 3.766-.007 7.528-.218 11.271-.634l.504-5.273.789 5.372.543-.176c.336-2.56.551-4.227.551-4.227s1.034-3.882-1.374-4.11" fill="#435C68" stroke="#435C68" stroke-width=".431" stroke-linecap="round" stroke-linejoin="round"/>
  <path d="M82.433 114.641s0 .164.025.461c.16 3.128 1.108 21.254 1.396 24.597.324 3.662-1.292 7.665-1.21 10.982.082 3.318.861 21.284.861 21.284l.862 2.973s2.025-1.37 3.968-1.37 5.17.112 5.17.112.169-2.404.151-3.201c-.017-.797-.09-3.662-.09-3.662s3.287-14.989 3.485-16.248c.198-1.258 2.75-22.998 2.732-23.696s.539-10.414.539-10.414z" fill="#fff" stroke="#435C68" stroke-width=".431" stroke-linecap="round" stroke-linejoin="round"/>
  <path d="m100.201 118.747.125-2.275-17.893-1.831s0 .164.025.461c0 .379.048.978.09 1.723 4.185.75 11.444 1.93 15.628 1.93.69.013 1.361.005 2.025-.008" fill="#435C68" stroke="#435C68" stroke-width=".431" stroke-linecap="round" stroke-linejoin="round"/>
  <path d="M95.617 44.387s-1.892.318-2.611 1.163a19 19 0 0 0-1.94 2.637c-.098.318-11.223 7.07-11.223 7.07l.801 32.193s.332 4.959-.258 6.648a34 34 0 0 0-1.435 10.241c.104 4.115.37 10.772.37 10.772s12.732 2.533 18.855 2.533a104 104 0 0 0 11.271-.642l.504-5.278.767 5.386 2.615-.862 2.154-15.941s1.5-3.378 1.482-4.12c-.017-.74.38-1.688-.056-2.322-.435-.633-1.21-1.9-1.21-1.9s-1.948-34.912-1.948-35.864-5.76-6.54-6.187-6.751c-.426-.211-3.054-4.12-6.462-5.17-3.408-1.052-5.49.206-5.49.206" fill="#fff" stroke="#435C68" stroke-width=".431" stroke-linecap="round" stroke-linejoin="round"/>
  <path d="m92.148 49.242-1.275 11.594 5.24 2.435-1.31 3.933 13.102 23.025m-1.121-39.685 3.93 9.172-1.685 2.245 2.809 3.93-1.124 25.273" stroke="#435C68" stroke-width=".431" stroke-linecap="round" stroke-linejoin="round"/>
  <path d="M95.13 45.972c.095 2.262.506 4.5 1.22 6.648 1.132 3.167 8.642 25.015 8.642 25.015l4.856 17.096s-.642-17.415-.659-18.151-3.68-24.912-3.68-24.912-.625-3.904-1.611-5.382c-.987-1.477-7.6-4.222-8.768-.314" fill="#1E42A2" stroke="#435C68" stroke-width=".431" stroke-linecap="round" stroke-linejoin="round"/>
  <path d="M94.665 44.283s-3.055.315-2.516 4.96c.538 4.644 1.25 7.81 1.25 7.81" stroke="#435C68" stroke-width=".862" stroke-linecap="round" stroke-linejoin="round"/>
  <path d="M93.023 63.176s1.293 5.381 2.176 6.859 3.554 2.956 5.454 2.956" stroke="#435C68" stroke-width=".431" stroke-linecap="round" stroke-linejoin="round"/>
  <path d="M97.108 61.91s1.421 6.225 1.658 7.388-.547 3.374-1.865 5.601" stroke="#435C68" stroke-width=".431" stroke-linecap="round" stroke-linejoin="round"/>
  <path d="M96.521 75.636a.586.586 0 0 1-.232-.793l.15-.275a.567.567 0 0 1 .785-.212.59.59 0 0 1 .237.793l-.151.272a.575.575 0 0 1-.789.215m4.839-2.529a.56.56 0 0 1-.363.528.6.6 0 0 1-.223.036h-.314a.59.59 0 0 1-.534-.815.56.56 0 0 1 .316-.307.6.6 0 0 1 .222-.037h.315a.596.596 0 0 1 .581.595" fill="#435C68"/>
  <path d="m93.032 63.598-.724-4.588a1.887 1.887 0 0 1 1.426-2.155v0a1.995 1.995 0 0 1 2.37 1.43l1.236 4.568" stroke="#435C68" stroke-width=".862" stroke-linecap="round" stroke-linejoin="round"/>
  <path d="M110.063 66.7c1.037-.105 1.781-1.158 1.661-2.354s-1.058-2.08-2.095-1.977c-1.037.104-1.78 1.158-1.661 2.353.12 1.196 1.058 2.081 2.095 1.977" fill="#fff" stroke="#435C68" stroke-width=".431" stroke-linecap="round" stroke-linejoin="round"/>
  <path d="M104.764 46.218s4.149 5.838 5.471 17.738" stroke="#435C68" stroke-width=".862" stroke-linecap="round" stroke-linejoin="round"/>
  <path d="M110.345 65.333c.567-.052.976-.63.915-1.292-.062-.66-.571-1.154-1.137-1.101s-.976.63-.914 1.292c.061.66.57 1.154 1.136 1.101" fill="#fff" stroke="#435C68" stroke-width=".431" stroke-linecap="round" stroke-linejoin="round"/>
  <path d="M116.41 91.414a21 21 0 0 0-.625 2.404c0 .345-.082 1.374-.888 1.142-.805-.233-.564-4.348-.461-4.804.104-.457 2.064 1.02 2.064 1.02" fill="#fff"/>
  <path d="M116.41 91.414a21 21 0 0 0-.625 2.404c0 .345-.082 1.374-.888 1.142-.805-.233-.564-4.348-.461-4.804.104-.457 2.064 1.02 2.064 1.02" stroke="#435C68" stroke-width=".431" stroke-linecap="round" stroke-linejoin="round"/>
  <path d="M90.257 87.769a5.1 5.1 0 0 0 2.335.633c1.267 0 3.58-.43 4.43-.211.848.22 3.015 2.951 3.015 2.951s.646.634.341.953c-.306.318-.931.861-1.362.525-.43-.336-2.585-2.111-2.585-2.111l-5.433 2.219-2.232-1.163z" fill="#fff" stroke="#435C68" stroke-width=".431" stroke-linecap="round" stroke-linejoin="round"/>
  <path d="M81.937 54.52s-3.58.43-4.187 1.37-10.418 22.482-10.397 23.434c.022.952 19.617 16.372 19.617 16.372l4.23-8.052-10.585-9.815 4.593-10.66" fill="#fff"/>
  <path d="M81.937 54.52s-3.58.43-4.187 1.37-10.418 22.482-10.397 23.434c.022.952 19.617 16.372 19.617 16.372l4.23-8.052-10.585-9.815 4.593-10.66m3.334 32.418 10.349.211-.052-6.437m-7.829-.633-2.735 1.02" stroke="#435C68" stroke-width=".431" stroke-linecap="round" stroke-linejoin="round"/>
  <path d="M94.13 39.742s1.177 9.186 1.952 10.556c.776 1.37 6.291 6.859 6.291 6.859s1.723-6.33 1.917-7.807.345-7.39.345-7.39l-10.526-2.955z" fill="#fff" stroke="#435C68" stroke-width=".431" stroke-linecap="round" stroke-linejoin="round"/>
  <path d="M94.13 39.742s.138 1.077.35 2.546a10.6 10.6 0 0 0 2.791 1.87c1.358.599 4.977.935 7.264.668.061-1.547.1-2.865.1-2.865l-10.526-2.956z" fill="#435C68" stroke="#435C68" stroke-width=".431" stroke-linecap="round" stroke-linejoin="round"/>
  <path d="M91.08 31.724s-1.41-1.478-2.107.207c-.698 1.684.862 4.222 1.693 4.33.493.064.995.027 1.474-.108 0 0 .59 2.43 1.133 3.167a11.06 11.06 0 0 0 3.998 3.162c1.922.862 8.354 1.168 9.169 0 .814-1.167.766-7.389.754-7.915s-.104-8.048-.104-8.048.577-2.61-.207-4.407-8.655-4.309-10.633-3.27c-1.978 1.038-4.257 2.847-4.412 5.17s-.06 6.122-.06 6.122z" fill="#fff" stroke="#435C68" stroke-width=".431" stroke-linecap="round" stroke-linejoin="round"/>
  <path d="M102.713 28.45s1.314 6.031 1.013 6.755-1.246.737-2.426.104c-1.181-.634-.565-1.478-.565-1.478m-2.598 1.585s.569 1.582 1.624 1.69 3.706.314 3.706.314m-9.1-8.76.168 2.534s.965.53 3.18.53 2.943-.53 2.943-.53l-.061-2.533s-3.214-1.9-6.23 0" stroke="#435C68" stroke-width=".431" stroke-linecap="round" stroke-linejoin="round"/>
  <path d="m102.722 28.66.801 2.642s.328.43 2.546.43 2.947-.53 2.947-.53l-.064-2.533s-3.219-1.909-6.23-.009m-2.112 0h2.112m-8.342 0-4.162 2.43m5.188-3.696s1.129-1.267 3.688-.211m4.015.211a2.59 2.59 0 0 1 2.736-.315" stroke="#435C68" stroke-width=".431" stroke-linecap="round" stroke-linejoin="round"/>
  <path d="M98.103 29.824c0 .465-.168.861-.401.861s-.431-.379-.431-.861c0-.483.168-.862.405-.862s.418.392.427.862m6.755-.108c0 .465-.168.862-.4.862-.233 0-.431-.38-.431-.862 0-.483.168-.862.401-.862.232 0 .417.397.43.862" fill="#435C68"/>
  <path d="M97.629 19.953s1.017 2.245-.246 3.063a2.56 2.56 0 0 1-2.563 0 2.835 2.835 0 0 1 .082 3.206 17.8 17.8 0 0 1-2.155 2.882s.229 2.727-.245 3.046c-.474.32-1.767-.16-1.788-.96-.022-.802-.539-2.405-.56-3.206s-.392-2.887-.392-2.887-3.24-1.443-1.521-3.205 5.368-3.206 5.368-3.206.082-3.205 2.3-4.166c2.22-.96 6.993-2.404 7.032-.801a4.9 4.9 0 0 1-.431 2.404s4.003-.16 6.795 2.585 2.697 5.29 1.254 5.29-1.913.32-1.913.32 2.761 1.602 1.34 2.404-2.887-.16-2.887-.16.612-1.12-1.189-2.585-8.281-4.024-8.281-4.024M42.959 182c12.451 0 22.546-2.276 22.546-5.084s-10.094-5.084-22.546-5.084-22.547 2.276-22.547 5.084S30.507 182 42.96 182" fill="#435C68" stroke="#435C68" stroke-width=".431" stroke-linecap="round" stroke-linejoin="round"/>
  <path d="M57.805 71.759v4.118l5.989 2.745s.625-2.745.125-7.613z" fill="#999" stroke="#435C68" stroke-width=".431" stroke-linecap="round" stroke-linejoin="round"/>
  <path d="M28.08 170.6a43 43 0 0 0-3.877 3.778c-1.723 1.943-2.06 3.878-.456 4.804 1.602.927 4.118.685 6.863-1.029 2.745-1.715 2.633-2.405 4.235-2.973s2.633-1.724 2.633-3.551c0-1.826-5.838-2.059-7.096-2.154S28.08 170.6 28.08 170.6" fill="#fff" stroke="#435C68" stroke-width=".431" stroke-linecap="round" stroke-linejoin="round"/>
  <path d="M37.465 171.629s-2.585 1.146-3.839 2.189-3.753 4.795-6.674 4.795a8.66 8.66 0 0 1-4.248-1.107 1.89 1.89 0 0 0 1.03 1.676c1.603.914 4.119.685 6.863-1.03 2.745-1.714 2.633-2.404 4.236-2.972s2.632-1.719 2.632-3.551" stroke="#435C68" stroke-width=".431" stroke-linecap="round" stroke-linejoin="round"/>
  <path d="M57.116 170.6a43 43 0 0 1 3.878 3.778c1.723 1.943 2.06 3.878.456 4.804-1.602.927-4.119.685-6.863-1.029-2.745-1.715-2.633-2.405-4.235-2.973s-2.633-1.724-2.633-3.551c0-1.826 5.838-2.059 7.096-2.154s2.301 1.125 2.301 1.125" fill="#fff" stroke="#435C68" stroke-width=".431" stroke-linecap="round" stroke-linejoin="round"/>
  <path d="M47.732 171.629s2.585 1.146 3.839 2.189 3.753 4.795 6.674 4.795a8.66 8.66 0 0 0 4.248-1.107 1.89 1.89 0 0 1-1.03 1.676c-1.603.914-4.119.685-6.863-1.03-2.745-1.714-2.633-2.404-4.236-2.972s-2.632-1.719-2.632-3.551" stroke="#435C68" stroke-width=".431" stroke-linecap="round" stroke-linejoin="round"/>
  <path d="M24.763 105.61s.685 25.744 1.03 29.522c.345 3.779 1.361 12.357 1.361 12.831s.57 19.453.57 19.453l-1.03 1.723.344 2.404 4.576.914c2.287.456 5.265 1.146 5.721.689s.573-1.374.802-2.632c.228-1.259.685-3.551.228-5.378s.573-21.283.69-21.74 2.748-19.251 2.748-19.251 1.724 15.451 2.973 20.138c1.25 4.688.802 11.672 1.258 14.417.457 2.744 1.375 12.016 1.491 12.701s.34 1.723.34 1.723 5.722-.801 6.752-1.262a22 22 0 0 1 3.205-.913s.34-6.523-.116-9.156a37 37 0 0 1-.573-5.601c0-.801.573-26.2.573-26.2l-.573-24.601s-15.446 1.602-21.396.456-10.858-1.831-10.858-1.831z" fill="#1E42A2" stroke="#435C68" stroke-width=".431" stroke-linecap="round" stroke-linejoin="round"/>
  <path d="M35.746 105.839c-5.95-1.142-10.867-1.823-10.867-1.823l-.116 1.599s.039 1.477.104 3.77c2.727.762 8.268 2.102 13.623 2.102 5.661 0 14.68-1.723 18.738-2.546l-.086-3.555s-15.446 1.599-21.396.453" fill="#435C68" stroke="#435C68" stroke-width=".431" stroke-linecap="round" stroke-linejoin="round"/>
  <path d="M55.621 163.814c.073.788.12 1.241.12 1.241m-1.873-53.404s.43 22.111.43 30.457c0 5.773.698 14.537 1.13 19.388M30.71 110.401l1.042 23.99m-.212 1.874v3.964" stroke="#435C68" stroke-width=".431" stroke-linecap="round" stroke-linejoin="round"/>
  <path d="M36.965 45.18a3.55 3.55 0 0 0-2.873 1.494 20.4 20.4 0 0 1-2.37 2.62l-10.233 5.493 1 39.061.375 13.356s7.858 2.62 15.347 2.62 20.84-3.016 20.84-3.016-1.12-52.038-.746-52.038-7.363-6.721-10.857-8.488-10.483-1.103-10.483-1.103" fill="#1E42A2" stroke="#435C68" stroke-width=".431" stroke-linecap="round" stroke-linejoin="round"/>
  <path d="M34.048 49.901s3.964 7.303 5.636 10.642c1.672 3.34 4.79 8.143 4.79 8.143l5.219-13.976M36.978 96.222l-.202-5.83L25 89.709s.117 8.582.345 9.047m11.775 1.594-.055-1.638m14.015.72-.345-9.608s4.12.34 7.553-1.948M33.424 66.929c.361 1.141 1.465 1.813 2.46 1.495.995-.32 1.5-1.504 1.133-2.646-.366-1.142-1.465-1.814-2.46-1.495-.996.319-1.5 1.504-1.133 2.645" stroke="#435C68" stroke-width=".431" stroke-linecap="round" stroke-linejoin="round"/>
  <path d="M33.54 46.937s-1.323 5.084 1.684 18.884" stroke="#435C68" stroke-width=".862" stroke-linecap="round" stroke-linejoin="round"/>
  <path d="M36.151 66.295a1.043 1.043 0 1 1-.616-1.456 1.125 1.125 0 0 1 .616 1.456" stroke="#435C68" stroke-width=".431" stroke-linecap="round" stroke-linejoin="round"/>
  <path d="M57.805 54.038s1.87 1.374 1.995 1.874 6.489 15.721 6.489 15.721l-9.233 1.362.125-8.988" fill="#1E42A2"/>
  <path d="M57.805 54.038s1.87 1.374 1.995 1.874 6.489 15.721 6.489 15.721l-9.233 1.362.125-8.988" stroke="#435C68" stroke-width=".431" stroke-linecap="round" stroke-linejoin="round"/>
  <path d="M22.739 54.287s-2.125.25-2.624 1.87S16 74.253 16 74.253l13.227-1.258-1.25-12.357" fill="#1E42A2"/>
  <path d="M22.739 54.287s-2.125.25-2.624 1.87S16 74.253 16 74.253l13.227-1.258-1.25-12.357" stroke="#435C68" stroke-width=".431" stroke-linecap="round" stroke-linejoin="round"/>
  <path d="M48.288 46.162s3.279 1.87 3.602 6.523 0 5.833 0 5.833" stroke="#435C68" stroke-width=".862" stroke-linecap="round" stroke-linejoin="round"/>
  <path d="M53.372 64.477s-.293 5.502-.892 7.092-2.969 3.472-4.847 3.774" stroke="#435C68" stroke-width=".431" stroke-linecap="round" stroke-linejoin="round"/>
  <path d="M49.128 63.883s-.263 6.346-.289 7.526c-.026 1.181 1.164 3.236 2.87 5.205" stroke="#435C68" stroke-width=".431" stroke-linecap="round" stroke-linejoin="round"/>
  <path d="m52.198 77.305.05-.04a.547.547 0 0 0 .08-.77l-.24-.298a.547.547 0 0 0-.77-.08l-.05.04a.547.547 0 0 0-.081.77l.242.298c.19.235.534.27.77.08m-5.241-1.761.012.064a.547.547 0 0 0 .64.435l.377-.071a.547.547 0 0 0 .435-.64l-.012-.063a.547.547 0 0 0-.64-.436l-.376.072a.547.547 0 0 0-.436.64" fill="#435C68"/>
  <path d="m53.437 64.895-.125-4.623a1.94 1.94 0 0 0-1.801-1.887v0a1.94 1.94 0 0 0-2.077 1.78l-.388 4.687" stroke="#435C68" stroke-width=".862" stroke-linecap="round" stroke-linejoin="round"/>
  <path d="m64.169 75.503-2.977-.625-10.483-1.745-14.7-2.8-3.486-1.539s-3.296-4.308-3.58-4.74c-.285-.43-4.012 1.074-3.878 1.647s.573 6.299.862 6.66c.288.362 3.507.358 3.507.358s15.355 7.41 15.993 7.682c8.863 3.736 13.137 3.701 14.649 3.947 1.512.245 2.499-.366 3.37-1.366.87-1 .723-7.48.723-7.48" fill="#999" stroke="#435C68" stroke-width=".431" stroke-linecap="round" stroke-linejoin="round"/>
  <path d="M28.495 63.994s-1.788.074-4.438 1.862c-.987.668-1.504 1.146-1.504 1.434.057.344.154.68.289 1a27.6 27.6 0 0 1 5.368-1.93" fill="#999"/>
  <path d="M28.495 63.994s-1.788.074-4.438 1.862c-.987.668-1.504 1.146-1.504 1.434.057.344.154.68.289 1a27.6 27.6 0 0 1 5.368-1.93" stroke="#435C68" stroke-width=".431" stroke-linecap="round" stroke-linejoin="round"/>
  <path d="M29.21 68.579s-4.864 1.215-5.653 1.361c-.788.147-.93-.646-.93-.93s.215-.72 1.072-1.147c.858-.426 5.17-1.576 5.17-1.576" fill="#999"/>
  <path d="M29.21 68.579s-4.864 1.215-5.653 1.361c-.788.147-.93-.646-.93-.93s.215-.72 1.072-1.147c.858-.426 5.17-1.576 5.17-1.576" stroke="#435C68" stroke-width=".431" stroke-linecap="round" stroke-linejoin="round"/>
  <path d="M29.714 70.798s-5.657.573-6.088.215a1.38 1.38 0 0 1-.358-1.073l5.085-1.077" fill="#999"/>
  <path d="M29.714 70.798s-5.657.573-6.088.215a1.38 1.38 0 0 1-.358-1.073l5.085-1.077" stroke="#435C68" stroke-width=".431" stroke-linecap="round" stroke-linejoin="round"/>
  <path d="m28.137 71.082-4.364.216s.21.646.43.715c1.034.255 2.088.424 3.15.504q1.046.035 2.076.215" fill="#999"/>
  <path d="m28.137 71.082-4.364.216s.21.646.43.715c1.034.255 2.088.424 3.15.504q1.046.035 2.076.215" stroke="#435C68" stroke-width=".431" stroke-linecap="round" stroke-linejoin="round"/>
  <path d="M18.745 74.003s1.994 8.617 2.494 9.238 4.619 0 8.738-1.25 21.59-8.733 21.59-8.733l2.494.495s-1-3.12-2.744-3.244-22.09 2.486-22.09 2.486zm17.458-34.317v.5c.038 1.641.198 6.855.616 8.113.5 1.495 7.238 14.101 7.755 13.102s3.62-14.602 3.62-14.602v-5.364s-1.625 1.37-4.62 1.37-7.371-3.12-7.371-3.12" fill="#999" stroke="#435C68" stroke-width=".431" stroke-linecap="round" stroke-linejoin="round"/>
  <path d="M46.198 47.08a18 18 0 0 0 2-1.422v-4.223s-1.625 1.37-4.62 1.37-7.375-3.12-7.375-3.12v.5c0 .578.043 1.6.094 2.737q.178.284.397.538c.861.995 4.989 3.494 5.989 3.744s2.39.496 3.515-.125" fill="#435C68" stroke="#435C68" stroke-width=".431" stroke-linecap="round" stroke-linejoin="round"/>
  <path d="M51.192 32.448s1.995-1.125 1.995 1c0 2.123-1.87 4.618-1.87 4.618z" fill="#999" stroke="#435C68" stroke-width=".431" stroke-linecap="round" stroke-linejoin="round"/>
  <path d="M33.346 32.573s-2.749-.75-2.749 1.749 2.5 4.115 2.5 4.115h1.722s1 2.498 1.875 3.494c.874.995 4.989 3.494 5.988 3.744s2.37.5 3.495-.125a20.8 20.8 0 0 0 3.877-3.12c.5-.62 1.375-4.864 1.375-4.864s.25-7.613-.25-10.233-3.744-6.738-8.238-7.238-8.738 3.12-9.358 5.989c-.62 2.87-.237 6.489-.237 6.489" fill="#999" stroke="#435C68" stroke-width=".431" stroke-linecap="round" stroke-linejoin="round"/>
  <path d="M41.455 34.572s-.862 1.745.624 2.244c1.487.5 3.37.375 3.744-.374.375-.75-.25-1.62-.25-1.62m-5.613 2.869s3.119 2.62 7.363.125m-5.618 2.244s2.624 1.5 4.368-.25" stroke="#435C68" stroke-width=".431" stroke-linecap="round" stroke-linejoin="round"/>
  <path d="M40.21 33.072c.345 0 .624-.447.624-1 0-.551-.28-.999-.624-.999-.345 0-.625.448-.625 1s.28 1 .625 1m6.738-1.125c0 .551-.28 1-.624 1-.345 0-.625-.431-.625-1s.28-.995.625-.995c.344 0 .624.443.624.995" fill="#435C68"/>
  <path d="M38.46 30.703s.625-1 3.016-.625m3.848.125s1.124-1.75 2.874 0" stroke="#435C68" stroke-width=".431" stroke-linecap="round" stroke-linejoin="round"/>
  <path d="M51.192 27.325a7 7 0 0 0-.832-2.103 7.8 7.8 0 0 0-.15 2.103c.18.913.822 2.189.822 2.826 0 .638-.094 3.193.362 2.83a.6.6 0 0 0 .108-.163 38 38 0 0 0-.31-5.493m-6.273-5.17a18 18 0 0 0 2.387-.289 9.1 9.1 0 0 0-4.352-1.75c-4.494-.5-8.738 3.12-9.358 5.99s-.25 6.488-.25 6.488.991.69 1.357-.039c.366-.728 0-1.917.366-3.192.367-1.276.91-1.918 1-2.921.09-1.004-.547-2.46-.18-3.283.365-.823 2.644-2.37 4.105-1.823 1.572.595 3.245.873 4.925.819" fill="#435C68" stroke="#435C68" stroke-width=".431" stroke-linecap="round" stroke-linejoin="round"/>
  <circle cx="9.342" cy="9.342" r="9.342" transform="matrix(1 0 0 -1 174.798 45.498)" fill="#ECF6FC"/>
  <circle cx="4.152" cy="4.152" r="4.152" transform="matrix(1 0 0 -1 170.261 27.352)" fill="#ECF6FC"/>
</svg>
