<svg width="208" height="208" viewBox="0 0 208 208" fill="none" xmlns="http://www.w3.org/2000/svg">
  <path d="M191.044 57.208c-1.003-7.804-2.958-15.288-7.072-22.106-7.588-12.667-21.316-20.321-35.198-24.203-11.648-3.253-24.195-4.193-35.814-.832-12.754 3.69-23.458 12.185-34.943 18.845a182 182 0 0 1-26.25 12.339c-7.313 2.8-16.607 4.368-22.618 9.684a60.3 60.3 0 0 0-9.714 11.086C8.212 78.374 4.575 99.266 6.29 118.768c1.21 13.587 4.946 27.335 13.312 38.097 11.76 15.105 31.949 22.547 50.997 20.671 21.632-2.13 42.12-15.055 63.619-11.951 10.704 1.543 20.946 7.043 31.712 6.019 10.612-1.007 19.693-8.32 26.095-16.827 5.134-6.835 8.549-15.101 8.865-23.712.346-9.314-3.873-17.809-5.99-26.703-3.682-15.546-1.839-31.45-3.856-47.154" fill="#E75959" fill-opacity=".1"/>
  <path d="M108.059 16.385a11 11 0 0 0-1.595-.307M105.148 16a11.237 11.237 0 1 0 4.186.82m-7.379 9.356 6.969 8.158a8.048 8.048 0 0 1-10.25-11.947l2.374 2.772.874 1.017m6.457 2.664-7.281-8.568a7.94 7.94 0 0 1 4.05-1.107 8.05 8.05 0 0 1 7.268 4.586 8.04 8.04 0 0 1-1.016 8.533l-.971-1.136zM57.69 56.776l.63-.632m-7.839 4.32-6.03-6.03-4.998 4.997 6.03 6.03-6.03 6.032 4.998 4.997 6.03-6.03 6.031 6.03 4.998-4.997-6.031-6.031 6.03-6.03-4.997-4.998-3.3 3.3m103.482 24.858-6.03-6.031-4.998 4.998 6.031 6.03-6.031 6.031 4.998 4.998 6.03-6.031 6.031 6.03 4.998-4.997-6.031-6.03 6.031-6.031-4.998-4.998-3.3 3.3" stroke="#263238" stroke-width=".41" stroke-miterlimit="10"/>
  <path d="M40 156.699 61.187 128c3.637-9.019 3.17-14.16 4.125-23.171.82-7.913 2.984-14.456 3.202-17.19.078-.964.86-12.554.877-13.53.029-1.274 1.64-4.292 1.943-5.534 2.46-10.479 4.395-12.05 7.146-10.463.41.234 4.797 2.296 1.517 14.206-.75 2.73.131 20.01.131 20.01l44.839-18.087v44.72l-19.777 22.81a32.1 32.1 0 0 1-11.07 7.757c-1.906.82-4.177 1.025-4.329 1.169-1.127 1.074-13.603 19.125-20.24 28.776-10.975-7.569-21.048-15.157-29.551-22.774" fill="#fff"/>
  <path d="m80.129 92.325-.53.213s-1.053-17.494-.303-20.224c1.812-6.588 1.497-10.16.78-12.078-.169 2.87-.882 10.975-3.69 14.35 4.317 6.067 1.976 17.767.516 20.088 0 0 1.87 14.505 5.572 24.598-1.39-.549-2.837-.631-3.662.562-1.672 2.415.53 8.101 1.288 10.528l2.46 7.851a112.5 112.5 0 0 1 14.722-.82l-.135.057c-7.04 2.731-14.98 3.805-22.164 1.497-1.14-1.078-2.275-2.28-2.34-2.304-1.907-.628-1.23 2.46-1.706 3.903-.644 2.05-1.783 3.911-2.91 5.739l-11.44 18.609c9.96-10.401 14.268-17.588 20.459-24.057l1.779 1.57h-.041c-1.517.262-2.202 3.39-2.747 4.604a237 237 0 0 1-5.625 11.701l5.896-7.7c1.693-2.218 3.69-4.596 6.317-5.256l1.23 1.083c.435.385.877.77 1.328 1.144-1.963 2.049-10.015 16.054-19.35 28.566l3.767 2.903c6.638-9.651 19.113-27.702 20.24-28.776q.4-.147.82-.201l.025-.049h.205a17.4 17.4 0 0 0 3.28-.922 32.1 32.1 0 0 0 11.069-7.757l11.344-13.119c.714-1.316.947-2.632-1.148-1.579-.364.185-.717.41-1.074.603a3 3 0 0 0-.381-.344c-.886-.632-2.05-.677-3.14-.619-3.518.192-6.937 1.23-10.434 1.639s-7.302.144-10.118-1.976c-1.62-1.23-2.768-2.939-4.137-4.444a161.5 161.5 0 0 0 2.357-32.97l-8.38 3.383z" fill="#E75959"/>
  <path opacity=".5" d="m80.129 92.325-.53.213s-1.053-17.494-.303-20.224c1.812-6.588 1.497-10.16.78-12.078-.169 2.87-.882 10.975-3.69 14.35 4.317 6.067 1.976 17.767.516 20.088 0 0 1.87 14.505 5.572 24.598-1.39-.549-2.837-.631-3.662.562-1.672 2.415.53 8.101 1.288 10.528l2.46 7.851a112.5 112.5 0 0 1 14.722-.82l-.135.057c-7.04 2.731-14.98 3.805-22.164 1.497-1.14-1.078-2.275-2.28-2.34-2.304-1.907-.628-1.23 2.46-1.706 3.903-.644 2.05-1.783 3.911-2.91 5.739l-11.44 18.609c9.96-10.401 14.268-17.588 20.459-24.057l1.779 1.57h-.041c-1.517.262-2.202 3.39-2.747 4.604a237 237 0 0 1-5.625 11.701l5.896-7.7c1.693-2.218 3.69-4.596 6.317-5.256l1.23 1.083c.435.385.877.77 1.328 1.144-1.963 2.049-10.015 16.054-19.35 28.566l3.767 2.903c6.638-9.651 19.113-27.702 20.24-28.776q.4-.147.82-.201l.025-.049h.205a17.4 17.4 0 0 0 3.28-.922 32.1 32.1 0 0 0 11.069-7.757l11.344-13.119c.714-1.316.947-2.632-1.148-1.579-.364.185-.717.41-1.074.603a3 3 0 0 0-.381-.344c-.886-.632-2.05-.677-3.14-.619-3.518.192-6.937 1.23-10.434 1.639s-7.302.144-10.118-1.976c-1.62-1.23-2.768-2.939-4.137-4.444a161.5 161.5 0 0 0 2.357-32.97l-8.38 3.383z" fill="#fff"/>
  <path d="M40 156.699 61.187 128c3.637-9.019 3.17-14.16 4.125-23.171.82-7.913 2.984-14.456 3.202-17.19.078-.964.86-12.554.877-13.53.029-1.274 1.64-4.292 1.943-5.534 2.46-10.479 4.395-12.05 7.146-10.463.41.234 4.797 2.296 1.517 14.206-.75 2.73.131 20.01.131 20.01l44.839-18.087v44.72l-19.777 22.81a32.1 32.1 0 0 1-11.07 7.757c-1.906.82-4.177 1.025-4.329 1.169-1.127 1.074-13.603 19.125-20.24 28.776" stroke="#263238" stroke-width=".41" stroke-miterlimit="10"/>
  <path d="M128.879 73.343q.66-.308 1.353-.541c1.639-.554 3.948-.82 5.378.18 1.603 1.099 2.526 4.965-1.172 7.65a31 31 0 0 1-7.22 3.969 4.15 4.15 0 0 1-3.53-.189c-.647-.36-1.197-.894-1.23-1.668-.159-4.51 2.329-7.495 6.421-9.401" fill="#fff"/>
  <path d="M135.199 75.22c-1.553-3.82-6.58-2.787-7.621.755-.508 1.734-.258 3.591 0 5.379.135.943.41 2.05 1.275 2.394q.103.034.209.057a33 33 0 0 0 4.186-2.324 8.5 8.5 0 0 0 1.369-1.673c.837-1.365 1.181-3.107.582-4.587" fill="#E75959"/>
  <path opacity=".5" d="M135.199 75.22c-1.553-3.82-6.58-2.787-7.621.755-.508 1.734-.258 3.591 0 5.379.135.943.41 2.05 1.275 2.394q.103.034.209.057a33 33 0 0 0 4.186-2.324 8.5 8.5 0 0 0 1.369-1.673c.837-1.365 1.181-3.107.582-4.587" fill="#fff"/>
  <path d="M128.879 73.343q.66-.308 1.353-.541c1.639-.554 3.948-.82 5.378.18 1.603 1.099 2.526 4.965-1.172 7.65a31 31 0 0 1-7.22 3.969 4.15 4.15 0 0 1-3.53-.189c-.647-.36-1.197-.894-1.23-1.668-.159-4.51 2.329-7.495 6.421-9.401Zm-.583 20.887-6.526 3.28V87.508l7.961-3.69s-4.054 5.486-1.435 10.414Zm-2.226 3.806-4.3 2.386v11.18l7.055-2.604.906-10.274s-1.099-.471-3.661-.688Z" stroke="#263238" stroke-width=".41" stroke-miterlimit="10"/>
  <path d="M129.141 47.474v80.248a6.043 6.043 0 0 1-6.023 6.039H86.221a6.045 6.045 0 0 1-6.039-6.039V47.474a6.04 6.04 0 0 1 6.038-6.04h36.898q.66 0 1.304.144a6.036 6.036 0 0 1 4.719 5.896" fill="#E75959"/>
  <path d="M120.621 43.858h-31.9a6.04 6.04 0 0 0-6.04 6.039v75.34a6.04 6.04 0 0 0 6.04 6.039h31.9a6.04 6.04 0 0 0 6.038-6.039v-75.34a6.04 6.04 0 0 0-6.038-6.04" fill="#fff"/>
  <path d="M93.455 43.858h23.438v.684a4.405 4.405 0 0 1-4.407 4.407H97.862a4.407 4.407 0 0 1-4.407-4.407z" fill="#E75959"/>
  <path d="M97.491 47.347a1.136 1.136 0 1 0 0-2.272 1.136 1.136 0 0 0 0 2.272Zm10.863-2.047h-6.359a.98.98 0 0 0-.979.98v.308c0 .541.438.98.979.98h6.359a.98.98 0 0 0 .98-.98v-.307a.98.98 0 0 0-.98-.98Z" fill="#fff" stroke="#263238" stroke-width=".41" stroke-miterlimit="10"/>
  <path d="M105.054 97.58c6.364 0 11.524-5.16 11.524-11.524 0-6.365-5.16-11.524-11.524-11.524-6.365 0-11.525 5.16-11.525 11.524 0 6.365 5.16 11.524 11.525 11.524" fill="#E75959"/>
  <path d="M108.599 78.949a1 1 0 0 1 1.414 0l2.075 2.075a1 1 0 0 1 0 1.414l-2.796 2.796a1 1 0 0 0 0 1.415l2.796 2.796a1 1 0 0 1 0 1.414l-2.075 2.075a1 1 0 0 1-1.414 0l-2.796-2.797a1 1 0 0 0-1.414 0l-2.797 2.797a1 1 0 0 1-1.414 0l-2.074-2.075a1 1 0 0 1 0-1.414l2.796-2.796a1 1 0 0 0 0-1.415l-2.796-2.796a1 1 0 0 1 0-1.414l2.075-2.075a1 1 0 0 1 1.413 0l2.797 2.793a1 1 0 0 0 1.414 0z" fill="#fff"/>
  <path opacity=".2" d="M129.14 102.992v9.282l-2.477 3.038-13.02 15.964-2.026 2.485h-8.031l2.062-2.485 21.015-25.303z" fill="#fff"/>
  <path d="M126.328 89.315a4.83 4.83 0 0 0 1.083 3.915 6.68 6.68 0 0 0 3.972 2.215c1.21.209 2.632.057 3.416-.755.684-.705.709-1.701.696-2.611-.02-2.23-.594-5.285-3.661-5.978-2.521-.574-5.137 1.148-5.506 3.214" fill="#fff"/>
  <path d="M126.323 88.635a4.73 4.73 0 0 0 1.16 4.428 7.26 7.26 0 0 0 4.194 2.115c.344-.664-.189-1.414-.59-2.05a6.4 6.4 0 0 1-.988-3.76c.032-.594.262-1.307.848-1.422.521-.102 1.001.373 1.156.882q.153.781.16 1.578a1.48 1.48 0 0 0 .82 1.28 8.5 8.5 0 0 0-.41-3.555c-1.279-3.034-5.456-2.55-6.35.504" fill="#E75959"/>
  <path opacity=".5" d="M126.323 88.635a4.73 4.73 0 0 0 1.16 4.428 7.26 7.26 0 0 0 4.194 2.115c.344-.664-.189-1.414-.59-2.05a6.4 6.4 0 0 1-.988-3.76c.032-.594.262-1.307.848-1.422.521-.102 1.001.373 1.156.882q.153.781.16 1.578a1.48 1.48 0 0 0 .82 1.28 8.5 8.5 0 0 0-.41-3.555c-1.279-3.034-5.456-2.55-6.35.504" fill="#fff"/>
  <path d="M126.328 89.315a4.83 4.83 0 0 0 1.083 3.915 6.68 6.68 0 0 0 3.972 2.215c1.21.209 2.632.057 3.416-.755.684-.705.709-1.701.696-2.611-.02-2.23-.594-5.285-3.661-5.978-2.521-.574-5.137 1.148-5.506 3.214Z" stroke="#263238" stroke-width=".41" stroke-miterlimit="10"/>
  <path d="m128.935 114.992-4.53 3.427s-2.813 4.592 2.64 5.781l4.682-1.349a5.36 5.36 0 0 0 3.956-4.993c.029-2.202-1.295-4.53-6.719-5.055z" fill="#fff"/>
  <path d="M127.902 116.919c.042.378.174.741.386 1.058a15 15 0 0 1 1.722 5.506c-.152-1.39.619-3.186.578-4.678-.041-1.493-.181-3.448-.964-4.723-.451.754-1.734 1.902-1.722 2.837" fill="#E75959"/>
  <path opacity=".5" d="M127.902 116.919c.042.378.174.741.386 1.058a15 15 0 0 1 1.722 5.506c-.152-1.39.619-3.186.578-4.678-.041-1.493-.181-3.448-.964-4.723-.451.754-1.734 1.902-1.722 2.837" fill="#fff"/>
  <path d="m128.935 114.992-4.53 3.427s-2.813 4.592 2.64 5.781l4.682-1.349a5.36 5.36 0 0 0 3.956-4.993c.029-2.202-1.295-4.53-6.719-5.055z" stroke="#263238" stroke-width=".41" stroke-miterlimit="10"/>
  <path d="m127.307 101.57-4.19 4.509s-2.148 5.457 3.923 5.695l4.744-2.317a8.25 8.25 0 0 0 4.587-5.94c.451-2.624-.541-5.285-6.785-4.797z" fill="#fff"/>
  <path d="M127.603 111.265c.41.361 1.115.103 1.39-.373.229-.501.29-1.064.172-1.603-.103-.82-1.152-6.424-2.427-5.739-.751.41.717 6.711.865 7.715" fill="#E75959"/>
  <path opacity=".5" d="M127.603 111.265c.41.361 1.115.103 1.39-.373.229-.501.29-1.064.172-1.603-.103-.82-1.152-6.424-2.427-5.739-.751.41.717 6.711.865 7.715" fill="#fff"/>
  <path d="m127.307 101.57-4.19 4.509s-2.148 5.457 3.923 5.695l4.744-2.317a8.25 8.25 0 0 0 4.587-5.94c.451-2.624-.541-5.285-6.785-4.797z" stroke="#263238" stroke-width=".41" stroke-miterlimit="10"/>
  <path d="M127.012 104.899a2.265 2.265 0 0 0-1.859 2.028 2.266 2.266 0 0 0 2.442 2.455 2.3 2.3 0 0 0 .934-.289" stroke="#263238" stroke-width=".41" stroke-miterlimit="10"/>
  <path d="M128.414 118.571c-1.299-.209-2.546 1.23-2.144 2.497s2.263 1.705 3.198.779" fill="#fff"/>
  <path d="M128.414 118.571c-1.299-.209-2.546 1.23-2.144 2.497s2.263 1.705 3.198.779M74.43 74.602a8.07 8.07 0 0 0 5.563-1.677m-.743 20.543a9.2 9.2 0 0 1-5.662 2.05m11.402 37.894a12.4 12.4 0 0 1-4.972 6.314" stroke="#263238" stroke-width=".41" stroke-miterlimit="10"/>
  <path d="m133.15 200.529-1.14-4.44c-8.372-8.61-23.746-16.506-25.078-28.444-1.722-15.329-4.079-14.706-4.079-18.519a46 46 0 0 0 2.357-5.805c.41-1.258.632-3.107.861-4.624a3.115 3.115 0 0 1 3.28-2.661 5.26 5.26 0 0 1 2.98 1.164c1.554 1.316 2.341 3.362 2.534 5.391s-.119 4.067-.451 6.08c1.64 3.108 2.579 6.97 3.28 10.401.721-2.87 1.845-11.663-1.107-17.567-4.965-9.946-10.401-19.49-14.681-32.109a7.4 7.4 0 0 1-.164-3.62c.996-3.76 4.837-3.165 6.629-1.136a7 7 0 0 1 1.148 1.792c2.05 4.46 6.244 11.27 9.208 15.169l10.216 13.529 1.23-.959s.554-16.809.279-17.076c-.274-.266-1.923-11.016-1.923-11.016s-.902-2-2-4.555a5.5 5.5 0 0 1 0-4.55c1.918-3.92 5.92-2.095 6.74 0s3.279 6.194 3.279 6.194l4.563 12.48c-.172 2.821 1.448 16.76 1.448 16.76l1.64-.751 2.644-8.199-1.997-8.359s-4.37-4.822-3.64-7.65 4.46-2.001 4.46-2.001l7.466 8.921h2.193l5.19 6.559a41.7 41.7 0 0 1 2.112 13.091 41.2 41.2 0 0 1-.923 8.691l-1.189 5.543v35.803s3.551 5.74 3.551 6.281c0 .111.742 2.16 1.742 4.891-10.45 4.227-21.372 5.85-32.658 5.301" fill="#fff"/>
  <path d="M110.043 144.297c.447.512.218 1.549-.463 1.566a4.51 4.51 0 0 0-5.018 1.64c-.164.233-.459.516-.681.336-.143-.119-.11-.345-.065-.525q.099-.369.193-.738c.356-.853.766-1.923 1.201-3.243.09-.262.164-.557.238-.865.135.373.388.691.721.906.578.361 1.308.324 1.988.328.681.004 1.431.095 1.886.595m2.948 17.477c.102-.185.189-.373.275-.566a.64.64 0 0 0-.275.566m4.698-2.702c-.697-3.448-1.64-7.293-3.279-10.401.332-2.013.651-4.05.45-6.08-.2-2.029-.979-4.075-2.533-5.391a5.24 5.24 0 0 0-2.981-1.164 3 3 0 0 0-.82.053c-1.373.541-2.213 1.742-1.266 3.583a2.484 2.484 0 0 0 3.087 1.152 2.24 2.24 0 0 0 1.049-3.042 10.8 10.8 0 0 1 1.661 6.213 10.8 10.8 0 0 1-2.169 6.054c3.083 2.673 4.063 7.461 2.374 11.159a1.23 1.23 0 0 1 1.385 0c.591.443.787 1.23 1.074 1.902.287.673.845 1.39 1.583 1.341.734-1.8.758-3.776.463-5.74a4 4 0 0 1-.078.361m15.091-45.454c.021.14.033.279.05.41a.63.63 0 0 0-.05-.41m-24.778-5.592a25.65 25.65 0 0 1 5.653 16.334c1.189-.935 2.813.36 3.743 1.553a276 276 0 0 1 15.989 22.824c-.955-3.481-.98-7.171-2.013-10.627a27 27 0 0 0-1.463-3.71l-.956.742-10.216-13.529c-2.964-3.911-7.158-10.721-9.208-15.169a7 7 0 0 0-1.148-1.792 4.9 4.9 0 0 0-1.714-1.23c-.611 1.325.5 3.325-.82 4.567.332 0 1.976-.176 2.153.037m34.519 24.058c-.242-2.116-1.566-13.866-1.41-16.432l-4.563-12.48s-2.46-4.1-3.28-6.194a3 3 0 0 0-.266-.509 1.6 1.6 0 0 0-.529-.356c-1.943-.701-.631 1.82-.886 3.09a24.63 24.63 0 0 1 5.113 14.424 3.74 3.74 0 0 0-3.116 3.898c.176-1.229 1.98-1.574 2.968-.819.988.754 1.328 2.049 1.55 3.279 1.308 7.212.316 14.628.84 21.938.197 2.759 2.538 8.782 4.1 21.384-.41-9.167 0-18.904-.41-28.067a233 233 0 0 0-.111-3.156m21.536 58.253c0-.546-3.55-6.281-3.55-6.281v-29.6a40 40 0 0 0-2.013-4.6.12.12 0 0 0-.053-.05.13.13 0 0 0-.072-.009.13.13 0 0 0-.065.035.1.1 0 0 0-.031.065c-.345 2.87-1.464 2.173-3.227-.131 0 0-2.607 1.758-2.62 1.742-.881-1.189-1.258-2.632-1.467-4.1q.043-.097.094-.201l.143-.295c.05-.098.136-.287.205-.434l.144-.308.209-.455.139-.307q.109-.241.218-.488c.041-.099.086-.193.127-.291.082-.189.164-.373.242-.562l.098-.229v-.037q.048-.111.09-.222c.09-.213.181-.41.267-.643l.135-.333q.116-.284.225-.561l.14-.369c.07-.176.139-.357.205-.533l.135-.373q.097-.257.189-.521c.061-.176.09-.246.131-.365l.078-.221a9.23 9.23 0 0 0 2.632 6.002 28.8 28.8 0 0 1 .41-8.04c.176-.881.209-3.952.898-4.509.688-.558 1.935-.537 2.308.278a1.93 1.93 0 0 0-.918-1.445 1.91 1.91 0 0 0-1.706-.141c.877-.41-.349-4.92-.558-5.793-.131-.549-.467-2.05-.922-3.55a5.5 5.5 0 0 1 1.751-1.567 2.38 2.38 0 0 1 2.427.119v-.045l-.283-.361a29 29 0 0 1-1.493-1.881l-3.415-4.321h-1.64l-.041.045c-.356.57.164 1.59.332 2.127q.155.486.304.972a25 25 0 0 0-1.685-3.776l-6.4-7.695a4.4 4.4 0 0 0-.705-.373c-1.64-.664-3.854.758-3.472 2.689a2.07 2.07 0 0 1 1.683-2.174 2.07 2.07 0 0 1 2.363 1.408 1.7 1.7 0 0 0-1.714 1.709l2.128-.82c.291 2.104 1.689 3.866 3.075 5.473 1.386 1.608 1.496 2.69 2.005 4.748s1.033 5.215-.992 5.854c.897-.18 1.762.603 2.012 1.484.251.882.058 1.825-.127 2.723a119 119 0 0 0-2.283 17.809 15 15 0 0 0-1.456 3.886l.283 14.288a12 12 0 0 0 2.817-4.551 1.19 1.19 0 0 1 2.316.41c0 .205 0 .41-.033.611l-1.193 20.191 4.551-17.186c.82 5.059-1.369 19.314-2.911 24.189 3.743.619 5.121 5.256 5.248 9.06a55 55 0 0 0 6.031-2.271c-1.001-2.739-1.743-4.789-1.743-4.899m-30.813 2.869a9.9 9.9 0 0 0-2.407-2.382 13.55 13.55 0 0 0-7.789-2.5l2.361 1.906c.094.045.189.086.275.135 1.484.82 2.837 2.136 3.972 3.374q.161.178.341.41c.709.652 1.389 1.3 2.025 1.956l.82 3.157c.184.43.361.865.525 1.291q.676.033 1.353.049c.114-2.05.061-4.206-.456-5.522a8.2 8.2 0 0 0-1.02-1.89z" fill="#E75959"/>
  <path opacity=".5" d="M110.043 144.297c.447.512.218 1.549-.463 1.566a4.51 4.51 0 0 0-5.018 1.64c-.164.233-.459.516-.681.336-.143-.119-.11-.345-.065-.525q.099-.369.193-.738c.356-.853.766-1.923 1.201-3.243.09-.262.164-.557.238-.865.135.373.388.691.721.906.578.361 1.308.324 1.988.328.681.004 1.431.095 1.886.595m2.948 17.477c.102-.185.189-.373.275-.566a.64.64 0 0 0-.275.566m4.698-2.702c-.697-3.448-1.64-7.293-3.279-10.401.332-2.013.651-4.05.45-6.08-.2-2.029-.979-4.075-2.533-5.391a5.24 5.24 0 0 0-2.981-1.164 3 3 0 0 0-.82.053c-1.373.541-2.213 1.742-1.266 3.583a2.484 2.484 0 0 0 3.087 1.152 2.24 2.24 0 0 0 1.049-3.042 10.8 10.8 0 0 1 1.661 6.213 10.8 10.8 0 0 1-2.169 6.054c3.083 2.673 4.063 7.461 2.374 11.159a1.23 1.23 0 0 1 1.385 0c.591.443.787 1.23 1.074 1.902.287.673.845 1.39 1.583 1.341.734-1.8.758-3.776.463-5.74a4 4 0 0 1-.078.361m15.091-45.454c.021.14.033.279.05.41a.63.63 0 0 0-.05-.41m-24.778-5.592a25.65 25.65 0 0 1 5.653 16.334c1.189-.935 2.813.36 3.743 1.553a276 276 0 0 1 15.989 22.824c-.955-3.481-.98-7.171-2.013-10.627a27 27 0 0 0-1.463-3.71l-.956.742-10.216-13.529c-2.964-3.911-7.158-10.721-9.208-15.169a7 7 0 0 0-1.148-1.792 4.9 4.9 0 0 0-1.714-1.23c-.611 1.325.5 3.325-.82 4.567.332 0 1.976-.176 2.153.037m34.519 24.058c-.242-2.116-1.566-13.866-1.41-16.432l-4.563-12.48s-2.46-4.1-3.28-6.194a3 3 0 0 0-.266-.509 1.6 1.6 0 0 0-.529-.356c-1.943-.701-.631 1.82-.886 3.09a24.63 24.63 0 0 1 5.113 14.424 3.74 3.74 0 0 0-3.116 3.898c.176-1.229 1.98-1.574 2.968-.819.988.754 1.328 2.049 1.55 3.279 1.308 7.212.316 14.628.84 21.938.197 2.759 2.538 8.782 4.1 21.384-.41-9.167 0-18.904-.41-28.067a233 233 0 0 0-.111-3.156m21.536 58.253c0-.546-3.55-6.281-3.55-6.281v-29.6a40 40 0 0 0-2.013-4.6.12.12 0 0 0-.053-.05.13.13 0 0 0-.072-.009.13.13 0 0 0-.065.035.1.1 0 0 0-.031.065c-.345 2.87-1.464 2.173-3.227-.131 0 0-2.607 1.758-2.62 1.742-.881-1.189-1.258-2.632-1.467-4.1q.043-.097.094-.201l.143-.295c.05-.098.136-.287.205-.434l.144-.308.209-.455.139-.307q.109-.241.218-.488c.041-.099.086-.193.127-.291.082-.189.164-.373.242-.562l.098-.229v-.037q.048-.111.09-.222c.09-.213.181-.41.267-.643l.135-.333q.116-.284.225-.561l.14-.369c.07-.176.139-.357.205-.533l.135-.373q.097-.257.189-.521c.061-.176.09-.246.131-.365l.078-.221a9.23 9.23 0 0 0 2.632 6.002 28.8 28.8 0 0 1 .41-8.04c.176-.881.209-3.952.898-4.509.688-.558 1.935-.537 2.308.278a1.93 1.93 0 0 0-.918-1.445 1.91 1.91 0 0 0-1.706-.141c.877-.41-.349-4.92-.558-5.793-.131-.549-.467-2.05-.922-3.55a5.5 5.5 0 0 1 1.751-1.567 2.38 2.38 0 0 1 2.427.119v-.045l-.283-.361a29 29 0 0 1-1.493-1.881l-3.415-4.321h-1.64l-.041.045c-.356.57.164 1.59.332 2.127q.155.486.304.972a25 25 0 0 0-1.685-3.776l-6.4-7.695a4.4 4.4 0 0 0-.705-.373c-1.64-.664-3.854.758-3.472 2.689a2.07 2.07 0 0 1 1.683-2.174 2.07 2.07 0 0 1 2.363 1.408 1.7 1.7 0 0 0-1.714 1.709l2.128-.82c.291 2.104 1.689 3.866 3.075 5.473 1.386 1.608 1.496 2.69 2.005 4.748s1.033 5.215-.992 5.854c.897-.18 1.762.603 2.012 1.484.251.882.058 1.825-.127 2.723a119 119 0 0 0-2.283 17.809 15 15 0 0 0-1.456 3.886l.283 14.288a12 12 0 0 0 2.817-4.551 1.19 1.19 0 0 1 2.316.41c0 .205 0 .41-.033.611l-1.193 20.191 4.551-17.186c.82 5.059-1.369 19.314-2.911 24.189 3.743.619 5.121 5.256 5.248 9.06a55 55 0 0 0 6.031-2.271c-1.001-2.739-1.743-4.789-1.743-4.899m-30.813 2.869a9.9 9.9 0 0 0-2.407-2.382 13.55 13.55 0 0 0-7.789-2.5l2.361 1.906c.094.045.189.086.275.135 1.484.82 2.837 2.136 3.972 3.374q.161.178.341.41c.709.652 1.389 1.3 2.025 1.956l.82 3.157c.184.43.361.865.525 1.291q.676.033 1.353.049c.114-2.05.061-4.206-.456-5.522a8.2 8.2 0 0 0-1.02-1.89z" fill="#fff"/>
  <path d="m133.15 200.529-1.14-4.44c-8.372-8.61-23.746-16.506-25.078-28.444-1.722-15.329-4.079-14.706-4.079-18.519a46 46 0 0 0 2.357-5.805c.41-1.258.632-3.107.861-4.624a3.115 3.115 0 0 1 3.28-2.661 5.26 5.26 0 0 1 2.98 1.164c1.554 1.316 2.341 3.362 2.534 5.391s-.119 4.067-.451 6.08c1.64 3.108 2.579 6.97 3.28 10.401.721-2.87 1.845-11.663-1.107-17.567-4.965-9.946-10.401-19.49-14.681-32.109a7.4 7.4 0 0 1-.164-3.62c.996-3.76 4.837-3.165 6.629-1.136a7 7 0 0 1 1.148 1.792c2.05 4.46 6.244 11.27 9.208 15.169l10.216 13.529 1.23-.959s.554-16.809.279-17.076c-.274-.266-1.923-11.016-1.923-11.016s-.902-2-2-4.555a5.5 5.5 0 0 1 0-4.55c1.918-3.92 5.92-2.095 6.74 0s3.279 6.194 3.279 6.194l4.563 12.48c-.172 2.821 1.448 16.76 1.448 16.76l1.64-.751 2.644-8.199-1.997-8.359s-4.37-4.822-3.64-7.65 4.46-2.001 4.46-2.001l7.466 8.921h2.193l5.19 6.559a41.7 41.7 0 0 1 2.112 13.091 41.2 41.2 0 0 1-.923 8.691l-1.189 5.543v35.803s3.551 5.74 3.551 6.281c0 .111.742 2.16 1.742 4.891" stroke="#263238" stroke-width=".41" stroke-miterlimit="10"/>
  <path d="M112.918 124.938a6.25 6.25 0 0 1 5.301-1.997m-8.704-15.12a5.7 5.7 0 0 0-2.252.072 5.7 5.7 0 0 0-2.049.937s-2.152-2.148-1.693-3.903m53.084 40.874c-1.189-1.832-2.336-4.349-2.021-6.506.623-4.231 2.55-9.097 1.685-13.283q-.82-4.01-1.664-8.019m-21.038-17.526a2.75 2.75 0 0 1-3.974-.843 2.75 2.75 0 0 1-.375-1.457m1.176 28.37c-.098 1.443.094 8.232 0 9.675m8.508 2.714c1.878 2.05 1.603 6.998.279 9.717m-14.785-3.973a12.25 12.25 0 0 0 4.42 4.805m22.128-7.515a8.8 8.8 0 0 1-1.288 6.006m9.278.426a7.3 7.3 0 0 1-1.329 4.6m-9.626-44.314a2.75 2.75 0 0 0-3.013.48l-1.062-1.402M139.14 115a3.56 3.56 0 0 0-4.542.775" stroke="#263238" stroke-width=".41" stroke-miterlimit="10"/>
  <path d="M156.055 126.537a4.67 4.67 0 0 0-4.51-2.239m10.286 10.479a2.46 2.46 0 0 0-2.05-2.292m-42.139 27.276-1.841.82m2.315.66a10.7 10.7 0 0 0-.02 4.321m-12.07-18.617a10.9 10.9 0 0 0-2.505 2.817m2.956-8.425c1.348-.964 3.501 1.197 4.743.094.492-.439.533-1.201.41-1.849s-.344-1.304-.25-1.96m23.808 23.98c.036.688.061 1.377.065 2.05m-2.001-13.833a54.7 54.7 0 0 1 1.705 9.093m-4.078-14.98a59 59 0 0 1 1.861 4.711" stroke="#263238" stroke-width=".41" stroke-miterlimit="10"/>
  <circle cx="9" cy="9" r="9" transform="matrix(-1 0 0 1 68 16)" fill="#E75959" fill-opacity=".1"/>
  <circle cx="3.661" cy="3.661" r="3.661" transform="matrix(-1 0 0 1 50.32 30)" fill="#E75959" fill-opacity=".1"/>
</svg>
