<svg width="208" height="208" viewBox="0 0 208 208" fill="none" xmlns="http://www.w3.org/2000/svg">
  <g clip-path="url(#a)">
    <path d="M13.478 108.325c-9.127-20.62-8.619-44.353 1.78-64.356 5.122-9.83 13.109-20.102 25.598-27.76 35.023-21.479 62.418-20.413 82.027-.98 19.609 19.43 53.704 4.359 71.919 42.77s4.704 91.15-40.872 108.063c-45.576 16.914-46.83-8.007-75.274-9.974-21.754-1.498-51.574-16.992-65.178-47.763" fill="#ECF6FC"/>
    <circle cx="9" cy="9" r="9" transform="matrix(-1 0 0 1 151 2)" fill="#ECF6FC"/>
    <circle cx="3.661" cy="3.661" r="3.661" transform="matrix(-1 0 0 1 160.321 14)" fill="#ECF6FC"/>
    <path opacity=".8" d="M26.5 181c6.904 0 12.5-1.119 12.5-2.5s-5.596-2.5-12.5-2.5-12.5 1.119-12.5 2.5 5.596 2.5 12.5 2.5m32.5-4c6.075 0 11-1.119 11-2.5s-4.925-2.5-11-2.5-11 1.119-11 2.5 4.925 2.5 11 2.5m69 0c24.853 0 45-1.343 45-3s-20.147-3-45-3-45 1.343-45 3 20.147 3 45 3" fill="#ECF6FC"/>
    <path d="M159.205 35.091h-53.338a3.954 3.954 0 0 0-3.953 3.954v130.889a3.954 3.954 0 0 0 3.953 3.954h53.338a3.954 3.954 0 0 0 3.954-3.954V39.045a3.954 3.954 0 0 0-3.954-3.954" fill="#3549B7"/>
    <path d="M161.113 59.389a.815.815 0 0 1-.814-.814V47.667a.82.82 0 0 1 1.632 0v10.888a.816.816 0 0 1-.818.834m0 10.104a.815.815 0 0 1-.814-.813v-6.096a.82.82 0 0 1 1.632 0v6.096a.82.82 0 0 1-.818.813" fill="#fff"/>
    <path d="M154.588 35.091H101.25a3.954 3.954 0 0 0-3.954 3.954v130.889a3.954 3.954 0 0 0 3.954 3.954h53.338a3.955 3.955 0 0 0 3.954-3.954V39.045a3.954 3.954 0 0 0-3.954-3.954" fill="#4A6EFF"/>
    <path d="M147.463 44.332h-39.088a7 7 0 0 0-7 7v105.047a7 7 0 0 0 7 7h39.088a7 7 0 0 0 7-7V51.332a7 7 0 0 0-7-7" fill="#fff"/>
    <path d="M120.036 40.528h14.133" stroke="#fff" stroke-width="1.498" stroke-linecap="round" stroke-linejoin="round"/>
    <path d="M126.017 167.592c0 .974-.609 1.763-1.363 1.763s-1.358-.789-1.358-1.763.609-1.767 1.358-1.767 1.363.789 1.363 1.767" fill="#fff"/>
    <path d="M127.919 73.956c5.084 0 9.206-4.805 9.206-10.733s-4.122-10.734-9.206-10.734c-5.085 0-9.206 4.806-9.206 10.734s4.121 10.733 9.206 10.733" fill="#1E42A2"/>
    <path d="M127.918 63.088c1.93 0 3.495-1.826 3.495-4.079s-1.565-4.078-3.495-4.078-3.494 1.826-3.494 4.078 1.564 4.079 3.494 4.079m.001 1.083c-3.495 0-6.356 2.681-6.356 5.991q.005.462.085.919a8.26 8.26 0 0 0 12.541 0q.075-.457.08-.919c0-3.31-2.846-5.99-6.35-5.99" fill="#1E42A2"/>
    <path d="M139.112 109.976h-22.386a2.24 2.24 0 0 1-2.147-2.321v-13.82c0-7.962 5.991-14.442 13.34-14.442 7.348 0 13.334 6.49 13.334 14.443v13.809a2.23 2.23 0 0 1-.587 1.609 2.24 2.24 0 0 1-1.554.722m-20.244-4.643h18.097V93.851c0-5.402-4.059-9.8-9.046-9.8-4.988 0-9.051 4.398-9.051 9.8z" fill="#435C68"/>
    <path d="M134.46 100.545h-13.083a9 9 0 0 0-9 9v11.405a9 9 0 0 0 9 9h13.083a9 9 0 0 0 9-9v-11.405a9 9 0 0 0-9-9" fill="#1E42A2"/>
    <path d="m132.446 120.789-2.306-5.546a4.1 4.1 0 0 0 1.622-3.305c0-2.212-1.652-3.994-3.694-3.994s-3.689 1.787-3.689 3.994a4.08 4.08 0 0 0 1.617 3.305l-2.301 5.546z" fill="#1E42A2"/>
    <path d="M147.294 61.795a.27.27 0 0 0-.049.202q.008.055.036.1a.28.28 0 0 0 .275.125.27.27 0 0 0 .177-.107l6.73-9.151v-.899zm-32.979 100.48a.3.3 0 0 0 .219-.109l2.497-3.375a.27.27 0 0 0-.262-.427.28.28 0 0 0-.178.107l-2.496 3.37a.265.265 0 0 0-.016.301.3.3 0 0 0 .071.079.25.25 0 0 0 .165.054m40.148-44.726-29.255 39.794a.27.27 0 0 0-.023.283.26.26 0 0 0 .1.107q.066.04.142.039a.3.3 0 0 0 .124-.027.3.3 0 0 0 .096-.082l28.816-39.2z" fill="#fff"/>
    <path d="M51.716 61.62a7.9 7.9 0 0 0 .699-3.494c0-2.232-2.7-3.525-5.876-3.88-3.175-.354-4.583.94-4.114 1.763a7.7 7.7 0 0 0 1.763 1.762s-3.175-1.762-5.292-.35c-2.117 1.414.943.825.354 2.232s-3.879.824-4.703 4.583c-.823 3.76 1.528 7.524-.589 9.171-2.116 1.648-8.486-.589-10.344 3.525s.78 5.94-3.684 8.527c-4.463 2.586-7.718 5.112-6.425 11.457s5.526 8.567 13.873 6.325c8.348-2.241 7.759-7.288 10.484-12.48 2.726-5.192 6.94-4.114 8.233-7.055s-.355-6.465-.235-9.17 2.82-3.29 3.88-6.49c1.057-3.2 1.976-6.426 1.976-6.426" fill="#435C68" stroke="#435C68" stroke-width=".499" stroke-linecap="round" stroke-linejoin="round"/>
    <path d="M14.478 96.796c-.219.442-.33.93-.325 1.423m33.05-38.93s-1.468-1.697 1.358-.909c3.56.999-.62 5.118-2.227 5.946-3.225 1.653-7.488 1.124-9.984 4.129-2.267 2.716.794 5.546-.565 7.698-1.357 2.152-6.794.904-8.601 3.495-1.807 2.59 3.28 8.152-1.927 11.207-3.765 2.212-7.888 3.06-9.88 4.813" stroke="#fff" stroke-width=".25" stroke-linecap="round" stroke-linejoin="round"/>
    <path d="M38.761 69.334a4.1 4.1 0 0 0-.27 2.291c.45 1.922 3.056 5.546.68 7.583s-6.456 1.922-7.13 4.309c-.674 2.386.68 8.94-1.582 11.981-2.262 3.04-6.68 2.83-9.056 4.868-2.377 2.037-2.037 3.17-2.037 3.17M39.96 67.097a10 10 0 0 0-.57.904" stroke="#fff" stroke-width=".25" stroke-linecap="round" stroke-linejoin="round"/>
    <path d="m53.239 96.616.574 4.493s2.995 2.996 5.197 4.848 7.843 5.771 7.843 5.771l-2.86.814s-9.351-5.542-11.199-5.991-3.23-3.115-3.804-3.924 2.746-6.82 4.249-6.01m5.711 73.102s2.825 2.386 3.993 3.185c1.169.799 2.531 1.158 2.317 1.593-.215.434-.8.868-3.55.499s-3.544-1.303-4.054-1.448c-.509-.145-1.737.22-2.675-.359-.939-.579.549-4.029.549-4.029a2.69 2.69 0 0 0 3.42.559" fill="#fff" stroke="#435C68" stroke-width=".499" stroke-linecap="round" stroke-linejoin="round"/>
    <path d="M65.25 174.497a.4.4 0 0 0 0-.07 12.9 12.9 0 0 1-4.723-.445c-1.777-.419-2.301-1.362-3.994-1.362a5.8 5.8 0 0 1-1.952-.32 1.03 1.03 0 0 0 .355.894c.938.579 2.171.214 2.676.359.504.145 1.303 1.088 4.053 1.448s3.365-.07 3.585-.504" fill="#fff" stroke="#435C68" stroke-width=".499" stroke-linecap="round" stroke-linejoin="round"/>
    <path d="M44.158 73.232s.544 3.665-.155 5.142-2.886 1.638-4.753 1.953c-1.867.314-6.155 1.947-5.691 6.155s5.846 13.325 5.846 15.896-1.638 3.894-3.43 8.881-1.557 14.263-.998 20.264a63.4 63.4 0 0 0 2.336 11.687s-4.493 7.249-6.49 10.364-8.986 16.679-8.986 16.679 0 .464 1.088.779a6.8 6.8 0 0 0 2.342.155s13.399-16.131 15.895-18.856 4.833-7.489 5.142-9.665c.31-2.177-.075-15.507-.075-15.507s2.801 6.7 4.993 10.13a72 72 0 0 1 3.654 6.49 39.2 39.2 0 0 0 0 8.487c.544 3.894.085 16.405.63 17.418.543 1.013 2.655.589 3.124.125s.69-3.495.69-3.495.933-9.485 1.497-13.948 1.498-8.263 1.173-9.276c-.324-1.014-2.261-11.847-3.744-16.974s-5.99-14.727-6.99-17.218c-.998-2.492-1.562-4.758-1.402-5.537s3.195-5.452 3.994-6.7a6.16 6.16 0 0 0 .154-5.531c-.933-2.027 0-4.758-.154-6.39-.155-1.633-2.571-2.342-3.82-2.96-1.248-.62-1.717-2.028-1.717-3.196a9 9 0 0 1 .704-2.855s-3.844-2.497-4.857-2.497" fill="#1E42A2" stroke="#435C68" stroke-width=".499" stroke-linecap="round" stroke-linejoin="round"/>
    <path d="M53.603 89.902a26 26 0 0 1-1.023-3.2m-9.097 11.877s1.408.31 4.229-1.099" stroke="#435C68" stroke-width=".499" stroke-linecap="round" stroke-linejoin="round"/>
    <path d="M58.26 126.066c-1.412-4.912-5.6-13.883-6.854-16.844-5.99 2.247-11.592.33-14.223-.909a38 38 0 0 0-1.208 2.946c-1.792 4.992-1.557 14.263-.998 20.264a63.4 63.4 0 0 0 2.336 11.687s-4.493 7.249-6.49 10.364-8.986 16.679-8.986 16.679 0 .464 1.088.779a6.8 6.8 0 0 0 2.342.155s13.399-16.13 15.895-18.856 4.833-7.489 5.142-9.665c.31-2.177-.075-15.507-.075-15.507s2.801 6.7 4.993 10.13a72 72 0 0 1 3.654 6.49 39.2 39.2 0 0 0 0 8.487c.544 3.894.085 16.405.63 17.418.543 1.013 2.655.589 3.124.125s.69-3.495.69-3.495.933-9.485 1.497-13.948 1.498-8.263 1.173-9.276-2.246-11.882-3.73-17.024" fill="#435C68" stroke="#435C68" stroke-width=".499" stroke-linecap="round" stroke-linejoin="round"/>
    <path d="M88.784 121.119V120.1h.853v-7.997H79.503v7.997h.854v1.019h-.859v1.857h3.29v-.624h3.565v.624h3.29v-1.857z" fill="#1E42A2" stroke="#435C68" stroke-width=".499" stroke-linecap="round" stroke-linejoin="round"/>
    <path d="M34.318 109.711h58.79a.89.89 0 0 1 .888.889v1.787a.89.89 0 0 1-.889.889h-58.79v-3.57z" fill="#1E42A2" stroke="#435C68" stroke-width=".499" stroke-linecap="round" stroke-linejoin="round"/>
    <path d="M76.513 109.177h-3.58a.495.495 0 0 0-.494.494v3.65c0 .273.221.494.494.494h3.58a.494.494 0 0 0 .494-.494v-3.65a.495.495 0 0 0-.494-.494m-40.356 3.82a9.28 9.28 0 0 0-7.659-10.658 9.28 9.28 0 0 0-10.658 7.659 9.281 9.281 0 0 0 18.318 2.999" fill="#1E42A2" stroke="#435C68" stroke-width=".499" stroke-linecap="round" stroke-linejoin="round"/>
    <path d="M28.906 111.474a3.25 3.25 0 0 0 1.842-2.836c0-1.822-1.677-3.3-3.75-3.3-2.071 0-3.748 1.498-3.748 3.3a3.24 3.24 0 0 0 1.842 2.836 3.25 3.25 0 0 0-1.842 2.84c0 1.823 1.677 3.3 3.749 3.3s3.749-1.497 3.749-3.3a3.26 3.26 0 0 0-1.842-2.84m36.114 1.882s2.906 1.228 3.805 1.228c.898 0 1.937-.904 2.45-1.997.515-1.093.5-1.613.196-1.353l-.644.499s.499-1.093-.065-.963c-.391.13-.715.408-.904.774 0 0-.065-.969-.579-.5a6 6 0 0 0-.904 1.034s-.065-1.223-.39-.904c-.324.32-1.542 2.062-1.542 2.062z" fill="#fff" stroke="#435C68" stroke-width=".499" stroke-linecap="round" stroke-linejoin="round"/>
    <path d="M68.375 112.068s-.195 1.547-1.158 1.807z" fill="#fff"/>
    <path d="M68.375 112.068s-.195 1.547-1.158 1.807" stroke="#435C68" stroke-width=".499" stroke-linecap="round" stroke-linejoin="round"/>
    <path d="M69.858 111.553s-.5 2.447-1.288 2.836z" fill="#fff"/>
    <path d="M69.858 111.553s-.5 2.447-1.288 2.836" stroke="#435C68" stroke-width=".499" stroke-linecap="round" stroke-linejoin="round"/>
    <path d="M70.826 111.743a14 14 0 0 1-1.033 2.581z" fill="#fff"/>
    <path d="M70.826 111.743a14 14 0 0 1-1.033 2.581" stroke="#435C68" stroke-width=".499" stroke-linecap="round" stroke-linejoin="round"/>
    <path d="M49.844 81.63a3.55 3.55 0 0 1-1.558-3.096 9 9 0 0 1 .729-2.805s-3.82-2.497-4.833-2.497c0 0 .545 3.665-.154 5.142-.23.46-.603.832-1.064 1.059a29.8 29.8 0 0 0 3.72 6.99c1.403 1.761 2.086-1.953 3.16-4.794" fill="#fff" stroke="#435C68" stroke-width=".499" stroke-linecap="round" stroke-linejoin="round"/>
    <path d="M38.057 80.83a6.24 6.24 0 0 0-4.493 3.29c-1.538 2.966-8.258 16.425-7.684 17.229 3.265 4.593 15.142 7.898 16.35 9.106a27.4 27.4 0 0 0 3.96 3.42c1.207.769 3.619.439 4.058.22.44-.22.769-1.209 0-1.209a1.286 1.286 0 0 1-1.268-.998c-.11-.439 1.208.439 1.867.11.659-.33-1.473-1.533-2.132-2.082s-1.208-1.313-2.087-1.313h-2.53s-4.044-2.93-6.49-5.112a37 37 0 0 0-6.196-4.523l7.413-12.196" fill="#1E42A2"/>
    <path d="M38.057 80.83a6.24 6.24 0 0 0-4.493 3.29c-1.538 2.966-8.258 16.425-7.684 17.229 3.265 4.593 15.142 7.898 16.35 9.106a27.4 27.4 0 0 0 3.96 3.42c1.207.769 3.619.439 4.058.22.44-.22.769-1.209 0-1.209a1.286 1.286 0 0 1-1.268-.998c-.11-.439 1.208.439 1.867.11.659-.33-1.473-1.533-2.132-2.082s-1.208-1.313-2.087-1.313h-2.53s-4.044-2.93-6.49-5.112a37 37 0 0 0-6.196-4.523l7.413-12.196" stroke="#435C68" stroke-width=".499" stroke-linecap="round" stroke-linejoin="round"/>
    <path d="M48.71 109.921c-.659-.549-1.208-1.313-2.086-1.313h-2.532s-4.043-2.93-6.49-5.112a37 37 0 0 0-6.195-4.523l2.966-4.882a9.9 9.9 0 0 0-5.023-1.433c-1.997 4.163-3.789 8.277-3.494 8.711 3.265 4.593 15.141 7.898 16.35 9.106a27.4 27.4 0 0 0 3.958 3.42c1.209.769 3.62.439 4.06.22.438-.22.768-1.208 0-1.208a1.28 1.28 0 0 1-1.268-.999c-.11-.439 1.207.439 1.866.11.66-.33-1.453-1.543-2.112-2.097m4.02-42.065c-.39-.779-.39-1.403-.235-2.496.155-1.094-.779-3.745-.779-3.745-.953 1.648-3.71 2.626-4.927 2.996-1.343.41.619 1.338.409 2.58-.21 1.244-2.89 1.963-2.89 1.963s-.784-1.613-1.873-1.613-1.862 2.496-1.243 3.82a1.77 1.77 0 0 0 1.952 1.023s-.075 2.341 1.403 3.04a27.5 27.5 0 0 0 4.913 1.792c.933.155 1.867-.31 2.256-1.712.304-1.414.513-2.847.624-4.288a10 10 0 0 0 1.792-1.498c.375-.54-1.013-1.083-1.402-1.862" fill="#fff" stroke="#435C68" stroke-width=".499" stroke-linecap="round" stroke-linejoin="round"/>
    <path d="M51.212 67.89c0 .43-.14.775-.31.775s-.31-.345-.31-.774.14-.774.31-.774.31.344.31.774" fill="#435C68"/>
    <path d="M49.869 66.603s.828-.934 1.447-.724m.001 7.124a2.25 2.25 0 0 1-2.172-.5" stroke="#435C68" stroke-width=".499" stroke-linecap="round" stroke-linejoin="round"/>
    <path d="M21.872 170.253s-1.862 3.734-1.792 4.244 3.764 3.185 5.491 4.123 4.853 1.089 4.633-.214-3.185-2.172-3.909-4.129a32 32 0 0 1-.998-3.09 6.4 6.4 0 0 1-3.425-.934" fill="#fff" stroke="#435C68" stroke-width=".499" stroke-linecap="round" stroke-linejoin="round"/>
    <path d="M30.214 178.426a7.3 7.3 0 0 1-3.909-.555c-2.68-1.163-5.277-3.539-5.99-4.213a2.7 2.7 0 0 0-.24.854c.075.499 3.764 3.185 5.491 4.123 1.728.939 4.828 1.069 4.648-.209" fill="#fff" stroke="#435C68" stroke-width=".499" stroke-linecap="round" stroke-linejoin="round"/>
  </g>
  <defs>
    <clipPath id="a">
      <path fill="#fff" d="M0 0h208v208H0z"/>
    </clipPath>
  </defs>
</svg>
