<svg xmlns="http://www.w3.org/2000/svg" width="208" height="208" fill="none"><g clip-path="url(#a)"><path fill="#ECF6FC" d="M13.478 108.325c-9.127-20.62-8.619-44.353 1.78-64.356 5.122-9.83 13.109-20.102 25.598-27.76 35.023-21.479 62.418-20.413 82.027-.98 19.609 19.43 53.704 4.359 71.919 42.77 18.215 38.412 4.704 91.15-40.872 108.063-45.576 16.914-46.83-8.007-75.274-9.974-21.754-1.498-51.574-16.992-65.178-47.763Z"/><circle cx="9" cy="9" r="9" fill="#ECF6FC" transform="matrix(-1 0 0 1 151 2)"/><circle cx="3.661" cy="3.661" r="3.661" fill="#ECF6FC" transform="matrix(-1 0 0 1 160.321 14)"/><path fill="#ECF6FC" d="M26.5 181c6.904 0 12.5-1.119 12.5-2.5s-5.596-2.5-12.5-2.5-12.5 1.119-12.5 2.5 5.596 2.5 12.5 2.5ZM59 177c6.075 0 11-1.119 11-2.5s-4.925-2.5-11-2.5-11 1.119-11 2.5 4.925 2.5 11 2.5ZM128 177c24.853 0 45-1.343 45-3s-20.147-3-45-3-45 1.343-45 3 20.147 3 45 3Z" opacity=".8"/><path fill="#3549B7" d="M159.205 35.091h-53.338a3.954 3.954 0 0 0-3.953 3.954v130.889a3.954 3.954 0 0 0 3.953 3.954h53.338a3.954 3.954 0 0 0 3.954-3.954V39.045a3.954 3.954 0 0 0-3.954-3.954Z"/><path fill="#fff" d="M161.113 59.389a.815.815 0 0 1-.814-.814V47.667a.82.82 0 0 1 1.632 0v10.888a.818.818 0 0 1-.818.834ZM161.113 69.493a.815.815 0 0 1-.814-.813v-6.096a.82.82 0 0 1 1.632 0v6.096a.819.819 0 0 1-.818.813Z"/><path fill="#1E42A2" d="M154.588 35.091H101.25a3.954 3.954 0 0 0-3.954 3.954v130.889a3.954 3.954 0 0 0 3.954 3.954h53.338a3.955 3.955 0 0 0 3.954-3.954V39.045a3.954 3.954 0 0 0-3.954-3.954Z"/><path fill="#fff" d="M147.463 44.332h-39.089a7 7 0 0 0-7 7v105.047a7 7 0 0 0 7 7h39.089a7 7 0 0 0 7-7V51.332a7 7 0 0 0-7-7Z"/><path stroke="#fff" stroke-linecap="round" stroke-linejoin="round" stroke-width="1.498" d="M120.036 40.528h14.133"/><path fill="#fff" d="M126.017 167.592c0 .974-.61 1.762-1.363 1.762-.754 0-1.358-.788-1.358-1.762 0-.973.609-1.767 1.358-1.767.748 0 1.363.789 1.363 1.767Z"/><path fill="#1E42A2" d="M127.919 73.956c5.084 0 9.205-4.805 9.205-10.733 0-5.928-4.121-10.734-9.205-10.734-5.085 0-9.206 4.806-9.206 10.734s4.121 10.733 9.206 10.733Z"/><path fill="#1E42A2" d="M127.919 63.088c1.93 0 3.494-1.826 3.494-4.079 0-2.252-1.564-4.078-3.494-4.078-1.931 0-3.495 1.826-3.495 4.078 0 2.253 1.564 4.079 3.495 4.079ZM127.919 64.171c-3.495 0-6.356 2.681-6.356 5.991.003.308.031.615.085.919a8.257 8.257 0 0 0 12.541 0c.049-.304.076-.611.08-.919 0-3.31-2.846-5.99-6.35-5.99Z"/><path fill="#435C68" d="M139.111 109.976h-22.385a2.238 2.238 0 0 1-2.147-2.322V93.836c0-7.963 5.991-14.443 13.34-14.443 7.348 0 13.334 6.49 13.334 14.443v13.808a2.248 2.248 0 0 1-.587 1.61 2.234 2.234 0 0 1-1.555.722Zm-20.243-4.643h18.097V93.851c0-5.402-4.059-9.8-9.046-9.8-4.988 0-9.051 4.398-9.051 9.8v11.482Z"/><path fill="#1E42A2" d="M134.46 100.545h-13.083a9 9 0 0 0-9 9v11.405a9 9 0 0 0 9 9h13.083a9 9 0 0 0 9-9v-11.405a9 9 0 0 0-9-9Z"/><path fill="#1E42A2" d="m132.447 120.789-2.307-5.546a4.085 4.085 0 0 0 1.623-3.305c0-2.212-1.653-3.994-3.695-3.994s-3.689 1.787-3.689 3.994a4.08 4.08 0 0 0 1.617 3.305l-2.301 5.546h8.752Z"/><path fill="#fff" d="M147.294 61.795a.266.266 0 0 0-.05.202.273.273 0 0 0 .11.177.274.274 0 0 0 .379-.06l6.73-9.15v-.899l-7.169 9.73ZM114.315 162.275a.286.286 0 0 0 .219-.109l2.496-3.375a.275.275 0 0 0 .05-.203.27.27 0 0 0-.311-.224.277.277 0 0 0-.178.107l-2.496 3.37a.27.27 0 0 0 .055.379.248.248 0 0 0 .165.055ZM154.463 117.549l-29.255 39.794a.265.265 0 0 0-.023.283.278.278 0 0 0 .1.107c.043.026.092.04.142.039a.269.269 0 0 0 .22-.109l28.816-39.2v-.914Z"/><path fill="#435C68" stroke="#435C68" stroke-linecap="round" stroke-linejoin="round" stroke-width=".499" d="M51.716 61.62a7.933 7.933 0 0 0 .699-3.494c0-2.232-2.7-3.525-5.876-3.88-3.175-.354-4.583.94-4.114 1.763a7.686 7.686 0 0 0 1.763 1.762s-3.176-1.762-5.292-.35c-2.117 1.414.943.825.354 2.232-.589 1.408-3.879.824-4.703 4.583-.823 3.76 1.528 7.524-.589 9.171-2.116 1.648-8.487-.589-10.344 3.525-1.857 4.113.779 5.94-3.684 8.527-4.463 2.586-7.718 5.112-6.425 11.457 1.293 6.345 5.526 8.567 13.873 6.325 8.348-2.241 7.758-7.288 10.484-12.48s6.94-4.114 8.233-7.055c1.293-2.94-.355-6.465-.235-9.17.12-2.706 2.82-3.29 3.879-6.49 1.058-3.2 1.977-6.426 1.977-6.426Z"/><path stroke="#fff" stroke-linecap="round" stroke-linejoin="round" stroke-width=".25" d="M14.478 96.796c-.219.442-.33.93-.324 1.423M47.203 59.289s-1.468-1.697 1.358-.909c3.56.999-.62 5.117-2.227 5.946-3.225 1.653-7.488 1.123-9.984 4.129-2.267 2.716.793 5.546-.565 7.698-1.357 2.152-6.794.904-8.601 3.495-1.808 2.59 3.28 8.152-1.927 11.207-3.765 2.212-7.888 3.06-9.88 4.813"/><path stroke="#fff" stroke-linecap="round" stroke-linejoin="round" stroke-width=".25" d="M38.76 69.334a4.08 4.08 0 0 0-.269 2.29c.45 1.923 3.056 5.547.68 7.584-2.377 2.037-6.456 1.922-7.13 4.309-.674 2.386.68 8.94-1.582 11.981-2.262 3.04-6.68 2.83-9.056 4.868-2.377 2.037-2.037 3.17-2.037 3.17M39.96 67.097c-.207.29-.397.592-.57.904"/><path fill="#fff" stroke="#435C68" stroke-linecap="round" stroke-linejoin="round" stroke-width=".499" d="m53.239 96.617.574 4.493s2.995 2.995 5.197 4.847c2.201 1.852 7.843 5.771 7.843 5.771l-2.861.814s-9.35-5.542-11.198-5.991c-1.847-.449-3.23-3.115-3.804-3.924-.574-.809 2.746-6.82 4.248-6.01ZM58.95 169.719s2.825 2.386 3.993 3.185c1.169.799 2.532 1.158 2.317 1.593-.215.434-.799.868-3.55.499-2.75-.37-3.544-1.303-4.053-1.448-.51-.145-1.738.22-2.676-.359-.939-.579.549-4.029.549-4.029a2.689 2.689 0 0 0 3.42.559Z"/><path fill="#fff" stroke="#435C68" stroke-linecap="round" stroke-linejoin="round" stroke-width=".499" d="M65.25 174.497a.372.372 0 0 0 0-.07 12.854 12.854 0 0 1-4.723-.445c-1.777-.419-2.301-1.362-3.994-1.362a5.814 5.814 0 0 1-1.952-.32 1.028 1.028 0 0 0 .355.894c.938.579 2.172.214 2.676.359s1.303 1.088 4.053 1.448c2.751.359 3.365-.07 3.585-.504Z"/><path fill="#1E42A2" stroke="#435C68" stroke-linecap="round" stroke-linejoin="round" stroke-width=".499" d="M44.157 73.233s.545 3.664-.154 5.142c-.7 1.477-2.886 1.637-4.753 1.952-1.867.314-6.155 1.947-5.691 6.155.464 4.209 5.846 13.325 5.846 15.896 0 2.571-1.638 3.894-3.43 8.881-1.792 4.987-1.558 14.263-.998 20.264a63.358 63.358 0 0 0 2.336 11.687s-4.493 7.249-6.49 10.364c-1.997 3.115-8.986 16.679-8.986 16.679s0 .464 1.088.779a6.834 6.834 0 0 0 2.342.155s13.399-16.13 15.895-18.856c2.496-2.726 4.833-7.489 5.142-9.665.31-2.177-.075-15.506-.075-15.506s2.801 6.699 4.993 10.129a72.022 72.022 0 0 1 3.654 6.49 39.232 39.232 0 0 0 0 8.487c.544 3.894.085 16.405.63 17.418.543 1.013 2.655.589 3.124.125.47-.464.69-3.495.69-3.495s.933-9.485 1.497-13.948c.564-4.463 1.498-8.263 1.173-9.276-.324-1.013-2.261-11.847-3.744-16.974-1.483-5.127-5.99-14.727-6.99-17.218-.998-2.492-1.562-4.758-1.402-5.537.16-.779 3.195-5.452 3.994-6.7a6.159 6.159 0 0 0 .154-5.531c-.933-2.027 0-4.758-.154-6.39-.155-1.633-2.571-2.342-3.82-2.96-1.248-.62-1.717-2.028-1.717-3.196a8.988 8.988 0 0 1 .704-2.855s-3.844-2.496-4.858-2.496Z"/><path stroke="#435C68" stroke-linecap="round" stroke-linejoin="round" stroke-width=".499" d="M53.603 89.902a25.714 25.714 0 0 1-1.023-3.2M43.483 98.578s1.408.31 4.229-1.098"/><path fill="#435C68" stroke="#435C68" stroke-linecap="round" stroke-linejoin="round" stroke-width=".499" d="M58.26 126.066c-1.412-4.912-5.6-13.883-6.854-16.844-5.99 2.247-11.592.33-14.223-.909-.38.829-.788 1.788-1.208 2.946-1.792 4.992-1.558 14.263-.998 20.264a63.358 63.358 0 0 0 2.336 11.687s-4.493 7.249-6.49 10.364c-1.997 3.115-8.986 16.679-8.986 16.679s0 .464 1.088.779a6.834 6.834 0 0 0 2.342.155s13.399-16.13 15.895-18.856c2.496-2.726 4.833-7.489 5.142-9.665.31-2.177-.075-15.507-.075-15.507s2.801 6.7 4.993 10.13a72.022 72.022 0 0 1 3.654 6.49 39.232 39.232 0 0 0 0 8.487c.544 3.894.085 16.405.63 17.418.543 1.013 2.655.589 3.124.125.47-.464.69-3.495.69-3.495s.933-9.485 1.497-13.948c.564-4.463 1.498-8.263 1.173-9.276-.324-1.013-2.247-11.882-3.73-17.024Z"/><path fill="#1E42A2" stroke="#435C68" stroke-linecap="round" stroke-linejoin="round" stroke-width=".499" d="M88.784 121.119V120.1h.853v-7.997H79.504v7.997h.854v1.019h-.859v1.857h3.29v-.624h3.565v.624h3.29v-1.857h-.86Z"/><path fill="#1E42A2" stroke="#435C68" stroke-linecap="round" stroke-linejoin="round" stroke-width=".499" d="M34.318 109.711h58.79a.888.888 0 0 1 .888.889v1.787a.89.89 0 0 1-.889.889h-58.79v-3.57.005Z"/><path fill="#1E42A2" stroke="#435C68" stroke-linecap="round" stroke-linejoin="round" stroke-width=".499" d="M76.513 109.177h-3.58a.494.494 0 0 0-.494.494v3.65c0 .273.221.494.494.494h3.58a.494.494 0 0 0 .494-.494v-3.65a.494.494 0 0 0-.494-.494ZM36.157 112.997a9.28 9.28 0 0 0-7.659-10.658 9.28 9.28 0 0 0-10.659 7.659 9.281 9.281 0 0 0 18.317 2.999Z"/><path fill="#fff" stroke="#435C68" stroke-linecap="round" stroke-linejoin="round" stroke-width=".499" d="M28.906 111.474a3.25 3.25 0 0 0 1.842-2.836c0-1.822-1.677-3.3-3.749-3.3s-3.75 1.498-3.75 3.3a3.237 3.237 0 0 0 1.843 2.836 3.246 3.246 0 0 0-1.842 2.84c0 1.822 1.677 3.3 3.749 3.3s3.75-1.498 3.75-3.3a3.26 3.26 0 0 0-1.843-2.84ZM65.02 113.356s2.906 1.228 3.805 1.228c.898 0 1.937-.904 2.45-1.997.515-1.093.5-1.613.195-1.353l-.644.499s.5-1.093-.064-.963c-.391.13-.715.408-.904.774 0 0-.065-.969-.58-.5-.34.309-.643.655-.903 1.034 0 0-.065-1.223-.39-.904-.324.32-1.542 2.062-1.542 2.062l-1.423.12Z"/><path fill="#fff" d="M68.375 112.068s-.195 1.547-1.158 1.807l1.158-1.807Z"/><path stroke="#435C68" stroke-linecap="round" stroke-linejoin="round" stroke-width=".499" d="M68.375 112.068s-.195 1.547-1.158 1.807"/><path fill="#fff" d="M69.858 111.553s-.5 2.447-1.288 2.836l1.288-2.836Z"/><path stroke="#435C68" stroke-linecap="round" stroke-linejoin="round" stroke-width=".499" d="M69.858 111.553s-.5 2.447-1.288 2.836"/><path fill="#fff" d="M70.826 111.743a13.882 13.882 0 0 1-1.033 2.581l1.033-2.581Z"/><path stroke="#435C68" stroke-linecap="round" stroke-linejoin="round" stroke-width=".499" d="M70.826 111.743a13.882 13.882 0 0 1-1.033 2.581"/><path fill="#fff" stroke="#435C68" stroke-linecap="round" stroke-linejoin="round" stroke-width=".499" d="M49.844 81.63a3.545 3.545 0 0 1-1.558-3.096c.09-.968.336-1.916.729-2.805 0 0-3.82-2.496-4.833-2.496 0 0 .545 3.664-.154 5.142-.23.46-.603.831-1.064 1.058a29.766 29.766 0 0 0 3.72 6.99c1.402 1.761 2.086-1.953 3.16-4.793Z"/><path fill="#1E42A2" d="M38.057 80.83a6.233 6.233 0 0 0-4.493 3.29c-1.538 2.966-8.258 16.425-7.683 17.229 3.264 4.593 15.141 7.898 16.35 9.106a27.458 27.458 0 0 0 3.958 3.42c1.208.769 3.62.439 4.059.22.44-.22.769-1.209 0-1.209a1.286 1.286 0 0 1-1.268-.998c-.11-.439 1.208.439 1.867.11.66-.33-1.473-1.533-2.132-2.082-.659-.549-1.208-1.313-2.086-1.313h-2.532s-4.043-2.93-6.49-5.112a37.125 37.125 0 0 0-6.195-4.523l7.414-12.196"/><path stroke="#435C68" stroke-linecap="round" stroke-linejoin="round" stroke-width=".499" d="M38.057 80.83a6.233 6.233 0 0 0-4.493 3.29c-1.538 2.966-8.258 16.425-7.683 17.229 3.264 4.593 15.141 7.898 16.35 9.106a27.458 27.458 0 0 0 3.958 3.42c1.208.769 3.62.439 4.059.22.44-.22.769-1.209 0-1.209a1.286 1.286 0 0 1-1.268-.998c-.11-.439 1.208.439 1.867.11.66-.33-1.473-1.533-2.132-2.082-.659-.549-1.208-1.313-2.086-1.313h-2.532s-4.043-2.93-6.49-5.112a37.125 37.125 0 0 0-6.195-4.523l7.414-12.196"/><path fill="#fff" stroke="#435C68" stroke-linecap="round" stroke-linejoin="round" stroke-width=".499" d="M48.71 109.921c-.658-.549-1.208-1.313-2.086-1.313h-2.531s-4.044-2.93-6.49-5.112a37.125 37.125 0 0 0-6.196-4.523l2.966-4.883a9.92 9.92 0 0 0-5.023-1.432c-1.997 4.163-3.789 8.277-3.494 8.711 3.265 4.593 15.142 7.898 16.35 9.106a27.458 27.458 0 0 0 3.958 3.42c1.209.769 3.62.439 4.06.22.439-.22.768-1.209 0-1.209a1.286 1.286 0 0 1-1.269-.998c-.11-.439 1.208.439 1.867.11.66-.33-1.452-1.543-2.111-2.097ZM52.73 67.856c-.39-.78-.39-1.403-.235-2.496.154-1.094-.78-3.745-.78-3.745-.953 1.648-3.709 2.626-4.927 2.996-1.342.41.62 1.338.41 2.58-.21 1.244-2.89 1.963-2.89 1.963s-.785-1.613-1.873-1.613-1.862 2.496-1.243 3.82a1.767 1.767 0 0 0 1.952 1.023s-.075 2.341 1.403 3.04a27.452 27.452 0 0 0 4.912 1.792c.934.155 1.867-.31 2.257-1.712.304-1.414.513-2.847.624-4.288.654-.428 1.255-.93 1.792-1.498.375-.54-1.013-1.084-1.403-1.862Z"/><path fill="#435C68" d="M51.212 67.89c0 .43-.14.775-.31.775-.17 0-.31-.345-.31-.774 0-.43.14-.774.31-.774.17 0 .31.344.31.774Z"/><path stroke="#435C68" stroke-linecap="round" stroke-linejoin="round" stroke-width=".499" d="M49.869 66.603s.828-.934 1.447-.724M51.317 73.003a2.248 2.248 0 0 1-2.172-.5"/><path fill="#fff" stroke="#435C68" stroke-linecap="round" stroke-linejoin="round" stroke-width=".499" d="M21.872 170.253s-1.862 3.734-1.793 4.244c.07.509 3.765 3.185 5.492 4.123 1.727.939 4.853 1.089 4.633-.214-.22-1.303-3.185-2.172-3.909-4.129a31.651 31.651 0 0 1-.998-3.09 6.399 6.399 0 0 1-3.425-.934Z"/><path fill="#fff" stroke="#435C68" stroke-linecap="round" stroke-linejoin="round" stroke-width=".499" d="M30.214 178.426a7.292 7.292 0 0 1-3.909-.555c-2.68-1.163-5.277-3.539-5.99-4.213a2.674 2.674 0 0 0-.24.854c.075.499 3.764 3.185 5.491 4.123 1.728.939 4.828 1.069 4.648-.209Z"/></g><defs><clipPath id="a"><path fill="#fff" d="M0 0h208v208H0z"/></clipPath></defs></svg>