<svg width="208" height="208" viewBox="0 0 208 208" fill="none" xmlns="http://www.w3.org/2000/svg">
<path d="M97.8699 14.5072C152.132 9.67172 152.241 40.2947 176.694 68.8259C201.147 97.3571 206.394 110.297 197.204 143.173C188.015 176.05 156.897 201.842 118.463 187.235C80.0291 172.628 58.0137 186.657 33.7709 173.669C9.52807 160.682 0.513599 135.638 18.2712 106.1C36.0289 76.5626 30.9615 20.4672 97.8699 14.5072Z" fill="#F9FCFE"/>
<path opacity="0.7" d="M97.8699 14.5072C152.132 9.67172 152.241 40.2947 176.694 68.8259C201.147 97.3571 206.394 110.297 197.204 143.173C188.015 176.05 156.897 201.842 118.463 187.235C80.0291 172.628 58.0137 186.657 33.7709 173.669C9.52807 160.682 0.513599 135.638 18.2712 106.1C36.0289 76.5626 30.9615 20.4672 97.8699 14.5072Z" fill="#ECF6FC"/>
<path d="M81.2413 174.623C80.7616 172.758 79.6183 171.131 78.0255 170.048C76.4327 168.966 74.4997 168.5 72.5887 168.74C70.6776 168.98 68.9195 169.909 67.6438 171.352C66.3681 172.795 65.6623 174.653 65.6585 176.579C65.6646 177.249 65.7542 177.915 65.9254 178.562C66.3631 180.261 67.3518 181.766 68.7367 182.843C70.1216 183.92 71.8246 184.507 73.579 184.513C74.2475 184.512 74.9134 184.429 75.5613 184.264C76.8465 183.936 78.0281 183.288 78.9964 182.382C78.9165 182.26 78.8449 182.133 78.782 182.001C77.6289 183.109 76.1512 183.817 74.5657 184.023C72.9802 184.228 71.3706 183.92 69.9732 183.143L69.7894 183.043C68.5177 182.29 67.4976 181.178 66.858 179.845C66.2184 178.513 65.988 177.022 66.1959 175.559C66.4038 174.096 67.0407 172.727 68.0262 171.626C69.0116 170.525 70.3013 169.741 71.7323 169.372C72.9278 169.065 74.1806 169.059 75.379 169.354C76.5774 169.649 77.6841 170.236 78.6005 171.063C79.5169 171.89 80.2145 172.931 80.6309 174.092C81.0474 175.254 81.1699 176.501 80.9875 177.722C81.1321 177.695 81.2783 177.679 81.4251 177.673C81.5635 176.654 81.5011 175.618 81.2413 174.623Z" fill="#263238"/>
<path d="M78.7774 182.014C77.9858 182.768 77.0787 183.39 76.0905 183.857C75.9006 183.94 75.7046 184.009 75.5042 184.062C75.3015 184.113 75.0952 184.148 74.8872 184.167C72.6992 184.395 69.7717 183.292 69.7717 183.292L69.9642 183.148C70.5075 182.721 71.0942 182.353 71.7146 182.049C72.1522 181.931 72.9355 181.384 72.5898 180.203C71.3078 179.162 70.4213 177.713 70.078 176.098C69.8067 174.899 69.2028 172.575 71.6402 171.608C71.8352 171.535 72.0338 171.473 72.2353 171.42C72.4454 171.368 72.651 171.328 72.8436 171.298C75.4692 170.965 76.0337 173.298 76.375 174.475C76.8515 176.058 76.7712 177.757 76.1474 179.288C76.4187 180.487 77.3552 180.601 77.8059 180.483C78.0246 180.45 78.2463 180.443 78.4667 180.461C78.4395 180.8 78.4691 181.142 78.5542 181.472C78.6019 181.655 78.6664 181.834 78.7468 182.006L78.7774 182.014Z" fill="#263238"/>
<path d="M81.5211 183.97C80.9112 183.97 80.3135 183.799 79.7962 183.476C79.2788 183.153 78.8624 182.691 78.5943 182.143C78.3262 181.595 78.2171 180.983 78.2796 180.377C78.342 179.77 78.5734 179.193 78.9474 178.711C79.3214 178.229 79.8231 177.862 80.3954 177.651C80.9677 177.44 81.5877 177.394 82.1849 177.518C82.7821 177.642 83.3326 177.931 83.7737 178.352C84.2149 178.773 84.5291 179.31 84.6805 179.901C84.8022 180.382 84.8125 180.885 84.7108 181.371C84.6091 181.857 84.3979 182.314 84.0933 182.706C83.7888 183.098 83.3989 183.416 82.9532 183.635C82.5075 183.854 82.0177 183.969 81.5211 183.97ZM81.5211 177.888C81.2833 177.888 81.0464 177.919 80.8165 177.98C80.1337 178.16 79.5451 178.593 79.1703 179.192C78.7955 179.79 78.6626 180.509 78.7985 181.202C78.9345 181.895 79.3293 182.51 79.9025 182.922C80.4757 183.335 81.1844 183.513 81.8847 183.422C82.5849 183.331 83.2241 182.976 83.6723 182.43C84.1206 181.885 84.3443 181.189 84.298 180.484C84.2517 179.78 83.9389 179.119 83.4231 178.637C82.9073 178.155 82.2272 177.887 81.5211 177.888Z" fill="#263238"/>
<path d="M81.3333 180.579L80.8038 179.328L81.5171 179.144L81.644 180.5L82.6723 179.603L83.0662 180.22L81.8278 180.776L82.9918 181.463L82.5279 182.032L81.6177 181.017L81.307 182.33L80.6331 182.058L81.3202 180.894L79.9636 181.004L80.0118 180.273L81.3333 180.579Z" fill="#263238"/>
<path d="M76.0162 171.473C73.7713 169.013 72.1084 170.838 72.1084 170.838C72.1084 170.838 69.776 170.037 68.9884 173.276C68.2007 176.514 70.4937 179.056 68.5508 180.128C68.5508 180.128 71.0188 181.179 74.5283 180.277C78.0379 179.376 79.6963 177.271 79.6963 177.271C77.4821 177.249 78.2654 173.928 76.0162 171.473Z" fill="#263238"/>
<path d="M200.591 99.6107C200.877 98.3251 200.687 96.9792 200.055 95.8236C199.423 94.6681 198.392 93.7816 197.155 93.3293C195.918 92.877 194.559 92.8896 193.331 93.365C192.102 93.8403 191.088 94.7459 190.478 95.913C190.27 96.3198 190.113 96.7504 190.01 97.1952C189.8 98.1124 189.833 99.0684 190.104 99.9692C190.376 100.87 190.877 101.685 191.558 102.334C192.24 102.982 193.078 103.443 193.991 103.67C194.904 103.897 195.86 103.882 196.766 103.628C196.76 103.529 196.76 103.429 196.766 103.33C195.913 103.584 195.008 103.613 194.141 103.413C192.861 103.126 191.743 102.355 191.021 101.26C190.99 101.221 190.963 101.18 190.938 101.138C190.579 100.57 190.336 99.9362 190.224 99.2738C190.114 98.6083 190.134 97.9278 190.281 97.2696C190.586 95.9482 191.401 94.8012 192.549 94.0795C193.697 93.3579 195.085 93.1203 196.407 93.4187C196.83 93.513 197.238 93.66 197.624 93.8563C198.279 94.195 198.853 94.671 199.308 95.2518C199.762 95.8326 200.086 96.5046 200.257 97.2219C200.428 97.9392 200.443 98.685 200.299 99.4083C200.156 100.132 199.858 100.816 199.427 101.414C199.527 101.442 199.625 101.479 199.72 101.523C200.133 100.949 200.429 100.299 200.591 99.6107Z" fill="#263238"/>
<path d="M196.766 103.33C196.048 103.54 195.3 103.635 194.552 103.61C194.405 103.6 194.259 103.58 194.115 103.549C193.976 103.517 193.84 103.475 193.708 103.422C192.307 102.875 190.863 101.278 190.863 101.278L191.03 101.252C191.498 101.162 191.975 101.124 192.452 101.138C192.582 101.162 192.716 101.159 192.845 101.128C192.973 101.098 193.094 101.04 193.2 100.96C193.305 100.879 193.392 100.778 193.455 100.661C193.519 100.545 193.557 100.417 193.568 100.285C193.112 99.2481 193.026 98.0867 193.323 96.9941C193.537 96.1801 193.887 94.5698 195.686 94.7492C195.833 94.7648 195.979 94.7882 196.123 94.8192C196.269 94.8542 196.405 94.8936 196.53 94.9373C198.228 95.5544 197.843 97.1603 197.685 98.0005C197.479 99.114 196.898 100.124 196.04 100.862C195.991 100.985 195.969 101.117 195.975 101.25C195.981 101.382 196.015 101.511 196.075 101.629C196.135 101.747 196.22 101.851 196.323 101.934C196.427 102.017 196.546 102.077 196.675 102.11C196.817 102.158 196.954 102.222 197.082 102.302C196.96 102.501 196.872 102.718 196.819 102.945C196.79 103.073 196.774 103.204 196.771 103.335C196.771 103.335 196.766 103.326 196.766 103.33Z" fill="#263238"/>
<path d="M197.825 105.383C197.468 105.2 197.166 104.925 196.95 104.586C196.754 104.275 196.637 103.92 196.61 103.553C196.584 103.185 196.649 102.817 196.799 102.481C196.949 102.145 197.179 101.851 197.47 101.625C197.761 101.4 198.103 101.249 198.466 101.188C198.829 101.126 199.202 101.155 199.551 101.272C199.9 101.389 200.215 101.59 200.467 101.858C200.72 102.126 200.903 102.452 200.999 102.807C201.095 103.162 201.103 103.536 201.02 103.895C200.955 104.181 200.835 104.452 200.665 104.691C200.496 104.931 200.281 105.135 200.032 105.291C199.784 105.447 199.507 105.552 199.218 105.601C198.928 105.65 198.632 105.641 198.346 105.575C198.165 105.533 197.99 105.469 197.825 105.383ZM199.742 101.681C199.596 101.606 199.442 101.548 199.283 101.51C198.973 101.44 198.65 101.448 198.344 101.532C198.038 101.616 197.757 101.774 197.526 101.993C197.296 102.212 197.123 102.483 197.022 102.785C196.922 103.086 196.897 103.408 196.95 103.721C197.003 104.034 197.133 104.329 197.327 104.58C197.522 104.832 197.775 105.031 198.065 105.161C198.355 105.291 198.672 105.348 198.989 105.326C199.306 105.305 199.613 105.205 199.882 105.037C200.097 104.902 200.284 104.725 200.431 104.518C200.578 104.311 200.683 104.076 200.74 103.828C200.796 103.58 200.803 103.324 200.76 103.073C200.718 102.822 200.626 102.583 200.49 102.368C200.307 102.075 200.049 101.838 199.742 101.681Z" fill="#263238"/>
<path d="M198.775 103.256L198.841 102.324L199.331 102.433L198.981 103.309L199.891 103.085L199.939 103.584L199.007 103.532L199.502 104.319L199.042 104.516L198.806 103.61L198.198 104.324L197.874 103.947L198.657 103.453L197.782 103.094L198.045 102.656L198.775 103.256Z" fill="#263238"/>
<path d="M198.395 96.0356C197.799 93.8476 196.207 94.4208 196.207 94.4208C196.207 94.4208 195.038 93.2043 193.542 94.9285C192.045 96.6526 192.645 98.9237 191.122 98.9718C192.117 99.946 193.363 100.625 194.721 100.934C196.079 101.243 197.496 101.17 198.815 100.722C197.471 100.026 198.994 98.2411 198.395 96.0356Z" fill="#263238"/>
<path d="M141.249 25.1013C141.494 23.6426 141.326 22.1443 140.763 20.7765C140.2 19.4087 139.264 18.2261 138.063 17.363C136.862 16.4999 135.443 15.9909 133.967 15.8937C132.491 15.7964 131.017 16.115 129.713 16.813C128.409 17.5111 127.326 18.5608 126.589 19.8429C125.851 21.1251 125.488 22.5883 125.54 24.0666C125.592 25.5449 126.057 26.9789 126.883 28.206C127.709 29.4332 128.862 30.4041 130.212 31.0088C130.823 31.2798 131.466 31.4739 132.125 31.5864C133.432 31.8093 134.774 31.6995 136.028 31.267C136.005 31.1221 135.99 30.976 135.984 30.8294C134.48 31.3724 132.842 31.4184 131.31 30.9608C129.778 30.5031 128.433 29.5659 127.473 28.287C127.429 28.2344 127.386 28.1776 127.346 28.1207C126.777 27.3206 126.369 26.4167 126.147 25.4601C125.933 24.5014 125.906 23.5102 126.068 22.5413C126.232 21.5726 126.585 20.6457 127.107 19.8134C127.63 18.9812 128.311 18.26 129.112 17.6911C129.913 17.1222 130.818 16.7166 131.776 16.4977C132.733 16.2787 133.725 16.2506 134.693 16.415C135.315 16.5172 135.921 16.6996 136.496 16.9576C137.477 17.397 138.352 18.0426 139.062 18.8505C139.771 19.6584 140.298 20.6097 140.606 21.6395C140.915 22.6693 140.998 23.7536 140.85 24.8183C140.701 25.8831 140.326 26.9035 139.748 27.81C139.897 27.8466 140.043 27.8934 140.185 27.95C140.72 27.078 141.081 26.1106 141.249 25.1013Z" fill="#263238"/>
<path d="M135.984 30.8295C134.955 31.1963 133.874 31.3958 132.781 31.4203C132.574 31.419 132.368 31.4015 132.164 31.3678C131.958 31.3333 131.754 31.2821 131.556 31.2146C129.473 30.5364 127.241 28.3265 127.241 28.3265L127.477 28.274C128.153 28.1082 128.844 28.0129 129.539 27.9895C129.998 28.0683 130.926 27.8801 131.092 26.6768C130.345 25.2033 130.125 23.5182 130.471 21.9026C130.711 20.6992 131.092 18.3231 133.722 18.4368C133.93 18.4486 134.138 18.472 134.343 18.5068C134.547 18.5414 134.748 18.5866 134.947 18.6425C137.468 19.3995 137.048 21.7669 136.881 22.9791C136.666 24.6212 135.894 26.1398 134.693 27.2806C134.453 28.4884 135.262 28.9698 135.722 29.031C135.935 29.0895 136.141 29.1732 136.334 29.2805C136.169 29.5784 136.057 29.9026 136.002 30.2388C135.971 30.4254 135.958 30.6143 135.962 30.8033C135.962 30.8033 135.989 30.8252 135.984 30.8295Z" fill="#263238"/>
<path d="M137.691 33.7177C137.167 33.4821 136.714 33.1123 136.379 32.6458C136.043 32.1792 135.837 31.6324 135.781 31.0605C135.724 30.4887 135.82 29.9121 136.058 29.389C136.295 28.8659 136.667 28.4149 137.135 28.0814C137.661 27.7079 138.286 27.4987 138.93 27.4802C139.575 27.4618 140.211 27.635 140.757 27.9779C141.303 28.3208 141.735 28.818 141.999 29.4066C142.262 29.9952 142.345 30.6488 142.237 31.2846C142.092 32.1365 141.614 32.8959 140.91 33.3963C140.205 33.8967 139.331 34.0972 138.479 33.954C138.207 33.9072 137.943 33.8279 137.691 33.7177ZM140.176 28.1646C139.959 28.0666 139.729 27.9975 139.494 27.9589C138.789 27.8413 138.067 27.9964 137.472 28.3927C136.878 28.789 136.457 29.3966 136.295 30.0922C136.133 30.7877 136.242 31.5188 136.6 32.137C136.957 32.7551 137.537 33.2138 138.221 33.4199C138.905 33.6259 139.641 33.5637 140.281 33.2461C140.92 32.9284 141.415 32.3791 141.664 31.7097C141.913 31.0404 141.898 30.3013 141.622 29.6428C141.345 28.9843 140.829 28.4557 140.176 28.1646Z" fill="#263238"/>
<path d="M138.903 30.5582V29.1929L139.625 29.3154L139.188 30.6282L140.501 30.2256L140.61 30.952H139.249L140.032 32.0548L139.38 32.383L138.943 31.0702L138.12 32.1554L137.613 31.6303L138.715 30.847L137.433 30.4094L137.774 29.7662L138.903 30.5582Z" fill="#263238"/>
<path d="M80.4727 15.6758L68.1172 17.7235C67.6642 17.7985 67.3579 18.2266 67.4329 18.6796L68.6735 26.1655C68.7486 26.6185 69.1767 26.9248 69.6297 26.8498L81.9852 24.8021C82.4382 24.727 82.7446 24.2989 82.6695 23.8459L81.4289 16.3601C81.3538 15.9071 80.9257 15.6007 80.4727 15.6758Z" stroke="#263238" stroke-width="0.437596" stroke-linecap="round" stroke-linejoin="round"/>
<path d="M67.4742 18.9575L74.2394 21.9025C74.5369 22.0321 74.8656 22.0726 75.1857 22.019C75.5057 21.9654 75.8033 21.82 76.0423 21.6006L81.4685 16.6514" stroke="#263238" stroke-width="0.437596" stroke-linecap="round" stroke-linejoin="round"/>
<path d="M69.8153 24.9394L72.791 22.5545" stroke="#263238" stroke-width="0.437596" stroke-linecap="round" stroke-linejoin="round"/>
<path d="M81.184 23.0578L77.5958 21.745" stroke="#263238" stroke-width="0.437596" stroke-linecap="round" stroke-linejoin="round"/>
<path d="M133.057 171.265L122.287 165.003C121.892 164.773 121.386 164.907 121.156 165.302L117.362 171.828C117.132 172.223 117.266 172.729 117.661 172.959L128.432 179.221C128.827 179.45 129.333 179.316 129.563 178.921L133.357 172.396C133.586 172.001 133.452 171.495 133.057 171.265Z" stroke="#263238" stroke-width="0.435314" stroke-linecap="round" stroke-linejoin="round"/>
<path d="M120.984 166.686L124.305 173.249C124.448 173.541 124.673 173.785 124.951 173.951C125.23 174.117 125.551 174.199 125.876 174.186L133.236 173.827" stroke="#263238" stroke-width="0.437596" stroke-linecap="round" stroke-linejoin="round"/>
<path d="M118.971 172.79L122.786 172.847" stroke="#263238" stroke-width="0.437596" stroke-linecap="round" stroke-linejoin="round"/>
<path d="M128.939 178.588L127.005 175.297" stroke="#263238" stroke-width="0.437596" stroke-linecap="round" stroke-linejoin="round"/>
<path d="M17.7547 117.674L6.73178 123.619C6.32763 123.837 6.1767 124.342 6.39468 124.746L9.99669 131.424C10.2147 131.828 10.719 131.979 11.1232 131.761L22.1461 125.816C22.5502 125.598 22.7012 125.094 22.4832 124.69L18.8812 118.011C18.6632 117.607 18.1589 117.456 17.7547 117.674Z" stroke="#263238" stroke-width="0.437596" stroke-linecap="round" stroke-linejoin="round"/>
<path d="M6.51312 124.991L13.8516 125.613C14.1751 125.637 14.4988 125.567 14.7837 125.412C15.0686 125.257 15.3026 125.022 15.4576 124.737L18.9934 118.274" stroke="#263238" stroke-width="0.437596" stroke-linecap="round" stroke-linejoin="round"/>
<path d="M10.6699 129.897L12.7091 126.672" stroke="#263238" stroke-width="0.437596" stroke-linecap="round" stroke-linejoin="round"/>
<path d="M20.8136 124.427L16.9978 124.361" stroke="#263238" stroke-width="0.437596" stroke-linecap="round" stroke-linejoin="round"/>
<path d="M27.2198 39.787V163.211C27.2198 163.543 27.3516 163.862 27.5861 164.097C27.8207 164.333 28.139 164.466 28.4714 164.467H103.519C103.852 164.467 104.172 164.334 104.407 164.099C104.643 163.863 104.775 163.544 104.775 163.211V39.8089C104.773 39.0506 104.47 38.324 103.934 37.7878C103.398 37.2516 102.671 36.9493 101.913 36.947H84.0373C83.6909 36.9477 83.354 37.06 83.0765 37.2673C82.799 37.4747 82.5958 37.7659 82.4969 38.0979C82.3999 38.4305 82.1971 38.7224 81.9193 38.9293C81.6409 39.1362 81.3034 39.2482 80.9566 39.2488H51.0469C50.7004 39.2488 50.3631 39.1368 50.0855 38.9293C49.8079 38.7219 49.6048 38.4302 49.5066 38.0979C49.4096 37.7641 49.205 37.4718 48.9246 37.2665C48.6462 37.0596 48.3087 36.9476 47.9619 36.947H30.0817C29.3272 36.9493 28.6039 37.2485 28.0683 37.78C27.5327 38.3115 27.2279 39.0325 27.2198 39.787Z" fill="#263238" stroke="#263238" stroke-width="0.437596" stroke-linecap="round" stroke-linejoin="round"/>
<path d="M27.2197 62.3583L104.775 62.3583V46.9112L27.2197 46.9112V62.3583Z" fill="#1E42A2" stroke="#263238" stroke-width="0.437596" stroke-linecap="round" stroke-linejoin="round"/>
<path d="M27.2197 148.543H104.775L104.775 62.3583L27.2197 62.3583L27.2197 148.543Z" fill="white" stroke="#263238" stroke-width="0.437596" stroke-linecap="round" stroke-linejoin="round"/>
<path d="M65.8114 158.087H68.2313C69.0289 158.087 69.6754 157.44 69.6754 156.643V154.223C69.6754 153.425 69.0289 152.779 68.2313 152.779H65.8114C65.0139 152.779 64.3674 153.425 64.3674 154.223V156.643C64.3674 157.44 65.0139 158.087 65.8114 158.087Z" fill="white" stroke="#263238" stroke-width="0.437596" stroke-linecap="round" stroke-linejoin="round"/>
<path d="M35.4595 52.4378H31.6525" stroke="#263238" stroke-width="0.437596" stroke-linecap="round" stroke-linejoin="round"/>
<path d="M35.4595 54.5296H31.6525" stroke="#263238" stroke-width="0.437596" stroke-linecap="round" stroke-linejoin="round"/>
<path d="M35.4595 56.6213H31.6525" stroke="#263238" stroke-width="0.437596" stroke-linecap="round" stroke-linejoin="round"/>
<path d="M59.0637 71.1233H46.2333C46.0012 71.1233 45.7786 71.0311 45.6145 70.867C45.4504 70.7028 45.3582 70.4802 45.3582 70.2481C45.3582 70.016 45.4504 69.7934 45.6145 69.6293C45.7786 69.4651 46.0012 69.3729 46.2333 69.3729H59.0461C59.2783 69.3729 59.5009 69.4651 59.665 69.6293C59.8291 69.7934 59.9213 70.016 59.9213 70.2481C59.9214 70.4772 59.8316 70.6972 59.6712 70.8609C59.5109 71.0245 59.2927 71.1187 59.0637 71.1233Z" fill="#263238"/>
<path d="M90.3386 73.2718H45.8482C45.7871 73.2724 45.7266 73.2608 45.67 73.2377C45.6135 73.2146 45.5621 73.1804 45.5189 73.1372C45.4757 73.0941 45.4416 73.0427 45.4185 72.9861C45.3954 72.9296 45.3838 72.869 45.3844 72.808C45.3844 72.7472 45.3964 72.6871 45.4197 72.6311C45.4431 72.5751 45.4773 72.5242 45.5205 72.4815C45.5636 72.4388 45.6148 72.405 45.671 72.3822C45.7273 72.3594 45.7875 72.3479 45.8482 72.3485H90.3386C90.3997 72.3453 90.4609 72.3551 90.518 72.377C90.5752 72.399 90.6271 72.4328 90.6704 72.4761C90.7138 72.5194 90.7475 72.5713 90.7695 72.6285C90.7914 72.6856 90.8012 72.7468 90.798 72.808C90.7986 72.8687 90.7872 72.9289 90.7643 72.9851C90.7415 73.0414 90.7077 73.0926 90.665 73.1357C90.6223 73.1788 90.5714 73.2131 90.5154 73.2364C90.4594 73.2598 90.3993 73.2718 90.3386 73.2718Z" fill="#263238"/>
<path d="M41.1034 74.9814C43.0383 73.2009 43.1635 70.189 41.383 68.2541C39.6025 66.3192 36.5906 66.194 34.6557 67.9745C32.7208 69.755 32.5956 72.7669 34.3761 74.7018C36.1566 76.6367 39.1685 76.7619 41.1034 74.9814Z" fill="white" stroke="#263238" stroke-width="0.437596" stroke-linecap="round" stroke-linejoin="round"/>
<path d="M38.265 76.1994C39.604 76.0025 41.1969 74.8866 41.1969 74.8866C40.7551 74.698 40.2965 74.5515 39.8272 74.449C39.7077 74.4454 39.5904 74.4165 39.4829 74.3642C39.3754 74.3118 39.2803 74.2373 39.2038 74.1455C39.1273 74.0537 39.0711 73.9466 39.039 73.8315C39.0069 73.7163 38.9997 73.5957 39.0177 73.4775C39.6265 72.6576 39.9355 71.6535 39.8929 70.6332C39.871 69.8717 39.8929 68.3883 38.265 68.1826C38.1425 68.1826 38.0156 68.1826 37.8799 68.1826C37.7443 68.1826 37.6174 68.1826 37.4948 68.1826C35.8801 68.3883 35.8932 69.8717 35.867 70.6332C35.8244 71.6535 36.1333 72.6576 36.7422 73.4775C36.7602 73.5957 36.7529 73.7163 36.7208 73.8315C36.6888 73.9466 36.6326 74.0537 36.5561 74.1455C36.4795 74.2373 36.3844 74.3118 36.2769 74.3642C36.1695 74.4165 36.0521 74.4454 35.9326 74.449C35.4647 74.5514 35.0076 74.6979 34.5673 74.8866C34.5673 74.8866 36.1558 76.0025 37.4948 76.1994C37.622 76.2215 37.7508 76.2332 37.8799 76.2344C38.009 76.2334 38.1378 76.2217 38.265 76.1994Z" fill="#263238"/>
<path d="M42.0065 77.0352C43.0457 77.0352 43.8881 76.1928 43.8881 75.1536C43.8881 74.1144 43.0457 73.2719 42.0065 73.2719C40.9673 73.2719 40.1248 74.1144 40.1248 75.1536C40.1248 76.1928 40.9673 77.0352 42.0065 77.0352Z" fill="#1E42A2" stroke="#263238" stroke-width="0.437596" stroke-linecap="round" stroke-linejoin="round"/>
<path d="M41.91 75.0441L41.7787 74.2083H42.2163L42.085 75.0441L42.8377 74.6634L42.9777 75.101L42.1507 75.2454L42.7414 75.8361L42.3782 76.103L41.9888 75.3548L41.5993 76.103L41.2361 75.8361L41.8269 75.2454L40.9954 75.101L41.1398 74.6634L41.91 75.0441Z" fill="#263238"/>
<path d="M40.1069 68.769C39.1398 66.953 37.862 67.7888 37.862 67.7888C37.862 67.7888 36.6061 66.9749 35.6346 68.769C34.6632 70.5632 35.6346 72.4667 34.3218 72.808C35.3908 73.4689 36.6227 73.819 37.8795 73.819C39.1363 73.819 40.3682 73.4689 41.4371 72.808C40.1069 72.4667 41.0914 70.585 40.1069 68.769Z" fill="#263238"/>
<path d="M38.7329 45.2352H39.5994V43.4673H38.7329V45.2352Z" fill="white"/>
<path d="M37.1402 45.2306H38.0066V42.745H37.1402V45.2306Z" fill="white"/>
<path d="M35.5515 45.2352H36.418V42.0364H35.5515V45.2352Z" fill="white"/>
<path d="M33.9588 45.2306H34.8252V41.3185H33.9588V45.2306Z" fill="white"/>
<path d="M94.3647 44.8718H99.0294C99.317 44.8718 99.5502 44.6387 99.5502 44.3511V42.1937C99.5502 41.9061 99.317 41.673 99.0294 41.673H94.3647C94.0771 41.673 93.8439 41.9061 93.8439 42.1937V44.3511C93.8439 44.6387 94.0771 44.8718 94.3647 44.8718Z" fill="white"/>
<path d="M93.1786 44.2023H92.741C92.6249 44.2023 92.5136 44.1562 92.4316 44.0741C92.3495 43.9921 92.3034 43.8808 92.3034 43.7647V42.767C92.3034 42.6509 92.3495 42.5396 92.4316 42.4576C92.5136 42.3755 92.6249 42.3294 92.741 42.3294H93.1786V44.1892V44.2023Z" fill="white"/>
<path d="M99.48 52.4466C99.7486 52.7153 99.9315 53.0576 100.006 53.4303C100.08 53.8029 100.041 54.1891 99.896 54.5401C99.7506 54.891 99.5044 55.191 99.1885 55.402C98.8726 55.6131 98.5012 55.7257 98.1213 55.7257C97.7414 55.7257 97.37 55.6131 97.0541 55.402C96.7382 55.191 96.492 54.891 96.3466 54.5401C96.2012 54.1891 96.1631 53.8029 96.2371 53.4303C96.3111 53.0576 96.494 52.7153 96.7626 52.4466C96.9407 52.2676 97.1524 52.1256 97.3856 52.0286C97.6187 51.9317 97.8688 51.8818 98.1213 51.8818C98.3738 51.8818 98.6239 51.9317 98.857 52.0286C99.0902 52.1256 99.3019 52.2676 99.48 52.4466V52.4466Z" stroke="#263238" stroke-width="0.437596" stroke-linecap="round" stroke-linejoin="round"/>
<path d="M99.4798 55.1639L101.497 57.1812" stroke="#263238" stroke-width="0.437596" stroke-linecap="round" stroke-linejoin="round"/>
<path d="M71.1324 51.0595H62.1486C61.6894 51.0595 61.3171 51.4318 61.3171 51.8909V57.1727C61.3171 57.6319 61.6894 58.0041 62.1486 58.0041H71.1324C71.5916 58.0041 71.9638 57.6319 71.9638 57.1727V51.8909C71.9638 51.4318 71.5916 51.0595 71.1324 51.0595Z" fill="#263238" stroke="#1E42A2" stroke-width="0.437596" stroke-linecap="round" stroke-linejoin="round"/>
<path d="M61.3171 51.8908L65.9557 54.9058C66.1602 55.0363 66.3978 55.1057 66.6405 55.1057C66.8831 55.1057 67.1207 55.0363 67.3253 54.9058L71.9638 51.8908" fill="#263238"/>
<path d="M61.3171 51.8908L65.9557 54.9058C66.1602 55.0363 66.3978 55.1057 66.6405 55.1057C66.8831 55.1057 67.1207 55.0363 67.3253 54.9058L71.9638 51.8908" stroke="#1E42A2" stroke-width="0.437596" stroke-linecap="round" stroke-linejoin="round"/>
<path d="M62.3151 56.6125L64.8138 55.2078L62.3151 56.6125Z" fill="#263238"/>
<path d="M62.3151 56.6125L64.8138 55.2078" stroke="#1E42A2" stroke-width="0.437596" stroke-linecap="round" stroke-linejoin="round"/>
<path d="M70.9663 56.6125L68.472 55.2078L70.9663 56.6125Z" fill="#263238"/>
<path d="M70.9663 56.6125L68.472 55.2078" stroke="#1E42A2" stroke-width="0.437596" stroke-linecap="round" stroke-linejoin="round"/>
<path d="M54.6877 86.3779H46.2333C46.0012 86.3779 45.7786 86.2857 45.6145 86.1215C45.4504 85.9574 45.3582 85.7348 45.3582 85.5027C45.3582 85.2706 45.4504 85.048 45.6145 84.8838C45.7786 84.7197 46.0012 84.6275 46.2333 84.6275H54.6702C54.9023 84.6275 55.1249 84.7197 55.289 84.8838C55.4532 85.048 55.5454 85.2706 55.5454 85.5027C55.5454 85.7318 55.4556 85.9518 55.2953 86.1154C55.1349 86.2791 54.9168 86.3733 54.6877 86.3779Z" fill="#263238"/>
<path d="M72.8347 88.5308H45.8482C45.7252 88.5308 45.6072 88.482 45.5202 88.395C45.4332 88.308 45.3843 88.19 45.3843 88.067C45.39 87.9482 45.4415 87.8362 45.528 87.7546C45.6145 87.673 45.7293 87.6281 45.8482 87.6294H72.8347C72.894 87.6264 72.9533 87.6355 73.0089 87.6562C73.0645 87.6769 73.1154 87.7086 73.1584 87.7496C73.2014 87.7905 73.2356 87.8397 73.2589 87.8943C73.2823 87.9489 73.2943 88.0076 73.2942 88.067C73.2942 88.1893 73.2459 88.3066 73.1599 88.3934C73.0738 88.4803 72.957 88.5297 72.8347 88.5308Z" fill="#263238"/>
<path d="M41.2009 90.14C43.0857 88.3065 43.1273 85.2922 41.2938 83.4075C39.4603 81.5227 36.446 81.4811 34.5613 83.3146C32.6765 85.1481 32.635 88.1624 34.4684 90.0471C36.3019 91.9319 39.3162 91.9734 41.2009 90.14Z" fill="white" stroke="#263238" stroke-width="0.437596" stroke-linecap="round" stroke-linejoin="round"/>
<path d="M38.265 91.4801C39.604 91.2832 41.1969 90.1673 41.1969 90.1673C40.7551 89.9787 40.2965 89.8322 39.8272 89.7297C39.7077 89.7261 39.5904 89.6972 39.4829 89.6449C39.3754 89.5926 39.2803 89.518 39.2038 89.4262C39.1273 89.3344 39.0711 89.2273 39.039 89.1122C39.0069 88.997 38.9997 88.8764 39.0177 88.7582C39.6252 87.9377 39.934 86.934 39.8929 85.9139C39.871 85.1524 39.8929 83.6646 38.265 83.4633C38.1367 83.4565 38.0082 83.4565 37.8799 83.4633C37.7517 83.4565 37.6231 83.4565 37.4948 83.4633C35.8801 83.6646 35.8932 85.1524 35.867 85.9139C35.8258 86.934 36.1346 87.9377 36.7422 88.7582C36.7602 88.8764 36.7529 88.997 36.7208 89.1122C36.6888 89.2273 36.6326 89.3344 36.5561 89.4262C36.4795 89.518 36.3844 89.5926 36.2769 89.6449C36.1695 89.6972 36.0521 89.7261 35.9326 89.7297C35.4647 89.8321 35.0076 89.9786 34.5673 90.1673C34.5673 90.1673 36.1689 91.2613 37.4817 91.4801C37.6089 91.5022 37.7377 91.5139 37.8668 91.5151C37.9959 91.5141 38.1247 91.5024 38.2519 91.4801H38.265Z" fill="#263238"/>
<path d="M42.0065 92.2898C43.0457 92.2898 43.8881 91.4473 43.8881 90.4081C43.8881 89.3689 43.0457 88.5264 42.0065 88.5264C40.9673 88.5264 40.1248 89.3689 40.1248 90.4081C40.1248 91.4473 40.9673 92.2898 42.0065 92.2898Z" fill="#1E42A2" stroke="#263238" stroke-width="0.437596" stroke-linecap="round" stroke-linejoin="round"/>
<path d="M41.91 90.303L41.7787 89.4672H42.2163L42.085 90.303L42.8377 89.9223L42.9777 90.3599L42.1507 90.4999L42.7414 91.095L42.3782 91.362L41.9888 90.6137L41.5993 91.362L41.2361 91.095L41.8269 90.4999L40.9954 90.3599L41.1398 89.9223L41.91 90.303Z" fill="#263238"/>
<path d="M63.4396 101.637H46.2333C46.0012 101.637 45.7786 101.545 45.6145 101.38C45.4504 101.216 45.3582 100.994 45.3582 100.762C45.3582 100.529 45.4504 100.307 45.6145 100.143C45.7786 99.9786 46.0012 99.8864 46.2333 99.8864H63.4221C63.6542 99.8864 63.8768 99.9786 64.041 100.143C64.2051 100.307 64.2973 100.529 64.2973 100.762C64.2973 100.991 64.2075 101.211 64.0472 101.374C63.8868 101.538 63.6687 101.632 63.4396 101.637Z" fill="#263238"/>
<path d="M81.5866 103.79H45.8482C45.7252 103.79 45.6072 103.741 45.5202 103.654C45.4332 103.567 45.3843 103.449 45.3843 103.326C45.3843 103.265 45.3964 103.205 45.4197 103.149C45.4431 103.093 45.4773 103.042 45.5205 102.999C45.5636 102.957 45.6148 102.923 45.671 102.9C45.7273 102.877 45.7875 102.866 45.8482 102.866H81.5866C81.6478 102.863 81.7089 102.873 81.7661 102.895C81.8233 102.917 81.8752 102.951 81.9185 102.994C81.9618 103.037 81.9956 103.089 82.0175 103.146C82.0395 103.203 82.0492 103.265 82.0461 103.326C82.0461 103.448 81.9978 103.565 81.9118 103.652C81.8258 103.739 81.7089 103.788 81.5866 103.79Z" fill="#263238"/>
<path d="M39.0207 106.611C41.5745 105.985 43.137 103.407 42.5107 100.853C41.8843 98.2996 39.3064 96.7371 36.7526 97.3634C34.1988 97.9898 32.6363 100.568 33.2627 103.121C33.889 105.675 36.4669 107.238 39.0207 106.611Z" fill="white" stroke="#263238" stroke-width="0.437596" stroke-linecap="round" stroke-linejoin="round"/>
<path d="M38.265 106.717C39.604 106.52 41.1969 105.404 41.1969 105.404C40.7551 105.216 40.2965 105.069 39.8272 104.967C39.7077 104.963 39.5904 104.934 39.4829 104.882C39.3754 104.83 39.2803 104.755 39.2038 104.663C39.1273 104.571 39.0711 104.464 39.039 104.349C39.0069 104.234 38.9997 104.113 39.0177 103.995C39.6252 103.175 39.934 102.171 39.8929 101.151C39.871 100.39 39.8929 98.9017 38.265 98.7004C38.1367 98.6935 38.0082 98.6935 37.8799 98.7004C37.7517 98.6935 37.6231 98.6935 37.4948 98.7004C35.8801 98.9017 35.8932 100.39 35.867 101.151C35.8258 102.171 36.1346 103.175 36.7422 103.995C36.7602 104.113 36.7529 104.234 36.7208 104.349C36.6888 104.464 36.6326 104.571 36.5561 104.663C36.4795 104.755 36.3844 104.83 36.2769 104.882C36.1695 104.934 36.0521 104.963 35.9326 104.967C35.4647 105.069 35.0076 105.216 34.5673 105.404C34.5673 105.404 36.1558 106.52 37.4948 106.717C37.622 106.739 37.7508 106.751 37.8799 106.752C38.009 106.751 38.1378 106.739 38.265 106.717Z" fill="#263238"/>
<path d="M37.8798 98.3986C36.1688 98.3986 34.9698 99.5845 34.7466 103.86C36.7796 104.543 38.98 104.543 41.013 103.86C40.7898 99.5845 39.5908 98.3986 37.8798 98.3986Z" fill="#263238"/>
<path d="M59.0637 116.896H46.2333C46.0012 116.896 45.7786 116.803 45.6145 116.639C45.4504 116.475 45.3582 116.253 45.3582 116.02C45.3582 115.788 45.4504 115.566 45.6145 115.402C45.7786 115.237 46.0012 115.145 46.2333 115.145H59.0461C59.2783 115.145 59.5009 115.237 59.665 115.402C59.8291 115.566 59.9213 115.788 59.9213 116.02C59.9214 116.25 59.8316 116.47 59.6712 116.633C59.5109 116.797 59.2927 116.891 59.0637 116.896Z" fill="#263238"/>
<path d="M90.3385 119.049H45.8482C45.7875 119.049 45.7273 119.038 45.671 119.015C45.6148 118.992 45.5636 118.958 45.5205 118.916C45.4773 118.873 45.4431 118.822 45.4197 118.766C45.3964 118.71 45.3843 118.65 45.3843 118.589C45.3843 118.466 45.4332 118.348 45.5202 118.261C45.6072 118.174 45.7252 118.125 45.8482 118.125H90.3385C90.4608 118.127 90.5777 118.176 90.6637 118.263C90.7497 118.35 90.798 118.467 90.798 118.589C90.8012 118.65 90.7914 118.712 90.7694 118.769C90.7475 118.826 90.7137 118.878 90.6704 118.921C90.6271 118.964 90.5752 118.998 90.518 119.02C90.4609 119.042 90.3997 119.052 90.3385 119.049Z" fill="#263238"/>
<path d="M41.205 120.653C43.0898 118.82 43.1314 115.805 41.2979 113.921C39.4644 112.036 36.4501 111.994 34.5654 113.828C32.6806 115.661 32.639 118.676 34.4725 120.56C36.306 122.445 39.3203 122.487 41.205 120.653Z" fill="white" stroke="#263238" stroke-width="0.437596" stroke-linecap="round" stroke-linejoin="round"/>
<path d="M38.265 121.976C39.604 121.779 41.1969 120.664 41.1969 120.664C40.7551 120.475 40.2965 120.328 39.8272 120.226C39.7077 120.222 39.5904 120.193 39.4829 120.141C39.3754 120.089 39.2803 120.014 39.2038 119.922C39.1273 119.831 39.0711 119.724 39.039 119.608C39.0069 119.493 38.9997 119.373 39.0177 119.255C39.6259 118.433 39.9347 117.427 39.8929 116.406C39.871 115.649 39.8929 114.161 38.265 113.96C38.1371 113.945 38.0086 113.938 37.8799 113.938C37.7513 113.938 37.6227 113.945 37.4948 113.96C35.8801 114.161 35.8932 115.649 35.867 116.406C35.8252 117.427 36.134 118.433 36.7422 119.255C36.7602 119.373 36.7529 119.493 36.7208 119.608C36.6888 119.724 36.6326 119.831 36.5561 119.922C36.4795 120.014 36.3844 120.089 36.2769 120.141C36.1695 120.193 36.0521 120.222 35.9326 120.226C35.4647 120.328 35.0076 120.475 34.5673 120.664C34.5673 120.664 36.1558 121.779 37.4948 121.976C37.6223 121.996 37.7509 122.008 37.8799 122.011C38.0089 122.008 38.1376 121.997 38.265 121.976Z" fill="#263238"/>
<path d="M42.0065 122.808C43.0457 122.808 43.8881 121.965 43.8881 120.926C43.8881 119.887 43.0457 119.044 42.0065 119.044C40.9673 119.044 40.1248 119.887 40.1248 120.926C40.1248 121.965 40.9673 122.808 42.0065 122.808Z" fill="#1E42A2" stroke="#263238" stroke-width="0.437596" stroke-linecap="round" stroke-linejoin="round"/>
<path d="M41.91 120.799L41.7787 119.968H42.2163L42.085 120.799L42.8377 120.423L42.9777 120.86L42.1507 121L42.7414 121.591L42.3782 121.862L41.9888 121.114L41.5993 121.862L41.2361 121.591L41.8269 121L40.9954 120.86L41.1398 120.423L41.91 120.799Z" fill="#263238"/>
<path d="M50.3117 132.177H46.2333C46.0012 132.177 45.7786 132.084 45.6145 131.92C45.4504 131.756 45.3582 131.534 45.3582 131.301C45.3582 131.069 45.4504 130.847 45.6145 130.683C45.7786 130.518 46.0012 130.426 46.2333 130.426H50.2942C50.5263 130.426 50.749 130.518 50.9131 130.683C51.0772 130.847 51.1694 131.069 51.1694 131.301C51.1695 131.531 51.0797 131.751 50.9193 131.914C50.7589 132.078 50.5408 132.172 50.3117 132.177Z" fill="#263238"/>
<path d="M85.9626 134.303H45.8482C45.7875 134.304 45.7273 134.292 45.671 134.269C45.6148 134.247 45.5636 134.213 45.5205 134.17C45.4773 134.127 45.4431 134.077 45.4197 134.021C45.3964 133.965 45.3843 133.904 45.3843 133.844C45.3843 133.721 45.4332 133.603 45.5202 133.516C45.6072 133.429 45.7252 133.38 45.8482 133.38H85.9626C86.0848 133.381 86.2017 133.43 86.2878 133.517C86.3738 133.604 86.4221 133.721 86.4221 133.844C86.4252 133.905 86.4155 133.966 86.3935 134.023C86.3715 134.08 86.3378 134.132 86.2945 134.176C86.2512 134.219 86.1992 134.253 86.1421 134.275C86.0849 134.297 86.0237 134.306 85.9626 134.303Z" fill="#263238"/>
<path d="M41.2066 135.914C43.0914 134.08 43.1329 131.066 41.2994 129.181C39.466 127.297 36.4517 127.255 34.567 129.088C32.6822 130.922 32.6406 133.936 34.4741 135.821C36.3076 137.706 39.3219 137.747 41.2066 135.914Z" fill="white" stroke="#263238" stroke-width="0.437596" stroke-linecap="round" stroke-linejoin="round"/>
<path d="M38.265 137.235C39.604 137.034 41.1969 135.922 41.1969 135.922C40.7551 135.734 40.2965 135.587 39.8272 135.485C39.708 135.481 39.591 135.451 39.4838 135.399C39.3767 135.346 39.2819 135.272 39.2055 135.18C39.1291 135.088 39.0729 134.982 39.0405 134.867C39.0082 134.752 39.0004 134.632 39.0177 134.513C39.6259 133.692 39.9347 132.686 39.8929 131.665C39.871 130.908 39.8929 129.42 38.265 129.219C38.1371 129.204 38.0086 129.197 37.8799 129.197C37.7513 129.197 37.6227 129.204 37.4948 129.219C35.8801 129.42 35.8932 130.908 35.867 131.665C35.8252 132.686 36.134 133.692 36.7422 134.513C36.7595 134.632 36.7517 134.752 36.7193 134.867C36.687 134.982 36.6308 135.088 36.5544 135.18C36.478 135.272 36.3831 135.346 36.276 135.399C36.1689 135.451 36.0519 135.481 35.9326 135.485C35.4647 135.587 35.0076 135.734 34.5673 135.922C34.5673 135.922 36.1558 137.034 37.4948 137.235C37.6224 137.254 37.751 137.264 37.8799 137.266C38.0088 137.264 38.1375 137.254 38.265 137.235Z" fill="#263238"/>
<path d="M59.0637 147.414H46.2333C46.0012 147.414 45.7786 147.322 45.6145 147.157C45.4504 146.993 45.3582 146.771 45.3582 146.539C45.3582 146.306 45.4504 146.084 45.6145 145.92C45.7786 145.756 46.0012 145.663 46.2333 145.663H59.0461C59.2783 145.663 59.5009 145.756 59.665 145.92C59.8291 146.084 59.9213 146.306 59.9213 146.539C59.9214 146.768 59.8316 146.988 59.6712 147.151C59.5109 147.315 59.2927 147.409 59.0637 147.414Z" fill="#263238"/>
<path d="M42.6405 147.763C42.6409 148.025 42.619 148.285 42.5749 148.542H33.1841C33.1399 148.285 33.118 148.025 33.1184 147.763C33.1184 146.501 33.62 145.29 34.5129 144.397C35.4058 143.504 36.6168 143.002 37.8795 143.002C39.1422 143.002 40.3532 143.504 41.246 144.397C42.1389 145.29 42.6405 146.501 42.6405 147.763Z" fill="white" stroke="#263238" stroke-width="0.437596" stroke-linecap="round" stroke-linejoin="round"/>
<path d="M39.8927 146.919C39.9133 147.471 39.8317 148.021 39.652 148.543H36.1075C35.9278 148.021 35.8462 147.471 35.8668 146.919C35.8931 146.162 35.8668 144.674 37.4947 144.473C37.7506 144.444 38.009 144.444 38.2649 144.473C39.884 144.674 39.8708 146.18 39.8927 146.919Z" fill="#263238"/>
<path d="M91.9837 146.214C95.4567 146.214 98.272 143.399 98.272 139.926C98.272 136.453 95.4567 133.638 91.9837 133.638C88.5108 133.638 85.6955 136.453 85.6955 139.926C85.6955 143.399 88.5108 146.214 91.9837 146.214Z" fill="#1E42A2" stroke="#263238" stroke-width="0.437596" stroke-linecap="round" stroke-linejoin="round"/>
<path d="M94.7316 138.027L93.8869 137.182L90.0871 140.982L90.9319 141.827L94.7316 138.027Z" fill="#263238"/>
<path d="M89.7039 141.362L89.2401 142.67L90.5485 142.206L89.7039 141.362Z" fill="#263238"/>
<path d="M116.284 48.2415H138.072C138.826 48.2415 139.55 48.5411 140.083 49.0746C140.616 49.608 140.916 50.3315 140.916 51.0858V64.0649C140.917 64.4388 140.844 64.8092 140.701 65.1548C140.558 65.5004 140.349 65.8144 140.085 66.079C139.82 66.3436 139.507 66.5535 139.161 66.6967C138.816 66.8399 138.446 66.9137 138.072 66.9137H135.354L137.866 71.6747L132.064 66.9137H116.284C115.91 66.9137 115.54 66.8399 115.194 66.6967C114.849 66.5535 114.535 66.3436 114.271 66.079C114.007 65.8144 113.797 65.5004 113.655 65.1548C113.512 64.8092 113.439 64.4388 113.439 64.0649V51.0858C113.439 50.3315 113.739 49.608 114.273 49.0746C114.806 48.5411 115.529 48.2415 116.284 48.2415V48.2415Z" stroke="#263238" stroke-width="0.437596" stroke-linecap="round" stroke-linejoin="round"/>
<g opacity="0.5">
<path d="M117.453 53.4884H136.909C137.107 53.4884 137.267 53.3277 137.267 53.1295V52.972C137.267 52.7738 137.107 52.6132 136.909 52.6132H117.453C117.255 52.6132 117.094 52.7738 117.094 52.972V53.1295C117.094 53.3277 117.255 53.4884 117.453 53.4884Z" fill="#263238"/>
<path d="M117.453 56.4377H136.909C137.107 56.4377 137.267 56.277 137.267 56.0788V55.9213C137.267 55.7231 137.107 55.5625 136.909 55.5625H117.453C117.255 55.5625 117.094 55.7231 117.094 55.9213V56.0788C117.094 56.277 117.255 56.4377 117.453 56.4377Z" fill="#263238"/>
<path d="M117.453 59.3871H136.909C137.107 59.3871 137.267 59.2265 137.267 59.0283V58.8708C137.267 58.6726 137.107 58.512 136.909 58.512H117.453C117.255 58.512 117.094 58.6726 117.094 58.8708V59.0283C117.094 59.2265 117.255 59.3871 117.453 59.3871Z" fill="#263238"/>
<path d="M126.642 62.3411H136.904C137.102 62.3411 137.263 62.1804 137.263 61.9822V61.8247C137.263 61.6265 137.102 61.4659 136.904 61.4659H126.642C126.444 61.4659 126.283 61.6265 126.283 61.8247V61.9822C126.283 62.1804 126.444 62.3411 126.642 62.3411Z" fill="#263238"/>
</g>
<path d="M143.476 132.741C143.475 132.75 143.475 132.759 143.476 132.767C143.266 133.205 140.238 139.677 136.549 145.895C135.582 147.527 134.571 149.138 133.552 150.621C131.333 153.851 129.084 156.463 127.215 157.277C121.089 159.942 124.59 139.06 124.59 139.06C126.824 136.401 128.746 133.493 130.318 130.396C131.049 128.952 131.897 127.276 132.786 125.582C133.468 124.291 134.169 123 134.856 121.806C136.409 119.092 137.858 116.905 138.737 116.476C139.7 116.003 141.03 120.882 142.037 125.42C142.855 129.201 143.476 132.741 143.476 132.741Z" fill="white" stroke="#263238" stroke-width="0.437596" stroke-linecap="round" stroke-linejoin="round"/>
<path d="M143.476 132.741C143.475 132.75 143.475 132.759 143.476 132.767C143.266 133.205 140.238 139.677 136.549 145.895C137.661 135.958 136.619 129.31 136.619 129.31C134.252 125.731 132.768 125.595 132.768 125.595C133.451 124.304 134.151 123.013 134.838 121.819L137.971 118.891L142.019 125.433C142.855 129.201 143.476 132.741 143.476 132.741Z" fill="#263238"/>
<path d="M171.71 65.9115C177.241 69.9155 182.081 84.0586 180.234 93.2481C178.388 102.438 187.888 105.063 187.853 119.569C187.853 123.613 175.329 140.049 160.788 131.28C146.246 122.51 142.207 118.195 143.59 109.4C144.973 100.604 145.034 94.8191 142.409 87.4368C139.783 80.0546 161.676 58.6605 171.71 65.9115Z" fill="#263238"/>
<path d="M192.986 127.941L189.896 130.037C189.091 135.107 187.689 140.065 185.717 144.806C181.827 153.938 178.383 159.382 177.18 161.18C176.882 161.618 176.72 161.837 176.72 161.837L179.95 173.945C179.95 173.945 158.398 196.354 134.628 193.121L136.216 180.43L138.356 163.364L139.052 157.82C139.052 157.82 138.759 153.842 138.291 148.945C137.971 145.571 137.568 141.76 137.113 138.513C137.095 138.368 137.087 138.222 137.091 138.075C137.127 136.027 138.732 131.721 138.732 131.721C137.376 129.573 136.107 127.595 135.061 126.033C133.678 123.937 132.764 122.589 132.764 122.589C132.764 122.589 137.577 116.673 137.849 115.999C139.371 112.012 144.693 112.756 144.693 112.756C145.09 112.371 145.587 112.105 146.128 111.986C148.657 111.351 155.847 116.392 159.772 116.432C163.697 116.471 182.965 111.281 182.965 111.281L184.925 111.986C184.925 111.986 187.581 111.671 189.655 115.513C190.64 117.373 192.986 127.941 192.986 127.941Z" fill="#1E42A2"/>
<path opacity="0.3" d="M158.39 177.844C158.39 177.844 144.999 182.365 136.195 180.435L138.335 163.369C140.242 165.263 151.305 175.936 158.39 177.844Z" fill="black" fill-opacity="0.7"/>
<path opacity="0.3" d="M138.711 131.739C137.354 129.59 136.085 127.612 135.04 126.05C135.95 123.862 137.302 121.836 139.175 121.954C139.175 121.954 137.866 127.766 138.711 131.739Z" fill="black" fill-opacity="0.7"/>
<path opacity="0.3" d="M182.138 127.941C179.735 128.737 174.292 131.148 174.292 131.148L173.285 129.98L177.158 124.431C177.158 124.431 174.432 125.534 173.285 126.921C172.139 128.308 171.837 131.402 171.793 131.389C171.749 131.376 170.791 128.133 170.791 128.133C170.465 129.483 170.252 130.857 170.152 132.242C170.025 133.708 171.635 136.093 173.031 137.865L170.598 150.814L161.321 145.173L156.945 142.521C156.563 142.32 156.193 142.095 155.838 141.847C155.331 141.436 154.998 140.902 154.407 140.535C153.732 140.156 153.003 139.883 152.246 139.725C149.476 139.08 146.597 139.058 143.817 139.659C142.645 139.913 141.441 140.276 140.277 140.001C139.113 139.725 138.116 138.793 137.092 138.093C137.087 138.239 137.095 138.385 137.114 138.53C137.551 141.777 137.989 145.589 138.291 148.963H138.79C139.113 148.945 139.436 148.971 139.752 149.041C140.422 149.225 141.752 152.49 142.212 153.006C145.568 156.752 151.182 163.071 155.261 166.025C154.447 163.837 150.189 156.179 150.268 153.772C151.182 154.078 151.896 154.783 152.631 155.408C154.845 157.308 157.488 158.629 160.096 159.933L165.842 162.808C167.592 163.683 169.898 165.053 171.911 164.515C173.561 164.077 175.639 162.419 176.957 161.373L177.175 161.198C178.379 159.399 181.823 153.956 185.713 144.823C187.684 140.082 189.087 135.125 189.892 130.054L192.981 127.958C192.981 127.958 184.54 127.144 182.138 127.941Z" fill="black" fill-opacity="0.7"/>
<path d="M134.628 193.12L139.052 157.841C139.052 157.841 138.22 146.499 137.113 138.535C136.864 136.749 138.732 131.739 138.732 131.739C135.551 126.707 132.764 122.606 132.764 122.606C132.764 122.606 137.577 116.69 137.849 116.016C139.371 112.03 144.693 112.774 144.693 112.774C145.09 112.389 145.587 112.122 146.128 112.003C148.657 111.369 155.847 116.41 159.772 116.449C163.697 116.489 182.965 111.299 182.965 111.299L184.925 112.003C184.925 112.003 187.581 111.688 189.655 115.53C190.653 117.373 193.003 127.941 193.003 127.941L189.914 130.037C189.109 135.107 187.706 140.065 185.735 144.806C180.886 156.183 176.733 161.845 176.733 161.845L179.963 173.954" stroke="#263238" stroke-width="0.437596" stroke-linecap="round" stroke-linejoin="round"/>
<path d="M177.666 123.762C177.666 123.762 172.182 130.864 172.318 132.177C172.454 133.489 174.992 134.841 174.992 134.841" stroke="#263238" stroke-width="0.437596" stroke-linecap="round" stroke-linejoin="round"/>
<path d="M170.598 126.61C170.863 128.455 171.016 130.314 171.058 132.177C171.058 134.61 177.665 138.649 177.665 138.649" stroke="#263238" stroke-width="0.437596" stroke-linecap="round" stroke-linejoin="round"/>
<path d="M138.711 131.739C138.711 131.739 138.251 122.374 139.709 120.76" stroke="#263238" stroke-width="0.437596" stroke-linecap="round" stroke-linejoin="round"/>
<path d="M137.092 124.221C137.092 124.221 137.844 129.07 138.641 129.993" stroke="#263238" stroke-width="0.437596" stroke-linecap="round" stroke-linejoin="round"/>
<path d="M161.711 127.941C161.711 127.941 152.245 134.032 143.476 134.842" stroke="#263238" stroke-width="0.437596" stroke-linecap="round" stroke-linejoin="round"/>
<path d="M143.476 154.577C143.476 154.577 154.092 167.386 161.019 169.119" stroke="#263238" stroke-width="0.437596" stroke-linecap="round" stroke-linejoin="round"/>
<path d="M176.716 161.846C176.716 161.846 174.305 160.095 174.992 159.071" stroke="#263238" stroke-width="0.437596" stroke-linecap="round" stroke-linejoin="round"/>
<path d="M170.598 172.26C170.598 172.26 155.536 180.658 147.843 179.966" stroke="#263238" stroke-width="0.437596" stroke-linecap="round" stroke-linejoin="round"/>
<path d="M130.182 145.34C128.217 138.119 125.001 135.765 122.879 128.033C122.248 125.744 120.38 118.764 120.38 118.764C120.38 118.764 122.765 111.325 117.999 107.089C117.999 107.089 116.687 107.089 114.45 112.24C113.516 114.49 113.274 116.967 113.755 119.355C113.755 119.355 115.238 128.427 115.562 130.864C116.341 136.741 118.03 146.582 120.375 151.523C122.892 156.805 125.543 157.986 127.53 156.896" fill="white"/>
<path d="M130.182 145.34C128.217 138.119 125.001 135.765 122.879 128.033C122.248 125.744 120.38 118.764 120.38 118.764C120.38 118.764 122.765 111.325 117.999 107.089C117.999 107.089 116.687 107.089 114.45 112.24C113.516 114.49 113.274 116.967 113.755 119.355C113.755 119.355 115.238 128.427 115.562 130.864C116.341 136.741 118.03 146.582 120.375 151.523C122.892 156.805 125.543 157.986 127.53 156.896" stroke="#263238" stroke-width="0.437596" stroke-linecap="round" stroke-linejoin="round"/>
<path d="M121.211 117.18L126.314 118.865C126.852 119.005 127.911 118.108 127.863 117.552L126.336 99.7946C126.306 99.4448 126.168 99.1129 125.942 98.8448C125.715 98.5767 125.411 98.3856 125.071 98.298L119.439 97.0727C118.901 96.9371 117.549 97.5803 117.597 98.1317L119.942 115.684C119.972 116.034 120.111 116.366 120.338 116.634C120.566 116.903 120.871 117.093 121.211 117.18Z" fill="#1E42A2"/>
<mask id="mask0_136_1475" style="mask-type:luminance" maskUnits="userSpaceOnUse" x="117" y="97" width="11" height="22">
<path d="M121.211 117.18L126.314 118.865C126.852 119.005 127.911 118.108 127.863 117.552L126.336 99.7946C126.306 99.4448 126.168 99.1129 125.942 98.8448C125.715 98.5767 125.411 98.3856 125.071 98.298L119.439 97.0727C118.901 96.9371 117.549 97.5803 117.597 98.1317L119.942 115.684C119.972 116.034 120.111 116.366 120.338 116.634C120.566 116.903 120.871 117.093 121.211 117.18Z" fill="white"/>
</mask>
<g mask="url(#mask0_136_1475)">
<path opacity="0.3" d="M121.211 117.18L126.314 118.865C126.852 119.005 127.911 118.108 127.863 117.552L126.336 99.7946C126.306 99.4448 126.168 99.1129 125.942 98.8448C125.715 98.5767 125.411 98.3856 125.071 98.298L119.439 97.0727C118.901 96.9371 117.549 97.5803 117.597 98.1317L119.942 115.684C119.972 116.034 120.111 116.366 120.338 116.634C120.566 116.903 120.871 117.093 121.211 117.18Z" fill="black" fill-opacity="0.7"/>
</g>
<path d="M121.211 117.18L126.314 118.865C126.852 119.005 127.911 118.108 127.863 117.552L126.336 99.7946C126.306 99.4448 126.168 99.1129 125.942 98.8448C125.715 98.5767 125.411 98.3856 125.071 98.298L119.439 97.0727C118.901 96.9371 117.549 97.5803 117.597 98.1317L119.942 115.684C119.972 116.034 120.111 116.366 120.338 116.634C120.566 116.903 120.871 117.093 121.211 117.18V117.18Z" stroke="#263238" stroke-width="0.437596" stroke-linecap="round" stroke-linejoin="round"/>
<path d="M120.371 117.618L126.003 118.839C126.127 118.871 126.258 118.874 126.383 118.846C126.508 118.817 126.625 118.76 126.724 118.677C126.822 118.594 126.899 118.489 126.948 118.37C126.997 118.251 127.016 118.122 127.005 117.994L125.5 100.232C125.47 99.8818 125.332 99.5495 125.104 99.2813C124.877 99.0131 124.572 98.8224 124.231 98.7355L118.603 97.5102C118.479 97.4783 118.348 97.4767 118.223 97.5055C118.098 97.5343 117.981 97.5927 117.883 97.6759C117.785 97.759 117.708 97.8644 117.659 97.9833C117.61 98.1022 117.59 98.2311 117.601 98.3592L119.107 116.121C119.136 116.471 119.274 116.803 119.5 117.071C119.727 117.339 120.031 117.53 120.371 117.618Z" fill="#1E42A2" stroke="#263238" stroke-width="0.437596" stroke-linecap="round" stroke-linejoin="round"/>
<path opacity="0.3" d="M123.496 103.518L124.402 103.715C124.422 103.72 124.442 103.72 124.462 103.716C124.482 103.711 124.501 103.702 124.517 103.688C124.533 103.675 124.545 103.659 124.553 103.64C124.561 103.621 124.565 103.6 124.564 103.58L124.323 100.713C124.317 100.657 124.295 100.604 124.258 100.561C124.221 100.518 124.172 100.487 124.117 100.473L123.207 100.276C123.187 100.271 123.166 100.271 123.146 100.276C123.126 100.28 123.108 100.29 123.092 100.303C123.076 100.316 123.064 100.333 123.055 100.352C123.047 100.371 123.044 100.391 123.045 100.412L123.29 103.278C123.296 103.334 123.318 103.388 123.355 103.431C123.392 103.474 123.441 103.504 123.496 103.518Z" fill="black" fill-opacity="0.7"/>
<path d="M115.575 112.419C115.356 109.929 117.623 106.192 119.133 106.192C120.642 106.192 125.228 109.728 125.228 109.728C127.005 111.014 126.125 112.24 126.125 112.24C127.171 112.931 127.438 113.868 126.979 114.301C126.519 114.734 124.983 114.301 124.983 114.301C124.983 114.301 126.506 115.412 126.125 115.959C125.228 117.25 122.279 115.548 122.279 115.548C122.279 115.548 123.99 116.677 123.894 116.891C123.246 118.3 120.45 116.659 120.45 116.659L118.485 117.666C118.487 117.898 118.441 118.127 118.349 118.34C118.258 118.553 118.124 118.745 117.955 118.904C117.786 119.062 117.586 119.184 117.368 119.262C117.15 119.34 116.918 119.371 116.686 119.355" fill="white"/>
<path d="M115.575 112.419C115.356 109.929 117.623 106.192 119.133 106.192C120.642 106.192 125.228 109.728 125.228 109.728C127.005 111.014 126.125 112.24 126.125 112.24C127.171 112.931 127.438 113.868 126.979 114.301C126.519 114.734 124.983 114.301 124.983 114.301C124.983 114.301 126.506 115.412 126.125 115.959C125.228 117.25 122.279 115.548 122.279 115.548C122.279 115.548 123.99 116.677 123.894 116.891C123.246 118.3 120.45 116.659 120.45 116.659L118.485 117.666C118.487 117.898 118.441 118.127 118.349 118.34C118.258 118.553 118.124 118.745 117.955 118.904C117.786 119.062 117.586 119.184 117.368 119.262C117.15 119.34 116.918 119.371 116.686 119.355" stroke="#263238" stroke-width="0.437596" stroke-linecap="round" stroke-linejoin="round"/>
<path d="M126.125 112.24C126.125 112.24 121.828 109.465 121.286 109.391C120.743 109.317 118.752 108.883 118.752 108.883" fill="white"/>
<path d="M126.125 112.24C126.125 112.24 121.828 109.465 121.286 109.391C120.743 109.317 118.752 108.883 118.752 108.883" stroke="#263238" stroke-width="0.437596" stroke-linecap="round" stroke-linejoin="round"/>
<path d="M125.001 114.301C125.001 114.301 121.5 112.498 120.87 112.498C119.904 112.392 118.945 112.227 117.999 112.004" fill="white"/>
<path d="M125.001 114.301C125.001 114.301 121.5 112.498 120.87 112.498C119.904 112.392 118.945 112.227 117.999 112.004" stroke="#263238" stroke-width="0.437596" stroke-linecap="round" stroke-linejoin="round"/>
<path d="M122.279 115.548C121.872 115.258 121.44 115.003 120.988 114.786C120.155 114.727 119.319 114.727 118.485 114.786" fill="white"/>
<path d="M122.279 115.548C121.872 115.258 121.44 115.003 120.988 114.786C120.155 114.727 119.319 114.727 118.485 114.786" stroke="#263238" stroke-width="0.437596" stroke-linecap="round" stroke-linejoin="round"/>
<path d="M166.039 143.497C166.039 143.497 168.752 141.97 171.176 136.273C173.6 130.575 174.292 131.148 174.292 131.148C174.292 131.148 179.6 128.545 182.138 127.941C184.676 127.337 189.292 127.941 189.292 127.941C189.292 127.941 185.354 139.366 181.333 146.797C177.311 154.227 174.073 158.612 171.924 159.049C169.776 159.487 166.039 143.497 166.039 143.497Z" fill="white" stroke="#263238" stroke-width="0.437596" stroke-linecap="round" stroke-linejoin="round"/>
<path d="M181.792 112.047C181.792 112.047 162.477 122.335 156.893 122.278C151.309 122.221 147.83 112.651 147.83 112.651C147.83 112.651 158.158 112.419 156.959 107.483C156.959 107.4 156.919 107.308 156.893 107.221C156.399 105.496 154.504 102.477 153.799 101.392C153.633 101.134 153.532 100.985 153.532 100.985L168.818 89.5723C167.942 101.112 169.631 106.17 170.669 108.069C172.45 111.321 181.792 112.047 181.792 112.047Z" fill="white" stroke="#263238" stroke-width="0.437596" stroke-linecap="round" stroke-linejoin="round"/>
<path d="M164.481 96.0399C164.481 96.0399 161.295 105.046 156.945 107.483C156.945 107.4 156.906 107.308 156.88 107.22C156.385 105.496 154.491 102.477 153.786 101.392L164.481 96.0399Z" fill="#263238"/>
<path d="M157.86 119.535C157.86 119.535 158.941 117.447 160.556 117.202C162.17 116.957 166.616 116.913 174.839 115.548" stroke="#263238" stroke-width="0.437596" stroke-linecap="round" stroke-linejoin="round"/>
<path d="M155.379 119.535C155.379 119.535 154.687 117.911 154.503 117.202C154.32 116.493 150.022 115.601 148.596 114.428" stroke="#263238" stroke-width="0.437596" stroke-linecap="round" stroke-linejoin="round"/>
<path d="M143.691 70.5762C140.859 73.6613 140.015 83.7304 141.428 88.0801C141.428 88.0801 148.522 89.0953 150.18 87.8175C151.839 86.5397 143.691 70.5762 143.691 70.5762Z" fill="#263238"/>
<path d="M170.366 90.9114C171.049 87.8964 174.668 73.2807 166.148 66.813C157.628 60.3454 147.235 68.9704 145.778 71.0052C139.901 79.2145 142.505 85.7391 143.59 89.673C144.675 93.607 144.141 98.3724 149.637 104.923C151.948 107.676 156.105 106.21 160.201 103.361C162.656 101.654 166.113 98.6525 166.2 95.76" fill="white"/>
<path d="M170.366 90.9114C171.049 87.8964 174.668 73.2807 166.148 66.813C157.628 60.3454 147.235 68.9704 145.778 71.0052C139.901 79.2145 142.505 85.7391 143.59 89.673C144.675 93.607 144.141 98.3724 149.637 104.923C151.948 107.676 156.105 106.21 160.201 103.361C162.656 101.654 166.113 98.6525 166.2 95.76" stroke="#263238" stroke-width="0.437596" stroke-linecap="round" stroke-linejoin="round"/>
<path d="M150.889 84.5049C150.889 84.5049 155.506 83.6822 158.118 85.3188" stroke="#263238" stroke-width="0.437596" stroke-linecap="round" stroke-linejoin="round"/>
<path d="M155.773 88.9683C155.886 89.6772 155.637 90.3074 155.212 90.3774C154.788 90.4474 154.337 89.9398 154.232 89.2221C154.127 88.5045 154.368 87.8831 154.792 87.8131C155.217 87.743 155.654 88.2594 155.773 88.9683Z" fill="#263238"/>
<path d="M146.548 88.9683C146.662 89.6772 146.413 90.3074 145.988 90.3774C145.564 90.4474 145.113 89.9398 145.008 89.2221C144.903 88.5045 145.144 87.8831 145.568 87.8131C145.993 87.743 146.443 88.2594 146.548 88.9683Z" fill="#263238"/>
<path d="M145.778 84.5487C145.778 84.5487 143.231 83.6385 142.409 84.8069" stroke="#263238" stroke-width="0.437596" stroke-linecap="round" stroke-linejoin="round"/>
<path d="M147.384 88.6182C147.646 89.6159 145.633 94.1144 145.778 94.5039C145.922 94.8933 146.911 95.5847 148.683 95.7598" stroke="#263238" stroke-width="0.437596" stroke-linecap="round" stroke-linejoin="round"/>
<path d="M149.559 98.8537C149.559 98.8537 153.252 98.8537 155.379 97.3528" stroke="#263238" stroke-width="0.437596" stroke-linecap="round" stroke-linejoin="round"/>
<path d="M144.745 68.4058C144.745 68.4058 140.851 72.0247 143.363 79.14C143.917 80.591 144.736 81.9264 145.778 83.0784C148.382 81.6125 149.681 83.9011 151.239 83.1528C152.797 82.4045 155.278 83.993 156.893 83.6779C157.687 83.501 158.511 83.5088 159.302 83.7008C160.092 83.8927 160.828 84.2637 161.453 84.785C162.665 85.8703 162.665 88.2464 164.481 89.3929C164.481 89.3929 165.54 85.6777 167.772 86.216C170.003 86.7542 168.03 93.2175 168.03 93.2175C170.827 89.8084 172.571 85.659 173.049 81.2755C173.924 73.8364 170.984 67.3381 166.048 65.9597C166.048 65.9597 164.402 62.7565 158.775 63.2728C153.147 63.7892 148.045 63.4741 144.745 68.4058Z" fill="#263238"/>
<path d="M166.039 87.1918C166.039 87.1918 168.117 82.0981 171.145 84.2117C174.173 86.3253 170.541 92.8149 169.067 94.4602C167.592 96.1056 167.163 94.2896 166.993 93.7688" fill="white"/>
<path d="M166.039 87.1918C166.039 87.1918 168.117 82.0981 171.145 84.2117C174.173 86.3253 170.541 92.8149 169.067 94.4602C167.592 96.1056 167.163 94.2896 166.993 93.7688" stroke="#263238" stroke-width="0.437596" stroke-linecap="round" stroke-linejoin="round"/>
<g opacity="0.2">
<path d="M146.111 72.1078C146.198 70.8329 146.58 69.5956 147.226 68.4933" stroke="white" stroke-width="0.437596" stroke-linecap="round" stroke-linejoin="round"/>
<path d="M149.559 80.8729C147.686 78.7812 146.259 75.9675 146.106 73.1406" stroke="white" stroke-width="0.437596" stroke-linecap="round" stroke-linejoin="round"/>
<path d="M153.532 77.3547C154.589 79.0839 156.081 80.5054 157.86 81.4768" stroke="white" stroke-width="0.437596" stroke-linecap="round" stroke-linejoin="round"/>
<path d="M152.469 68.4933C151.033 70.7994 151.86 74.1076 152.981 76.37" stroke="white" stroke-width="0.437596" stroke-linecap="round" stroke-linejoin="round"/>
<path d="M167.054 81.608C168.138 82.1707 169.278 82.6208 170.454 82.9514" stroke="white" stroke-width="0.437596" stroke-linecap="round" stroke-linejoin="round"/>
<path d="M156.893 71.5258C159.08 75.4738 162.267 78.7773 166.135 81.1047" stroke="white" stroke-width="0.437596" stroke-linecap="round" stroke-linejoin="round"/>
</g>
<path d="M135.122 109.483C135.122 109.483 133.809 109.483 133.691 110.441C133.573 111.4 135.529 112.651 135.529 112.651" fill="white"/>
<path d="M135.122 109.483C135.122 109.483 133.809 109.483 133.691 110.441C133.573 111.4 135.529 112.651 135.529 112.651" stroke="#263238" stroke-width="0.437596" stroke-linecap="round" stroke-linejoin="round"/>
<path d="M171.999 144.294C169.041 139.782 164.866 136.96 161.133 131.953C158.044 127.802 155.193 123.477 152.596 119.001L148.636 111.561C148.636 111.561 143.787 105.715 141.827 104.998C139.866 104.28 129.136 103.939 129.136 103.939C129.136 103.939 128.699 105.103 130.357 105.689C132.016 106.275 137.096 106.752 137.096 106.752C137.096 106.752 135.6 107.396 135.254 107.925C134.908 108.455 135.254 112.804 135.945 113.688C136.637 114.572 139.293 115.377 139.293 115.377C139.293 115.377 139.643 118.44 142.238 119.959C144.833 121.477 146.102 121.495 146.102 121.495C146.102 121.495 148.544 125.643 149.563 128.606C151.751 134.92 157.269 149.278 161.256 154.455C165.973 160.581 172.086 160.817 174.296 156.918" fill="white"/>
<path d="M171.999 144.294C169.041 139.782 164.866 136.96 161.133 131.953C158.044 127.802 155.193 123.477 152.596 119.001L148.636 111.561C148.636 111.561 143.787 105.715 141.827 104.998C139.866 104.28 129.136 103.939 129.136 103.939C129.136 103.939 128.699 105.103 130.357 105.689C132.016 106.275 137.096 106.752 137.096 106.752C137.096 106.752 135.6 107.396 135.254 107.925C134.908 108.455 135.254 112.804 135.945 113.688C136.637 114.572 139.293 115.377 139.293 115.377C139.293 115.377 139.643 118.44 142.238 119.959C144.833 121.477 146.102 121.495 146.102 121.495C146.102 121.495 148.544 125.643 149.563 128.606C151.751 134.92 157.269 149.278 161.256 154.455C165.973 160.581 172.086 160.817 174.296 156.918" stroke="#263238" stroke-width="0.437596" stroke-linecap="round" stroke-linejoin="round"/>
<path d="M141.63 109.063C141.63 109.063 137.866 109.5 137.389 109.842C136.912 110.183 137.14 112.874 137.389 113.815C137.432 114.06 137.527 114.293 137.67 114.497C137.812 114.701 137.997 114.872 138.212 114.997" stroke="#263238" stroke-width="0.437596" stroke-linecap="round" stroke-linejoin="round"/>
<path d="M140.076 106.84C140.076 106.84 136.374 107.763 136.138 108.24C135.794 109.542 135.735 110.904 135.967 112.231C136.269 113.693 136.357 114.152 136.921 114.419" stroke="#263238" stroke-width="0.437596" stroke-linecap="round" stroke-linejoin="round"/>
<path d="M137.092 106.757C137.618 106.537 138.159 106.352 138.711 106.205" stroke="#263238" stroke-width="0.437596" stroke-linecap="round" stroke-linejoin="round"/>
<path d="M139.349 112.047C139.666 112.409 140.055 112.699 140.492 112.899C140.929 113.099 141.403 113.204 141.883 113.207C141.883 113.207 141.073 116.322 142.518 118.344" stroke="#263238" stroke-width="0.437596" stroke-linecap="round" stroke-linejoin="round"/>
<path d="M140.076 112.651C140.076 112.651 139.24 113.33 139.349 113.693" stroke="#263238" stroke-width="0.437596" stroke-linecap="round" stroke-linejoin="round"/>
<path d="M174.292 131.148C174.292 131.148 181.731 127.893 182.807 127.674C183.884 127.455 191.949 127.853 191.949 127.853C190.951 128.774 189.8 129.514 188.548 130.041C188.548 130.041 188.369 128.558 186.361 128.387C184.352 128.216 174.292 131.148 174.292 131.148Z" fill="#263238"/>
</svg>
