<svg xmlns="http://www.w3.org/2000/svg" width="240" height="146" fill="none"><g fill="#fff"><path d="M65.544 101.494h-2.068V82.996h-6.808v-1.838h15.683v1.838h-6.807v18.498ZM76.853 90.263c.364-.785.967-1.407 1.81-1.867a5.553 5.553 0 0 1 2.7-.69c1.704 0 2.977.508 3.82 1.523.861 1.015 1.292 2.355 1.292 4.021v8.244h-1.953v-7.44c0-.708-.058-1.35-.172-1.924-.115-.574-.316-1.063-.604-1.465a2.656 2.656 0 0 0-1.12-.976c-.46-.23-1.043-.345-1.752-.345-.517 0-1.024.105-1.522.316-.479.21-.91.536-1.293.977-.383.42-.69.966-.919 1.637-.23.65-.345 1.426-.345 2.326v6.894h-1.953V79.779h1.953v10.484h.058ZM101.785 93.739c-.058-1.264-.47-2.308-1.235-3.131-.747-.843-1.82-1.264-3.217-1.264-.651 0-1.255.125-1.81.373a4.466 4.466 0 0 0-1.465.977 4.613 4.613 0 0 0-1.005 1.407 4.418 4.418 0 0 0-.431 1.638h9.163Zm1.982.632v.43c0 .154-.01.316-.029.489H92.593c.02.67.153 1.302.402 1.895.25.594.594 1.111 1.034 1.551.44.44.958.795 1.552 1.063a4.928 4.928 0 0 0 1.924.374c1.015 0 1.886-.23 2.614-.69.746-.479 1.311-1.024 1.694-1.637l1.465 1.149c-.804 1.015-1.694 1.742-2.671 2.183-.957.44-1.992.66-3.102.66a7.426 7.426 0 0 1-2.786-.517 6.692 6.692 0 0 1-2.183-1.493 7.21 7.21 0 0 1-1.465-2.24c-.345-.862-.517-1.8-.517-2.815s.172-1.953.517-2.815a6.813 6.813 0 0 1 1.436-2.24 6.423 6.423 0 0 1 2.154-1.466 6.535 6.535 0 0 1 2.672-.545c1.053 0 1.981.182 2.786.546a5.508 5.508 0 0 1 2.01 1.436 5.846 5.846 0 0 1 1.207 2.096c.287.805.431 1.666.431 2.586ZM107.968 91.01a44.505 44.505 0 0 0-.115-2.959h1.867a26.334 26.334 0 0 1 .115 2.298h.057a4.563 4.563 0 0 1 1.724-1.895c.765-.498 1.627-.747 2.585-.747.249 0 .469.01.66.029.211.019.421.057.632.114l-.258 1.839a3.688 3.688 0 0 0-.575-.115 5.676 5.676 0 0 0-.804-.058c-.517 0-1.015.096-1.494.288-.478.191-.9.497-1.263.919-.345.402-.632.928-.862 1.58-.211.631-.316 1.397-.316 2.297v6.894h-1.953V91.01ZM126.016 95.26h-.603c-.517 0-1.044.03-1.58.087a6.15 6.15 0 0 0-1.408.259 2.522 2.522 0 0 0-1.005.603c-.268.249-.402.584-.402 1.005 0 .268.057.498.172.69.134.19.297.344.489.459.191.115.411.201.66.258.249.039.489.058.718.058.958 0 1.685-.258 2.183-.776.517-.536.776-1.254.776-2.154v-.488Zm-8.646-6.117a8.276 8.276 0 0 1 2.93-1.81 10.213 10.213 0 0 1 3.447-.603c1.206 0 2.221.153 3.044.46.843.287 1.523.747 2.04 1.379.517.612.89 1.397 1.12 2.355.249.938.373 2.058.373 3.36v7.21h-4.308v-1.522h-.086c-.364.593-.919 1.053-1.666 1.378a5.767 5.767 0 0 1-2.384.488 7.34 7.34 0 0 1-1.781-.229 5.374 5.374 0 0 1-1.695-.747 4.109 4.109 0 0 1-1.235-1.379c-.325-.574-.488-1.283-.488-2.125 0-1.034.278-1.867.833-2.5.574-.631 1.302-1.12 2.183-1.464.9-.345 1.896-.575 2.987-.69a30.445 30.445 0 0 1 3.188-.172v-.23c0-.708-.249-1.225-.747-1.55-.497-.345-1.11-.518-1.838-.518-.67 0-1.321.144-1.953.431a6.274 6.274 0 0 0-1.58 1.034l-2.384-2.556ZM149.753 94.284c0 .996-.153 1.953-.46 2.873a7.395 7.395 0 0 1-1.35 2.441 6.53 6.53 0 0 1-2.125 1.666c-.843.421-1.8.632-2.873.632a6.15 6.15 0 0 1-2.499-.517c-.785-.364-1.397-.852-1.838-1.465h-.057v8.473h-4.711V87.19h4.481v1.752h.086c.441-.575 1.044-1.072 1.81-1.494.785-.44 1.704-.66 2.757-.66 1.034 0 1.972.2 2.815.603a6.208 6.208 0 0 1 2.125 1.637 7.075 7.075 0 0 1 1.35 2.413c.326.9.489 1.848.489 2.843Zm-4.567 0c0-.46-.077-.91-.23-1.35a3.06 3.06 0 0 0-.632-1.149 2.97 2.97 0 0 0-1.034-.832c-.421-.211-.91-.317-1.465-.317-.536 0-1.015.106-1.436.317-.421.21-.785.488-1.091.832a4.234 4.234 0 0 0-.69 1.178 4.087 4.087 0 0 0 0 2.7c.173.44.402.833.69 1.178.306.344.67.622 1.091.833.421.21.9.316 1.436.316.555 0 1.044-.106 1.465-.316a2.97 2.97 0 0 0 1.034-.833 3.34 3.34 0 0 0 .632-1.178c.153-.46.23-.92.23-1.379ZM168.63 94.284c0 .996-.153 1.953-.459 2.873a7.431 7.431 0 0 1-1.35 2.441 6.534 6.534 0 0 1-2.126 1.666c-.842.421-1.8.632-2.872.632a6.142 6.142 0 0 1-2.499-.517c-.785-.364-1.398-.852-1.838-1.465h-.058v8.473h-4.71V87.19h4.48v1.752h.087c.44-.575 1.043-1.072 1.809-1.494.785-.44 1.704-.66 2.758-.66 1.034 0 1.972.2 2.814.603a6.211 6.211 0 0 1 2.126 1.637 7.075 7.075 0 0 1 1.35 2.413c.325.9.488 1.848.488 2.843Zm-4.567 0c0-.46-.076-.91-.23-1.35a3.059 3.059 0 0 0-.631-1.149 2.979 2.979 0 0 0-1.034-.832c-.422-.211-.91-.317-1.465-.317-.536 0-1.015.106-1.436.317-.422.21-.786.488-1.092.832a4.232 4.232 0 0 0-.689 1.178 4.087 4.087 0 0 0 0 2.7c.172.44.402.833.689 1.178.306.344.67.622 1.092.833.421.21.9.316 1.436.316.555 0 1.043-.106 1.465-.316a2.98 2.98 0 0 0 1.034-.833c.287-.345.497-.737.631-1.178.154-.46.23-.92.23-1.379ZM176.966 99.397h.058l4.165-11.346h2.125l-6.692 16.918c-.402 1.034-.919 1.858-1.551 2.47-.613.632-1.503.948-2.672.948a8.911 8.911 0 0 1-1.752-.172l.201-1.781c.46.153.939.23 1.437.23.67 0 1.196-.211 1.579-.632.383-.402.718-.986 1.006-1.752l1.091-2.815-5.745-13.413h2.183l4.567 11.345ZM80.159 116.845h2.175c.382 0 .731.041 1.047.121.315.074.584.191.805.353.222.161.393.365.514.614.12.248.181.547.181.896 0 .356-.067.661-.201.916a1.627 1.627 0 0 1-.544.624 2.439 2.439 0 0 1-.826.363 4.493 4.493 0 0 1-1.027.111h-1.127v3.131h-.997v-7.129Zm.997 3.152h1.057c.242 0 .463-.02.664-.061.209-.047.386-.114.534-.201a.986.986 0 0 0 .342-.362c.081-.148.121-.329.121-.544a1 1 0 0 0-.473-.886 1.29 1.29 0 0 0-.513-.191 3.282 3.282 0 0 0-.655-.061h-1.077v2.306ZM88.15 123.974h-.996v-7.129h2.286c.342 0 .668.037.976.111.31.067.578.178.806.332.235.155.42.359.554.615.134.248.201.553.201.916 0 .523-.161.946-.483 1.269-.323.322-.739.526-1.249.614l1.994 3.272H91.03l-1.812-3.172h-1.067v3.172Zm0-4.007H89.3c.235 0 .453-.02.654-.061.201-.04.376-.104.524-.191.154-.094.275-.211.362-.352.088-.148.131-.329.131-.544a.999.999 0 0 0-.13-.534.979.979 0 0 0-.353-.352 1.375 1.375 0 0 0-.504-.181 2.975 2.975 0 0 0-.614-.061h-1.218v2.276ZM101.535 120.4c0 .55-.097 1.057-.292 1.52-.188.457-.45.853-.785 1.188a3.659 3.659 0 0 1-1.198.776 4.114 4.114 0 0 1-1.51.271c-.545 0-1.048-.09-1.511-.271a3.679 3.679 0 0 1-1.188-.776 3.583 3.583 0 0 1-.786-1.188 4.004 4.004 0 0 1-.282-1.52c0-.558.094-1.064.282-1.521.188-.463.45-.856.786-1.178a3.54 3.54 0 0 1 1.188-.765 4.114 4.114 0 0 1 1.51-.272c.544 0 1.047.091 1.51.272.464.181.863.436 1.199.765.335.322.597.715.785 1.178.195.457.292.963.292 1.521Zm-1.077 0c0-.39-.064-.756-.192-1.098a2.781 2.781 0 0 0-.543-.916 2.46 2.46 0 0 0-.856-.614 2.591 2.591 0 0 0-1.118-.232c-.41 0-.782.077-1.117.232-.33.147-.611.352-.846.614a2.89 2.89 0 0 0-.534.916 3.118 3.118 0 0 0-.191 1.098c0 .396.063.768.191 1.117s.309.655.544.917c.235.255.517.456.846.604.329.147.698.221 1.107.221.41 0 .782-.074 1.118-.221.335-.148.62-.349.856-.604.235-.262.416-.568.543-.917.128-.349.192-.721.192-1.117ZM104.894 123.974h-.996v-7.129h4.45v.876h-3.454v2.215h3.233v.856h-3.233v3.182ZM111.624 123.974h-.997v-7.129h.997v7.129ZM117.912 118.164a1.55 1.55 0 0 0-.574-.473 1.822 1.822 0 0 0-1.309-.121 1.235 1.235 0 0 0-.443.212 1.154 1.154 0 0 0-.332.362 1.015 1.015 0 0 0-.121.514c0 .194.037.359.111.493.08.128.184.238.312.332.134.088.289.165.463.232l.574.191c.242.074.487.158.735.252s.473.218.675.373c.201.154.365.349.493.584.128.228.191.52.191.876 0 .369-.07.691-.211.966a1.975 1.975 0 0 1-.544.675 2.384 2.384 0 0 1-.795.392 3.197 3.197 0 0 1-.917.131c-.449 0-.886-.087-1.309-.261a2.601 2.601 0 0 1-1.037-.776l.776-.654c.167.248.392.45.674.604a1.885 1.885 0 0 0 1.42.161 1.366 1.366 0 0 0 .795-.594 1.1 1.1 0 0 0 .131-.554.937.937 0 0 0-.141-.533 1.13 1.13 0 0 0-.362-.373 2.243 2.243 0 0 0-.544-.252 17.62 17.62 0 0 0-.644-.221 6.251 6.251 0 0 1-.675-.242 2.594 2.594 0 0 1-.594-.372 1.81 1.81 0 0 1-.423-.564c-.107-.222-.161-.497-.161-.826 0-.356.071-.661.212-.916a2.05 2.05 0 0 1 .563-.635c.235-.167.497-.288.786-.362a3.33 3.33 0 0 1 .886-.121c.416 0 .805.074 1.168.222.362.147.654.345.876.594l-.705.684ZM124.652 118.164a1.559 1.559 0 0 0-.574-.473 1.817 1.817 0 0 0-1.309-.121 1.235 1.235 0 0 0-.443.212 1.157 1.157 0 0 0-.333.362c-.08.141-.121.312-.121.514 0 .194.037.359.111.493.081.128.185.238.312.332.135.088.289.165.464.232l.573.191c.242.074.487.158.736.252.248.094.473.218.674.373.202.154.366.349.494.584.127.228.191.52.191.876 0 .369-.071.691-.212.966a1.972 1.972 0 0 1-.543.675 2.399 2.399 0 0 1-.796.392 3.19 3.19 0 0 1-.916.131c-.45 0-.886-.087-1.309-.261a2.594 2.594 0 0 1-1.037-.776l.775-.654c.168.248.393.45.675.604a1.88 1.88 0 0 0 1.42.161c.167-.047.318-.121.453-.221.141-.101.255-.225.342-.373a1.11 1.11 0 0 0 .131-.554.937.937 0 0 0-.141-.533 1.123 1.123 0 0 0-.363-.373 2.236 2.236 0 0 0-.543-.252 17.693 17.693 0 0 0-.645-.221 6.16 6.16 0 0 1-.674-.242 2.551 2.551 0 0 1-.594-.372 1.78 1.78 0 0 1-.423-.564c-.108-.222-.161-.497-.161-.826 0-.356.07-.661.211-.916.148-.255.336-.467.564-.635.235-.167.497-.288.785-.362.296-.081.591-.121.886-.121.417 0 .806.074 1.168.222.363.147.655.345.876.594l-.704.684ZM128.844 123.974h-.997v-7.129h.997v7.129ZM138.776 120.4c0 .55-.097 1.057-.292 1.52a3.564 3.564 0 0 1-.785 1.188 3.658 3.658 0 0 1-1.198.776 4.114 4.114 0 0 1-1.51.271c-.544 0-1.048-.09-1.511-.271a3.688 3.688 0 0 1-1.188-.776 3.579 3.579 0 0 1-.785-1.188 4.004 4.004 0 0 1-.282-1.52c0-.558.094-1.064.282-1.521.188-.463.449-.856.785-1.178a3.549 3.549 0 0 1 1.188-.765 4.116 4.116 0 0 1 1.511-.272c.543 0 1.047.091 1.51.272.463.181.862.436 1.198.765.336.322.598.715.785 1.178.195.457.292.963.292 1.521Zm-1.077 0c0-.39-.064-.756-.191-1.098a2.798 2.798 0 0 0-.544-.916 2.457 2.457 0 0 0-.856-.614 2.589 2.589 0 0 0-1.117-.232c-.41 0-.782.077-1.118.232a2.484 2.484 0 0 0-.846.614 2.902 2.902 0 0 0-.534.916 3.129 3.129 0 0 0-.191 1.098c0 .396.064.768.191 1.117.128.349.309.655.544.917.235.255.517.456.846.604.329.147.698.221 1.108.221.409 0 .782-.074 1.117-.221.336-.148.621-.349.856-.604.235-.262.416-.568.544-.917a3.24 3.24 0 0 0 .191-1.117ZM146.163 122.544h.021v-5.699h.996v7.129h-1.258l-3.766-5.82h-.02v5.82h-.997v-7.129h1.299l3.725 5.699ZM150.216 123.974h-1.108l3.091-7.129h.907l3.061 7.129h-1.128l-.725-1.752h-3.383l-.715 1.752Zm1.067-2.628h2.668l-1.329-3.343-1.339 3.343ZM159.086 123.088h3.182v.886h-4.179v-7.129h.997v6.243Z"/><path fill-rule="evenodd" d="M155.642 11.862c-10.458-7.669-19.7-5.68-27.164 1.09.292.136.58.275.864.419 6.136 3.107 10.316 8.269 10.507 16.12.051 2.08-.238 4.142-.803 6.17l.006-.008c5.412-7.343 10.038-13.619 15.485-16.61 8.064-4.43 11.092-3.82 15.777-2.878.98.197 2.034.409 3.221.592l-17.893-4.895Zm-46.854 47.49c.713-8.576 3.308-18.981 7.445-28.254 1.541 1.562 2.612 3.265 3.179 5.12.727 2.382.679 5.195-.534 8.558-1.48 4.105-4.663 8.939-10.09 14.576ZM67.262 17.386c33.694-.184 86.611 10.716 28.723 55.789 14.177-6.997 42.421-25.52 41.979-43.637-.687-28.171-57.445-17.124-70.702-12.152Z" clip-rule="evenodd"/></g></svg>