<svg xmlns="http://www.w3.org/2000/svg" width="164" height="90" fill="none"><g filter="url(#a)"><g fill="#fff"><path d="M25.25 44.251h-2.155V24.807H16v-1.932h16.346v1.932H25.25v19.444ZM37.038 32.446c.38-.825 1.008-1.48 1.886-1.963a5.749 5.749 0 0 1 2.814-.724c1.776 0 3.104.533 3.982 1.6.898 1.067 1.347 2.476 1.347 4.227v8.665H45.03v-7.82c0-.744-.06-1.419-.18-2.023-.12-.603-.329-1.117-.628-1.54a2.775 2.775 0 0 0-1.168-1.026c-.479-.241-1.087-.362-1.826-.362-.539 0-1.068.11-1.587.332a3.83 3.83 0 0 0-1.347 1.026c-.399.443-.718 1.017-.958 1.721-.24.685-.359 1.5-.359 2.446v7.246h-2.036V21.426h2.036v11.02h.06ZM63.024 36.1c-.06-1.33-.49-2.426-1.288-3.292-.778-.885-1.896-1.328-3.352-1.328-.68 0-1.308.13-1.887.392a4.651 4.651 0 0 0-1.526 1.027c-.44.422-.789.916-1.048 1.48a4.675 4.675 0 0 0-.45 1.72h9.55Zm2.065.663v.453c0 .161-.01.332-.03.514H53.444c.02.704.16 1.368.419 1.992.26.624.619 1.168 1.078 1.63.459.464.998.836 1.616 1.118a5.095 5.095 0 0 0 2.006.392c1.058 0 1.966-.241 2.724-.724.779-.503 1.367-1.077 1.767-1.721l1.526 1.207c-.838 1.067-1.766 1.832-2.784 2.295a7.589 7.589 0 0 1-3.233.695 7.689 7.689 0 0 1-2.904-.544 6.991 6.991 0 0 1-2.275-1.57 7.585 7.585 0 0 1-1.527-2.355c-.36-.906-.539-1.892-.539-2.959 0-1.067.18-2.053.54-2.959a7.17 7.17 0 0 1 1.496-2.355 6.69 6.69 0 0 1 2.245-1.54 6.762 6.762 0 0 1 2.785-.573c1.097 0 2.065.191 2.903.573a5.745 5.745 0 0 1 2.096 1.51 6.156 6.156 0 0 1 1.257 2.204c.3.846.45 1.751.45 2.718ZM69.468 33.23a46.73 46.73 0 0 0-.12-3.109h1.946a27.66 27.66 0 0 1 .12 2.415h.06a4.78 4.78 0 0 1 1.796-1.992c.799-.524 1.697-.785 2.695-.785.259 0 .489.01.688.03.22.02.44.06.659.12l-.27 1.933c-.12-.04-.319-.08-.598-.12-.28-.041-.56-.061-.839-.061-.538 0-1.057.1-1.556.302a3.398 3.398 0 0 0-1.318.966c-.359.423-.658.976-.898 1.66-.22.665-.33 1.47-.33 2.416v7.246h-2.035v-11.02ZM88.28 37.7h-.63c-.538 0-1.087.03-1.646.09-.539.04-1.028.13-1.467.272-.419.14-.768.352-1.048.634-.279.261-.419.614-.419 1.056 0 .282.06.524.18.725.14.201.31.362.509.483.2.121.429.212.688.272.26.04.51.06.749.06.998 0 1.756-.271 2.275-.815.539-.563.808-1.318.808-2.264v-.514Zm-9.012-6.432a8.612 8.612 0 0 1 3.054-1.902 10.561 10.561 0 0 1 3.592-.634c1.258 0 2.315.161 3.174.483.878.302 1.586.785 2.125 1.45.54.644.928 1.469 1.168 2.475.26.987.389 2.164.389 3.533v7.578h-4.49v-1.6h-.09c-.38.624-.959 1.107-1.737 1.45a5.971 5.971 0 0 1-2.485.513c-.598 0-1.217-.081-1.856-.242a5.589 5.589 0 0 1-1.766-.785 4.3 4.3 0 0 1-1.287-1.45c-.34-.603-.51-1.348-.51-2.233 0-1.088.29-1.963.869-2.627.599-.665 1.357-1.178 2.275-1.54.938-.362 1.976-.604 3.114-.725a31.472 31.472 0 0 1 3.323-.18v-.242c0-.745-.26-1.289-.779-1.63-.519-.363-1.157-.544-1.916-.544-.698 0-1.377.15-2.035.453a6.527 6.527 0 0 0-1.647 1.087l-2.485-2.688ZM113.02 36.673c0 1.047-.16 2.053-.479 3.02a7.832 7.832 0 0 1-1.407 2.566 6.822 6.822 0 0 1-2.216 1.75c-.878.444-1.876.665-2.993.665a6.358 6.358 0 0 1-2.605-.544c-.818-.382-1.457-.895-1.916-1.54h-.06v8.907h-4.91V29.215h4.671v1.842h.089c.46-.604 1.088-1.127 1.887-1.57.818-.463 1.776-.694 2.873-.694 1.078 0 2.056.211 2.934.634a6.474 6.474 0 0 1 2.216 1.72 7.492 7.492 0 0 1 1.407 2.537c.339.946.509 1.942.509 2.989Zm-4.76 0c0-.483-.08-.956-.24-1.42a3.23 3.23 0 0 0-.658-1.207 3.105 3.105 0 0 0-1.078-.876c-.439-.22-.948-.332-1.527-.332-.559 0-1.058.111-1.497.332a3.748 3.748 0 0 0-1.137.876c-.3.362-.539.775-.719 1.238a4.315 4.315 0 0 0 0 2.838c.18.463.419.876.719 1.238.319.362.698.654 1.137.876.439.221.938.332 1.497.332.579 0 1.088-.111 1.527-.332a3.105 3.105 0 0 0 1.078-.876c.299-.362.518-.775.658-1.238.16-.483.24-.966.24-1.45ZM132.695 36.673a9.539 9.539 0 0 1-.479 3.02 7.796 7.796 0 0 1-1.407 2.566 6.818 6.818 0 0 1-2.215 1.75c-.878.444-1.876.665-2.994.665a6.357 6.357 0 0 1-2.604-.544c-.819-.382-1.457-.895-1.916-1.54h-.06v8.907h-4.91V29.215h4.67v1.842h.09c.459-.604 1.088-1.127 1.886-1.57.818-.463 1.776-.694 2.874-.694 1.078 0 2.056.211 2.934.634a6.47 6.47 0 0 1 2.215 1.72 7.458 7.458 0 0 1 1.407 2.537 8.77 8.77 0 0 1 .509 2.989Zm-4.76 0c0-.483-.08-.956-.239-1.42a3.233 3.233 0 0 0-.659-1.207 3.096 3.096 0 0 0-1.078-.876c-.439-.22-.948-.332-1.526-.332-.559 0-1.058.111-1.497.332a3.752 3.752 0 0 0-1.138.876 4.453 4.453 0 0 0-.718 1.238 4.316 4.316 0 0 0 0 2.838c.179.463.419.876.718 1.238.319.362.699.654 1.138.876.439.221.938.332 1.497.332.578 0 1.087-.111 1.526-.332a3.096 3.096 0 0 0 1.078-.876c.299-.362.519-.775.659-1.238.159-.483.239-.966.239-1.45ZM141.384 42.047h.06l4.341-11.926H148l-6.975 17.784c-.42 1.086-.958 1.952-1.617 2.596-.639.664-1.567.996-2.784.996-.619 0-1.228-.06-1.826-.18l.209-1.873c.479.161.978.242 1.497.242.699 0 1.247-.221 1.647-.664.399-.423.748-1.037 1.047-1.842l1.138-2.959-5.987-14.1h2.275l4.76 11.926ZM37.946 61.212h2.376c.418 0 .8.044 1.144.132.345.08.638.209.88.385.242.176.429.4.561.671.132.271.198.598.198.979 0 .389-.073.722-.22 1.001-.14.279-.337.506-.594.682-.25.176-.55.308-.902.396-.345.08-.719.121-1.122.121h-1.232V69h-1.089v-7.788Zm1.089 3.443h1.155c.264 0 .506-.022.726-.066.227-.051.422-.125.583-.22.161-.103.286-.235.374-.396.088-.161.132-.36.132-.594a1.09 1.09 0 0 0-.143-.583.992.992 0 0 0-.374-.385 1.418 1.418 0 0 0-.561-.209 3.647 3.647 0 0 0-.715-.066h-1.177v2.519ZM46.677 69h-1.089v-7.788h2.497c.374 0 .73.04 1.067.121.337.073.63.194.88.363.257.169.458.392.605.671.147.271.22.605.22 1.001 0 .572-.176 1.034-.528 1.386-.352.352-.807.576-1.364.671L51.143 69h-1.32l-1.98-3.465h-1.166V69Zm0-4.378h1.254c.257 0 .495-.022.715-.066.22-.044.41-.114.572-.209.169-.103.3-.231.396-.385a1.15 1.15 0 0 0 .143-.594 1.09 1.09 0 0 0-.143-.583 1.076 1.076 0 0 0-.385-.385 1.526 1.526 0 0 0-.55-.198 3.306 3.306 0 0 0-.671-.066h-1.331v2.486ZM61.299 65.095c0 .601-.106 1.155-.32 1.661a3.93 3.93 0 0 1-.857 1.298c-.367.36-.803.642-1.31.847a4.489 4.489 0 0 1-1.65.297 4.489 4.489 0 0 1-1.65-.297 4.02 4.02 0 0 1-1.297-.847 3.93 3.93 0 0 1-.858-1.298 4.377 4.377 0 0 1-.308-1.661c0-.609.102-1.162.308-1.661a3.67 3.67 0 0 1 .858-1.287c.366-.36.8-.638 1.298-.836a4.489 4.489 0 0 1 1.65-.297c.594 0 1.144.099 1.65.297a3.85 3.85 0 0 1 1.309.836c.367.352.653.781.858 1.287.213.499.319 1.052.319 1.661Zm-1.177 0c0-.425-.07-.825-.21-1.199a3.045 3.045 0 0 0-.593-1.001 2.7 2.7 0 0 0-.935-.671 2.84 2.84 0 0 0-1.221-.253c-.447 0-.854.084-1.221.253-.36.161-.667.385-.924.671-.25.286-.444.62-.583 1.001-.14.374-.21.774-.21 1.199 0 .433.07.84.21 1.221.14.381.337.715.594 1.001.256.279.564.499.924.66.36.161.762.242 1.21.242a3 3 0 0 0 1.22-.242c.367-.161.68-.381.936-.66.256-.286.454-.62.594-1.001.14-.381.209-.788.209-1.221ZM64.969 69h-1.09v-7.788h4.863v.957h-3.773v2.42h3.53v.935h-3.53V69ZM72.32 69h-1.088v-7.788h1.089V69ZM79.19 62.653a1.688 1.688 0 0 0-.627-.517 1.879 1.879 0 0 0-.89-.209 1.99 1.99 0 0 0-.54.077 1.34 1.34 0 0 0-.484.231 1.254 1.254 0 0 0-.363.396 1.114 1.114 0 0 0-.132.561c0 .213.04.392.121.539.088.14.202.26.341.363.147.095.315.18.506.253l.627.209c.264.08.532.172.803.275.271.103.517.238.737.407.22.169.4.381.54.638.138.25.208.568.208.957 0 .403-.077.755-.23 1.056a2.164 2.164 0 0 1-.595.737c-.25.19-.539.334-.869.429a3.516 3.516 0 0 1-1 .143c-.492 0-.969-.095-1.43-.286a2.835 2.835 0 0 1-1.134-.847l.847-.715c.183.271.43.491.737.66a2.051 2.051 0 0 0 1.551.176c.183-.051.348-.132.495-.242.154-.11.279-.246.374-.407.095-.169.143-.37.143-.605a1.03 1.03 0 0 0-.154-.583 1.233 1.233 0 0 0-.396-.407 2.472 2.472 0 0 0-.594-.275 19.19 19.19 0 0 0-.704-.242 6.819 6.819 0 0 1-.737-.264 2.777 2.777 0 0 1-.649-.407 1.943 1.943 0 0 1-.462-.616c-.117-.242-.176-.543-.176-.902 0-.389.077-.722.231-1.001.161-.279.367-.51.616-.693.257-.183.543-.315.858-.396.323-.088.645-.132.968-.132.455 0 .88.08 1.276.242.396.161.715.378.957.649l-.77.748ZM86.553 62.653a1.687 1.687 0 0 0-.627-.517 1.879 1.879 0 0 0-.891-.209 1.99 1.99 0 0 0-.54.077 1.342 1.342 0 0 0-.483.231 1.255 1.255 0 0 0-.363.396 1.113 1.113 0 0 0-.132.561c0 .213.04.392.12.539.089.14.202.26.342.363.146.095.315.18.506.253l.627.209c.264.08.531.172.803.275.271.103.517.238.737.407.22.169.4.381.539.638.14.25.209.568.209.957 0 .403-.077.755-.231 1.056a2.163 2.163 0 0 1-.594.737c-.25.19-.54.334-.87.429a3.515 3.515 0 0 1-1 .143c-.492 0-.968-.095-1.43-.286a2.835 2.835 0 0 1-1.133-.847l.847-.715c.183.271.429.491.737.66a2.052 2.052 0 0 0 1.55.176c.184-.051.35-.132.496-.242.154-.11.278-.246.374-.407a1.21 1.21 0 0 0 .143-.605 1.03 1.03 0 0 0-.154-.583 1.233 1.233 0 0 0-.396-.407 2.471 2.471 0 0 0-.594-.275c-.22-.08-.455-.161-.704-.242a6.819 6.819 0 0 1-.737-.264 2.78 2.78 0 0 1-.65-.407 1.944 1.944 0 0 1-.461-.616c-.118-.242-.176-.543-.176-.902 0-.389.077-.722.23-1.001.162-.279.367-.51.617-.693.256-.183.542-.315.858-.396.322-.088.645-.132.968-.132.454 0 .88.08 1.276.242.396.161.715.378.957.649l-.77.748ZM91.132 69h-1.089v-7.788h1.09V69ZM101.984 65.095c0 .601-.107 1.155-.319 1.661a3.952 3.952 0 0 1-.858 1.298c-.367.36-.803.642-1.31.847a4.489 4.489 0 0 1-1.65.297 4.489 4.489 0 0 1-1.65-.297 4.02 4.02 0 0 1-1.297-.847 3.93 3.93 0 0 1-.858-1.298 4.376 4.376 0 0 1-.308-1.661c0-.609.102-1.162.308-1.661a3.67 3.67 0 0 1 .858-1.287c.366-.36.8-.638 1.298-.836a4.489 4.489 0 0 1 1.65-.297c.594 0 1.144.099 1.65.297.506.198.942.477 1.309.836.366.352.652.781.858 1.287.212.499.319 1.052.319 1.661Zm-1.177 0c0-.425-.07-.825-.209-1.199a3.07 3.07 0 0 0-.594-1.001 2.703 2.703 0 0 0-.935-.671 2.84 2.84 0 0 0-1.221-.253c-.448 0-.855.084-1.221.253-.36.161-.668.385-.924.671a3.15 3.15 0 0 0-.583 1.001c-.14.374-.21.774-.21 1.199 0 .433.07.84.21 1.221.14.381.337.715.594 1.001a2.8 2.8 0 0 0 .924.66c.36.161.762.242 1.21.242a3 3 0 0 0 1.22-.242c.367-.161.68-.381.936-.66a3.07 3.07 0 0 0 .594-1.001c.139-.381.209-.788.209-1.221ZM110.054 67.438h.022v-6.226h1.089V69h-1.375l-4.114-6.358h-.022V69h-1.089v-7.788h1.419l4.07 6.226ZM114.481 69h-1.21l3.377-7.788h.99L120.982 69h-1.232l-.792-1.914h-3.696L114.481 69Zm1.166-2.871h2.915l-1.452-3.652-1.463 3.652ZM124.171 68.032h3.476V69h-4.565v-7.788h1.089v6.82Z"/></g></g><defs><filter id="a" width="179.239" height="121.239" x="-7.62" y="-15.62" color-interpolation-filters="sRGB" filterUnits="userSpaceOnUse"><feFlood flood-opacity="0" result="BackgroundImageFix"/><feColorMatrix in="SourceAlpha" result="hardAlpha" values="0 0 0 0 0 0 0 0 0 0 0 0 0 0 0 0 0 0 127 0"/><feOffset/><feGaussianBlur stdDeviation="7.81"/><feComposite in2="hardAlpha" operator="out"/><feColorMatrix values="0 0 0 0 0.192157 0 0 0 0 0.188235 0 0 0 0 0.2 0 0 0 0.24 0"/><feBlend in2="BackgroundImageFix" result="effect1_dropShadow_136_1150"/><feBlend in="SourceGraphic" in2="effect1_dropShadow_136_1150" result="shape"/></filter></defs></svg>