<svg width="202" height="187" viewBox="0 0 202 187" fill="none" xmlns="http://www.w3.org/2000/svg">
  <path d="M14.152 150.278h-3.286v-29.394H.048v-2.921h24.92v2.921H14.153zm17.971-17.846q.867-1.872 2.875-2.967a8.8 8.8 0 0 1 4.29-1.095q4.063 0 6.07 2.419 2.055 2.418 2.055 6.39v13.099h-3.104v-11.821q0-1.69-.274-3.058-.273-1.37-.958-2.328-.64-1.005-1.78-1.552-1.095-.548-2.785-.548-1.231 0-2.419.502-1.14.502-2.054 1.552-.912 1.005-1.46 2.602-.548 1.551-.548 3.697v10.954h-3.103v-34.506h3.103v16.66zm39.617 5.522q-.136-3.012-1.962-4.974-1.78-2.009-5.112-2.009a6.9 6.9 0 0 0-2.876.594 7.1 7.1 0 0 0-2.328 1.551 7.3 7.3 0 0 0-1.597 2.237 7 7 0 0 0-.685 2.601zm3.15 1.005v.684q0 .366-.046.776h-17.71a8.4 8.4 0 0 0 .64 3.013 7.6 7.6 0 0 0 1.643 2.464q1.05 1.05 2.465 1.689a7.8 7.8 0 0 0 3.057.593q2.42 0 4.154-1.095 1.78-1.141 2.693-2.602l2.328 1.826q-1.917 2.42-4.245 3.469-2.283 1.05-4.93 1.05-2.373 0-4.427-.822a10.7 10.7 0 0 1-3.468-2.373q-1.461-1.507-2.328-3.56-.822-2.055-.822-4.473 0-2.42.822-4.473a10.8 10.8 0 0 1 2.282-3.56 10.2 10.2 0 0 1 3.423-2.328q1.962-.867 4.245-.867 2.51 0 4.427.867 1.917.822 3.195 2.282 1.277 1.415 1.917 3.332.684 1.917.684 4.108m6.676-5.341q0-.867-.045-2.236a50 50 0 0 0-.137-2.465h2.967q.09.867.136 1.917t.046 1.735h.091q.913-1.872 2.739-3.013 1.825-1.186 4.108-1.186.593 0 1.05.045.501.047 1.004.183l-.411 2.921q-.274-.091-.913-.183a9 9 0 0 0-1.278-.091 6.3 6.3 0 0 0-2.373.457q-1.141.456-2.009 1.46-.821.959-1.369 2.51-.502 1.507-.502 3.652v10.954h-3.104zm28.68 6.756h-.959q-1.232 0-2.51.136a9.8 9.8 0 0 0-2.237.411q-.958.32-1.597.959-.639.593-.639 1.597 0 .639.274 1.096.319.456.776.73.456.273 1.049.411.594.09 1.141.091 2.283 0 3.469-1.232 1.233-1.278 1.233-3.424zm-13.739-9.722a13.15 13.15 0 0 1 4.656-2.876 16.2 16.2 0 0 1 5.477-.958q2.876 0 4.838.73 2.008.685 3.24 2.191 1.233 1.46 1.781 3.743.593 2.237.593 5.34v11.456h-6.846v-2.419h-.137q-.867 1.414-2.648 2.191-1.734.776-3.788.776-1.37 0-2.83-.366a8.6 8.6 0 0 1-2.693-1.186q-1.186-.822-1.962-2.191-.776-1.37-.776-3.378 0-2.464 1.323-3.97 1.37-1.507 3.469-2.328 2.145-.822 4.747-1.096a49 49 0 0 1 5.066-.273v-.366q0-1.688-1.186-2.464-1.187-.822-2.921-.822-1.598 0-3.104.685-1.461.684-2.51 1.643zm51.457 8.17q0 2.373-.73 4.564a11.8 11.8 0 0 1-2.145 3.879q-1.37 1.644-3.378 2.648t-4.564 1.004a9.8 9.8 0 0 1-3.971-.822q-1.87-.867-2.921-2.327h-.091v13.464h-7.485v-33.684h7.12v2.784h.137q1.05-1.37 2.875-2.373 1.871-1.05 4.382-1.05 2.464 0 4.473.959a9.9 9.9 0 0 1 3.377 2.601q1.416 1.644 2.146 3.834.775 2.145.775 4.519m-7.257 0q0-1.096-.365-2.145a4.85 4.85 0 0 0-1.004-1.826 4.7 4.7 0 0 0-1.643-1.324q-1.004-.502-2.328-.502-1.278 0-2.282.502a5.7 5.7 0 0 0-1.734 1.324 6.7 6.7 0 0 0-1.096 1.871 6.5 6.5 0 0 0 0 4.291 6.7 6.7 0 0 0 1.096 1.871 5.7 5.7 0 0 0 1.734 1.323q1.005.503 2.282.503 1.325 0 2.328-.503a4.7 4.7 0 0 0 1.643-1.323 5.3 5.3 0 0 0 1.004-1.871 6.9 6.9 0 0 0 .365-2.191m37.255 0q0 2.373-.731 4.564a11.8 11.8 0 0 1-2.145 3.879q-1.37 1.644-3.377 2.648-2.009 1.004-4.565 1.004a9.8 9.8 0 0 1-3.97-.822q-1.872-.867-2.922-2.327h-.091v13.464h-7.485v-33.684h7.12v2.784h.137q1.05-1.37 2.875-2.373 1.872-1.05 4.382-1.05 2.464 0 4.473.959a9.9 9.9 0 0 1 3.377 2.601q1.416 1.644 2.146 3.834.776 2.145.776 4.519m-7.257 0q0-1.096-.366-2.145a4.85 4.85 0 0 0-1.004-1.826 4.7 4.7 0 0 0-1.643-1.324q-1.004-.502-2.328-.502-1.277 0-2.282.502a5.7 5.7 0 0 0-1.734 1.324 6.7 6.7 0 0 0-1.096 1.871 6.5 6.5 0 0 0 0 4.291 6.7 6.7 0 0 0 1.096 1.871 5.7 5.7 0 0 0 1.734 1.323q1.004.503 2.282.503 1.325 0 2.328-.503a4.7 4.7 0 0 0 1.643-1.323 5.3 5.3 0 0 0 1.004-1.871 6.9 6.9 0 0 0 .366-2.191m20.503 8.124h.091l6.619-18.029h3.377l-10.635 26.884q-.958 2.464-2.464 3.925-1.461 1.506-4.245 1.506a14 14 0 0 1-2.784-.274l.319-2.83a7.2 7.2 0 0 0 2.282.365q1.597 0 2.511-1.004.912-.959 1.597-2.784l1.735-4.473-9.129-21.315h3.469zM37.376 174.672h3.456q.912 0 1.664.192.752.176 1.28.56t.816.976.288 1.424q0 .848-.32 1.456a2.6 2.6 0 0 1-.864.992q-.544.384-1.312.576a7.2 7.2 0 0 1-1.632.176H38.96V186h-1.584zm1.584 5.008h1.68q.576 0 1.056-.096a3 3 0 0 0 .848-.32q.352-.224.544-.576t.192-.864-.208-.848a1.44 1.44 0 0 0-.544-.56 2.1 2.1 0 0 0-.816-.304 5.3 5.3 0 0 0-1.04-.096H38.96zM50.076 186h-1.584v-11.328h3.632q.815 0 1.552.176.735.16 1.28.528.56.368.88.976.32.592.32 1.456 0 1.248-.768 2.016t-1.984.976l3.168 5.2h-1.92l-2.88-5.04h-1.696zm0-6.368H51.9q.56 0 1.04-.096t.832-.304q.367-.224.576-.56.207-.353.208-.864 0-.512-.208-.848a1.6 1.6 0 0 0-.56-.56 2.2 2.2 0 0 0-.8-.288 5 5 0 0 0-.976-.096h-1.936zm21.268.688a6.2 6.2 0 0 1-.464 2.416 5.7 5.7 0 0 1-1.248 1.888 5.8 5.8 0 0 1-1.904 1.232 6.5 6.5 0 0 1-2.4.432 6.5 6.5 0 0 1-2.4-.432 5.9 5.9 0 0 1-1.888-1.232 5.7 5.7 0 0 1-1.248-1.888 6.4 6.4 0 0 1-.448-2.416q0-1.328.448-2.416a5.3 5.3 0 0 1 1.248-1.872 5.6 5.6 0 0 1 1.888-1.216 6.5 6.5 0 0 1 2.4-.432 6.5 6.5 0 0 1 2.4.432q1.103.432 1.904 1.216.8.768 1.248 1.872.464 1.088.464 2.416m-1.712 0q0-.928-.304-1.744a4.4 4.4 0 0 0-.864-1.456 3.9 3.9 0 0 0-1.36-.976q-.784-.368-1.776-.368-.976 0-1.776.368-.784.352-1.344.976a4.6 4.6 0 0 0-.848 1.456 5 5 0 0 0-.304 1.744q0 .944.304 1.776.303.832.864 1.456.56.607 1.344.96.784.352 1.76.352.975 0 1.776-.352a4 4 0 0 0 1.36-.96q.56-.624.864-1.456a5.1 5.1 0 0 0 .304-1.776m7.05 5.68h-1.584v-11.328h7.072v1.392h-5.488v3.52h5.136v1.36h-5.136zm10.694 0h-1.584v-11.328h1.584zm9.991-9.232a2.46 2.46 0 0 0-.912-.752 2.7 2.7 0 0 0-1.296-.304q-.384 0-.784.112a1.95 1.95 0 0 0-.704.336q-.32.224-.528.576-.192.336-.192.816 0 .464.176.784.192.304.496.528.32.208.736.368l.912.304q.577.176 1.168.4.592.224 1.072.592t.784.928q.304.544.304 1.392 0 .88-.336 1.536a3.15 3.15 0 0 1-.864 1.072 3.8 3.8 0 0 1-1.264.624 5.1 5.1 0 0 1-1.456.208 5.4 5.4 0 0 1-2.08-.416 4.1 4.1 0 0 1-1.648-1.232l1.232-1.04q.4.593 1.072.96.672.368 1.456.368.4 0 .8-.112t.72-.352q.337-.24.544-.592.208-.368.208-.88t-.224-.848a1.8 1.8 0 0 0-.576-.592 3.6 3.6 0 0 0-.864-.4q-.48-.176-1.024-.352-.543-.16-1.072-.384a4 4 0 0 1-.944-.592 2.8 2.8 0 0 1-.672-.896q-.256-.528-.256-1.312 0-.848.336-1.456a3.3 3.3 0 0 1 .896-1.008q.561-.4 1.248-.576a5.3 5.3 0 0 1 1.408-.192q.993 0 1.856.352t1.392.944zm10.71 0a2.46 2.46 0 0 0-.912-.752 2.7 2.7 0 0 0-1.296-.304q-.385 0-.784.112a1.95 1.95 0 0 0-.704.336q-.321.224-.528.576-.192.336-.192.816 0 .464.176.784.192.304.496.528.32.208.736.368l.912.304q.576.176 1.168.4.591.224 1.072.592.48.368.784.928.304.544.304 1.392 0 .88-.336 1.536a3.2 3.2 0 0 1-.864 1.072 3.8 3.8 0 0 1-1.264.624q-.705.208-1.456.208a5.4 5.4 0 0 1-2.08-.416 4.1 4.1 0 0 1-1.648-1.232l1.232-1.04q.4.593 1.072.96.672.368 1.456.368.4 0 .8-.112.399-.112.72-.352.336-.24.544-.592.208-.368.208-.88t-.224-.848a1.8 1.8 0 0 0-.576-.592 3.6 3.6 0 0 0-.864-.4q-.48-.176-1.024-.352-.544-.16-1.072-.384a4 4 0 0 1-.944-.592 2.8 2.8 0 0 1-.672-.896q-.256-.528-.256-1.312 0-.848.336-1.456.351-.607.896-1.008a3.7 3.7 0 0 1 1.248-.576 5.3 5.3 0 0 1 1.408-.192q.992 0 1.856.352t1.392.944zm6.661 9.232h-1.584v-11.328h1.584zm15.784-5.68q0 1.312-.464 2.416a5.7 5.7 0 0 1-1.248 1.888 5.8 5.8 0 0 1-1.904 1.232 6.5 6.5 0 0 1-2.4.432 6.5 6.5 0 0 1-2.4-.432 5.9 5.9 0 0 1-1.888-1.232 5.7 5.7 0 0 1-1.248-1.888q-.448-1.104-.448-2.416 0-1.328.448-2.416a5.35 5.35 0 0 1 1.248-1.872 5.6 5.6 0 0 1 1.888-1.216 6.5 6.5 0 0 1 2.4-.432 6.5 6.5 0 0 1 2.4.432 5.6 5.6 0 0 1 1.904 1.216 5.35 5.35 0 0 1 1.248 1.872q.464 1.088.464 2.416m-1.712 0q0-.928-.304-1.744a4.4 4.4 0 0 0-.864-1.456 3.9 3.9 0 0 0-1.36-.976q-.784-.368-1.776-.368-.977 0-1.776.368-.785.352-1.344.976a4.6 4.6 0 0 0-.848 1.456 5 5 0 0 0-.304 1.744q0 .944.304 1.776a4.4 4.4 0 0 0 .864 1.456q.56.607 1.344.96.784.352 1.76.352t1.776-.352a4 4 0 0 0 1.36-.96 4.4 4.4 0 0 0 .864-1.456 5.1 5.1 0 0 0 .304-1.776m13.45 3.408h.032v-9.056h1.584V186h-2l-5.984-9.248h-.032V186h-1.584v-11.328h2.064zm6.439 2.272h-1.76l4.912-11.328h1.44L158.155 186h-1.792l-1.152-2.784h-5.376zm1.696-4.176h4.24l-2.112-5.312zm12.399 2.768h5.056V186h-6.64v-11.328h1.584z" fill="#fff"/>
  <path fill-rule="evenodd" clip-rule="evenodd" d="M157.321 7.849c-16.617-12.186-31.304-9.025-43.164 1.733q.696.323 1.373.665c9.75 4.937 16.392 13.14 16.697 25.617.08 3.305-.38 6.581-1.277 9.802l.009-.012c8.6-11.668 15.951-21.641 24.606-26.395 12.815-7.038 17.627-6.07 25.071-4.572 1.558.313 3.232.65 5.118.94zM82.869 83.312c1.132-13.627 5.257-30.161 11.831-44.895 2.448 2.48 4.15 5.187 5.05 8.135 1.156 3.785 1.08 8.254-.848 13.6-2.352 6.521-7.41 14.203-16.033 23.16M16.882 16.627c53.541-.293 137.628 17.028 45.642 88.651 22.528-11.118 67.41-40.551 66.707-69.34C128.14-8.829 37.947 8.726 16.881 16.626" fill="#fff"/>
</svg>
