<svg width="132" height="49" viewBox="0 0 132 49" fill="none" xmlns="http://www.w3.org/2000/svg">
  <path d="M9.25 23.251H7.096V3.807H0V1.875h16.346v1.932H9.25zm11.788-11.805q.57-1.238 1.886-1.963a5.75 5.75 0 0 1 2.814-.724q2.664 0 3.982 1.6 1.347 1.6 1.347 4.227v8.665H29.03v-7.82q0-1.117-.18-2.022-.18-.907-.628-1.54a2.8 2.8 0 0 0-1.168-1.027q-.718-.362-1.826-.362-.809 0-1.587.332a3.8 3.8 0 0 0-1.347 1.026q-.598.665-.958 1.721-.36 1.027-.359 2.446v7.246h-2.036V.426h2.036v11.02zM47.024 15.1q-.09-1.994-1.288-3.292-1.167-1.328-3.352-1.328-1.02 0-1.887.392a4.7 4.7 0 0 0-1.526 1.027q-.66.634-1.048 1.48a4.7 4.7 0 0 0-.45 1.72zm2.065.664v.452q0 .241-.03.514H37.445q.03 1.056.419 1.992.39.936 1.078 1.63.689.695 1.616 1.118a5.1 5.1 0 0 0 2.006.392q1.587 0 2.724-.724 1.168-.755 1.767-1.721l1.526 1.207q-1.257 1.6-2.784 2.295a7.6 7.6 0 0 1-3.233.694 7.7 7.7 0 0 1-2.904-.543 7 7 0 0 1-2.275-1.57 7.6 7.6 0 0 1-1.527-2.355q-.54-1.359-.539-2.959 0-1.6.54-2.959a7.2 7.2 0 0 1 1.496-2.355 6.7 6.7 0 0 1 2.245-1.54 6.8 6.8 0 0 1 2.785-.573q1.646 0 2.903.573a5.75 5.75 0 0 1 2.096 1.51 6.2 6.2 0 0 1 1.257 2.204q.45 1.268.45 2.718m4.377-3.533a47 47 0 0 0-.12-3.11h1.946q.06.574.09 1.268t.03 1.148h.06q.6-1.239 1.796-1.993 1.198-.786 2.695-.785.389 0 .688.03.33.03.659.12l-.27 1.933q-.18-.06-.598-.12-.42-.06-.839-.061-.807 0-1.556.302a3.4 3.4 0 0 0-1.318.966q-.538.634-.898 1.66-.33.997-.33 2.416v7.246h-2.035zM72.28 16.7h-.63q-.807 0-1.646.09-.809.06-1.467.272-.628.21-1.048.634-.419.392-.419 1.056 0 .423.18.725.21.302.509.483.3.182.688.272.39.06.749.06 1.497 0 2.275-.815.808-.845.808-2.264zm-9.012-6.432a8.6 8.6 0 0 1 3.054-1.902 10.6 10.6 0 0 1 3.592-.634q1.886 0 3.174.483 1.317.453 2.125 1.45.809.966 1.168 2.475.39 1.48.389 3.533v7.578h-4.49v-1.6h-.09q-.57.936-1.737 1.45a6 6 0 0 1-2.485.512q-.897 0-1.856-.241a5.6 5.6 0 0 1-1.766-.785 4.3 4.3 0 0 1-1.287-1.45q-.51-.905-.51-2.233 0-1.63.869-2.627.898-.997 2.275-1.54 1.407-.543 3.114-.725a32 32 0 0 1 3.323-.18v-.242q0-1.118-.779-1.63-.778-.544-1.916-.544-1.047 0-2.035.453a6.5 6.5 0 0 0-1.647 1.087zm33.752 5.405a9.6 9.6 0 0 1-.48 3.02 7.8 7.8 0 0 1-1.406 2.566 6.8 6.8 0 0 1-2.216 1.75q-1.317.665-2.993.665a6.4 6.4 0 0 1-2.605-.543q-1.227-.574-1.916-1.54h-.06v8.906h-4.91V8.215h4.67v1.842h.09q.69-.906 1.886-1.57 1.228-.694 2.874-.694 1.617 0 2.934.634a6.5 6.5 0 0 1 2.216 1.72 7.5 7.5 0 0 1 1.407 2.537q.51 1.419.509 2.989m-4.76 0q0-.724-.24-1.42a3.2 3.2 0 0 0-.658-1.207 3.1 3.1 0 0 0-1.078-.875q-.66-.333-1.527-.333-.838 0-1.497.333a3.8 3.8 0 0 0-1.138.875q-.448.544-.718 1.238a4.33 4.33 0 0 0 0 2.838q.27.695.719 1.238.478.543 1.137.876.66.332 1.497.332.868 0 1.527-.332.658-.333 1.078-.876.449-.543.658-1.238.24-.724.24-1.45m24.435.001a9.5 9.5 0 0 1-.479 3.02 7.8 7.8 0 0 1-1.407 2.566 6.8 6.8 0 0 1-2.215 1.75q-1.317.665-2.994.665a6.4 6.4 0 0 1-2.604-.543q-1.228-.574-1.916-1.54h-.06v8.906h-4.91V8.215h4.67v1.842h.09q.689-.906 1.886-1.57 1.227-.694 2.874-.694 1.617 0 2.934.634a6.5 6.5 0 0 1 2.215 1.72 7.5 7.5 0 0 1 1.407 2.537 8.8 8.8 0 0 1 .509 2.989m-4.76 0q0-.724-.239-1.42a3.2 3.2 0 0 0-.659-1.207 3.1 3.1 0 0 0-1.078-.875q-.659-.333-1.526-.333-.838 0-1.497.333a3.8 3.8 0 0 0-1.138.875 4.5 4.5 0 0 0-.718 1.238 4.3 4.3 0 0 0 0 2.838q.269.695.718 1.238a3.8 3.8 0 0 0 1.138.876q.659.332 1.497.332.867 0 1.526-.332a3.1 3.1 0 0 0 1.078-.876q.449-.543.659-1.238.239-.724.239-1.45m13.449 5.375h.06l4.341-11.926H132l-6.975 17.784q-.63 1.63-1.617 2.596-.959.996-2.784.996-.929 0-1.826-.18l.209-1.873q.718.242 1.497.242 1.048 0 1.647-.664.599-.634 1.047-1.842l1.138-2.959-5.987-14.1h2.275zM21.946 40.212h2.376q.627 0 1.144.132.517.12.88.385.363.264.56.671.2.407.199.979 0 .583-.22 1.001-.21.418-.594.682-.375.264-.902.396-.518.12-1.122.121h-1.232V48h-1.09zm1.089 3.443h1.155q.396 0 .726-.066a2 2 0 0 0 .583-.22q.242-.154.374-.396t.132-.594a1.1 1.1 0 0 0-.143-.583 1 1 0 0 0-.374-.385 1.4 1.4 0 0 0-.561-.209 3.7 3.7 0 0 0-.715-.066h-1.177zM30.677 48h-1.09v-7.788h2.498q.561 0 1.067.121.505.11.88.363.385.253.605.671.22.407.22 1.001 0 .858-.528 1.386t-1.364.671L35.143 48h-1.32l-1.98-3.465h-1.166zm0-4.378h1.254q.384 0 .715-.066t.572-.209q.252-.154.396-.385a1.15 1.15 0 0 0 .143-.594 1.1 1.1 0 0 0-.143-.583 1.1 1.1 0 0 0-.385-.385 1.5 1.5 0 0 0-.55-.198 3.3 3.3 0 0 0-.671-.066h-1.331zm14.622.473q0 .902-.32 1.661a3.9 3.9 0 0 1-.857 1.298q-.55.54-1.31.847a4.5 4.5 0 0 1-1.65.297 4.5 4.5 0 0 1-1.65-.297 4 4 0 0 1-1.297-.847 3.9 3.9 0 0 1-.858-1.298 4.4 4.4 0 0 1-.308-1.661q0-.913.308-1.661.308-.759.858-1.287.55-.54 1.298-.836a4.5 4.5 0 0 1 1.65-.297q.891 0 1.65.297a3.85 3.85 0 0 1 1.309.836q.549.528.858 1.287.319.748.319 1.661m-1.177 0q0-.638-.21-1.199a3 3 0 0 0-.593-1.001 2.7 2.7 0 0 0-.935-.671 2.84 2.84 0 0 0-1.221-.253q-.672 0-1.221.253-.54.242-.924.671-.375.43-.583 1.001-.21.561-.21 1.199 0 .65.21 1.221.209.572.594 1.001.384.419.924.66.538.242 1.21.242.67 0 1.22-.242t.936-.66q.384-.43.594-1.001.209-.572.209-1.221M48.969 48h-1.09v-7.788h4.863v.957h-3.773v2.42h3.53v.935h-3.53zm7.351 0h-1.089v-7.788h1.09zm6.87-6.347a1.7 1.7 0 0 0-.627-.517 1.9 1.9 0 0 0-.891-.209q-.264 0-.54.077a1.3 1.3 0 0 0-.483.231 1.3 1.3 0 0 0-.363.396 1.1 1.1 0 0 0-.132.561q0 .319.12.539.133.21.342.363.22.143.506.253l.627.209q.396.12.803.275.407.154.737.407t.539.638q.21.374.209.957 0 .605-.231 1.056a2.2 2.2 0 0 1-.594.737q-.375.286-.87.429a3.5 3.5 0 0 1-1 .143q-.737 0-1.43-.286a2.8 2.8 0 0 1-1.133-.847l.847-.715q.275.407.737.66a2.05 2.05 0 0 0 1.55.176q.276-.077.496-.242.231-.165.374-.407a1.2 1.2 0 0 0 .143-.605 1.03 1.03 0 0 0-.154-.583 1.2 1.2 0 0 0-.396-.407 2.5 2.5 0 0 0-.594-.275q-.33-.12-.704-.242a7 7 0 0 1-.737-.264 2.8 2.8 0 0 1-.65-.407 1.9 1.9 0 0 1-.461-.616q-.176-.363-.176-.902 0-.583.23-1.001.242-.418.617-.693.384-.275.858-.396.483-.132.968-.132.682 0 1.276.242t.957.649zm7.363 0a1.7 1.7 0 0 0-.627-.517 1.9 1.9 0 0 0-.891-.209q-.264 0-.54.077a1.3 1.3 0 0 0-.483.231 1.3 1.3 0 0 0-.363.396 1.1 1.1 0 0 0-.132.561q0 .319.12.539.133.21.342.363.22.143.506.253l.627.209q.395.12.803.275.406.154.737.407t.539.638q.209.374.209.957 0 .605-.231 1.056a2.2 2.2 0 0 1-.594.737q-.375.286-.87.429a3.5 3.5 0 0 1-1 .143q-.738 0-1.43-.286a2.8 2.8 0 0 1-1.133-.847l.847-.715q.275.407.737.66a2.05 2.05 0 0 0 1.55.176q.276-.077.496-.242.23-.165.374-.407a1.2 1.2 0 0 0 .143-.605 1.03 1.03 0 0 0-.154-.583 1.2 1.2 0 0 0-.396-.407 2.5 2.5 0 0 0-.594-.275q-.33-.12-.704-.242a7 7 0 0 1-.737-.264 2.8 2.8 0 0 1-.65-.407 1.9 1.9 0 0 1-.461-.616q-.177-.363-.176-.902 0-.583.23-1.001.243-.418.617-.693.384-.275.858-.396.483-.132.968-.132.681 0 1.276.242.594.242.957.649zM75.132 48h-1.089v-7.788h1.09zm10.852-3.905q0 .902-.32 1.661a3.9 3.9 0 0 1-.857 1.298 4 4 0 0 1-1.31.847 4.5 4.5 0 0 1-1.65.297 4.5 4.5 0 0 1-1.65-.297 4 4 0 0 1-1.297-.847 3.9 3.9 0 0 1-.858-1.298 4.4 4.4 0 0 1-.308-1.661q0-.913.308-1.661a3.7 3.7 0 0 1 .858-1.287q.55-.54 1.298-.836a4.5 4.5 0 0 1 1.65-.297q.891 0 1.65.297t1.309.836q.549.528.858 1.287.318.748.319 1.661m-1.177 0q0-.638-.21-1.199a3 3 0 0 0-.593-1.001 2.7 2.7 0 0 0-.935-.671 2.84 2.84 0 0 0-1.221-.253q-.672 0-1.221.253-.54.242-.924.671-.375.43-.583 1.001-.21.561-.21 1.199 0 .65.21 1.221.209.572.594 1.001.384.419.924.66.538.242 1.21.242.67 0 1.22-.242a2.8 2.8 0 0 0 .936-.66q.384-.43.594-1.001a3.5 3.5 0 0 0 .209-1.221m9.247 2.343h.022v-6.226h1.089V48H93.79l-4.114-6.358h-.022V48h-1.09v-7.788h1.42zM98.48 48h-1.21l3.378-7.788h.99L104.982 48h-1.232l-.792-1.914h-3.696zm1.167-2.871h2.915l-1.452-3.652zm8.524 1.903h3.476V48h-4.565v-7.788h1.089z" fill="#fff"/>
</svg>
