<svg xmlns="http://www.w3.org/2000/svg" width="240" height="146" fill="none">
  <g fill="#fff">
    <path d="M65.544 101.494h-2.068V82.996h-6.808v-1.838h15.683v1.838h-6.807zm11.309-11.231q.546-1.177 1.81-1.867a5.55 5.55 0 0 1 2.7-.69q2.556 0 3.82 1.523 1.292 1.522 1.292 4.021v8.244h-1.953v-7.44q0-1.062-.172-1.924t-.604-1.465a2.66 2.66 0 0 0-1.12-.976q-.69-.345-1.752-.345-.775 0-1.522.316-.718.315-1.293.977-.575.63-.919 1.637-.345.976-.345 2.326v6.894h-1.953V79.779h1.953v10.484zm24.932 3.476q-.087-1.896-1.235-3.131-1.121-1.264-3.217-1.264-.977 0-1.81.373a4.5 4.5 0 0 0-1.465.977 4.6 4.6 0 0 0-1.005 1.407 4.4 4.4 0 0 0-.431 1.638zm1.982.632v.43q0 .23-.029.489H92.593q.03 1.005.402 1.895.374.891 1.034 1.551t1.552 1.063a4.9 4.9 0 0 0 1.924.374q1.522 0 2.614-.69 1.12-.718 1.694-1.637l1.465 1.149q-1.206 1.522-2.671 2.183-1.436.66-3.102.66a7.4 7.4 0 0 1-2.786-.517 6.7 6.7 0 0 1-2.183-1.493 7.2 7.2 0 0 1-1.465-2.24q-.517-1.293-.517-2.815c0-1.522.172-1.953.517-2.815a6.8 6.8 0 0 1 1.436-2.24 6.4 6.4 0 0 1 2.154-1.466 6.5 6.5 0 0 1 2.672-.545q1.579 0 2.786.546a5.5 5.5 0 0 1 2.01 1.436 5.85 5.85 0 0 1 1.207 2.096 7.6 7.6 0 0 1 .431 2.586m4.201-3.361a45 45 0 0 0-.115-2.959h1.867a26 26 0 0 1 .115 2.298h.057a4.56 4.56 0 0 1 1.724-1.895q1.148-.747 2.585-.747.373 0 .66.029.316.029.632.114l-.258 1.839a4 4 0 0 0-.575-.115 6 6 0 0 0-.804-.058 4 4 0 0 0-1.494.288q-.718.286-1.263.919-.517.602-.862 1.58-.316.947-.316 2.297v6.894h-1.953zm18.048 4.25h-.603q-.776 0-1.58.087a6.2 6.2 0 0 0-1.408.259 2.5 2.5 0 0 0-1.005.603q-.402.374-.402 1.005 0 .402.172.69.201.286.489.459.287.172.66.258.374.058.718.058 1.437 0 2.183-.776.776-.804.776-2.154v-.488Zm-8.646-6.117a8.3 8.3 0 0 1 2.93-1.81 10.2 10.2 0 0 1 3.447-.603q1.81 0 3.044.46 1.265.43 2.04 1.379.775.918 1.12 2.355.373 1.407.373 3.36v7.21h-4.308v-1.522h-.086q-.546.89-1.666 1.378a5.8 5.8 0 0 1-2.384.488 7.3 7.3 0 0 1-1.781-.229 5.4 5.4 0 0 1-1.695-.747 4.1 4.1 0 0 1-1.235-1.379q-.488-.862-.488-2.125 0-1.55.833-2.5.861-.947 2.183-1.464 1.35-.517 2.987-.69a31 31 0 0 1 3.188-.172v-.23q0-1.062-.747-1.55-.746-.518-1.838-.518-1.005 0-1.953.431a6.3 6.3 0 0 0-1.58 1.034zm32.383 5.141q0 1.493-.46 2.873a7.4 7.4 0 0 1-1.35 2.441 6.5 6.5 0 0 1-2.125 1.666q-1.264.632-2.873.632a6.15 6.15 0 0 1-2.499-.517q-1.177-.546-1.838-1.465h-.057v8.473h-4.711V87.19h4.481v1.752h.086q.661-.862 1.81-1.494 1.177-.66 2.757-.66 1.55 0 2.815.603a6.2 6.2 0 0 1 2.125 1.637 7.1 7.1 0 0 1 1.35 2.413q.489 1.35.489 2.843m-4.567 0q0-.69-.23-1.35a3.1 3.1 0 0 0-.632-1.149 3 3 0 0 0-1.034-.832q-.632-.317-1.465-.317-.804 0-1.436.317-.632.315-1.091.832a4.2 4.2 0 0 0-.69 1.178 4.1 4.1 0 0 0 0 2.7q.259.66.69 1.178.46.516 1.091.833.632.315 1.436.316.833 0 1.465-.316a3 3 0 0 0 1.034-.833 3.3 3.3 0 0 0 .632-1.178q.23-.69.23-1.379m23.444 0a9 9 0 0 1-.459 2.873 7.4 7.4 0 0 1-1.35 2.441 6.5 6.5 0 0 1-2.126 1.666q-1.264.632-2.872.632a6.1 6.1 0 0 1-2.499-.517q-1.178-.546-1.838-1.465h-.058v8.473h-4.71V87.19h4.48v1.752h.087q.66-.862 1.809-1.494 1.177-.66 2.758-.66 1.551 0 2.814.603a6.2 6.2 0 0 1 2.126 1.637 7.1 7.1 0 0 1 1.35 2.413q.488 1.35.488 2.843m-4.567 0q0-.69-.23-1.35a3.1 3.1 0 0 0-.631-1.149 3 3 0 0 0-1.034-.832q-.633-.317-1.465-.317-.804 0-1.436.317-.633.315-1.092.832a4.2 4.2 0 0 0-.689 1.178 4.1 4.1 0 0 0 0 2.7q.258.66.689 1.178.459.516 1.092.833.632.315 1.436.316.832 0 1.465-.316a3 3 0 0 0 1.034-.833q.43-.517.631-1.178.23-.69.23-1.379m12.903 5.113h.058l4.165-11.346h2.125l-6.692 16.918q-.603 1.552-1.551 2.47-.919.948-2.672.948a9 9 0 0 1-1.752-.172l.201-1.781q.69.23 1.437.23 1.005 0 1.579-.632.574-.603 1.006-1.752l1.091-2.815-5.745-13.413h2.183zm-96.807 17.448h2.175q.573 0 1.047.121.473.11.805.353.333.241.514.614.18.372.181.896 0 .534-.201.916a1.6 1.6 0 0 1-.544.624 2.4 2.4 0 0 1-.826.363 4.5 4.5 0 0 1-1.027.111h-1.127v3.131h-.997zm.997 3.152h1.057q.363 0 .664-.061.313-.07.534-.201a1 1 0 0 0 .342-.362q.121-.222.121-.544a1 1 0 0 0-.473-.886 1.3 1.3 0 0 0-.513-.191 3.3 3.3 0 0 0-.655-.061h-1.077zm6.994 3.977h-.996v-7.129h2.286q.514 0 .976.111.465.1.806.332.353.232.554.615.201.372.201.916 0 .784-.483 1.269-.484.483-1.249.614l1.994 3.272H91.03l-1.812-3.172h-1.067v3.172Zm0-4.007h1.15q.353 0 .654-.061.302-.06.524-.191.231-.14.362-.352.131-.222.131-.544a1 1 0 0 0-.13-.534 1 1 0 0 0-.353-.352 1.4 1.4 0 0 0-.504-.181 3 3 0 0 0-.614-.061h-1.218v2.276Zm13.385.433q0 .825-.292 1.52-.282.685-.785 1.188a3.7 3.7 0 0 1-1.198.776 4.1 4.1 0 0 1-1.51.271q-.817 0-1.511-.271a3.7 3.7 0 0 1-1.188-.776 3.6 3.6 0 0 1-.786-1.188 4 4 0 0 1-.282-1.52q0-.836.282-1.521.282-.695.786-1.178a3.5 3.5 0 0 1 1.188-.765 4.1 4.1 0 0 1 1.51-.272 4.1 4.1 0 0 1 1.51.272q.695.272 1.199.765.503.483.785 1.178.292.685.292 1.521m-1.077 0q0-.585-.192-1.098a2.8 2.8 0 0 0-.543-.916 2.5 2.5 0 0 0-.856-.614 2.6 2.6 0 0 0-1.118-.232q-.615 0-1.117.232-.494.22-.846.614a2.9 2.9 0 0 0-.534.916 3.1 3.1 0 0 0-.191 1.098q0 .594.191 1.117c.191.523.309.655.544.917q.352.382.846.604.493.22 1.107.221.614 0 1.118-.221.502-.222.856-.604.352-.393.543-.917.192-.523.192-1.117m4.436 3.574h-.996v-7.129h4.45v.876h-3.454v2.215h3.233v.856h-3.233zm6.73 0h-.997v-7.129h.997zm6.288-5.81a1.55 1.55 0 0 0-.574-.473 1.82 1.82 0 0 0-1.309-.121 1.2 1.2 0 0 0-.443.212 1.15 1.15 0 0 0-.332.362 1 1 0 0 0-.121.514q0 .291.111.493.12.191.312.332.201.132.463.232l.574.191q.363.111.735.252c.372.141.473.218.675.373q.301.231.493.584.191.342.191.876 0 .553-.211.966a2 2 0 0 1-.544.675 2.4 2.4 0 0 1-.795.392 3.2 3.2 0 0 1-.917.131q-.674 0-1.309-.261a2.6 2.6 0 0 1-1.037-.776l.776-.654q.25.373.674.604a1.9 1.9 0 0 0 1.42.161 1.37 1.37 0 0 0 .795-.594 1.1 1.1 0 0 0 .131-.554.94.94 0 0 0-.141-.533 1.1 1.1 0 0 0-.362-.373 2.2 2.2 0 0 0-.544-.252 18 18 0 0 0-.644-.221 6 6 0 0 1-.675-.242 2.6 2.6 0 0 1-.594-.372 1.8 1.8 0 0 1-.423-.564q-.16-.333-.161-.826 0-.534.212-.916a2.05 2.05 0 0 1 .563-.635q.353-.25.786-.362a3.3 3.3 0 0 1 .886-.121q.624 0 1.168.222.543.22.876.594zm6.74 0a1.56 1.56 0 0 0-.574-.473 1.82 1.82 0 0 0-1.309-.121 1.2 1.2 0 0 0-.443.212 1.2 1.2 0 0 0-.333.362q-.12.211-.121.514 0 .291.111.493.122.191.312.332.202.132.464.232l.573.191q.363.111.736.252.372.14.674.373.303.231.494.584.19.342.191.876 0 .553-.212.966a2 2 0 0 1-.543.675 2.4 2.4 0 0 1-.796.392 3.2 3.2 0 0 1-.916.131q-.675 0-1.309-.261a2.6 2.6 0 0 1-1.037-.776l.775-.654q.252.373.675.604a1.88 1.88 0 0 0 1.42.161q.25-.07.453-.221.212-.151.342-.373a1.1 1.1 0 0 0 .131-.554.94.94 0 0 0-.141-.533 1.1 1.1 0 0 0-.363-.373 2.2 2.2 0 0 0-.543-.252 18 18 0 0 0-.645-.221 6 6 0 0 1-.674-.242 2.6 2.6 0 0 1-.594-.372 1.8 1.8 0 0 1-.423-.564q-.161-.333-.161-.826 0-.534.211-.916.222-.383.564-.635.353-.25.785-.362.444-.121.886-.121.625 0 1.168.222.544.22.876.594zm4.192 5.81h-.997v-7.129h.997zm9.932-3.574q0 .825-.292 1.52a3.6 3.6 0 0 1-.785 1.188 3.7 3.7 0 0 1-1.198.776 4.1 4.1 0 0 1-1.51.271q-.816 0-1.511-.271a3.7 3.7 0 0 1-1.188-.776 3.6 3.6 0 0 1-.785-1.188 4 4 0 0 1-.282-1.52q0-.836.282-1.521.281-.695.785-1.178a3.55 3.55 0 0 1 1.188-.765 4.1 4.1 0 0 1 1.511-.272q.815 0 1.51.272.694.272 1.198.765.504.483.785 1.178.292.685.292 1.521m-1.077 0q0-.585-.191-1.098a2.8 2.8 0 0 0-.544-.916 2.5 2.5 0 0 0-.856-.614 2.6 2.6 0 0 0-1.117-.232q-.614 0-1.118.232a2.5 2.5 0 0 0-.846.614 2.9 2.9 0 0 0-.534.916 3.1 3.1 0 0 0-.191 1.098q0 .594.191 1.117.192.524.544.917.353.382.846.604.493.22 1.108.221.614 0 1.117-.221.504-.222.856-.604.352-.393.544-.917a3.2 3.2 0 0 0 .191-1.117m8.464 2.144h.021v-5.699h.996v7.129h-1.258l-3.766-5.82h-.02v5.82h-.997v-7.129h1.299zm4.053 1.43h-1.108l3.091-7.129h.907l3.061 7.129h-1.128l-.725-1.752h-3.383zm1.067-2.628h2.668l-1.329-3.343zm7.803 1.742h3.182v.886h-4.179v-7.129h.997z"/>
    <path fill-rule="evenodd" d="M155.642 11.862c-10.458-7.669-19.7-5.68-27.164 1.09q.438.203.864.419c6.136 3.107 10.316 8.269 10.507 16.12.051 2.08-.238 4.142-.803 6.17l.006-.008c5.412-7.343 10.038-13.619 15.485-16.61 8.064-4.43 11.092-3.82 15.777-2.878.98.197 2.034.409 3.221.592zm-46.854 47.49c.713-8.576 3.308-18.981 7.445-28.254 1.541 1.562 2.612 3.265 3.179 5.12.727 2.382.679 5.195-.534 8.558-1.48 4.105-4.663 8.939-10.09 14.576M67.262 17.386c33.694-.184 86.611 10.716 28.723 55.789 14.177-6.997 42.421-25.52 41.979-43.637-.687-28.171-57.445-17.124-70.702-12.152" clip-rule="evenodd"/>
  </g>
</svg>
