<svg width="208" height="208" viewBox="0 0 208 208" fill="none" xmlns="http://www.w3.org/2000/svg">
  <path d="M196.272 77.949c9.128 20.62 8.619 44.353-1.779 64.356-5.122 9.829-13.109 20.102-25.598 27.76-35.023 21.479-62.418 20.412-82.027.981-19.61-19.432-53.705-4.36-71.92-42.772C-3.266 89.863 10.245 37.125 55.82 20.212c45.576-16.914 46.83 8.006 75.274 9.974 21.755 1.498 51.574 16.992 65.178 47.763" fill="#F0F4F2"/>
  <path d="M68.395 52.944c-1.904-1.703-3.878-.938-4.886-.362-.202-1.153-.938-3.141-3.452-3.479-2.747-.366-4.998 2.312-4.262 6.044.535 2.687 2.25 5.159 3.17 6.307.108.141.21.263.295.361h.47c1.481-.06 4.463-.356 6.846-1.697 3.296-1.876 3.882-5.327 1.819-7.175" fill="#3E6AE1" stroke="#263238" stroke-width=".469" stroke-linecap="round" stroke-linejoin="round"/>
  <path d="M57.703 63.565s-.126.23-.3.633" stroke="#263238" stroke-width=".469" stroke-linecap="round" stroke-linejoin="round"/>
  <path d="M56.925 65.506c-.75 2.452-1.266 6.654 2.73 9.2 9.875 6.298 13.2-8.558 5.626-7.221-5.2.938.3 14.682 8.44 11.91" stroke="#263238" stroke-width=".469" stroke-linecap="round" stroke-linejoin="round" stroke-dasharray="1.4 1.4"/>
  <path d="M74.402 79.137q.31-.14.628-.31" stroke="#263238" stroke-width=".469" stroke-linecap="round" stroke-linejoin="round"/>
  <path d="M62.224 169.897s-5.575 3.793-7.822 3.54a1.05 1.05 0 0 1-.66-.281c-1.464-1.51-2.64-4.164-2.64-4.164s.698-.966 2.85 1.599l1.365-1.252-2.814-2.842s1.59-1.261 4.29.347c-.093-.197-1.833-3.986-.52-9.144l-6.565-6.335 5.825-5.074.468-.394s.366.362.938.938c.572.577 1.365 1.271 2.223 2.026 2.054 1.805 4.54 3.751 5.627 3.751 1.96-.065-2.565 17.285-2.565 17.285" fill="#fff"/>
  <path d="M57.915 167.412s-3.18 3.282-3.513 6.025a1.04 1.04 0 0 1-.66-.281c-1.464-1.51-2.64-4.164-2.64-4.164s.698-.966 2.85 1.599l1.365-1.252-2.814-2.842s1.59-1.261 4.29.347c-.093-.197-1.833-3.986-.52-9.144l-6.565-6.335 5.825-5.073 1.406.529a89 89 0 0 0 2.223 2.026c-1.233 1.805-3.873 5.543-3.873 5.543l2.283 3.095s-1.407 7.802.343 9.927" fill="#fff"/>
  <path d="M62.224 169.897s-5.575 3.793-7.822 3.54a1.05 1.05 0 0 1-.66-.281c-1.464-1.51-2.64-4.164-2.64-4.164s.698-.966 2.85 1.599l1.365-1.252-2.814-2.842s1.59-1.261 4.29.347c-.093-.197-1.833-3.986-.52-9.144l-6.565-6.335 5.825-5.074.468-.394s.366.362.938.938c.572.577 1.365 1.271 2.223 2.026 2.054 1.805 4.54 3.751 5.627 3.751 1.96-.065-2.565 17.285-2.565 17.285" stroke="#263238" stroke-width=".469" stroke-linecap="round" stroke-linejoin="round"/>
  <path d="M55.335 169.339a6.9 6.9 0 0 1 1.468-2.49" stroke="#263238" stroke-width=".469" stroke-linecap="round" stroke-linejoin="round"/>
  <path d="M159.337 125.734a15.9 15.9 0 0 1-3.156 3.404c-10.25 8.488-33.884 12.661-33.884 12.661s-.792 1.186-2.012 2.875c-2.185 3.033-5.763 7.695-8.679 10.03-1.233.989-2.345 1.561-3.194 1.406l4.436 16.38 1.984 7.109s-20.38 8.909-55.234-1.276c0 0-.399-4.548-.103-5.519 0-.047.028-.094.047-.145a6.5 6.5 0 0 1 1.369-1.717s-.197-2.926-.296-5.903a40 40 0 0 1 .07-5.698c.25-1.5 1.346-5.13 1.9-6.912l.323-1.036-1.735-16.243-.497-4.689-.028-.244v-.118l-.272-2.508-8.966 2.738s.47 1.051 1.116 2.523c1.177 2.696 2.908 6.799 3.283 8.441q.042.2.112.393c.83 2.369 3.99 4.521 3.99 4.521l-8.491 9.922-2.509-1.754q-.482.357-1.013.638c-1.65.896-5.111 2.214-8.91.202a13.3 13.3 0 0 1-4.191-3.714c-6.66-8.647-9.557-15.723-8.615-24.009s38.232-33.856 45.631-33.589l11.006 2.43c.239-.198.881-.704 1.378-.68 2.003.103 2.054 2.428 2.054 2.428l24.665 4.005s2.556-1.28 3.002-1.261a1.93 1.93 0 0 1 1.561.989s6.387-3.826 8.441-2.935c6.761 2.916 40.411 19.268 35.417 26.855" fill="#2B67C1"/>
  <path opacity=".2" d="M73.647 166.258a18.44 18.44 0 0 1-10.678 5.791 78 78 0 0 0-3.437.619 6.5 6.5 0 0 1 1.37-1.716s-.197-2.926-.296-5.904c2.893 1.909 7.939 4.113 13.04 1.21m-11.07-13.805.323-1.036-1.735-16.244c2.593 3.719 11.84 16.384 18.213 17.754 6.663 1.425-11.151 3.953-16.801-.474m50.263 20.06c-6.963-.792-16.806-2.546-17.79-6.189-1.534-5.693 5.927-9.107 16.557-11.597-1.233.99-2.345 1.562-3.193 1.407zm43.337-43.37c-10.251 8.487-33.885 12.661-33.885 12.661s-.792 1.186-2.011 2.874a39.42 39.42 0 0 1-1.505-26.189s1.819 9.847 9.378 12.192c0 0-5.786-4.31-3.751-14.682 0 0 1.974 12.192 14.818 15.577 6.232 1.674 12.332-.145 16.956-2.433m-95.537 1.107-.281-2.626-8.966 2.738s.469 1.051 1.116 2.523c-3.428-.352-9.932 2.814-11.067-.638-1.369-4.183 7.034-2.743 7.034-2.743l7.944-4.619c-1.5-6.424 2.32-11.254 2.32-11.254l.728 4.483c.347-8.52 3.68-13.181 3.68-13.181-2.756 6.738-2.681 23.342-2.508 25.317m-.732 15.971-8.492 9.922-2.509-1.753a8 8 0 0 1-1.013.637c-1.65.896-5.11 2.214-8.91.202 2.754-3.808 8.442-9.411 15.199-11.573a68 68 0 0 0-4.474 7.709l1.745 1.716s4.351-4.961 8.454-6.86m20.619-43.703c0 .876-.553 10.785 6.668 13.425s13.627-1.824 13.627-1.824-11.071 10.682-17.82 4.97c-6.747-5.711-2.475-16.571-2.475-16.571" fill="#000"/>
  <path d="M59.584 178.342s-.39-4.548-.099-5.514c.244-.816 1.407-1.876 1.407-1.876s-.614-9.219-.22-11.596c.337-2.04 2.222-7.972 2.222-7.972l-2.541-23.793-8.966 2.743s3.817 8.441 4.408 10.945c.59 2.504 4.108 4.909 4.108 4.909l-8.493 9.918-2.508-1.749s-7.41 5.796-14.1-2.87c-6.692-8.666-9.567-15.723-8.629-24.032s38.24-33.852 45.64-33.589L82.82 96.3c.234-.197.881-.704 1.374-.68 2.002.103 2.053 2.429 2.053 2.429l24.666 4.004s2.56-1.28 3.006-1.261a1.94 1.94 0 0 1 1.556.989s6.387-3.821 8.441-2.935c6.752 2.917 40.397 19.268 35.408 26.855-7.085 10.785-37.045 16.089-37.045 16.089s-9.964 15.005-13.889 14.311l6.419 23.488" stroke="#263238" stroke-width=".469" stroke-linecap="round" stroke-linejoin="round"/>
  <path d="M133.268 127.38c11.32 7.474 20.445 6.096 27.587-3.527 0 0 5.946-7.666 5.524-15.943s-2.396-35.24-28.164-28.346c-4.243 1.135-14.142 14.391-14.972 18.035-.385 1.664-4.356 10.138-8.216 18.911" fill="#2B67C1"/>
  <path d="M133.268 127.38c11.32 7.474 20.445 6.096 27.587-3.527 0 0 5.946-7.666 5.524-15.943s-2.396-35.24-28.164-28.346c-4.243 1.135-14.142 14.391-14.972 18.035-.385 1.664-4.356 10.138-8.216 18.911" stroke="#263238" stroke-width=".469" stroke-linecap="round" stroke-linejoin="round"/>
  <path d="M102.645 48.165s7.212-1.093 12.22 3.39c6.335 5.67 13.448 20.956 3.32 46.288 0 0-14.964-9.932-40.501-3.283 0 0 2.2-5.941-1.66-24.646-1.744-8.465 2.645-27.962 26.621-21.749" fill="#263238"/>
  <path d="M91.714 111.732c10.673 1.73 22.011-10.087 22.011-10.087s-5.8-.712-6.321-3.437c-1.664-8.595 5.032-19.226 5.032-19.226s-25.913.718-21.383 6.565a14.7 14.7 0 0 1 2.05 3.513c1.57 3.859.468 6.77-.352 7.502q-.09.073-.193.127c-1.566.713-8.004-.352-8.004-.352s-2.58 13.815 7.16 15.395" fill="#fff" stroke="#263238" stroke-width=".469" stroke-linecap="round" stroke-linejoin="round"/>
  <path d="M110.054 104.919s-4.924 1.969-12.131 1.383l-3.245 1.59m-3.236-.249-.234-2.129s-5.318-1.665-6.964-4.825" stroke="#263238" stroke-width=".469" stroke-linecap="round" stroke-linejoin="round"/>
  <path d="M92.75 96.576c7.935 2.073 11.663-8.102 11.663-8.102s-6.35-1.876-11.31.618c1.57 3.86.482 6.772-.352 7.484" fill="#263238"/>
  <path d="M112.896 73.642c1.927-10.837-.216-23.84-16.713-22.762-11.784.77-11.685 13.688-10.907 17.547 1.313 6.485-.567 9.036 1.454 14.485 1.453 3.915 4.825 8.295 8.797 9.936 2.443 1.009 12.332-5.931 13.064-9.106" fill="#fff"/>
  <path d="M112.896 73.642c1.927-10.837-.216-23.84-16.713-22.762-11.784.77-11.685 13.688-10.907 17.547 1.313 6.485-.567 9.036 1.454 14.485 1.453 3.915 4.825 8.295 8.797 9.936 2.443 1.009 12.332-5.931 13.064-9.106" stroke="#263238" stroke-width=".469" stroke-linecap="round" stroke-linejoin="round"/>
  <path d="M92.17 70.448c-.1 1.22-.245 4.22-2.814 6.453-1.67 1.44 2.157 2.912 2.157 2.912M89.43 66.148s-3.638-1.772-6.096 1.154m12.202-1.392a12.3 12.3 0 0 1 7.78.309" stroke="#263238" stroke-width=".469" stroke-linecap="round" stroke-linejoin="round"/>
  <path d="M99.316 71.034c.112 1.046.816 1.83 1.57 1.745s1.276-.994 1.163-2.04-.816-1.824-1.57-1.744-1.276.994-1.163 2.04" fill="#263238"/>
  <path d="M91.69 83.26a20.5 20.5 0 0 0 8.137-2.974s.342 4.549-3.466 5.491c-2.921.727-4.051-2.607-4.051-2.607" stroke="#263238" stroke-width=".469" stroke-linecap="round" stroke-linejoin="round"/>
  <path d="M102.392 55.007s-1.041 12.843 10.292 17.51l5.313-12.348-8.037-8.91-12.103-3.497c-18.086 1.13-25.87 12.365-15.83 42.306 0 .014-2.81-35.643 20.365-35.061" fill="#263238"/>
  <path d="M110.199 73.06c-.159-1.444 3.494-5.12 4.727-2.762 2.106 4.024.572 7.503-1.604 8.91-.975.614-2.213 1.767-3.08.68" fill="#fff"/>
  <path d="M110.199 73.06c-.159-1.444 3.494-5.12 4.727-2.762 2.106 4.024.572 7.503-1.604 8.91-.975.614-2.213 1.767-3.08.68" stroke="#263238" stroke-width=".469" stroke-linecap="round" stroke-linejoin="round"/>
  <path d="M88.277 71.536c.117 1.046.82 1.829 1.576 1.744.755-.084 1.275-.994 1.163-2.04-.113-1.045-.821-1.828-1.576-1.744s-1.28.97-1.163 2.04" fill="#263238"/>
  <path d="M80.423 69.407c-.136.868-.23 1.75-.282 2.626m20.375-19.362c-9.163-.239-17.678 5.6-19.695 14.767M98.88 50.055s-13.215-3.11-18.167 5.655m28.886 9.613a14.1 14.1 0 0 0 2.846 3m-8.089-16.557a35.7 35.7 0 0 0 4.193 11.94m9.081 27.806a45 45 0 0 1-.82 3.123m.056-20.585c2.143 4.759 1.998 10.681 1.116 15.69m-2.686-7.419a12.8 12.8 0 0 1-3.728 9.791M109.205 53.3c2.246 3.038 3.916 6.297 6.518 9.073 2.743 2.922 5.486 6.27 6.002 10.387m-15.69-22.62a9.8 9.8 0 0 1 1.763 1.476" stroke="#fff" stroke-width=".469" stroke-linecap="round" stroke-linejoin="round"/>
  <path d="M151.233 120.655a11 11 0 0 1-.797.141c-7.09 1.013-15.043-4.867-17.725-11.925-2.119-5.575-.267-11.9.746-14.606.319-.85.548-1.342.548-1.342 4.277-6.096 29.139 5.838 29.43 12.422s-4.938 13.716-12.202 15.31" fill="#263238" stroke="#263238" stroke-width=".469" stroke-linecap="round" stroke-linejoin="round"/>
  <path d="M159.013 106.236s-1.407 10.466-8.577 14.56c-7.09 1.013-15.043-4.867-17.725-11.925-2.119-5.575-.267-11.9.746-14.606 8.379-4.788 25.556 11.971 25.556 11.971" fill="#fff"/>
  <path d="M159.013 106.236s-1.407 10.466-8.577 14.56c-7.09 1.013-15.043-4.867-17.725-11.925-2.119-5.575-.267-11.9.746-14.606 8.379-4.788 25.556 11.971 25.556 11.971" fill="#201F23"/>
  <path d="M159.013 106.236s-1.407 10.466-8.577 14.56c-7.09 1.013-15.043-4.867-17.725-11.925-2.119-5.575-.267-11.9.746-14.606 8.379-4.788 25.556 11.971 25.556 11.971" stroke="#263238" stroke-width=".469" stroke-linecap="round" stroke-linejoin="round"/>
  <path d="M129.691 111.746s8.075 11.592 17.505 12.558 15.475-6.978 15.845-12.966" stroke="#263238" stroke-width=".469" stroke-linecap="round" stroke-linejoin="round"/>
  <path d="M125.152 59.438c.708-1.984 5.801-1.318 7.419 4.872s7.971 21.237 7.971 21.237 25.322-37.237 29.842-38.672c4.521-1.435 2.744 5.018-3.32 13.97 0 0 5.679-1 7.17 0 1.491.998.765 7.033 1.557 9.125 1.332 3.53-1.627 4.276-1.627 4.276a6.32 6.32 0 0 1 3.953 1.505c1.627 1.524.811 7.822 1.275 9.604.465 1.782-2.64 3.282-2.64 3.282s7.461 4.066 5.778 5.088c-2.842 1.717-4.46-.042-4.46-.042s-11.465 14.396-20.112 17.603-25.476-9.538-27.286-16.478.351-6.513-1.023-18.062-4.497-17.308-4.497-17.308" fill="#fff" stroke="#263238" stroke-width=".469" stroke-linecap="round" stroke-linejoin="round"/>
  <path d="m162.069 36.558-33.342 8.691a2.214 2.214 0 0 0-1.584 2.7l15.761 60.464a2.213 2.213 0 0 0 2.7 1.583l33.342-8.691a2.214 2.214 0 0 0 1.584-2.7l-15.761-60.463a2.213 2.213 0 0 0-2.7-1.584" fill="#fff" stroke="#263238" stroke-width=".469" stroke-linecap="round" stroke-linejoin="round"/>
  <path d="M142.966 43.509a.53.53 0 0 1-.197.566.54.54 0 0 1-.599.035.53.53 0 0 1-.249-.33.538.538 0 0 1 .795-.602.54.54 0 0 1 .25.33m6.87-1.791a.33.33 0 0 1-.036.257.336.336 0 0 1-.561.03.34.34 0 0 1-.02-.373.338.338 0 0 1 .617.086" fill="#3E6AE1" stroke="#263238" stroke-width=".469" stroke-linecap="round" stroke-linejoin="round"/>
  <path d="m148.194 42.563-4.025 1.037a.15.15 0 0 0-.108.183l.021.082a.15.15 0 0 0 .183.108l4.026-1.037a.15.15 0 0 0 .108-.183l-.021-.082a.15.15 0 0 0-.184-.108" fill="#3E6AE1" stroke="#263238" stroke-width=".47" stroke-linecap="round" stroke-linejoin="round"/>
  <path d="m163.768 38.768 15.629 59.965a1.313 1.313 0 0 1-.938 1.599l-32.914 8.577a1.31 1.31 0 0 1-1.599-.938l-15.629-59.966a1.313 1.313 0 0 1 .938-1.599l6.757-1.763a1.1 1.1 0 0 1 1.177.432l.493.698a1.095 1.095 0 0 0 1.177.432l14.832-3.864a1.1 1.1 0 0 0 .816-.938l.089-.849a1.09 1.09 0 0 1 .816-.938l6.757-1.763a1.31 1.31 0 0 1 1.599.915" fill="#fff" stroke="#263238" stroke-width=".469" stroke-linecap="round" stroke-linejoin="round"/>
  <path d="M164.914 72.417c3.058-7.043-.173-15.232-7.216-18.29s-15.232.172-18.291 7.216c-3.058 7.043.173 15.232 7.216 18.29 7.044 3.059 15.233-.172 18.291-7.216" fill="#fff" stroke="#263238" stroke-width=".469" stroke-linecap="round" stroke-linejoin="round"/>
  <g clip-path="url(#a)">
    <path d="m158.216 60.5-6.604 11.156-5.071-3.001" stroke="#3E6AE1" stroke-width="4" stroke-linecap="round" stroke-linejoin="round"/>
  </g>
  <path d="m170.053 97.302-18.757 4.886a4.2 4.2 0 0 1-3.203-.436 4.23 4.23 0 0 1-1.955-2.574 4.23 4.23 0 0 1 .438-3.205 4.22 4.22 0 0 1 2.577-1.953l18.757-4.886a4.222 4.222 0 0 1 2.143 8.168" fill="#CDEFE2"/>
  <path d="M122.292 141.823s-5.693-13.248-2.814-29.313m-11.075 43.624s-11.507 3.517-12.66 6.166 5.158.418 5.158.418m14.578-60.904s-10.597 10.504-17.687 13.303M80.755 98.992s-1.932 14.18 5.276 16.857m-25.673 11.775s-.057-18.588 3.634-24.337m-5.012 5.397s-1.037 11.545 1.293 15.31m-8.881 6.373s-8.06-2.776-9.73.666 4.806.389 4.806.389m9.772 10.996s-7.915 4.46-8.323 7.011m21.252-19.344s15.15 22.898 23.511 20.797m-13.162 11.32s-11.878 8.708-13.6 7.972" stroke="#263238" stroke-width=".469" stroke-linecap="round" stroke-linejoin="round"/>
  <path opacity=".2" d="M162.717 125.044c.802-.656 1.332-1.092 1.505-1.228-.178.154-.694.605-1.505 1.228" fill="#000"/>
  <circle cx="9" cy="9" r="9" transform="matrix(1 0 0 -1 28 175)" fill="#F0F4F2"/>
  <circle cx="3.661" cy="3.661" r="3.661" transform="matrix(1 0 0 -1 19 159.321)" fill="#F0F4F2"/>
  <defs>
    <clipPath id="a">
      <path fill="#fff" d="m140.828 59.796 19.374-4.966 4.966 19.373-19.374 4.966z"/>
    </clipPath>
  </defs>
</svg>
