<svg width="56" height="57" viewBox="0 0 56 57" fill="none" xmlns="http://www.w3.org/2000/svg">
<g id="System / Components / Category_variants">
<rect id="Rectangle 8" y="0.5" width="56" height="56" rx="10.5" fill="white"/>
<g id="Group 506">
<path id="Vector" d="M44.6999 21.6213C44.4853 21.5327 44.3663 21.2991 44.4221 21.0737C45.4752 16.8266 42.1072 12.6883 37.6776 12.9378C37.4574 12.9502 37.2543 12.8158 37.1905 12.6047C36.8256 11.3976 35.9884 10.3957 34.8937 9.81445H33.6452L31.7589 12.6191V43.6001L32.502 45.8865L34.8937 47.1856C35.9884 46.6043 36.8256 45.6025 37.1905 44.3954C37.2543 44.1842 37.4573 44.0499 37.6776 44.0623C42.1044 44.3114 45.4753 40.1744 44.4221 35.9263C44.3662 35.701 44.4852 35.4673 44.6999 35.3788C47.4028 34.2643 49.3059 31.6052 49.3059 28.5C49.3059 25.3948 47.4028 22.7357 44.6999 21.6213Z" fill="#FFDECF"/>
<path id="Vector_2" d="M32.3566 42.9603V14.0395C32.3566 12.2299 33.3891 10.62 34.8935 9.81432C34.2445 9.46968 33.5051 9.27268 32.7198 9.26885C30.1236 9.25604 27.9997 11.4432 27.9997 14.0395L27.3574 15.0775V41.428L27.9997 42.9603C27.9997 45.5565 30.1236 47.7437 32.7198 47.7309C33.5052 47.7271 34.2446 47.5301 34.8935 47.1855C33.3891 46.3798 32.3566 44.7699 32.3566 42.9603Z" fill="#FFCEBE"/>
<g id="Group">
<path id="Vector_3" d="M37.1961 12.6191C37.2649 12.8216 37.4625 12.9499 37.6774 12.9378C37.954 12.9223 38.2264 12.9237 38.4939 12.9414C38.4925 13.6518 38.3619 14.8513 37.6409 15.997C37.4517 16.2977 37.0547 16.388 36.7541 16.1988C36.4536 16.0096 36.3632 15.6126 36.5524 15.312C37.2487 14.2054 37.2246 12.9985 37.1961 12.6191Z" fill="#FFB1A0"/>
<path id="Vector_4" d="M37.6211 19.1182C38.0974 19.2218 38.7541 19.5184 39.3097 19.964C39.3906 20.0289 39.4963 20.0536 39.5989 20.0375C41.7718 19.6952 43.6088 20.0024 44.5728 20.2381C44.5409 20.5154 44.4912 20.7943 44.4219 21.0737C44.3725 21.273 44.4601 21.4784 44.6294 21.5845C44.0852 21.4257 42.6064 21.0666 40.7358 21.2006C40.5616 21.2131 40.4549 21.3953 40.5245 21.5555C40.784 22.1527 40.9466 22.8976 40.9113 23.8205C40.898 24.1671 40.6129 24.4391 40.2691 24.4391C40.2608 24.4391 40.2525 24.4389 40.2441 24.4386C39.8893 24.425 39.6125 24.1263 39.6261 23.7714C39.7349 20.9254 37.4359 20.3941 37.3298 20.3712C36.9649 20.2957 36.7361 19.9245 36.8434 19.5586C36.9396 19.2308 37.2872 19.0456 37.6211 19.1182Z" fill="#FFB1A0"/>
<path id="Vector_5" d="M37.1962 44.3809C37.2649 44.1784 37.4625 44.0501 37.6775 44.0623C37.954 44.0778 38.2264 44.0763 38.4939 44.0587C38.4926 43.3483 38.3619 42.1488 37.6409 41.003C37.4518 40.7024 37.0548 40.6121 36.7542 40.8013C36.4536 40.9905 36.3633 41.3875 36.5524 41.6881C37.2488 42.7946 37.2247 44.0015 37.1962 44.3809Z" fill="#FFB1A0"/>
<path id="Vector_6" d="M37.6211 37.8819C38.0974 37.7782 38.7541 37.4817 39.3097 37.0361C39.3906 36.9712 39.4963 36.9465 39.5989 36.9626C41.7718 37.3049 43.6088 36.9977 44.5728 36.762C44.5409 36.4847 44.4912 36.2058 44.4219 35.9264C44.3725 35.727 44.4601 35.5217 44.6294 35.4156C44.0852 35.5744 42.6064 35.9334 40.7358 35.7994C40.5616 35.787 40.4549 35.6048 40.5245 35.4446C40.784 34.8474 40.9466 34.1025 40.9113 33.1796C40.898 32.833 40.6129 32.561 40.2691 32.561C40.2608 32.561 40.2525 32.5612 40.2441 32.5615C39.8893 32.5751 39.6125 32.8738 39.6261 33.2287C39.7349 36.0747 37.4359 36.606 37.3298 36.6289C36.9649 36.7044 36.7361 37.0756 36.8434 37.4415C36.9396 37.7693 37.2872 37.9545 37.6211 37.8819Z" fill="#FFB1A0"/>
</g>
<path id="Vector_7" d="M25.6216 9.90356H24.0306L22.3158 11.989H20.601L16.1576 15.0756L14.4849 20.5628C14.4849 20.5628 12.1414 23.3706 11.9128 23.7958C11.6841 24.2211 10.4838 29.3653 10.4838 29.8798C10.4838 30.3942 11.5126 32.5839 11.9128 33.2038C12.3128 33.8238 14.4278 36.0702 14.4278 36.0702C14.4278 36.0702 15.6281 39.5397 15.6281 39.8255C15.6281 40.1113 17.6639 42.6863 17.6639 42.6863L21.2297 44.3808L23.1731 45.3128L24.1448 46.7418L25.3435 47.2478C26.9126 46.4647 27.9996 44.8174 27.9996 42.9603V14.0394C27.9996 12.2942 27.0393 10.7352 25.6216 9.90356Z" fill="#FFDECF"/>
<path id="Vector_8" d="M23.4856 44.3952C23.4218 44.1841 23.2188 44.0498 22.9985 44.0622C18.5717 44.3113 15.2008 40.1742 16.254 35.9262C16.31 35.7008 16.191 35.4672 15.9762 35.3787C13.2735 34.2642 11.3703 31.605 11.3703 28.4999C11.3703 25.3947 13.2735 22.7356 15.9763 21.6211C16.191 21.5326 16.31 21.299 16.2541 21.0736C15.2011 16.8265 18.5691 12.6881 22.9986 12.9376C23.2188 12.95 23.4219 12.8157 23.4857 12.6046C23.8326 11.4571 24.6062 10.4952 25.622 9.90362C24.9306 9.49806 24.131 9.26461 23.2799 9.26886C21.1699 9.27926 19.3907 10.6817 18.8094 12.6046C18.7456 12.8157 18.5425 12.95 18.3223 12.9376C13.8927 12.6881 10.5248 16.8265 11.5778 21.0736C11.6337 21.299 11.5147 21.5326 11.3 21.6211C8.59723 22.7356 6.69409 25.3948 6.69409 28.4999C6.69409 31.6049 8.59723 34.2641 11.3001 35.3786C11.5147 35.4671 11.6337 35.7008 11.5779 35.9261C10.5247 40.1742 13.8956 44.3113 18.3224 44.0621C18.5426 44.0497 18.7457 44.184 18.8095 44.3951C19.3907 46.318 21.17 47.7205 23.28 47.7309C24.1311 47.735 24.9306 47.5016 25.6221 47.0961C24.6061 46.5045 23.8325 45.5427 23.4856 44.3952Z" fill="#FFCEBE"/>
<path id="Vector_9" d="M18.8037 12.6191C18.735 12.8216 18.5374 12.9499 18.3224 12.9377C18.0459 12.9222 17.7735 12.9237 17.506 12.9413C17.5073 13.6517 17.638 14.8512 18.359 15.997C18.5481 16.2976 18.9451 16.3879 19.2457 16.1987C19.5463 16.0095 19.6367 15.6125 19.4475 15.3119C18.751 14.2054 18.7752 12.9985 18.8037 12.6191Z" fill="#FFB1A0"/>
<path id="Vector_10" d="M18.3786 19.118C17.9023 19.2216 17.2456 19.5181 16.69 19.9637C16.6091 20.0287 16.5034 20.0534 16.4008 20.0372C14.2279 19.6949 12.391 20.0022 11.4269 20.2379C11.4589 20.5152 11.5085 20.7941 11.5778 21.0735C11.6272 21.2728 11.5396 21.4781 11.3703 21.5842C11.9145 21.4254 13.3933 21.0664 15.2639 21.2004C15.4381 21.2129 15.5448 21.3951 15.4753 21.5553C15.2158 22.1524 15.0532 22.8974 15.0885 23.8203C15.1017 24.1668 15.3869 24.4388 15.7307 24.4388C15.739 24.4388 15.7473 24.4386 15.7557 24.4383C16.1105 24.4247 16.3873 24.126 16.3737 23.7712C16.2649 20.9252 18.5639 20.3938 18.67 20.371C19.0349 20.2955 19.2637 19.9243 19.1564 19.5583C19.06 19.2305 18.7124 19.0453 18.3786 19.118Z" fill="#FFB1A0"/>
<path id="Vector_11" d="M18.8037 44.3806C18.735 44.1781 18.5374 44.0499 18.3224 44.062C18.0459 44.0776 17.7735 44.0761 17.506 44.0584C17.5073 43.348 17.638 42.1486 18.359 41.0028C18.5481 40.7022 18.9451 40.6119 19.2457 40.8011C19.5463 40.9902 19.6367 41.3872 19.4475 41.6878C18.751 42.7943 18.7752 44.0013 18.8037 44.3806Z" fill="#FFB1A0"/>
<path id="Vector_12" d="M18.3786 37.8816C17.9023 37.778 17.2456 37.4815 16.69 37.0359C16.6091 36.9709 16.5034 36.9462 16.4008 36.9624C14.2279 37.3047 12.391 36.9974 11.4269 36.7617C11.4589 36.4844 11.5085 36.2055 11.5778 35.9261C11.6272 35.7268 11.5396 35.5215 11.3703 35.4154C11.9145 35.5742 13.3933 35.9332 15.2639 35.7992C15.4381 35.7867 15.5448 35.6045 15.4753 35.4443C15.2158 34.8472 15.0532 34.1022 15.0885 33.1793C15.1017 32.8328 15.3869 32.5608 15.7307 32.5608C15.739 32.5608 15.7473 32.561 15.7557 32.5613C16.1105 32.5749 16.3873 32.8736 16.3737 33.2284C16.2649 36.0744 18.5639 36.6058 18.67 36.6286C19.0349 36.7041 19.2637 37.0753 19.1564 37.4413C19.06 37.7691 18.7124 37.9543 18.3786 37.8816Z" fill="#FFB1A0"/>
<path id="Vector_13" d="M34.5807 20.7368H22.9447L22.0421 21.2366V35.6407L22.7571 36.263H34.5807C35.2311 36.263 35.7631 35.7795 35.7631 35.1886V21.8112C35.7631 21.2203 35.231 20.7368 34.5807 20.7368Z" fill="#DBEDFF"/>
<path id="Vector_14" d="M32.9047 23.455C28.8661 23.8448 32.19 29.345 28.5954 29.4208V24.7434C28.5954 24.6027 28.682 24.4727 28.8119 24.4186L29.6348 24.083C29.7214 24.0505 29.7755 23.9639 29.7755 23.8772V23.6932C29.7755 23.5633 29.6781 23.4658 29.5481 23.4658L26.4515 23.4658C26.3216 23.4658 26.2241 23.5633 26.2241 23.6932V23.8773C26.2241 23.9639 26.2783 24.0506 26.3649 24.083L27.1878 24.4187C27.3177 24.4728 27.4043 24.6027 27.4043 24.7435V29.4209C23.8096 29.345 27.1336 23.8446 23.095 23.4549C22.9651 23.4441 22.8568 23.5523 22.8568 23.6714V24.1911C22.8568 24.2994 22.9326 24.3859 23.0409 24.4076C25.3579 24.9273 23.2899 28.6519 24.9356 30.1786C25.4662 30.6767 26.2349 31.0448 27.4043 31.0989V32.4198C27.4043 32.5606 27.3176 32.6905 27.1877 32.7447L26.3649 33.0803C26.2783 33.1128 26.2241 33.1994 26.2241 33.2861V33.4701C26.2241 33.6 26.3215 33.6975 26.4515 33.6975H29.5481C29.678 33.6975 29.7755 33.6001 29.7755 33.4701V33.2861C29.7755 33.1994 29.7214 33.1128 29.6348 33.0803L28.8119 32.7447C28.682 32.6905 28.5954 32.5606 28.5954 32.4198L28.5953 31.1098C29.7647 31.0556 30.5334 30.6875 31.0639 30.1894C32.7097 28.6628 30.6417 24.9382 32.9587 24.4185C33.0561 24.3968 33.1428 24.3102 33.1428 24.2019V23.6823C33.1428 23.5524 33.0345 23.4441 32.9046 23.4548L32.9047 23.455Z" fill="#4673EC"/>
<path id="Vector_15" d="M22.2197 35.1887V21.8112C22.2197 21.2203 22.5064 20.7368 22.8568 20.7368H20.874C20.5236 20.7368 20.2369 21.2203 20.2369 21.8112V35.1887C20.2369 35.7796 20.5236 36.2631 20.874 36.2631H22.8568C22.5064 36.263 22.2197 35.7796 22.2197 35.1887Z" fill="#B5DCFF"/>
</g>
</g>
</svg>
