<svg xmlns="http://www.w3.org/2000/svg" width="208" height="208" fill="none">
  <path fill="#F9FCFE" d="M97.87 14.507c54.262-4.835 54.371 25.788 78.824 54.319s29.7 41.471 20.51 74.347c-9.189 32.877-40.307 58.669-78.741 44.062s-60.45-.578-84.692-13.566C9.528 160.682.514 135.638 18.27 106.1c17.76-29.537 12.691-85.633 79.6-91.593"/>
  <path fill="#ECF6FC" d="M97.87 14.507c54.262-4.835 54.371 25.788 78.824 54.319s29.7 41.471 20.51 74.347c-9.189 32.877-40.307 58.669-78.741 44.062s-60.45-.578-84.692-13.566C9.528 160.682.514 135.638 18.27 106.1c17.76-29.537 12.691-85.633 79.6-91.593" opacity=".7"/>
  <path fill="#263238" d="M81.241 174.623a7.92 7.92 0 0 0-8.652-5.883 7.92 7.92 0 0 0-6.93 7.839 8 8 0 0 0 .266 1.983 7.93 7.93 0 0 0 9.636 5.702 7.9 7.9 0 0 0 3.435-1.882 3 3 0 0 1-.214-.381 7.47 7.47 0 0 1-8.809 1.142l-.184-.1a7.474 7.474 0 1 1 11.198-5.321q.218-.04.438-.049a7.9 7.9 0 0 0-.184-3.05"/>
  <path fill="#263238" d="M78.777 182.014a10.2 10.2 0 0 1-2.686 1.843 4 4 0 0 1-.587.205 4 4 0 0 1-.617.105c-2.188.228-5.115-.875-5.115-.875l.192-.144a10 10 0 0 1 1.75-1.099c.438-.118 1.222-.665.876-1.846a7.22 7.22 0 0 1-2.512-4.105c-.271-1.199-.875-3.523 1.562-4.49a6 6 0 0 1 .595-.188c.21-.052.416-.092.609-.122 2.625-.333 3.19 2 3.531 3.177a7.23 7.23 0 0 1-.228 4.813c.272 1.199 1.208 1.313 1.659 1.195q.33-.05.66-.022a3.07 3.07 0 0 0 .28 1.545z"/>
  <path fill="#263238" d="M81.521 183.97a3.257 3.257 0 0 1-3.241-3.593 3.261 3.261 0 0 1 5.494-2.025c.44.421.755.958.906 1.549a3.267 3.267 0 0 1-3.159 4.069m0-6.082a2.776 2.776 0 0 0-2.723 3.314 2.777 2.777 0 0 0 3.087 2.22 2.776 2.776 0 0 0 2.413-2.938 2.78 2.78 0 0 0-2.777-2.596"/>
  <path fill="#263238" d="m81.333 180.579-.53-1.251.714-.184.127 1.356 1.028-.897.394.617-1.238.556 1.164.687-.464.569-.91-1.015-.311 1.313-.674-.272.687-1.164-1.356.11.048-.731zm-5.317-9.106c-2.245-2.46-3.908-.635-3.908-.635s-2.332-.801-3.12 2.438c-.787 3.238 1.506 5.78-.437 6.852 0 0 2.468 1.051 5.977.149s5.168-3.006 5.168-3.006c-2.214-.022-1.43-3.343-3.68-5.798M200.591 99.61a5.43 5.43 0 0 0-3.436-6.28 5.43 5.43 0 0 0-6.677 2.583 5.426 5.426 0 0 0 6.288 7.715 3 3 0 0 1 0-.298 5.15 5.15 0 0 1-2.625.083 5.06 5.06 0 0 1-3.12-2.153 1 1 0 0 1-.083-.122 5.1 5.1 0 0 1-.714-1.864 5.3 5.3 0 0 1 .057-2.004 5.13 5.13 0 0 1 7.343-3.414 5.14 5.14 0 0 1 2.633 3.366 5.13 5.13 0 0 1-.83 4.192q.15.043.293.109a5.4 5.4 0 0 0 .871-1.912Z"/>
  <path fill="#263238" d="M196.766 103.33a7 7 0 0 1-2.214.28 3 3 0 0 1-.437-.061 3 3 0 0 1-.407-.127c-1.401-.547-2.845-2.144-2.845-2.144l.167-.026c.468-.09.945-.128 1.422-.114a.947.947 0 0 0 1.116-.853 4.95 4.95 0 0 1-.245-3.29c.214-.815.564-2.425 2.363-2.246q.22.025.437.07.22.053.407.118c1.698.617 1.313 2.223 1.155 3.064a4.97 4.97 0 0 1-1.645 2.861.933.933 0 0 0 .635 1.248q.214.072.407.192-.183.3-.263.643a2 2 0 0 0-.048.39s-.005-.009-.005-.005"/>
  <path fill="#263238" d="M197.825 105.383a2.26 2.26 0 0 1-.875-.797 2.24 2.24 0 0 1 .52-2.961 2.235 2.235 0 0 1 2.997.233 2.23 2.23 0 0 1 .553 2.037 2.22 2.22 0 0 1-.988 1.396 2.23 2.23 0 0 1-2.207.092m1.917-3.702a2 2 0 0 0-.459-.171 1.94 1.94 0 0 0-2.261 1.275 1.94 1.94 0 0 0 .305 1.795 1.93 1.93 0 0 0 1.662.746 1.93 1.93 0 0 0 1.771-2.253 1.9 1.9 0 0 0-.27-.705 1.9 1.9 0 0 0-.748-.687"/>
  <path fill="#263238" d="m198.775 103.256.066-.932.49.109-.35.876.91-.224.048.499-.932-.052.495.787-.46.197-.236-.906-.608.714-.324-.377.783-.494-.875-.359.263-.438zm-.38-7.22c-.596-2.188-2.188-1.615-2.188-1.615s-1.169-1.217-2.665.507c-1.497 1.725-.897 3.996-2.42 4.044a7.53 7.53 0 0 0 7.693 1.75c-1.344-.696.179-2.48-.42-4.686m-57.146-70.935a7.92 7.92 0 0 0-3.186-7.738 7.91 7.91 0 0 0-11.474 2.48 7.91 7.91 0 0 0 .294 8.363 7.9 7.9 0 0 0 3.329 2.803 8 8 0 0 0 1.913.577 7.9 7.9 0 0 0 3.903-.319 4 4 0 0 1-.044-.438 7.47 7.47 0 0 1-8.511-2.542 3 3 0 0 1-.127-.166 7.5 7.5 0 0 1-1.199-2.66 7.6 7.6 0 0 1-.079-2.92 7.5 7.5 0 0 1 3.044-4.85 7.48 7.48 0 0 1 5.581-1.276 7.3 7.3 0 0 1 1.803.543 7.48 7.48 0 0 1 4.354 7.86 7.5 7.5 0 0 1-1.102 2.992q.224.055.437.14a7.9 7.9 0 0 0 1.064-2.849"/>
  <path fill="#263238" d="M135.984 30.83a10.2 10.2 0 0 1-3.203.59 4 4 0 0 1-1.225-.205c-2.083-.679-4.315-2.889-4.315-2.889l.236-.052a10 10 0 0 1 2.062-.285c.459.08 1.387-.109 1.553-1.312a7.2 7.2 0 0 1-.621-4.774c.24-1.204.621-3.58 3.251-3.466a5.6 5.6 0 0 1 1.225.205c2.521.758 2.101 3.125 1.934 4.337a7.23 7.23 0 0 1-2.188 4.302c-.24 1.207.569 1.689 1.029 1.75q.321.088.612.25a3 3 0 0 0-.332.958 3 3 0 0 0-.04.564s.027.022.022.026Z"/>
  <path fill="#263238" d="M137.691 33.718a3.26 3.26 0 0 1-1.633-4.329 3.257 3.257 0 0 1 5.941.018 3.264 3.264 0 0 1-1.089 3.99 3.27 3.27 0 0 1-3.219.32Zm2.485-5.553a2.81 2.81 0 0 0-3.881 1.928 2.809 2.809 0 1 0 3.881-1.928"/>
  <path fill="#263238" d="M138.903 30.558v-1.365l.722.122-.437 1.313 1.313-.402.109.726h-1.361l.783 1.103-.652.328-.437-1.313-.823 1.085-.507-.525 1.102-.783-1.282-.438.341-.643z"/>
  <path stroke="#263238" stroke-linecap="round" stroke-linejoin="round" stroke-width=".438" d="m80.473 15.676-12.356 2.048a.83.83 0 0 0-.684.956l1.24 7.486a.833.833 0 0 0 .957.684l12.355-2.048a.83.83 0 0 0 .684-.956l-1.24-7.486a.83.83 0 0 0-.956-.684"/>
  <path stroke="#263238" stroke-linecap="round" stroke-linejoin="round" stroke-width=".438" d="m67.474 18.957 6.765 2.945a1.68 1.68 0 0 0 1.803-.301l5.427-4.95M69.815 24.94l2.976-2.386m8.393.504-3.588-1.313"/>
  <path stroke="#263238" stroke-linecap="round" stroke-linejoin="round" stroke-width=".435" d="m133.057 171.265-10.77-6.262a.827.827 0 0 0-1.131.299l-3.794 6.526a.827.827 0 0 0 .299 1.131l10.771 6.262a.83.83 0 0 0 1.131-.3l3.794-6.525a.83.83 0 0 0-.3-1.131"/>
  <path stroke="#263238" stroke-linecap="round" stroke-linejoin="round" stroke-width=".438" d="m120.984 166.686 3.321 6.563a1.68 1.68 0 0 0 1.571.937l7.36-.359m-14.265-1.037 3.815.057m6.153 5.741-1.934-3.291m-109.25-57.623-11.023 5.945a.83.83 0 0 0-.337 1.127l3.602 6.678a.83.83 0 0 0 1.126.337l11.023-5.945a.83.83 0 0 0 .337-1.126l-3.602-6.679a.83.83 0 0 0-1.126-.337"/>
  <path stroke="#263238" stroke-linecap="round" stroke-linejoin="round" stroke-width=".438" d="m6.513 124.991 7.339.622a1.69 1.69 0 0 0 1.606-.876l3.535-6.463m-8.323 11.623 2.04-3.225m8.104-2.245-3.816-.066"/>
  <path fill="#263238" stroke="#263238" stroke-linecap="round" stroke-linejoin="round" stroke-width=".438" d="M27.22 39.787v123.424a1.255 1.255 0 0 0 1.251 1.256h75.048a1.257 1.257 0 0 0 1.256-1.256V39.809a2.87 2.87 0 0 0-2.862-2.862H84.037a1.61 1.61 0 0 0-1.54 1.15c-.097.334-.3.625-.578.832a1.62 1.62 0 0 1-.962.32h-29.91a1.61 1.61 0 0 1-1.54-1.151 1.62 1.62 0 0 0-1.545-1.15h-17.88a2.87 2.87 0 0 0-2.862 2.839"/>
  <path fill="#1E42A2" stroke="#263238" stroke-linecap="round" stroke-linejoin="round" stroke-width=".438" d="M27.22 62.358h77.555V46.911H27.22z"/>
  <path fill="#fff" stroke="#263238" stroke-linecap="round" stroke-linejoin="round" stroke-width=".438" d="M27.22 148.543h77.555V62.358H27.22zm38.591 9.544h2.42c.798 0 1.444-.647 1.444-1.444v-2.42c0-.798-.646-1.444-1.444-1.444h-2.42c-.797 0-1.444.646-1.444 1.444v2.42c0 .797.647 1.444 1.444 1.444"/>
  <path stroke="#263238" stroke-linecap="round" stroke-linejoin="round" stroke-width=".438" d="M35.46 52.438h-3.808m3.808 2.092h-3.808m3.808 2.091h-3.808"/>
  <path fill="#263238" d="M59.064 71.123h-12.83a.875.875 0 1 1 0-1.75h12.812a.875.875 0 0 1 .018 1.75m31.275 2.149h-44.49a.46.46 0 0 1-.43-.64.46.46 0 0 1 .43-.284h44.49a.44.44 0 0 1 .459.46.457.457 0 0 1-.46.464Z"/>
  <path fill="#fff" stroke="#263238" stroke-linecap="round" stroke-linejoin="round" stroke-width=".438" d="M41.103 74.981a4.761 4.761 0 1 0-6.447-7.006 4.761 4.761 0 0 0 6.447 7.006"/>
  <path fill="#263238" d="M38.265 76.2c1.339-.198 2.932-1.313 2.932-1.313a7.6 7.6 0 0 0-1.37-.438.845.845 0 0 1-.81-.971 4.46 4.46 0 0 0 .876-2.845c-.022-.761 0-2.245-1.628-2.45h-.77c-1.615.205-1.602 1.689-1.628 2.45a4.46 4.46 0 0 0 .875 2.845.845.845 0 0 1-.81.971 7.6 7.6 0 0 0-1.365.438s1.589 1.115 2.928 1.312q.191.034.385.035.194 0 .385-.035Z"/>
  <path fill="#1E42A2" stroke="#263238" stroke-linecap="round" stroke-linejoin="round" stroke-width=".438" d="M42.007 77.035a1.882 1.882 0 1 0 0-3.763 1.882 1.882 0 0 0 0 3.763"/>
  <path fill="#263238" d="m41.91 75.044-.131-.836h.437l-.131.836.753-.38.14.437-.827.144.59.591-.363.267-.39-.748-.389.748-.363-.267.59-.59-.83-.145.144-.438zm-1.803-6.275c-.967-1.816-2.245-.98-2.245-.98s-1.256-.814-2.227.98c-.972 1.794 0 3.698-1.313 4.039a6.77 6.77 0 0 0 7.115 0c-1.33-.341-.346-2.223-1.33-4.039"/>
  <path fill="#fff" d="M38.733 45.235h.866v-1.768h-.866zm-1.593-.005h.867v-2.485h-.867zm-1.589.005h.867v-3.199h-.867v3.2Zm-1.592-.005h.866v-3.91h-.866v3.912Zm60.406-.358h4.664a.52.52 0 0 0 .521-.52v-2.158a.52.52 0 0 0-.52-.521h-4.665a.52.52 0 0 0-.521.52v2.158c0 .288.233.52.52.52Zm-1.186-.67h-.438a.437.437 0 0 1-.438-.437v-.998a.437.437 0 0 1 .438-.438h.438z"/>
  <path stroke="#263238" stroke-linecap="round" stroke-linejoin="round" stroke-width=".438" d="M99.48 52.447a1.925 1.925 0 0 1 .416 2.093 1.92 1.92 0 1 1-.416-2.093m0 2.717 2.017 2.017"/>
  <path fill="#263238" stroke="#1E42A2" stroke-linecap="round" stroke-linejoin="round" stroke-width=".438" d="M71.132 51.06H62.15a.83.83 0 0 0-.832.83v5.283c0 .459.372.831.832.831h8.983c.46 0 .832-.372.832-.831V51.89a.83.83 0 0 0-.832-.831Z"/>
  <path fill="#263238" d="m61.317 51.89 4.639 3.016a1.27 1.27 0 0 0 1.37 0l4.638-3.015"/>
  <path stroke="#1E42A2" stroke-linecap="round" stroke-linejoin="round" stroke-width=".438" d="m61.317 51.89 4.639 3.016a1.27 1.27 0 0 0 1.37 0l4.638-3.015"/>
  <path fill="#263238" d="m62.315 56.612 2.499-1.404z"/>
  <path stroke="#1E42A2" stroke-linecap="round" stroke-linejoin="round" stroke-width=".438" d="m62.315 56.612 2.499-1.404"/>
  <path fill="#263238" d="m70.966 56.612-2.494-1.404z"/>
  <path stroke="#1E42A2" stroke-linecap="round" stroke-linejoin="round" stroke-width=".438" d="m70.966 56.612-2.494-1.404"/>
  <path fill="#263238" d="M54.688 86.378h-8.455a.875.875 0 1 1 0-1.75h8.437a.875.875 0 0 1 .018 1.75m18.147 2.152H45.848a.464.464 0 0 1-.464-.463.46.46 0 0 1 .464-.438h26.987a.436.436 0 0 1 .46.438.464.464 0 0 1-.46.464Z"/>
  <path fill="#fff" stroke="#263238" stroke-linecap="round" stroke-linejoin="round" stroke-width=".438" d="M41.2 90.14a4.761 4.761 0 1 0-6.639-6.825 4.761 4.761 0 0 0 6.64 6.825Z"/>
  <path fill="#263238" d="M38.265 91.48c1.339-.197 2.932-1.313 2.932-1.313a7.6 7.6 0 0 0-1.37-.437.845.845 0 0 1-.81-.972c.608-.82.917-1.824.876-2.844-.022-.762 0-2.25-1.628-2.45a4 4 0 0 0-.385 0 4 4 0 0 0-.385 0c-1.615.2-1.602 1.688-1.628 2.45a4.48 4.48 0 0 0 .875 2.844.845.845 0 0 1-.81.972 7.6 7.6 0 0 0-1.365.437s1.602 1.094 2.915 1.313q.191.033.385.035.194-.001.385-.035z"/>
  <path fill="#1E42A2" stroke="#263238" stroke-linecap="round" stroke-linejoin="round" stroke-width=".438" d="M42.007 92.29a1.882 1.882 0 1 0 0-3.764 1.882 1.882 0 0 0 0 3.764"/>
  <path fill="#263238" d="m41.91 90.303-.131-.836h.437l-.131.836.753-.38.14.437-.827.14.59.595-.363.267-.39-.748-.389.748-.363-.267.59-.595-.83-.14.144-.438zm21.53 11.334H46.233a.87.87 0 0 1-.875-.875.874.874 0 0 1 .875-.876h17.19a.875.875 0 0 1 .017 1.751m18.147 2.153H45.848a.464.464 0 0 1-.328-.791.47.47 0 0 1 .328-.133h35.739a.44.44 0 0 1 .46.46.464.464 0 0 1-.46.464"/>
  <path fill="#fff" stroke="#263238" stroke-linecap="round" stroke-linejoin="round" stroke-width=".438" d="M39.02 106.611a4.76 4.76 0 1 0-2.267-9.248 4.76 4.76 0 0 0 2.268 9.248Z"/>
  <path fill="#263238" d="M38.265 106.717c1.339-.197 2.932-1.313 2.932-1.313a7.7 7.7 0 0 0-1.37-.437.86.86 0 0 1-.623-.304.85.85 0 0 1-.186-.668 4.48 4.48 0 0 0 .875-2.844c-.022-.761 0-2.25-1.628-2.45a4 4 0 0 0-.385 0 4 4 0 0 0-.385 0c-1.615.2-1.602 1.689-1.628 2.45a4.47 4.47 0 0 0 .875 2.844.845.845 0 0 1-.81.972 7.6 7.6 0 0 0-1.365.437s1.589 1.116 2.928 1.313q.191.033.385.035.194-.002.385-.035"/>
  <path fill="#263238" d="M37.88 98.399c-1.711 0-2.91 1.186-3.133 5.461a9.84 9.84 0 0 0 6.266 0c-.223-4.275-1.422-5.461-3.133-5.461m21.184 18.497h-12.83a.876.876 0 0 1 0-1.751h12.812a.87.87 0 0 1 .875.875.873.873 0 0 1-.857.876m31.274 2.153h-44.49a.47.47 0 0 1-.328-.133.464.464 0 0 1 .328-.791h44.49a.467.467 0 0 1 .46.464.44.44 0 0 1-.46.46"/>
  <path fill="#fff" stroke="#263238" stroke-linecap="round" stroke-linejoin="round" stroke-width=".438" d="M41.205 120.653a4.76 4.76 0 1 0-6.638-6.825 4.76 4.76 0 0 0 6.638 6.825"/>
  <path fill="#263238" d="M38.265 121.976c1.339-.197 2.932-1.312 2.932-1.312a7.6 7.6 0 0 0-1.37-.438.86.86 0 0 1-.623-.304.83.83 0 0 1-.186-.667 4.48 4.48 0 0 0 .875-2.849c-.022-.757 0-2.245-1.628-2.446a3.3 3.3 0 0 0-.77 0c-1.615.201-1.602 1.689-1.628 2.446a4.48 4.48 0 0 0 .875 2.849.84.84 0 0 1-.465.886.9.9 0 0 1-.344.085 7.5 7.5 0 0 0-1.366.438s1.589 1.115 2.928 1.312q.191.03.385.035.194-.004.385-.035"/>
  <path fill="#1E42A2" stroke="#263238" stroke-linecap="round" stroke-linejoin="round" stroke-width=".438" d="M42.007 122.808a1.882 1.882 0 1 0-.001-3.764 1.882 1.882 0 0 0 0 3.764Z"/>
  <path fill="#263238" d="m41.91 120.799-.131-.831h.437l-.131.831.753-.376.14.437-.827.14.59.591-.363.271-.39-.748-.389.748-.363-.271.59-.591-.83-.14.144-.437zm8.402 11.378h-4.079a.876.876 0 0 1 0-1.751h4.061a.87.87 0 0 1 .875.875.873.873 0 0 1-.857.876m35.651 2.126H45.848a.45.45 0 0 1-.328-.133.46.46 0 0 1 0-.654.46.46 0 0 1 .328-.136h40.115a.463.463 0 0 1 .46.464.436.436 0 0 1-.46.459"/>
  <path fill="#fff" stroke="#263238" stroke-linecap="round" stroke-linejoin="round" stroke-width=".438" d="M41.207 135.914a4.762 4.762 0 1 0-6.641-6.826 4.762 4.762 0 0 0 6.64 6.826Z"/>
  <path fill="#263238" d="M38.265 137.235c1.339-.201 2.932-1.313 2.932-1.313a7.7 7.7 0 0 0-1.37-.437.85.85 0 0 1-.621-.305.85.85 0 0 1-.188-.667 4.48 4.48 0 0 0 .875-2.848c-.022-.757 0-2.245-1.628-2.446a3.3 3.3 0 0 0-.77 0c-1.615.201-1.602 1.689-1.628 2.446a4.48 4.48 0 0 0 .875 2.848.85.85 0 0 1-.81.972 7.6 7.6 0 0 0-1.365.437s1.589 1.112 2.928 1.313q.191.028.385.031a3 3 0 0 0 .385-.031m20.799 10.179h-12.83a.87.87 0 0 1-.876-.875.874.874 0 0 1 .875-.876h12.813a.876.876 0 0 1 .018 1.751"/>
  <path fill="#fff" stroke="#263238" stroke-linecap="round" stroke-linejoin="round" stroke-width=".438" d="M42.64 147.763q0 .393-.065.779h-9.39a4.761 4.761 0 1 1 9.456-.779Z"/>
  <path fill="#263238" d="M39.893 146.919a4.5 4.5 0 0 1-.241 1.624h-3.544a4.5 4.5 0 0 1-.241-1.624c.026-.757 0-2.245 1.628-2.446a3.4 3.4 0 0 1 .77 0c1.619.201 1.606 1.707 1.628 2.446"/>
  <path fill="#1E42A2" stroke="#263238" stroke-linecap="round" stroke-linejoin="round" stroke-width=".438" d="M91.984 146.214a6.288 6.288 0 1 0 0-12.576 6.288 6.288 0 0 0 0 12.576"/>
  <path fill="#263238" d="m94.732 138.027-.845-.845-3.8 3.8.845.845zm-5.028 3.335-.464 1.308 1.309-.464z"/>
  <path stroke="#263238" stroke-linecap="round" stroke-linejoin="round" stroke-width=".438" d="M116.284 48.242h21.788a2.843 2.843 0 0 1 2.844 2.844v12.979a2.83 2.83 0 0 1-.831 2.014 2.85 2.85 0 0 1-2.013.835h-2.718l2.512 4.76-5.802-4.76h-15.78a2.85 2.85 0 0 1-2.629-1.76 2.9 2.9 0 0 1-.216-1.09V51.087a2.843 2.843 0 0 1 2.845-2.844v0Z"/>
  <path d="M117.453 53.488h19.456c.198 0 .358-.16.358-.358v-.158a.36.36 0 0 0-.358-.359h-19.456a.36.36 0 0 0-.359.359v.157a.36.36 0 0 0 .359.36Zm0 2.95h19.456a.36.36 0 0 0 .358-.36v-.157a.36.36 0 0 0-.358-.358h-19.456a.36.36 0 0 0-.359.358v.158a.36.36 0 0 0 .359.359m0 2.949h19.456c.198 0 .358-.16.358-.359v-.157a.36.36 0 0 0-.358-.359h-19.456a.36.36 0 0 0-.359.359v.157c0 .199.161.36.359.36Zm9.189 2.954h10.262a.36.36 0 0 0 .359-.359v-.157a.36.36 0 0 0-.359-.36h-10.262a.36.36 0 0 0-.359.36v.157a.36.36 0 0 0 .359.36Z" fill="#263238" opacity=".5"/>
  <path fill="#fff" stroke="#263238" stroke-linecap="round" stroke-linejoin="round" stroke-width=".438" d="M143.476 132.741v.026c-.21.438-3.238 6.91-6.927 13.128a84 84 0 0 1-2.997 4.726c-2.219 3.23-4.468 5.842-6.337 6.656-6.126 2.665-2.625-18.217-2.625-18.217a45.5 45.5 0 0 0 5.728-8.664c.731-1.444 1.579-3.12 2.468-4.814a121 121 0 0 1 2.07-3.776c1.553-2.714 3.002-4.901 3.881-5.33.963-.473 2.293 4.406 3.3 8.944a215 215 0 0 1 1.439 7.321"/>
  <path fill="#263238" d="M143.476 132.741v.026c-.21.438-3.238 6.91-6.927 13.128 1.112-9.937.07-16.585.07-16.585-2.367-3.579-3.851-3.715-3.851-3.715a123 123 0 0 1 2.07-3.776l3.133-2.928 4.048 6.542a189 189 0 0 1 1.457 7.308m28.234-66.829c5.531 4.003 10.371 18.147 8.524 27.336-1.846 9.19 7.654 11.815 7.619 26.321 0 4.044-12.524 20.48-27.065 11.711s-18.581-13.085-17.198-21.88c1.383-8.796 1.444-14.58-1.181-21.963-2.626-7.382 19.267-28.776 29.301-21.525"/>
  <path fill="#1E42A2" d="m192.986 127.941-3.09 2.096a65 65 0 0 1-4.179 14.769c-3.89 9.132-7.334 14.576-8.537 16.374-.298.438-.46.657-.46.657l3.23 12.108s-21.552 22.409-45.322 19.176l1.588-12.691 2.14-17.066.696-5.544s-.293-3.978-.761-8.875c-.32-3.374-.723-7.185-1.178-10.432a3 3 0 0 1-.022-.438c.036-2.048 1.641-6.354 1.641-6.354a265 265 0 0 0-3.671-5.688c-1.383-2.096-2.297-3.444-2.297-3.444s4.813-5.916 5.085-6.59c1.522-3.987 6.844-3.243 6.844-3.243a3 3 0 0 1 1.435-.77c2.529-.635 9.719 4.406 13.644 4.446 3.925.039 23.193-5.151 23.193-5.151l1.96.705s2.656-.315 4.73 3.527c.985 1.86 3.331 12.428 3.331 12.428"/>
  <path fill="#000" fill-opacity=".7" d="M158.39 177.844s-13.391 4.521-22.195 2.591l2.14-17.066c1.907 1.894 12.97 12.567 20.055 14.475m-19.679-46.105a271 271 0 0 0-3.671-5.689c.91-2.188 2.262-4.214 4.135-4.096 0 0-1.309 5.812-.464 9.785m43.427-3.798c-2.403.796-7.846 3.207-7.846 3.207l-1.007-1.168 3.873-5.549s-2.726 1.103-3.873 2.49c-1.146 1.387-1.448 4.481-1.492 4.468s-1.002-3.256-1.002-3.256a25 25 0 0 0-.639 4.109c-.127 1.466 1.483 3.851 2.879 5.623l-2.433 12.949-9.277-5.641-4.376-2.652a10 10 0 0 1-1.107-.674c-.507-.411-.84-.945-1.431-1.312a7.6 7.6 0 0 0-2.161-.81 19.2 19.2 0 0 0-8.429-.066c-1.172.254-2.376.617-3.54.342-1.164-.276-2.161-1.208-3.185-1.908q-.007.22.022.437c.437 3.247.875 7.059 1.177 10.433h.499q.486-.027.962.078c.67.184 2 3.449 2.46 3.965 3.356 3.746 8.97 10.065 13.049 13.019-.814-2.188-5.072-9.846-4.993-12.253.914.306 1.628 1.011 2.363 1.636 2.214 1.9 4.857 3.221 7.465 4.525l5.746 2.875c1.75.875 4.056 2.245 6.069 1.707 1.65-.438 3.728-2.096 5.046-3.142l.218-.175c1.204-1.799 4.648-7.242 8.538-16.375a65 65 0 0 0 4.179-14.769l3.089-2.096s-8.441-.814-10.843-.017" opacity=".3"/>
  <path stroke="#263238" stroke-linecap="round" stroke-linejoin="round" stroke-width=".438" d="m134.628 193.12 4.424-35.279s-.832-11.342-1.939-19.306c-.249-1.786 1.619-6.796 1.619-6.796-3.181-5.032-5.968-9.133-5.968-9.133s4.813-5.916 5.085-6.59c1.522-3.986 6.844-3.242 6.844-3.242a3 3 0 0 1 1.435-.771c2.529-.634 9.719 4.407 13.644 4.446 3.925.04 23.193-5.15 23.193-5.15l1.96.704s2.656-.315 4.73 3.527c.998 1.843 3.348 12.411 3.348 12.411l-3.089 2.096a65 65 0 0 1-4.179 14.769c-4.849 11.377-9.002 17.039-9.002 17.039l3.23 12.109"/>
  <path stroke="#263238" stroke-linecap="round" stroke-linejoin="round" stroke-width=".438" d="M177.666 123.762s-5.484 7.102-5.348 8.415 2.674 2.664 2.674 2.664"/>
  <path stroke="#263238" stroke-linecap="round" stroke-linejoin="round" stroke-width=".438" d="M170.598 126.61c.265 1.845.418 3.704.46 5.567 0 2.433 6.607 6.472 6.607 6.472m-38.954-6.91s-.46-9.365.998-10.979"/>
  <path stroke="#263238" stroke-linecap="round" stroke-linejoin="round" stroke-width=".438" d="M137.092 124.221s.752 4.849 1.549 5.772m23.07-2.052s-9.466 6.091-18.235 6.901m0 19.735s10.616 12.809 17.543 14.542m15.697-7.273s-2.411-1.751-1.724-2.775m-4.394 13.189s-15.062 8.398-22.755 7.706"/>
  <path fill="#fff" d="M130.182 145.34c-1.965-7.221-5.181-9.575-7.303-17.307-.631-2.289-2.499-9.269-2.499-9.269s2.385-7.439-2.381-11.675c0 0-1.312 0-3.549 5.151a12.25 12.25 0 0 0-.695 7.115s1.483 9.072 1.807 11.509c.779 5.877 2.468 15.718 4.813 20.659 2.517 5.282 5.168 6.463 7.155 5.373"/>
  <path stroke="#263238" stroke-linecap="round" stroke-linejoin="round" stroke-width=".438" d="M130.182 145.34c-1.965-7.221-5.181-9.575-7.303-17.307-.631-2.289-2.499-9.269-2.499-9.269s2.385-7.439-2.381-11.675c0 0-1.312 0-3.549 5.151a12.25 12.25 0 0 0-.695 7.115s1.483 9.072 1.807 11.509c.779 5.877 2.468 15.718 4.813 20.659 2.517 5.282 5.168 6.463 7.155 5.373"/>
  <path fill="#1E42A2" d="m121.211 117.18 5.103 1.685c.538.14 1.597-.757 1.549-1.313l-1.527-17.757a1.7 1.7 0 0 0-1.265-1.497l-5.632-1.225c-.538-.136-1.89.507-1.842 1.059l2.345 17.552a1.695 1.695 0 0 0 1.269 1.496"/>
  <mask id="a" width="11" height="22" x="117" y="97" maskUnits="userSpaceOnUse" style="mask-type:luminance">
    <path fill="#fff" d="m121.211 117.18 5.103 1.685c.538.14 1.597-.757 1.549-1.313l-1.527-17.757a1.7 1.7 0 0 0-1.265-1.497l-5.632-1.225c-.538-.136-1.89.507-1.842 1.059l2.345 17.552a1.695 1.695 0 0 0 1.269 1.496"/>
  </mask>
  <g mask="url(#a)">
    <path fill="#000" fill-opacity=".7" d="m121.211 117.18 5.103 1.685c.538.14 1.597-.757 1.549-1.313l-1.527-17.757a1.7 1.7 0 0 0-1.265-1.497l-5.632-1.225c-.538-.136-1.89.507-1.842 1.059l2.345 17.552a1.695 1.695 0 0 0 1.269 1.496" opacity=".3"/>
  </g>
  <path stroke="#263238" stroke-linecap="round" stroke-linejoin="round" stroke-width=".438" d="m121.211 117.18 5.103 1.685c.538.14 1.597-.757 1.549-1.313l-1.527-17.757a1.7 1.7 0 0 0-1.265-1.497l-5.632-1.225c-.538-.136-1.89.507-1.842 1.059l2.345 17.552a1.695 1.695 0 0 0 1.269 1.496"/>
  <path fill="#1E42A2" stroke="#263238" stroke-linecap="round" stroke-linejoin="round" stroke-width=".438" d="m120.371 117.618 5.632 1.221a.81.81 0 0 0 .721-.162.8.8 0 0 0 .281-.683l-1.505-17.762a1.69 1.69 0 0 0-1.269-1.496l-5.628-1.226a.804.804 0 0 0-1.002.85l1.506 17.761a1.69 1.69 0 0 0 1.264 1.497"/>
  <path fill="#000" fill-opacity=".7" d="m123.496 103.518.906.197q.03.007.06.001a.13.13 0 0 0 .055-.028.1.1 0 0 0 .036-.048.14.14 0 0 0 .011-.06l-.241-2.867a.28.28 0 0 0-.206-.24l-.91-.197a.13.13 0 0 0-.061 0 .1.1 0 0 0-.054.027.14.14 0 0 0-.037.049.14.14 0 0 0-.01.06l.245 2.866a.27.27 0 0 0 .206.24" opacity=".3"/>
  <path fill="#fff" d="M115.575 112.419c-.219-2.49 2.048-6.227 3.558-6.227s6.095 3.536 6.095 3.536c1.777 1.286.897 2.512.897 2.512 1.046.691 1.313 1.628.854 2.061-.46.433-1.996 0-1.996 0s1.523 1.111 1.142 1.658c-.897 1.291-3.846-.411-3.846-.411s1.711 1.129 1.615 1.343c-.648 1.409-3.444-.232-3.444-.232l-1.965 1.007a1.68 1.68 0 0 1-1.799 1.689"/>
  <path stroke="#263238" stroke-linecap="round" stroke-linejoin="round" stroke-width=".438" d="M115.575 112.419c-.219-2.49 2.048-6.227 3.558-6.227s6.095 3.536 6.095 3.536c1.777 1.286.897 2.512.897 2.512 1.046.691 1.313 1.628.854 2.061-.46.433-1.996 0-1.996 0s1.523 1.111 1.142 1.658c-.897 1.291-3.846-.411-3.846-.411s1.711 1.129 1.615 1.343c-.648 1.409-3.444-.232-3.444-.232l-1.965 1.007a1.68 1.68 0 0 1-1.799 1.689"/>
  <path fill="#fff" d="M126.125 112.24s-4.297-2.775-4.839-2.849-2.534-.508-2.534-.508"/>
  <path stroke="#263238" stroke-linecap="round" stroke-linejoin="round" stroke-width=".438" d="M126.125 112.24s-4.297-2.775-4.839-2.849-2.534-.508-2.534-.508"/>
  <path fill="#fff" d="M125.001 114.301s-3.501-1.803-4.131-1.803a24 24 0 0 1-2.871-.494"/>
  <path stroke="#263238" stroke-linecap="round" stroke-linejoin="round" stroke-width=".438" d="M125.001 114.301s-3.501-1.803-4.131-1.803a24 24 0 0 1-2.871-.494"/>
  <path fill="#fff" d="M122.279 115.548a9 9 0 0 0-1.291-.762 18 18 0 0 0-2.503 0"/>
  <path stroke="#263238" stroke-linecap="round" stroke-linejoin="round" stroke-width=".438" d="M122.279 115.548a9 9 0 0 0-1.291-.762 18 18 0 0 0-2.503 0"/>
  <path fill="#fff" stroke="#263238" stroke-linecap="round" stroke-linejoin="round" stroke-width=".438" d="M166.039 143.497s2.713-1.527 5.137-7.224c2.424-5.698 3.116-5.125 3.116-5.125s5.308-2.603 7.846-3.207 7.154 0 7.154 0-3.938 11.425-7.959 18.856c-4.022 7.43-7.26 11.815-9.409 12.252-2.148.438-5.885-15.552-5.885-15.552m15.753-31.45s-19.315 10.288-24.899 10.231-9.063-9.627-9.063-9.627 10.328-.232 9.129-5.168c0-.083-.04-.175-.066-.262-.494-1.725-2.389-4.744-3.094-5.829a23 23 0 0 0-.267-.407l15.286-11.413c-.876 11.54.813 16.598 1.851 18.497 1.781 3.252 11.123 3.978 11.123 3.978"/>
  <path fill="#263238" d="M164.481 96.04s-3.186 9.006-7.536 11.443c0-.083-.039-.175-.065-.263-.495-1.724-2.389-4.743-3.094-5.828z"/>
  <path stroke="#263238" stroke-linecap="round" stroke-linejoin="round" stroke-width=".438" d="M157.86 119.535s1.081-2.088 2.696-2.333c1.614-.245 6.06-.289 14.283-1.654m-19.46 3.987s-.692-1.624-.876-2.333c-.183-.709-4.481-1.601-5.907-2.774"/>
  <path fill="#263238" d="M143.691 70.576c-2.832 3.085-3.676 13.154-2.263 17.504 0 0 7.094 1.015 8.752-.263 1.659-1.277-6.489-17.24-6.489-17.24Z"/>
  <path fill="#fff" d="M170.366 90.911c.683-3.015 4.302-17.63-4.218-24.098s-18.913 2.157-20.37 4.192c-5.877 8.21-3.273 14.734-2.188 18.668s.551 8.7 6.047 15.25c2.311 2.753 6.468 1.287 10.564-1.562 2.455-1.707 5.912-4.709 5.999-7.601"/>
  <path stroke="#263238" stroke-linecap="round" stroke-linejoin="round" stroke-width=".438" d="M170.366 90.911c.683-3.015 4.302-17.63-4.218-24.098s-18.913 2.157-20.37 4.192c-5.877 8.21-3.273 14.734-2.188 18.668s.551 8.7 6.047 15.25c2.311 2.753 6.468 1.287 10.564-1.562 2.455-1.707 5.912-4.709 5.999-7.601"/>
  <path stroke="#263238" stroke-linecap="round" stroke-linejoin="round" stroke-width=".438" d="M150.889 84.505s4.617-.823 7.229.814"/>
  <path fill="#263238" d="M155.773 88.968c.113.71-.136 1.34-.561 1.41-.424.07-.875-.438-.98-1.156s.136-1.339.56-1.409.862.446.981 1.155m-9.225 0c.114.71-.135 1.34-.56 1.41-.424.07-.875-.438-.98-1.156s.136-1.339.56-1.409.875.446.98 1.155"/>
  <path stroke="#263238" stroke-linecap="round" stroke-linejoin="round" stroke-width=".438" d="M145.778 84.549s-2.547-.91-3.369.258m4.975 3.811c.262.998-1.751 5.496-1.606 5.886s1.133 1.08 2.905 1.256m.876 3.094s3.693 0 5.82-1.501"/>
  <path fill="#263238" d="M144.745 68.406s-3.894 3.619-1.382 10.734a12.5 12.5 0 0 0 2.415 3.938c2.604-1.466 3.903.823 5.461.075 1.558-.749 4.039.84 5.654.525a5.31 5.31 0 0 1 4.56 1.107c1.212 1.085 1.212 3.461 3.028 4.608 0 0 1.059-3.715 3.291-3.177 2.231.538.258 7.002.258 7.002a22.7 22.7 0 0 0 5.019-11.943c.875-7.439-2.065-13.937-7.001-15.315 0 0-1.646-3.203-7.273-2.687-5.628.516-10.73.201-14.03 5.133"/>
  <path fill="#fff" d="M166.039 87.192s2.078-5.094 5.106-2.98c3.028 2.113-.604 8.603-2.078 10.248-1.475 1.646-1.904-.17-2.074-.691"/>
  <path stroke="#263238" stroke-linecap="round" stroke-linejoin="round" stroke-width=".438" d="M166.039 87.192s2.078-5.094 5.106-2.98c3.028 2.113-.604 8.603-2.078 10.248-1.475 1.646-1.904-.17-2.074-.691"/>
  <path d="M146.111 72.108a8.26 8.26 0 0 1 1.115-3.615m2.333 12.38c-1.873-2.092-3.3-4.906-3.453-7.732m7.426 4.214a11.6 11.6 0 0 0 4.328 4.122m-5.391-12.984c-1.436 2.306-.609 5.615.512 7.877m14.073 5.238a18 18 0 0 0 3.4 1.343m-13.561-11.425a25.73 25.73 0 0 0 9.242 9.579" stroke="#fff" stroke-linecap="round" stroke-linejoin="round" stroke-width=".438" opacity=".2"/>
  <path fill="#fff" d="M135.122 109.483s-1.313 0-1.431.958c-.118.959 1.838 2.21 1.838 2.21"/>
  <path stroke="#263238" stroke-linecap="round" stroke-linejoin="round" stroke-width=".438" d="M135.122 109.483s-1.313 0-1.431.958c-.118.959 1.838 2.21 1.838 2.21"/>
  <path fill="#fff" d="M171.999 144.294c-2.958-4.512-7.133-7.334-10.866-12.341a136 136 0 0 1-8.537-12.952l-3.96-7.44s-4.849-5.846-6.809-6.563c-1.961-.718-12.691-1.059-12.691-1.059s-.437 1.164 1.221 1.75 6.739 1.063 6.739 1.063-1.496.644-1.842 1.173c-.346.53 0 4.879.691 5.763.692.884 3.348 1.689 3.348 1.689s.35 3.063 2.945 4.582 3.864 1.536 3.864 1.536 2.442 4.148 3.461 7.111c2.188 6.314 7.706 20.672 11.693 25.849 4.717 6.126 10.83 6.362 13.04 2.463"/>
  <path stroke="#263238" stroke-linecap="round" stroke-linejoin="round" stroke-width=".438" d="M171.999 144.294c-2.958-4.512-7.133-7.334-10.866-12.341a136 136 0 0 1-8.537-12.952l-3.96-7.44s-4.849-5.846-6.809-6.563c-1.961-.718-12.691-1.059-12.691-1.059s-.437 1.164 1.221 1.75 6.739 1.063 6.739 1.063-1.496.644-1.842 1.173c-.346.53 0 4.879.691 5.763.692.884 3.348 1.689 3.348 1.689s.35 3.063 2.945 4.582 3.864 1.536 3.864 1.536 2.442 4.148 3.461 7.111c2.188 6.314 7.706 20.672 11.693 25.849 4.717 6.126 10.83 6.362 13.04 2.463"/>
  <path stroke="#263238" stroke-linecap="round" stroke-linejoin="round" stroke-width=".438" d="M141.63 109.063s-3.764.437-4.241.779c-.477.341-.249 3.032 0 3.973a1.7 1.7 0 0 0 .823 1.182"/>
  <path stroke="#263238" stroke-linecap="round" stroke-linejoin="round" stroke-width=".438" d="M140.076 106.84s-3.702.923-3.938 1.4a9.3 9.3 0 0 0-.171 3.991c.302 1.462.39 1.921.954 2.188m.171-7.662q.79-.33 1.619-.552m.638 5.842a3.4 3.4 0 0 0 2.534 1.16s-.81 3.115.635 5.137"/>
  <path stroke="#263238" stroke-linecap="round" stroke-linejoin="round" stroke-width=".438" d="M140.076 112.651s-.836.679-.727 1.042"/>
  <path fill="#263238" d="M174.292 131.148s7.439-3.255 8.515-3.474 9.142.179 9.142.179a11.7 11.7 0 0 1-3.401 2.188s-.179-1.483-2.187-1.654-12.069 2.761-12.069 2.761"/>
</svg>
