<svg width="180" height="188" viewBox="0 0 180 188" fill="none" xmlns="http://www.w3.org/2000/svg">
  <path d="M165.249 45.498a63 63 0 0 0-4.546-6.398c-9.505-11.662-20.787-22.047-34.213-29.01C105.595-.746 79.135-3.283 56.65 4.577c-26.705 9.331-38.496 32.25-42.926 58.939a148 148 0 0 0-1.421 11.244c-1.104 12.299-.562 24.738-2.067 36.991-1.545 12.555-8.496 23.741-8.327 36.61a41.67 41.67 0 0 0 5.786 20.799c10.472 17.415 31.726 20.213 50.248 17.184 53.512-8.761 59.562-29.59 82.134-34.181 20.357-4.132 34.301-25.051 38.289-44.284 4.401-21.27-1.794-44.223-13.117-62.381" fill="#405AE0"/>
  <path d="M165.249 45.498a63 63 0 0 0-4.546-6.398c-9.505-11.662-20.787-22.047-34.213-29.01C105.595-.746 79.135-3.283 56.65 4.577c-26.705 9.331-38.496 32.25-42.926 58.939a148 148 0 0 0-1.421 11.244c-1.104 12.299-.562 24.738-2.067 36.991-1.545 12.555-8.496 23.741-8.327 36.61a41.67 41.67 0 0 0 5.786 20.799c10.472 17.415 31.726 20.213 50.248 17.184 53.512-8.761 59.562-29.59 82.134-34.181 20.357-4.132 34.301-25.051 38.289-44.284 4.401-21.27-1.794-44.223-13.117-62.381" fill="#ECF6FC"/>
  <path d="M18.683 28.711v1.033" stroke="#000" stroke-width=".413" stroke-linejoin="round"/>
  <path d="M18.683 31.976v7.81" stroke="#000" stroke-width=".413" stroke-linejoin="round" stroke-dasharray="2.23 2.23"/>
  <path d="M18.683 40.902v1.033h1.033" stroke="#000" stroke-width=".413" stroke-linejoin="round"/>
  <path d="M21.746 41.935h63.906" stroke="#000" stroke-width=".413" stroke-linejoin="round" stroke-dasharray="2.03 2.03"/>
  <path d="M86.664 41.935h1.033v1.034" stroke="#000" stroke-width=".413" stroke-linejoin="round"/>
  <path d="M87.697 45.043v102.682" stroke="#000" stroke-width=".413" stroke-linejoin="round" stroke-dasharray="2.07 2.07"/>
  <path d="M87.697 148.762v1.033h1.033" stroke="#000" stroke-width=".413" stroke-linejoin="round"/>
  <path d="M89.97 149.795h1.86" stroke="#000" stroke-width=".413" stroke-linejoin="round" stroke-dasharray="1.24 1.24"/>
  <path d="M92.45 149.795h1.033m-87.611-2.893v-1.033" stroke="#000" stroke-width=".413" stroke-linejoin="round"/>
  <path d="M5.872 143.745V102.3" stroke="#000" stroke-width=".413" stroke-linejoin="round" stroke-dasharray="2.13 2.13"/>
  <path d="M5.872 101.238v-1.033h1.033" stroke="#000" stroke-width=".413" stroke-linejoin="round"/>
  <path d="M8.79 100.205h14.117" stroke="#000" stroke-width=".413" stroke-linejoin="round" stroke-dasharray="1.88 1.88"/>
  <path d="M23.85 100.205h1.032v1.033" stroke="#000" stroke-width=".413" stroke-linejoin="round"/>
  <path d="M24.882 103.287v44.037" stroke="#000" stroke-width=".413" stroke-linejoin="round" stroke-dasharray="2.05 2.05"/>
  <path d="M24.882 148.349v1.033h1.033" stroke="#000" stroke-width=".413" stroke-linejoin="round"/>
  <path d="M28.019 149.382h45.197" stroke="#000" stroke-width=".413" stroke-linejoin="round" stroke-dasharray="2.1 2.1"/>
  <path d="M74.266 149.382H75.3v-1.033" stroke="#000" stroke-width=".413" stroke-linejoin="round"/>
  <path d="M75.3 146.274V60.123" stroke="#000" stroke-width=".413" stroke-linejoin="round" stroke-dasharray="2.08 2.08"/>
  <path d="M75.3 59.085v-1.033h1.032" stroke="#000" stroke-width=".413" stroke-linejoin="round"/>
  <path d="M78.35 58.052h79.625" stroke="#000" stroke-width=".413" stroke-linejoin="round" stroke-dasharray="2.02 2.02"/>
  <path d="M158.983 58.052h1.034M23.642 18.735a4.96 4.96 0 0 0-9.918 0c0 2.736 4.96 8.265 4.96 8.265s4.958-5.529 4.958-8.265Z" stroke="#000" stroke-width=".413" stroke-linejoin="round"/>
  <path d="M20.808 18.735a2.124 2.124 0 1 0-4.248 0 2.124 2.124 0 0 0 4.248 0Zm145.54 32.04a4.05 4.05 0 0 0-8.096 0c0 2.236 4.05 6.748 4.05 6.748s4.046-4.512 4.046-6.748Z" stroke="#000" stroke-width=".413" stroke-linejoin="round"/>
  <path d="M162.302 52.51a1.736 1.736 0 1 0 0-3.47 1.736 1.736 0 0 0 0 3.47Zm-1.748 23.54a8.085 8.085 0 0 0-4.943-7.63 8.085 8.085 0 0 0-8.911 1.8 8.07 8.07 0 0 0-2.3 5.83c0 4.459 8.075 13.464 8.075 13.464s8.079-9.005 8.079-13.464Z" stroke="#000" stroke-width=".413" stroke-linejoin="round"/>
  <path d="M152.475 79.513a3.463 3.463 0 1 0 0-6.926 3.463 3.463 0 0 0 0 6.926ZM27.16 83.352a6.29 6.29 0 0 0-12.58 0c0 3.471 6.29 10.48 6.29 10.48s6.29-7.009 6.29-10.48Z" stroke="#000" stroke-width=".413" stroke-linejoin="round"/>
  <path d="M23.564 83.352a2.695 2.695 0 1 0-5.39 0 2.695 2.695 0 0 0 5.39 0ZM9.092 154.424a4.047 4.047 0 0 0-5.594-3.738 4.04 4.04 0 0 0-2.19 2.189A4 4 0 0 0 1 154.424c0 2.235 4.046 6.744 4.046 6.744s4.046-4.509 4.046-6.744Z" stroke="#000" stroke-width=".413" stroke-linejoin="round"/>
  <path d="M5.046 156.159a1.735 1.735 0 1 0 0-3.47 1.735 1.735 0 0 0 0 3.47Z" stroke="#000" stroke-width=".413" stroke-linejoin="round"/>
  <path d="M125.303 23.413v125.754a12.613 12.613 0 0 1-12.596 12.612H52.892a12.61 12.61 0 0 1-12.612-12.612V23.413a12.613 12.613 0 0 1 12.612-12.608h25.01l.025.09c.74 2.662 2.443 4.393 4.331 4.393h1.083c1.889 0 3.591-1.731 4.331-4.392l.029-.091h25.006a12.61 12.61 0 0 1 12.596 12.608" fill="#fff"/>
  <path d="M92.429 102.911V63.119h18.266a.83.83 0 0 0 .752-.48l13.856-30.333v-3.975l-15.158 33.135H92.429V10.805h-1.653V31.19c-16.498-1.629-26.164 6.149-31.383 13.042a44.5 44.5 0 0 0-7.195 14.646L40.28 51.312v1.959l21.344 13.55v24.18l-21.332-3.893v1.682l50.496 9.207v4.546l-50.496 40.334v2.116l22.837-18.241 17.402 23.555a.825.825 0 0 0 .872.31l27.436-7.025v18.187h1.653v-34.221a.82.82 0 0 0-.455-.736l-6.161-3.116 10.53-11.488 10.897 4.198v-1.748l-10.856-4.174a.83.83 0 0 0-.909.211l-11.208 12.228-21.1-10.674 10.885-8.699a.83.83 0 0 0 .314-.649m16.398 25.155v13.778l-27.308 6.996-17.11-23.142 15.399-12.303zM90.776 96.303l-27.51-5.017v-23.44l27.51 17.481zm0-12.947L53.666 59.8a43.2 43.2 0 0 1 7.025-14.58c7.215-9.53 17.331-13.69 30.064-12.397z" fill="#C9C5C9"/>
  <path d="M125.32 85.897h-2.475l-6.249 15.626h-12.497l6.596-15.278h-9.72V71.318h14.58l9.765-18.956zM55.876 25.405H43.48v10.331h12.397zm10.993 0h-8.927v7.439h8.927zm-9.472 32.903 30.684 19.816V36.563s-21.948-2.116-30.684 21.745m17.902-32.903h-5.786v4.823H75.3zm10.745 97.115-11.158 7.852 6.199 11.571 22.315-1.239 1.24-10.745-8.678-3.719-3.72 5.785-3.719-2.066 3.306-6.199zM50.289 99.208v22.325l-10.01 5.091V98.737zm16.661 13.857V99.994l-13.885-.653v20.782zm2.084-12.972v11.914l8.33-4.236v-7.29z" fill="#C4C4C4"/>
  <path d="M130.73 56.974v-15.98h-1.446V20.532A12.62 12.62 0 0 0 116.671 7.92H48.93a12.617 12.617 0 0 0-12.613 12.613v137.643a12.61 12.61 0 0 0 12.613 12.613h67.741a12.6 12.6 0 0 0 8.918-3.695 12.6 12.6 0 0 0 3.695-8.918V70.595h1.446v-9.443h-1.446v-4.178zm-5.426 92.193c0 3.342-1.327 6.548-3.688 8.913a12.62 12.62 0 0 1-8.908 3.7H52.893a12.61 12.61 0 0 1-12.612-12.613V23.413a12.61 12.61 0 0 1 12.612-12.608h25.01l.025.09c.74 2.662 2.443 4.394 4.331 4.394h1.083c1.888 0 3.591-1.732 4.33-4.393l.03-.091h25.006a12.614 12.614 0 0 1 12.596 12.608z" fill="#3549B7" stroke="#263238" stroke-width=".413" stroke-linejoin="round"/>
  <path d="M115.212 9.66H50.388A12.61 12.61 0 0 0 37.78 22.273V156.44a12.61 12.61 0 0 0 12.608 12.613h64.824a12.61 12.61 0 0 0 12.608-12.613V22.273a12.61 12.61 0 0 0-7.782-11.652 12.6 12.6 0 0 0-4.826-.961Zm10.091 139.507a12.613 12.613 0 0 1-12.596 12.613H52.893a12.61 12.61 0 0 1-12.613-12.613V23.413a12.613 12.613 0 0 1 12.613-12.608h25.01l.025.09c.74 2.662 2.442 4.394 4.33 4.394h1.083c1.889 0 3.592-1.732 4.331-4.393l.03-.091h25.005a12.614 12.614 0 0 1 12.596 12.608z" fill="#4A6EFF" stroke="#263238" stroke-width=".413" stroke-linejoin="round"/>
  <path d="M82.54 12.59a1.182 1.182 0 1 0 0-2.364 1.182 1.182 0 0 0 0 2.364" fill="#fff"/>
  <path d="M47.838 15.945c0 1.199-1.343 1.629-1.352 2.546v.062h1.306v.413h-1.744v-.338c0-1.286 1.348-1.534 1.348-2.654 0-.413-.137-.624-.467-.624-.331 0-.463.236-.463.587v.351h-.413v-.322c0-.607.28-1.012.892-1.012s.893.384.893.991m2.174-.004v.104a.78.78 0 0 1-.48.826.794.794 0 0 1 .48.827v.305c0 .608-.281 1.005-.897 1.005s-.888-.413-.888-1.005v-.285h.413v.302c0 .355.149.57.467.57s.463-.21.463-.611v-.306c0-.393-.166-.579-.5-.591h-.22v-.413h.26a.474.474 0 0 0 .476-.546v-.182c0-.413-.14-.62-.463-.62-.322 0-.467.224-.467.579v.207h-.413v-.166c0-.607.281-1 .889-1 .607 0 .88.393.88 1m.859.302v.55h-.413v-.55zm0 2.162v.55h-.413v-.55zm.898-1.806a.64.64 0 0 1 .59-.327c.513 0 .736.372.736.942v.777c0 .608-.289 1.005-.896 1.005-.608 0-.889-.414-.889-1.005v-.268h.413v.297c0 .356.15.57.467.57.319 0 .463-.214.463-.57v-.773c0-.36-.145-.574-.463-.574a.41.41 0 0 0-.45.413v.091h-.413l.107-2.207h1.55v.414h-1.17zm3.537-.666v.075h-.414V15.9c0-.36-.148-.57-.47-.57q-.484.001-.484.64v.893a.64.64 0 0 1 .64-.413c.513 0 .74.367.74.942v.603c0 .608-.302 1.005-.91 1.005-.607 0-.912-.414-.912-1.005v-2.033c0-.628.28-1.02.913-1.02.632 0 .897.384.897.991m-1.368 1.488v.599c0 .355.149.57.47.57.323 0 .472-.215.472-.57v-.6c0-.355-.153-.57-.471-.57s-.471.215-.471.57m44.751-1.31h-1.124v2.807h1.124zm1.497-.561h-1.125v3.368h1.125zm1.495-.401h-1.124v3.765h1.124zm1.492-.694h-1.12v4.459h1.12zm13.885 4.384h-6.732v-4.132h6.732zm-6.356-.376h5.984v-3.364h-5.984z" fill="#263238"/>
  <path d="M114.815 15.503h-3.554v2.554h3.554zm2.855.794h-.847v.97h.847zm-9.811 1.645a.23.23 0 0 1-.128-.034c-1.372-.826-2.277-.057-2.314-.028a.253.253 0 0 1-.404-.11.25.25 0 0 1 .013-.19.3.3 0 0 1 .06-.076c.046-.046 1.207-1.038 2.893-.03q.044.027.073.067a.25.25 0 0 1-.074.367.25.25 0 0 1-.119.034" fill="#263238"/>
  <path d="M108.359 17.099a.26.26 0 0 1-.128-.038c-1.979-1.178-3.306-.037-3.326-.024a.253.253 0 0 1-.411-.21.25.25 0 0 1 .08-.17s1.624-1.39 3.913-.026a.249.249 0 0 1-.002.433.26.26 0 0 1-.126.035" fill="#263238"/>
  <path d="M108.826 16.12a.23.23 0 0 1-.128-.038c-2.512-1.492-4.178-.087-4.248-.025a.251.251 0 0 1-.331-.376c.021 0 2.001-1.715 4.836-.029a.3.3 0 0 1 .073.065.25.25 0 0 1 .013.278.25.25 0 0 1-.215.124m-2.355 2.876a.632.632 0 1 0 0-1.264.632.632 0 0 0 0 1.264" fill="#263238"/>
  <path d="M123.64 186.565c15.953 0 28.885-1.908 28.885-4.261s-12.932-4.262-28.885-4.262c-15.952 0-28.884 1.908-28.884 4.262s12.932 4.261 28.884 4.261" fill="#C3CBD1"/>
  <path d="M4.269 179.88h12.348" stroke="#263238" stroke-width=".413" stroke-linejoin="round"/>
  <path d="M120.472 178.517a5.3 5.3 0 0 1-.141.9c-.339 1.24-2.268.794-3.401 1.24-1.132.447-2.607 1.021-3.628 1.36s-4.191.57-5.786.227c-1.049-.223-1.554-.793-1.574-1.384a1.27 1.27 0 0 1 .33-.881c.678-.793 3.282-1.814 4.757-2.946s3.401-3.856 3.401-3.856c2.153.571 5.786.116 5.786.116s.223 1.24.223 1.587q.119 1.818.033 3.637" fill="#fff" stroke="#263238" stroke-width=".413" stroke-linecap="round" stroke-linejoin="round"/>
  <path d="M120.472 178.516a5.3 5.3 0 0 1-.141.901c-.338 1.24-2.268.794-3.401 1.24-1.132.446-2.607 1.021-3.628 1.36s-4.19.57-5.786.227c-1.049-.223-1.553-.794-1.574-1.384.578.413 1.988 1.161 4.666.925 3.719-.318 4.988-1.607 6.521-2.248a24 24 0 0 1 3.343-1.021m-.157-4.653c-.05-.314-.095-.566-.095-.566q-1.712.197-3.434.165l-.083.062s.227-.116.343.794a8.4 8.4 0 0 1 0 1.81s2.579-.612 2.947-1.472c.107-.252.219-.528.322-.793m12.84 9.364c-1.042.662-6.15 3.517-7.026 3.683s-4.132-.058-5.054-.827c-.723-.595-.917-1.393-.45-2.066.151-.21.342-.389.562-.525 1.099-.715 3.021-2.748 3.901-3.901s2.252-3.186 2.252-3.186l.107-.604 5.604.166s.108 1.206.161 1.429q.308 1.164.443 2.36c.066.467.14.905.186 1.306.086.967.033 1.703-.686 2.165" fill="#fff" stroke="#263238" stroke-width=".413" stroke-linecap="round" stroke-linejoin="round"/>
  <path d="M133.155 183.227c-1.042.662-6.15 3.517-7.026 3.683s-4.132-.058-5.054-.827c-.723-.595-.917-1.393-.45-2.066.07.384.599 2.331 4.012 2.19 3.782-.161 6.757-3.542 8.447-4.67q.403-.272.757-.475c.086.967.033 1.703-.686 2.165m-.124-7.248-5.603-.165-.108.603-.264.384c.14 0 1.822-.091 2.293.331s.55 1.868 1.703 1.484a6.6 6.6 0 0 0 2.132-1.269c-.058-.322-.153-1.368-.153-1.368" fill="#fff" stroke="#263238" stroke-width=".413" stroke-linecap="round" stroke-linejoin="round"/>
  <path d="M110.244 121.16s-.455 11.902.455 19.155c.909 7.253 1.132 12.468 1.239 12.811s2.265 14.732 2.377 15.642c.111.909.454 1.925.454 2.264s.339.455 2.042.909a6.1 6.1 0 0 0 3.401-.227s.793-7.819.793-9.86c0-2.042-1.021-11.336-1.021-11.675s.678-15.865.678-15.865l.566.451s.794 13.261 1.137 15.753.45 4.761.905 6.009c.454 1.248 1.475 9.178 1.926 10.331s.793 5.439.793 5.439l.339 1.359s.455 1.24 3.306 1.24 3.401-.682 3.401-.682.112-6.004.112-8.839-1.476-11.22-1.699-13.146-.57-9.749-.116-11.336c.455-1.586 1.24-10.876 1.24-14.844a45 45 0 0 0-.227-5.554s-10.765.678-14.394.112-7.025-1.36-7.025-1.36z" fill="#435C68" stroke="#202B30" stroke-width=".413" stroke-linecap="round" stroke-linejoin="round"/>
  <path d="M113.533 120.71s4.873 1.471 12.691.793l.112-2.041-12.464-4.195z" fill="gray" stroke="#263238" stroke-width=".413" stroke-linecap="round" stroke-linejoin="round"/>
  <path d="m120.14 120.341-3.217-.12-.047 1.268 3.217.12z" fill="#fff" stroke="#263238" stroke-width=".413" stroke-linecap="round" stroke-linejoin="round"/>
  <path d="M127.245 87.274s-3.967-.45-5.893.115c-1.926.567-4.306 1.24-4.988 3.058-.682 1.819-4.021 28.734-4.021 28.734s3.682 1.19 6.968 1.19 6.802-.227 6.802-.227.339-14.509 1.132-17.113c.794-2.603 0-15.757 0-15.757" fill="#fff" stroke="#263238" stroke-width=".413" stroke-linecap="round" stroke-linejoin="round"/>
  <path d="M118.245 89.13s.14 2.813.963 3.5c.822.685.892.896.892.896l.48 5.372s1.789-3.24 1.996-3.653c.2-.742.339-1.5.413-2.264q.898-.676 1.719-1.443c.616-.62 1.099-4.74 1.099-5.223 0-.484-.136-3.091-.136-3.091s-1.447 3.227-3.025 4.67c-1.579 1.442-3.091 1.582-3.434 1.512s-.967-.277-.967-.277" fill="#fff" stroke="#263238" stroke-width=".413" stroke-linecap="round" stroke-linejoin="round"/>
  <path d="M118.179 88.303s-.141 9.963-.141 14.013-1.239 9.137-2.541 12.571c-1.302 3.435-4.133 12.675-5.013 14.807a34 34 0 0 0-1.442 4.327s-1.306-1.033-1.376-4.397c-.071-3.364.756-7.281.892-9.687.137-2.405.207-7.438.207-7.438s0 1.165-1.785 2.066c-1.786.901-2.893 1.306-4.054-.893s-1.029-3.504.07-5.496 2.128-7.145 3.021-9.48.826-5.633 1.789-6.319 5.563-2.541 7.418-3.64 2.612-1.1 2.612-1.1.273-.157.343.666" fill="#3E6AE1" stroke="#263238" stroke-width=".413" stroke-linecap="round" stroke-linejoin="round"/>
  <path d="M104.992 107.192s-1.377 2.844-.984 3.823 1.653 2.066 3.141 1.178c1.487-.889 1.959-.98 1.467-2.843-.492-1.864-2.352-3.236-3.624-2.158" stroke="#263238" stroke-width=".413" stroke-linecap="round" stroke-linejoin="round"/>
  <path d="m109.529 97.593-.074-1.596z" fill="#fff"/>
  <path d="m109.529 97.593-.074-1.596" stroke="#263238" stroke-width=".413" stroke-linecap="round" stroke-linejoin="round"/>
  <path d="M108.773 112.486s.963-5.223.963-8.178c0-1.616-.083-3.955-.157-5.74" fill="#fff"/>
  <path d="M108.773 112.486s.963-5.223.963-8.178c0-1.616-.083-3.955-.157-5.74" stroke="#263238" stroke-width=".413" stroke-linecap="round" stroke-linejoin="round"/>
  <path d="M117.836 87.617s-.6 0-2.029.768c-.319 1.81-.93 6.021-.517 9.881.355 3.265 1.529 6.666 2.327 8.678.26-1.532.398-3.082.413-4.636 0-4.05.14-14.014.14-14.014-.062-.814-.334-.677-.334-.677" fill="#3E6AE1" stroke="#263238" stroke-width=".413" stroke-linecap="round" stroke-linejoin="round"/>
  <path d="M113.732 78.736s.566 3.628 1.136 5.194c.571 1.566 1.922 3.269 2.48 4.34s1.777 2.202 3.128 2.202 3.199-1.847 3.554-2.48c.356-.632 1.351-1.78 1.426-2.48.074-.698.07-1.846.07-1.846a2.44 2.44 0 0 0 1.653-1.992 4.2 4.2 0 0 0-.215-2.562 13.7 13.7 0 0 0-1.211-2.273c-.996-1.653-4.264-2.562-7.397-2.067-3.132.496-4.694 1.831-4.624 3.963" fill="#fff" stroke="#263238" stroke-width=".413" stroke-linecap="round" stroke-linejoin="round"/>
  <path d="M113.819 81.608a10.2 10.2 0 0 1 4.107.054s.356 1.28-.413 2.132c-.769.851-2.207.57-2.632.413s-1.087-.884-1.062-2.6m5.529-.061c1.363-.28 2.769-.28 4.132 0 0 0 .372 1.273-.413 2.14s-2.199.6-2.624.463-1.095-.888-1.095-2.603" fill="#fff" stroke="#263238" stroke-width=".413" stroke-linecap="round" stroke-linejoin="round"/>
  <path d="M117.926 81.653a1.97 1.97 0 0 1 1.422-.107m4.111-.008 1.935-1.306m-7.356 2.012s.765-.297 1.24 0m.459-1.186a4.45 4.45 0 0 1 2.591-.256m-4.844.467a3.08 3.08 0 0 0-2.293-.298m2.847 1.997s-.087 3.103-.046 3.231c.241.236.557.382.893.413a7 7 0 0 0 1.107-.214m-1.615.995s.851.724 2.422.083" stroke="#263238" stroke-width=".413" stroke-linecap="round" stroke-linejoin="round"/>
  <path d="M112.451 75.322s-2.348.711-1.922 2.207 3.133 1.992 5.835 1.277a36 36 0 0 0 5.633-2.132 1.07 1.07 0 0 0 .145 1.495c.781.711.71-1.495.71-1.495s-.07 2.562.926 2.917c.996.356 1.066.566 1.066.566s-.355 1.426.071 1.567c.425.14.496-1.492.496-1.492s.144-.856.855-.996l.711-.145s-.141-4.765-.571-6.542-4.764-3.843-8.533-2.48c-3.769 1.364-5.567 3.191-5.422 5.253" fill="#263238" stroke="#263238" stroke-width=".413" stroke-linecap="round" stroke-linejoin="round"/>
  <path d="m104.302 109.118 1.653-2.612 1.372 2.199q-.93.544-1.922.963a5.4 5.4 0 0 1-1.103-.55m3.364 1.372q.602.258 1.239.414a3 3 0 0 0 1.181-.324c.367-.19.689-.454.948-.776.413-.686-.277-.756-.277-.756l-.827.756-1.376-.066z" fill="#fff" stroke="#263238" stroke-width=".413" stroke-linecap="round" stroke-linejoin="round"/>
  <path d="m103.409 103.622 3.983 6.046 3.364.07-3.57-6.116z" fill="#263238" stroke="#263238" stroke-width=".413" stroke-linecap="round" stroke-linejoin="round"/>
  <path d="M107.533 107.54s-3.227 1.099-3.227 1.578a.945.945 0 0 0 1.029.827c.549 0 2.678-1.376 2.892-1.79.215-.413-.012-.686-.694-.615m-1.86 2.471a1.2 1.2 0 0 0 .757.826c.619.203 2.479-1.099 2.818-1.582s-.69-.343-1.442-.066c-.752.276-2.133.822-2.133.822m-1.305-4.806a.82.82 0 0 0-.311.554.82.82 0 0 0 .174.611c.484.686 1.653.826 1.653.826z" fill="#fff" stroke="#263238" stroke-width=".413" stroke-linecap="round" stroke-linejoin="round"/>
  <path d="M125.803 86.31s-2.678 17.932-3.306 19.51 1.169 13.704 1.169 15.353 1.579 1.926 2.195 2.269 5.637 2.748 6.389 3.983c.752 1.236 2.682 3.848 2.682 3.848s-1.153-11.662-1.306-17.964c-.062-2.542.136-6.319.136-6.319s2.893-14.977 2.612-16.076-4.876-2.893-6.872-3.57a32 32 0 0 0-3.699-1.033" fill="#3E6AE1" stroke="#263238" stroke-width=".413" stroke-linecap="round" stroke-linejoin="round"/>
  <path d="M129.167 88.633c.07-.467.137-.967.186-1.355a32 32 0 0 0-3.55-.98s-2.678 17.932-3.306 19.51c-.12.455-.162.928-.124 1.397a63 63 0 0 0 3.286-5.174c1.587-2.806 3.364-12.422 3.508-13.398" fill="#3E6AE1" stroke="#263238" stroke-width=".413" stroke-linecap="round" stroke-linejoin="round"/>
  <path d="M124.018 122.413c1.297.406 2.631.683 3.983.826 2.406.273 8.092 2.542 10.117 5.029.654.741 1.23 1.547 1.719 2.406 0 0-2.839.413-3.389.467-.549.053-1.785.136-1.785.136s-2.198-3.161-3.306-4.054-6.93-3.781-7.339-4.81" fill="#fff" stroke="#263238" stroke-width=".413" stroke-linecap="round" stroke-linejoin="round"/>
  <path d="M113.873 170.945v1.959a.82.82 0 0 0 .5.756c.861.328 1.759.548 2.674.658a5.35 5.35 0 0 0 3.306-.521.83.83 0 0 0 .413-.719v-1.794a.7.7 0 0 0-.242-.529.7.7 0 0 0-.56-.157c-1.24.203-3.678.475-5.492-.124a.48.48 0 0 0-.418.085.48.48 0 0 0-.181.386m11.844 2.083v2.211a.92.92 0 0 0 .566.852c.972.368 1.985.616 3.016.739a6 6 0 0 0 3.74-.587.91.91 0 0 0 .48-.826v-2.008a.77.77 0 0 0-.274-.595.78.78 0 0 0-.631-.174c-1.401.227-4.133.533-6.199-.145a.54.54 0 0 0-.698.533" fill="#384C56" stroke="#263238" stroke-width=".413" stroke-linecap="round" stroke-linejoin="round"/>
  <path d="m130.345 124.293-2.236 2.058 3.311 3.219 1.248-2.058z" fill="#fff" stroke="#263238" stroke-width=".413" stroke-linecap="round" stroke-linejoin="round"/>
  <path d="M133.428 99.502s-.48 4.054-.277 5.496 3.434 9.464 3.434 9.464l-6.868 9.943s.826 3.5 3.161 4.599c0 0 6.753-6.575 8.038-7.967 2.752-2.984 3.806-5.575 3.806-6.675s-6.761-21.113-6.897-21.596-.827-2.335-2.542-2.819" fill="#3E6AE1"/>
  <path d="M133.428 99.502s-.48 4.054-.277 5.496 3.434 9.464 3.434 9.464l-6.868 9.943s.826 3.5 3.161 4.599c0 0 6.753-6.575 8.038-7.967 2.752-2.984 3.806-5.575 3.806-6.675s-6.761-21.113-6.897-21.596-.827-2.335-2.542-2.819" stroke="#263238" stroke-width=".413" stroke-linecap="round" stroke-linejoin="round"/>
  <path d="M137.246 114.445s1.959-1.173 4.017-.392m-1.665-.881a3.4 3.4 0 0 1 2.45.492" stroke="#263238" stroke-width=".413" stroke-linecap="round" stroke-linejoin="round"/>
  <path d="M116.401 26.814a12.47 12.47 0 0 1 9.679 4.612h23.167a6.515 6.515 0 0 1 6.353 6.515 6.517 6.517 0 0 1-6.353 6.515h-21.49a12.53 12.53 0 0 1-4.132 5.009l-6.939 5.372a.15.15 0 0 1-.091.029.13.13 0 0 1-.082-.029l-7.617-5.534a12.25 12.25 0 0 1-4.959-10.017 12.49 12.49 0 0 1 12.464-12.472" fill="#263238"/>
  <path d="M149.56 43.175h-30.043v-12.74h30.043a6.37 6.37 0 0 1 6.369 6.368 6.375 6.375 0 0 1-3.931 5.887 6.4 6.4 0 0 1-2.438.485" fill="#fff" stroke="#263238" stroke-width=".413" stroke-linecap="round" stroke-linejoin="round"/>
  <path d="M150.238 34.935h-16.109m16.109 2.033h-16.109m16.109 2.029h-16.109" stroke="#263238" stroke-width=".413" stroke-linejoin="round"/>
  <path d="m109.293 48.047 7.612 5.538 6.939-5.372a12.34 12.34 0 0 0 5.164-10.921 12.33 12.33 0 0 0-12.733-11.46 12.33 12.33 0 0 0-11.9 12.322 12.09 12.09 0 0 0 4.918 9.893" fill="#fff" stroke="#263238" stroke-width=".413" stroke-linecap="round" stroke-linejoin="round"/>
  <path d="M127.476 38.216a10.84 10.84 0 0 1-6.693 10.025 10.846 10.846 0 0 1-14.793-7.9 10.845 10.845 0 0 1 10.634-12.969 10.814 10.814 0 0 1 10.852 10.844Z" fill="#405AE0" stroke="#263238" stroke-width=".413" stroke-linejoin="round"/>
  <path d="m124.501 45.68-7.803-2.03-8.265 1.682a10.84 10.84 0 0 0 8.197 3.742 10.84 10.84 0 0 0 7.871-3.382z" fill="#fff" stroke="#263238" stroke-width=".413" stroke-linecap="round" stroke-linejoin="round"/>
  <path d="M115.306 43.113a6.3 6.3 0 0 0-1.765 1.4c-.773.906-2.066 3.307-1.946 3.216s3.756-2.31 3.756-2.31zm3.029-.455-2.852 3.125.815 2.851 3.351-4.252z" fill="#405AE0" stroke="#263238" stroke-width=".413" stroke-linecap="round" stroke-linejoin="round"/>
  <path d="M113.086 31.753s-1.855.363-2.066-1.265 2.31-3.938 5.93-3.938 6.472 3.033 6.336 5.975a10.3 10.3 0 0 1-1.873 5.278 6.1 6.1 0 0 1-2.31 1.177c-.632.087-1.082-.826-.768-1.991s-.678-1.496-.269-2.58c.409-1.082.951-1.086 1.128-1.45.178-.363-1.81-1.132-3.62-1.041s-2.488-.165-2.488-.165" fill="#263238" stroke="#263238" stroke-width=".413" stroke-linecap="round" stroke-linejoin="round"/>
  <path d="m115.078 41.348-.033.174c-.095.558-.388 2.302-.467 3.355-.087 1.27.827 1.24 1.178.86s2.264-2.26 2.579-3.075c.314-.814 1.041-3.26 1.041-3.26z" fill="#fff" stroke="#263238" stroke-width=".413" stroke-linecap="round" stroke-linejoin="round"/>
  <path d="M113.087 31.753s-.633 3.533-.86 5.372-.455 2.938.318 4.132c.773 1.195 2.938.414 4.025-.045a30 30 0 0 0 3.306-1.901s1.538.09 2.17-.678a1.16 1.16 0 0 0 .215-.98 1.17 1.17 0 0 0-.628-.784 2 2 0 0 0-1.451.54c-.268.32-.223.683-.541.683s-.769.087-.678-.227c.091-.315.769-1.36.587-2.038s-1.537-1.132-.413-1.764 2.31-.587 1.768-1.538c-.541-.95-3.351-1.946-5.116-1.587a13 13 0 0 0-2.702.815" fill="#fff" stroke="#263238" stroke-width=".413" stroke-linecap="round" stroke-linejoin="round"/>
  <path d="M113.674 32.794s1.062-.223.995.86c-.024.413-1.9 2.4-1.628 2.851.186.291.432.538.723.723m2.174-3.302a1.242 1.242 0 0 1 1.901.413m-4.521 4.203s.273.678 1.355.587c.486.002.967-.105 1.405-.314" stroke="#263238" stroke-width=".413" stroke-linecap="round" stroke-linejoin="round"/>
  <path d="M116.562 35.414c-.062.297-.244.512-.413.48-.17-.034-.236-.306-.17-.604s.244-.512.414-.48c.169.034.231.306.169.604m-2.632-1.004c-.058.289-.228.5-.38.47-.153-.028-.232-.288-.174-.578.058-.289.227-.5.38-.467s.232.285.174.575M62.588 48.378a12.46 12.46 0 0 0-9.679 4.616H29.742a6.516 6.516 0 1 0 0 13.03h21.49a12.5 12.5 0 0 0 4.132 5.009l6.939 5.372a.14.14 0 0 0 .086.033q.049 0 .087-.029l7.62-5.546a12.25 12.25 0 0 0 4.96-10.013 12.49 12.49 0 0 0-12.468-12.472" fill="#263238"/>
  <path d="M29.081 64.776h30.044v-12.74H29.081a6.377 6.377 0 0 0-6.372 6.372 6.37 6.37 0 0 0 6.372 6.368" fill="#fff" stroke="#263238" stroke-width=".413" stroke-linecap="round" stroke-linejoin="round"/>
  <path d="M28.403 56.536h16.109m-16.109 2.033h16.109m-16.109 2.033h16.109" stroke="#263238" stroke-width=".413" stroke-linejoin="round"/>
  <path d="m69.348 69.648-7.616 5.538-6.939-5.373a12.332 12.332 0 1 1 19.469-10.058 12.08 12.08 0 0 1-4.914 9.893" fill="#fff" stroke="#263238" stroke-width=".413" stroke-linecap="round" stroke-linejoin="round"/>
  <path d="M63.648 70.464c5.915-.952 9.939-6.518 8.987-12.434-.951-5.915-6.518-9.938-12.433-8.987s-9.939 6.519-8.987 12.434 6.518 9.938 12.433 8.987Z" fill="#405AE0" stroke="#263238" stroke-width=".413" stroke-linejoin="round"/>
  <path d="M71.35 65.127c.78-4.417-3.559-6.228-3.993-8.476 0 0 1.087-.219 1.45-2.107.364-1.889-.437-4.43-4.285-5.228-3.847-.798-8.352 2.48-9.092 5.447s1.38 4.355.29 5.447a2.2 2.2 0 0 1-.633.392c-.545.33-1.314.802-1.83 1.087-.868.48-1.352 5.207 3.182 5.786s5.591-.868 8.1-1.158c1.578-.181 4.19-.02 5.91.124" fill="#263238"/>
  <path d="M71.35 65.127c.78-4.417-3.559-6.228-3.993-8.476 0 0 1.087-.219 1.45-2.107.364-1.889-.437-4.43-4.285-5.228-3.847-.798-8.352 2.48-9.092 5.447s1.38 4.355.29 5.447a2.2 2.2 0 0 1-.633.392c-.545.33-1.314.802-1.83 1.087-.868.48-1.352 5.207 3.182 5.786s5.591-.868 8.1-1.158c1.578-.181 4.19-.02 5.91.124" stroke="#263238" stroke-width=".413" stroke-linecap="round" stroke-linejoin="round"/>
  <path d="M70.183 64.057c-1.52 0-3.41 1.087-4.062 1.087s-.728-2.757-.728-2.757l-3.413-.727s.364 2.686.219 3.777-2.616 1.24-3.633 1.376c-1.016.137-1.595.802-1.884 2.327a1 1 0 0 0 0 .095 10.7 10.7 0 0 0 4.236 1.314c1.471-.26 2.955-.554 4.132-.855a55 55 0 0 1 2.286-.534 10.87 10.87 0 0 0 4.083-4.132 1.21 1.21 0 0 0-1.236-.971" fill="#fff" stroke="#263238" stroke-width=".413" stroke-linecap="round" stroke-linejoin="round"/>
  <path d="M56.91 69.371a10.85 10.85 0 0 0 13.836-3.306c-1.81.232-1.976 1.186-3.03 1.186-1.16 0-2.541-.144-4.132.579s-1.819 1.016-4.067 1.016a6.65 6.65 0 0 0-2.607.525" fill="#405AE0" stroke="#263238" stroke-width=".413" stroke-linecap="round" stroke-linejoin="round"/>
  <path d="M65.03 52.655s2.541 1.963 2.686 4.65c.145 2.685-.727 4.644-1.595 5.59-.868.947-2.033.58-3.195-.219a8.2 8.2 0 0 1-1.963-2.033 1.6 1.6 0 0 1-.942-.434 1.7 1.7 0 0 1-.583-.946s2.178-.07 2.687-1.525.074-2.756.801-3.773a3.86 3.86 0 0 1 2.104-1.31" fill="#fff" stroke="#263238" stroke-width=".413" stroke-linecap="round" stroke-linejoin="round"/>
  <path d="M64.377 56.358s-1.24-.579-1.744.508m3.195-.88s.872-.653 1.16.07m-1.52 5.459a1.24 1.24 0 0 1-1.017-.219m1.451-4.719a9.3 9.3 0 0 0-.219 2.178c.075.872-.215 1.09-.653.946" stroke="#263238" stroke-width=".413" stroke-linecap="round" stroke-linejoin="round"/>
  <path d="M63.6 58.37c.144 0 .26-.251.26-.562 0-.31-.116-.562-.26-.562s-.26.252-.26.562.116.562.26.562m3.034-.301c.144 0 .26-.252.26-.562s-.116-.562-.26-.562-.26.251-.26.562c0 .31.116.562.26.562m-4.414 61.736a12.46 12.46 0 0 0-9.679 4.612H29.374a6.519 6.519 0 0 0-4.502 11.065 6.52 6.52 0 0 0 4.502 1.965h21.49a12.55 12.55 0 0 0 4.132 5.009l6.938 5.372q.042.03.091.029.047 0 .083-.029l7.616-5.533a12.26 12.26 0 0 0 4.96-10.018 12.49 12.49 0 0 0-12.464-12.472" fill="#263238"/>
  <path d="M28.829 136.331h30.044v-12.74H28.829a6.37 6.37 0 0 0 0 12.74" fill="#fff" stroke="#263238" stroke-width=".413" stroke-linecap="round" stroke-linejoin="round"/>
  <path d="M28.15 128.091h16.11m-16.11 2.033h16.11m-16.11 2.029h16.11" stroke="#263238" stroke-width=".413" stroke-linejoin="round"/>
  <path d="m69.1 141.204-7.616 5.537-6.939-5.372a12.33 12.33 0 0 1-5.164-10.921 12.33 12.33 0 0 1 18.714-9.669 12.34 12.34 0 0 1 5.919 10.531 12.1 12.1 0 0 1-4.914 9.894" fill="#fff" stroke="#263238" stroke-width=".413" stroke-linecap="round" stroke-linejoin="round"/>
  <path d="M50.85 131.223a10.847 10.847 0 1 0 10.85-10.847 10.826 10.826 0 0 0-10.848 10.847Z" fill="#405AE0" stroke="#263238" stroke-width=".413" stroke-linejoin="round"/>
  <path d="M53.343 138.145a10.852 10.852 0 0 0 16.224.55l-5.223-1.165-7.228-.36z" fill="#405AE0" stroke="#263238" stroke-width=".413" stroke-linecap="round" stroke-linejoin="round"/>
  <path d="M58.596 134.538c.47-1.732-.079-4.41-.079-4.41 1.182-1.178 4.724 4.546 4.724 4.546s-.079 1.025 1.103 2.835q.1.159.215.306c-.731 1.173-2.281 3.393-3.442 3.161s-2.976-2.479-4-3.827c1.074-.657 1.12-1.289 1.479-2.611" fill="#fff" stroke="#263238" stroke-width=".413" stroke-linecap="round" stroke-linejoin="round"/>
  <path d="M57.377 127.851s-.55-.082-.629.943.393 1.578.782 1.578h.628q.15.918.413 1.81c.314 1.182.314 1.814 2.835 2.835s3.149.868 3.86-.235c.71-1.104.706-5.116.785-6.848.078-1.732.392-3.719.392-3.719a6 6 0 0 0-1.81-1.261c-1.182-.549-4.802.079-5.905.633-1.104.553-.707 3.384-.707 3.384z" fill="#fff" stroke="#263238" stroke-width=".413" stroke-linecap="round" stroke-linejoin="round"/>
  <path d="M64.868 133.149a3.6 3.6 0 0 1-2.215-.128" stroke="#263238" stroke-width=".413" stroke-linecap="round" stroke-linejoin="round"/>
  <path d="M64.856 128.872c0 .26.107.475.236.475.128 0 .24-.215.24-.475s-.108-.471-.24-.471c-.133 0-.236.211-.236.471m-2.281.314c0 .264.103.475.236.475.132 0 .235-.211.235-.475 0-.265-.103-.471-.235-.471-.133 0-.236.211-.236.471" fill="#263238"/>
  <path d="M65.567 127.376a.79.79 0 0 0-.868-.078m-1.731.235s-.946-.393-1.653.711m2.93.219.297 3.165-1.496.157" stroke="#263238" stroke-width=".413" stroke-linecap="round" stroke-linejoin="round"/>
  <path d="M55.802 122.338c.079-1.26 2.066-.789 3.306-1.26s3.463-1.889 5.352-1.889a2.12 2.12 0 0 1 2.207 1.575l-.083-1.261s1.26.711 1.182 2.046-1.02 2.914-1.653 2.835c-.632-.078-5.984-.314-6.298.475-.314.79.868 2.281.868 2.281-.079.79-1.24.629-1.34.947-.044.761-.018 1.525.08 2.281.005.443-.107.88-.327 1.265-.016.392.1.778.326 1.099a1.93 1.93 0 0 0 1.496.628s1.81-1.653 3.15-1.418c1.338.236 1.652.868 1.652.868h.037q-.055.42-.124.79c-.223-.347-.876-1.195-1.88-1.195-1.24 0-2.6 1.496-2.6 1.496s1.34.864 2.046.864c.707 0 .554-.864 1.025-.785s.314.549.55.549c.295-.053.56-.212.748-.446q-.09.36-.273.682c-.71 1.103-1.339 1.24-3.86.236s-2.52-1.653-2.835-2.835l-.087-.335a9.3 9.3 0 0 1 .377-1.653c.02-.955-.104-1.876-.368-2.195-.413-.475-1.104-.157-1.104-.157s-1.648-4.227-1.57-5.488" fill="#263238" stroke="#263238" stroke-width=".413" stroke-linecap="round" stroke-linejoin="round"/>
</svg>
