<svg width="194" height="182" viewBox="0 0 194 182" fill="none" xmlns="http://www.w3.org/2000/svg">
  <path d="M172.552 65.087a189 189 0 0 0-4.737-19.357c-5.771-18.42-17.256-37.058-36.983-43.324-14.563-4.622-30.28-1.433-42.585 7.987C68.946 25.164 54.899 45.321 33.78 58.112 16.15 68.797 6.923 86.058 12.85 110.457c5.928 24.398 25.73 38.612 47.4 36.886 18.01-1.453 36.84.101 52.41 8.843 13.915 7.81 38.501 1.012 58.84-20.324 11.85-12.437 10.7-28.25 6.838-43.026-2.389-9.151-3.938-18.486-5.786-27.749" fill="#ECF6FC"/>
  <path opacity=".7" d="M172.552 65.087a189 189 0 0 0-4.737-19.357c-5.771-18.42-17.256-37.058-36.983-43.324-14.563-4.622-30.28-1.433-42.585 7.987C68.946 25.164 54.899 45.321 33.78 58.112 16.15 68.797 6.923 86.058 12.85 110.457c5.928 24.398 25.73 38.612 47.4 36.886 18.01-1.453 36.84.101 52.41 8.843 13.915 7.81 38.501 1.012 58.84-20.324 11.85-12.437 10.7-28.25 6.838-43.026-2.389-9.151-3.938-18.486-5.786-27.749" fill="#ECF6FC"/>
  <path d="M193.078 178.463c0 1.579-43.026 2.865-96.084 2.865-53.06 0-96.09-1.286-96.09-2.865s43.026-2.865 96.09-2.865 96.084 1.286 96.084 2.865" fill="#1E42A2"/>
  <path opacity=".3" d="M193.078 178.463c0 1.579-43.026 2.865-96.084 2.865-53.06 0-96.09-1.286-96.09-2.865s43.026-2.865 96.09-2.865 96.084 1.286 96.084 2.865" fill="#fff"/>
  <path d="M139.585 25.604H61.429a3.417 3.417 0 0 0-3.417 3.417v146.334a3.417 3.417 0 0 0 3.417 3.417h78.156a3.416 3.416 0 0 0 3.416-3.417V29.021a3.416 3.416 0 0 0-3.416-3.417Z" fill="#263238" stroke="#263238" stroke-width=".506" stroke-miterlimit="10"/>
  <path d="M106.383 34.756H95.804a1.088 1.088 0 0 1-.416-2.09q.2-.082.416-.081h10.579a1.08 1.08 0 0 1 1.084 1.083q0 .216-.081.416a1.08 1.08 0 0 1-.587.59 1.1 1.1 0 0 1-.416.082" fill="#1E42A2"/>
  <path d="M137.631 165.085H63.383V34.883h17.62l1.98 1.64c.69.576 1.56.892 2.46.89h31.049a3.87 3.87 0 0 0 2.531-.961l1.787-1.57h16.826z" fill="#fff"/>
  <mask id="a" style="mask-type:luminance" maskUnits="userSpaceOnUse" x="63" y="34" width="75" height="132">
    <path d="M137.631 165.085H63.383V34.883h17.62l1.98 1.64c.69.576 1.56.892 2.46.89h31.049a3.87 3.87 0 0 0 2.531-.961l1.787-1.57h16.826z" fill="#fff"/>
  </mask>
  <g mask="url(#a)">
    <path d="M119.018 36.452c-.7.615-1.599.957-2.531.962H85.422a3.83 3.83 0 0 1-2.46-.891l-1.959-1.64h-17.62v14.26h74.248V34.867h-16.826z" fill="#1E42A2"/>
  </g>
  <path d="M137.631 165.085H63.383V34.883h17.62l1.98 1.64c.69.576 1.56.892 2.46.89h31.049a3.87 3.87 0 0 0 2.531-.961l1.787-1.57h16.826z" stroke="#263238" stroke-width=".475" stroke-linecap="round" stroke-linejoin="round"/>
  <path d="M132.103 50.61h-62.97v107.221h62.97z" fill="#fff"/>
  <path d="M102.881 169.109a1.687 1.687 0 0 0-2.018-1.664 1.692 1.692 0 0 0-.613 3.064 1.692 1.692 0 0 0 2.631-1.4m18.087-68.088c11.256-11.256 11.256-29.505 0-40.761s-29.505-11.256-40.761 0-11.256 29.505 0 40.761c11.256 11.255 29.505 11.255 40.761 0" fill="#1E42A2"/>
  <mask id="b" style="mask-type:luminance" maskUnits="userSpaceOnUse" x="71" y="51" width="59" height="59">
    <path d="M120.968 101.021c11.256-11.256 11.256-29.505 0-40.761s-29.505-11.256-40.761 0-11.256 29.505 0 40.761c11.256 11.255 29.505 11.255 40.761 0" fill="#fff"/>
  </mask>
  <g mask="url(#b)">
    <path d="M93.608 85.223s1.756 4.47 1.275 7.664c-.48 3.194-2.237 4.956-6.074 6.87-3.837 1.912-9.9 4.631-10.544 6.549-.643 1.919 0 10.888 0 10.888h46.959s-1.118-9.288-3.513-12.487c-2.394-3.2-11.976-5.746-14.679-7.507-2.703-1.762-1.595-11.82-1.595-11.82s-7.198 2.233-11.83-.157" fill="#fff" stroke="#263238" stroke-width=".506" stroke-linecap="round" stroke-linejoin="round"/>
    <path d="M88.09 100.131c-.87.425-1.827.89-2.783 1.366 1.665 5.062.126 11.496-1.296 15.692h33.256a12.4 12.4 0 0 1-1.058-3.513c-.541-3.801-.182-9.541.071-12.503a85 85 0 0 0-3.447-1.442c-1.665 3.943-5.831 11.602-12.822 10.655-6.93-.926-10.528-7.082-11.92-10.255M85.62 87.78s.952 2.394 4.495 2.87c3.543.475 1.792-4.667 12.26-5.027 7.37-.253.04 5.821 1.64 6.145s5.568-.162 7.826-5.431 2.713-18.689-1.919-23.001-18.223-4.156-20.283-.32c-2.06 3.838-.643 10.54-2.53 14.215-1.889 3.675-2.77 8.63-1.489 10.549" fill="#263238" stroke="#263238" stroke-width=".506" stroke-linecap="round" stroke-linejoin="round"/>
    <path d="M90.116 75.464s-1.276-3.356-1.757-.957 0 4.789 1.119 5.75 1.756.795 1.756.795z" fill="#fff" stroke="#263238" stroke-width=".506" stroke-linecap="round" stroke-linejoin="round"/>
    <path d="M95.142 58.37s-2.698.673-4.5 5.624-.395 17.96.729 19.31c1.124 1.352 4.864 6.966 8.463 7.189 2.293.142 8.044-5.128 8.945-7.826s1.214-14.846.536-17.772-6.297-9.678-14.173-6.525" fill="#fff" stroke="#263238" stroke-width=".506" stroke-linecap="round" stroke-linejoin="round"/>
    <path d="M96.787 74.36a.74.74 0 1 1-1.478 0 .74.74 0 0 1 1.478 0m7.344 0a.74.74 0 0 1-1.261.523.735.735 0 0 1 .112-1.137.74.74 0 0 1 .694-.07q.136.057.24.16a.73.73 0 0 1 .215.525" fill="#263238"/>
    <path d="M96.969 81.948s2.394 1.347 5.826 0m-1.493-4.925s1.048 1.341 0 2.09a2.99 2.99 0 0 1-3.138.147c-.896-.445.151-2.389.151-2.389" stroke="#263238" stroke-width=".506" stroke-linecap="round" stroke-linejoin="round"/>
    <path d="M97.338 70.974a3.39 3.39 0 0 0-3.64-.886c-2.272.76-2.383 2.648-2.383 2.648s1.381-1.762 2.616-1.782 2.992 1.367 3.407.02m4.116.167a3.37 3.37 0 0 1 3.578-1.078c2.314.633 2.531 2.531 2.531 2.531s-1.483-1.68-2.713-1.635c-1.23.046-2.91 1.508-3.396.182" fill="#263238"/>
    <path d="M97.44 62.384s-3.994-1.093-5.594 1.438-.795 7.507-3.194 11.976-.957 11.339-.638 12.3c.32.963-2.075 2.238-3.35-2.555-1.276-4.794 2.394-9.426 2.712-14.376.32-4.95-.804-10.382 4.151-13.257 4.956-2.875 5.912-1.12 5.912-1.12z" fill="#263238" stroke="#263238" stroke-width=".506" stroke-linecap="round" stroke-linejoin="round"/>
    <path d="M117.085 69.896c-.957-2.875-.8-8.15-4.632-12.462-2.404-2.703-7-4.273-10.771-4.364a6.3 6.3 0 0 0-1.848-.106c-6.074.506-9.9 3.675-8.782 6.074s6.388 3.356 6.388 3.356l.8.32a7 7 0 0 1-.03-.816c.86-.4 2.328-.663 3.862.972a16.32 16.32 0 0 1 4.15 10.863c-.157 6.074 2.875 8.307 2.875 10.863s-4.469 5.75-5.431 6.55c-1.063.886 4.05 1.321 4.368 1.3 5.148-.318 8.57-3.68 10.716-8.164 2.526-5.275-.015-9.44-1.665-14.386" fill="#263238" stroke="#263238" stroke-width=".506" stroke-linecap="round" stroke-linejoin="round"/>
    <path d="M111.284 88.99c-.238.39-.545.733-.906 1.012M97.44 61.741s-3.832-2.075-.638-3.67 9.111 3.351 10.539 7.983.319 9.906 2.399 13.576c.982 1.746 2.258 4.642 2.162 7.087" stroke="#fff" stroke-width=".506" stroke-linecap="round" stroke-linejoin="round"/>
    <path d="M94.59 58.902c-.122-.44.121-1.074 1.25-1.95 2.875-2.237 8.15-1.118 10.863 1.757s3.675 6.388 3.994 10.539.956 6.722 3.209 9.253 3.513 5.27 1.276 8.464M94.403 61.741s-4.47-1.913-1.914-4.312m-3.685 30.007c.346.508.782.948 1.286 1.3m-2.232-11.019s-1.124 4.773.212 8.301" stroke="#fff" stroke-width=".506" stroke-linecap="round" stroke-linejoin="round"/>
    <path d="M111.051 60.278a17.5 17.5 0 0 1 2.349 6.895c.638 5.75-1.119 7.668 1.6 10.7a7.03 7.03 0 0 1 1.913 4.637m-7.816-24.92s.233.238.587.689" stroke="#fff" stroke-width=".506" stroke-linecap="round" stroke-linejoin="round"/>
  </g>
  <path d="M123.422 108.928a6.682 6.682 0 1 0 0-13.364 6.682 6.682 0 0 0 0 13.364" fill="#263238"/>
  <path d="M126.803 100.328h-.243a.856.856 0 0 1-.855-.85.857.857 0 0 0-.851-.856h-2.85a.854.854 0 0 0-.855.856.85.85 0 0 1-.525.785.9.9 0 0 1-.325.065h-.243a.856.856 0 0 0-.856.855v3.837a.853.853 0 0 0 .856.856h6.762a.856.856 0 0 0 .851-.856v-3.837a.86.86 0 0 0-.254-.608.86.86 0 0 0-.612-.247m-3.381 5.214a2.72 2.72 0 0 1-2.516-1.676 2.72 2.72 0 0 1 4.773-2.55c.298.448.457.974.456 1.512a2.72 2.72 0 0 1-2.713 2.714" fill="#fff"/>
  <path d="M123.422 104.985a2.157 2.157 0 1 0-.001-4.313 2.157 2.157 0 0 0 .001 4.313" fill="#fff"/>
  <path d="M76.7 118.04h9.365M76.7 141.83h9.365" stroke="#263238" stroke-width=".506" stroke-linecap="round" stroke-linejoin="round"/>
  <path d="M76.7 121.583h34.422M76.7 145.374h34.422" stroke="#263238" stroke-width="1.012" stroke-linecap="round" stroke-linejoin="round"/>
  <path d="M76.7 155.244h9.365" stroke="#263238" stroke-width=".506" stroke-linecap="round" stroke-linejoin="round"/>
  <path d="M76.7 158.788h34.422" stroke="#263238" stroke-width="1.012" stroke-linecap="round" stroke-linejoin="round"/>
  <path d="M76.7 126.645h53.404M76.7 129.176h53.404M76.7 131.707h53.404" stroke="#263238" stroke-width=".506" stroke-linecap="round" stroke-linejoin="round"/>
  <path d="M70.44 118.799a2.025 2.025 0 1 0-.001-4.05 2.025 2.025 0 0 0 0 4.05m.001.506c-1.737 0-3.17 1.103-3.387 2.531h6.767c-.217-1.428-1.65-2.531-3.38-2.531m-.208 34.421a3.16 3.16 0 0 0-3.103 3.78 3.16 3.16 0 0 0 2.485 2.486 3.16 3.16 0 0 0 3.248-1.345 3.164 3.164 0 0 0-2.63-4.921m-1.114.84.425-.284a.11.11 0 0 1 .142.031l.744 1.215a.1.1 0 0 1 .014.038.1.1 0 0 1-.001.04.1.1 0 0 1-.018.037.1.1 0 0 1-.03.026l-.476.279a.1.1 0 0 1-.077.008.1.1 0 0 1-.06-.049l-.693-1.21a.1.1 0 0 1 .03-.131m2.313 4.657c-.169.099-.36.153-.557.157-.319 0-.622-.309-.941-.628a10.4 10.4 0 0 1-1.164-1.716 3.27 3.27 0 0 1-.38-1.772c.09-.214.248-.392.45-.506a.1.1 0 0 1 .147.036l.633 1.078a.095.095 0 0 1 0 .121.7.7 0 0 0-.157.279c0 .432.142.852.405 1.194.289.345.542.507.683.507a.8.8 0 0 0 .193 0 .1.1 0 0 1 .066.006.1.1 0 0 1 .05.044l.618 1.068a.1.1 0 0 1-.046.132m.785-.39-.476.278a.1.1 0 0 1-.077.008.1.1 0 0 1-.06-.048l-.693-1.21a.1.1 0 0 1 .03-.131l.446-.264a.11.11 0 0 1 .141.031l.745 1.215a.1.1 0 0 1-.056.121m-1.843-17.878a2.716 2.716 0 0 0-2.666 3.248 2.72 2.72 0 0 0 3.706 1.981 2.72 2.72 0 0 0 1.678-2.511 2.724 2.724 0 0 0-2.718-2.718m.258 4.358a.4.4 0 0 1-.096.283.34.34 0 0 1-.248.102.36.36 0 0 1-.253-.102.4.4 0 0 1-.096-.283v-2.02a.4.4 0 0 1 .096-.283.34.34 0 0 1 .389-.08.3.3 0 0 1 .112.08.38.38 0 0 1 .096.283zm-.055-3.037a.45.45 0 0 1-.583 0 .36.36 0 0 1-.111-.279.35.35 0 0 1 .111-.273.4.4 0 0 1 .294-.106.4.4 0 0 1 .288.106.35.35 0 0 1 .112.273.36.36 0 0 1-.091.284z" fill="#263238"/>
  <path d="M48.182 143.556s-5.74 3.933-7.314 6.409-5.852 8.888-8.772 10.69-7.426.223-7.988 1.909.562 4.611.334 6.074-.785 5.401.567 6.975 2.698 1.574 2.81.901c.11-.673 0-4.161 1.35-6.525 1.352-2.364 3.6-5.735 11.476-11.359s11.698-9.45 13.384-11.252.45-4.389.45-4.389" fill="#fff"/>
  <path d="M48.182 143.556s-5.74 3.933-7.314 6.409-5.852 8.888-8.772 10.69-7.426.223-7.988 1.909.562 4.611.334 6.074-.785 5.401.567 6.975 2.698 1.574 2.81.901c.11-.673 0-4.161 1.35-6.525 1.352-2.364 3.6-5.735 11.476-11.359s11.698-9.45 13.384-11.252.45-4.389.45-4.389" stroke="#263238" stroke-width=".506" stroke-linecap="round" stroke-linejoin="round"/>
  <path d="M48.182 143.556s-5.74 3.933-7.315 6.409c-1.574 2.475-5.851 8.888-8.772 10.69a5.7 5.7 0 0 1-1.488.618 9.53 9.53 0 0 0 1.22 4.961c1.71-1.964 4.363-4.425 8.818-7.593 7.87-5.629 11.698-9.451 13.383-11.253 1.686-1.802.45-4.388.45-4.388z" fill="#263238" stroke="#263238" stroke-width=".506" stroke-linecap="round" stroke-linejoin="round"/>
  <path d="M26.806 169.878c.288-2.025 1.564-6.919 1.928-8.296-2.196.172-4.257-.122-4.626.982-.562 1.69.562 4.611.334 6.074s-.785 5.401.567 6.975c1.351 1.575 2.698 1.575 2.81.901.065-.379.055-1.66.278-3.123a3.9 3.9 0 0 1-1.291-3.513" fill="#1E42A2" stroke="#263238" stroke-width=".506" stroke-linecap="round" stroke-linejoin="round"/>
  <path d="M25.009 172.014c0-2.024.562-3.487.111-6.297a7.6 7.6 0 0 1 .37-3.963c-.709.101-1.215.314-1.382.81-.562 1.69.562 4.611.334 6.074s-.785 5.401.567 6.975c.42.53.967.946 1.59 1.21-1.337-1.189-1.59-3.042-1.59-4.809" fill="#fff" stroke="#263238" stroke-width=".506" stroke-linecap="round" stroke-linejoin="round"/>
  <path d="M33.381 93.51c.122-.208.233-.416.34-.613q-.159.295-.34.612m.714-1.341c.09-.177.167-.34.243-.506a4 4 0 0 1-.243.506m-1.145 2.106.34-.603zm1.433-2.688c.071-.162.137-.314.188-.45-.051.136-.137.288-.188.45m16.401 2.389v-.364q-.015.163 0 .364m2.794 23.032c-.506-3.22-2.359-9-1.797-12.037.41-2.223-.324-6.312-.744-9.051-9.911 1.043-15.52-.45-18.137-1.554-1.655 2.895-3.968 6.864-4.97 10.944-1.458 5.963-2.36 10.685-.562 14.735s3.492 13.935 3.153 17.985-2.364 6.302-1.913 9.45c.45 3.149 2.581 9.871 3.482 12.007s1.691 10.124 1.691 10.124a26 26 0 0 0-1.352 4.976c-.222 2.025 1.408 2.809 3.721 4.049s7.3 3.827 8.099 2.066-2.9-5.963-4.773-9.031c-1.873-3.067-1.797-7.507-2.025-12.224-.279-5.406-.046-16.73-.046-20.106s3.71-21.022 3.71-21.022 2.248 9.111 4.05 13.5 1.863 12.336 3.888 14.138 6.074 2.247 6.074-2.025.213-16.304-1.549-26.924M50.83 94.436c0-.147-.03-.294-.04-.42.01.126.02.268.04.42m.156 1.174c0-.157-.04-.303-.066-.45.026.147.046.293.066.45M27.752 78.551l.076-.106zm-.333.456.146-.197zm.187-.263a3 3 0 0 1 .126-.167z" fill="#263238" stroke="#263238" stroke-width=".506" stroke-linecap="round" stroke-linejoin="round"/>
  <path d="M40.949 119.072s1.518-5.998.895-8.043c-.622-2.045-3.194-6.13-3.194-6.13m4.47 6.894s4.212-2.298 5.234-4.723m-3.447 4.212s3.194-1.661 4.728-4.596" stroke="#fff" stroke-width=".38" stroke-linecap="round" stroke-linejoin="round"/>
  <path d="M56.615 70.549c-1.685-3.149-3.148-4.161-5.173-4.5s-5.851.227-7.648-.901c-1.797-1.13-1.802-6.075-1.575-6.409s-5.512-.116-5.512-.116.785 5.512.334 6.641c-.45 1.129-2.607 1.595-5.284 1.595a7.48 7.48 0 0 0-6.637 4.272c-1.351 2.698-12.33 18.83-12.33 18.83s-.638.724-.598 1.012l4 .679c3.937-2.91 11.738-13.313 11.738-13.313l.79-.445s1.35 4.834 3.71 6.858c2.358 2.025 3.037 3.939 2.14 6.414a26 26 0 0 1-1.67 3.23c2.617 1.103 8.226 2.596 18.137 1.553a18 18 0 0 1-.268-2.308c0-1.802-.111-5.29-.111-7.537 0-2.248 2.247-4.277 1.574-6.525a27 27 0 0 1-.901-4.16l1.124-1.352s3.588 6.241 4.839 7.623c2.556 2.825 5.623 5.765 6.185 5.426s1.914-.79 1.463-3.826c-.45-3.038-6.636-9.593-8.327-12.741" fill="#fff" stroke="#263238" stroke-width=".506" stroke-linecap="round" stroke-linejoin="round"/>
  <path d="M50.769 93.687c-2.592.374-9.78 1.068-16.755-1.316a59 59 0 0 1-1.342 2.414c1.757.734 7.229 2.8 12.245 2.339 3.265-.304 5.097-.866 6.074-1.321q-.173-1.051-.222-2.116" fill="#1E42A2" stroke="#263238" stroke-width=".506" stroke-linecap="round" stroke-linejoin="round"/>
  <path d="M50.834 94.512q-.056-.45-.065-.901c0-1.802-.112-5.29-.112-7.537 0-2.248 2.248-4.278 1.575-6.525a27 27 0 0 1-.901-4.161l.096-.117c-1.392-2.895-2.43-7.638-2.78-9.359-.632 0-1.28 0-1.903-.056-.035 1.889-.577 6.075-4.636 6.829-4.247.815-8.059-3.959-9.395-5.867H31.37a18.26 18.26 0 0 1 1.62 8.54c-.248 3.953-1.949 5.638-2.789 6.24a10.2 10.2 0 0 0 2.227 3.094c2.364 2.025 3.038 3.938 2.142 6.413a16 16 0 0 1-1.013 2.025 22.95 22.95 0 0 0 17.276 1.382" fill="#1E42A2" stroke="#263238" stroke-width=".506" stroke-linecap="round" stroke-linejoin="round"/>
  <path d="M39.749 85.588s2.278-.506 6.834-2.025" stroke="#263238" stroke-width=".506" stroke-linecap="round" stroke-linejoin="round"/>
  <path d="M16.611 88.939s1.645 2.758 6.484 4.555 7.76 1.575 7.76 1.575 2.567-3.913 3.149-3.913 5.33 1.777 5.239 2.025.445.506-.4.354-2.997-.936-3.306-.982c-.308-.046 3.078 2.278 3.392 2.46s.268.76-.046.805c-.313.045-3.66-1.61-3.66-1.61l3.26 2.025s.178.36-.4.445c-.576.086-3.619-1.564-3.619-1.564l2.455 2.055s.269.405-.506.314c-.774-.09-2.769-1.518-2.769-1.518a7.4 7.4 0 0 1-2.591 1.655c-1.473.506-5.492-.673-8.575-1.013s-8.798-1.908-10.17-3.38c-1.371-1.474.714-3.711.714-3.711" fill="#fff"/>
  <path d="M16.611 88.939s1.645 2.758 6.484 4.555 7.76 1.575 7.76 1.575 2.567-3.913 3.149-3.913 5.33 1.777 5.239 2.025.445.506-.4.354-2.997-.936-3.306-.982c-.308-.046 3.078 2.278 3.392 2.46s.268.76-.046.805c-.313.045-3.66-1.61-3.66-1.61l3.26 2.025s.178.36-.4.445c-.576.086-3.619-1.564-3.619-1.564l2.455 2.055s.269.405-.506.314c-.774-.09-2.769-1.518-2.769-1.518a7.4 7.4 0 0 1-2.591 1.655c-1.473.506-5.492-.673-8.575-1.013s-8.798-1.908-10.17-3.38c-1.371-1.474.714-3.711.714-3.711" stroke="#263238" stroke-width=".506" stroke-linecap="round" stroke-linejoin="round"/>
  <path d="M60.665 83.872s-1.489 3.467-2.531 5.385c-1.043 1.919-3.852 5.887-4.116 6.221-.23.25-.533.418-.865.481 0 0-.476-1.341-1.053-2.779a2.146 2.146 0 0 0-2.78-1.371s-.809.41-.505.648c.303.237 1.28.177 1.64.177.303.06.58.212.794.435 0 0-2.308.101-2.389.456-.08.354.203.46.876.46a6 6 0 0 1 1.741.162c.198.117-2.298.213-2.576.73-.279.515 1.559.212 2.024.298a.79.79 0 0 1 .72.784s-1.869-.425-2.228.132c-.288.44.896.47 1.114.531.784.223.577 1.048 1.053 1.696.404.552.506.846 1.33.846 1.393 0 5.285-5.103 7.31-7.006s4.89-4.733 5.366-6.201-.916-3.736-1.235-3.817" fill="#fff"/>
  <path d="M60.665 83.872s-1.489 3.467-2.531 5.385c-1.043 1.919-3.852 5.887-4.116 6.221-.23.25-.533.418-.865.481 0 0-.476-1.341-1.053-2.779a2.146 2.146 0 0 0-2.78-1.371s-.809.41-.505.648c.303.237 1.28.177 1.64.177.303.06.58.212.794.435 0 0-2.308.101-2.389.456-.08.354.203.46.876.46a6 6 0 0 1 1.741.162c.198.117-2.298.213-2.576.73-.279.515 1.559.212 2.024.298a.79.79 0 0 1 .72.784s-1.869-.425-2.228.132c-.288.44.896.47 1.114.531.784.223.577 1.048 1.053 1.696.404.552.506.846 1.33.846 1.393 0 5.285-5.103 7.31-7.006s4.89-4.733 5.366-6.201-.916-3.736-1.235-3.817" stroke="#263238" stroke-width=".506" stroke-linecap="round" stroke-linejoin="round"/>
  <path d="M53.163 95.96c.204.777.325 1.575.36 2.379z" fill="#fff"/>
  <path d="M53.163 95.96c.204.777.325 1.575.36 2.379m-1.069-24.302 2.03-1.828M28.72 77.863l2.652-.931" stroke="#263238" stroke-width=".506" stroke-linecap="round" stroke-linejoin="round"/>
  <path d="M31.144 62.379s.75 1.362 2.88 1.397.734-2.92 6.965-3.893c4.384-.683.44 3.478 1.423 3.544.982.066 3.325-.507 4.282-3.812s.268-11.364-2.81-13.606c-3.077-2.243-11.18-1.16-12.148 1.28-.967 2.44.38 6.343-.506 8.676s-.987 5.361-.086 6.414" fill="#263238" stroke="#263238" stroke-width=".506" stroke-linecap="round" stroke-linejoin="round"/>
  <path d="M32.915 54.71s-1.012-1.908-1.118-.445.349 2.865 1.083 3.356 1.108.35 1.108.35z" fill="#fff" stroke="#263238" stroke-width=".506" stroke-linecap="round" stroke-linejoin="round"/>
  <path d="M34.707 44.12s-1.564.598-2.283 3.686 1.063 10.761 1.833 11.485c.769.724 3.411 3.807 5.568 3.68 1.377-.076 4.434-3.644 4.778-5.32.344-1.675-.35-8.96-.967-10.66-.617-1.701-4.454-5.325-8.929-2.87" fill="#fff" stroke="#263238" stroke-width=".506" stroke-linecap="round" stroke-linejoin="round"/>
  <path d="M37.102 53.526c0 .243-.699-.107-.947-.122s-.967.248-.952 0 .73-.4.977-.384c.248.015.937.258.922.506m4.12-.679a.444.444 0 0 1-.385.506.45.45 0 0 1-.506-.39.446.446 0 0 1 .881-.105z" fill="#263238"/>
  <path d="M38.322 57.93a4.3 4.3 0 0 0 3.295-1.2m-1.878-1.914s.718.73.151 1.25a1.79 1.79 0 0 1-1.862.314c-.572-.202-.086-1.437-.086-1.437" stroke="#263238" stroke-width=".506" stroke-linecap="round" stroke-linejoin="round"/>
  <path d="M37.41 52.346a2.02 2.02 0 0 0-1.933-1.154 1.94 1.94 0 0 0-1.843 1.099s1.109-.765 1.823-.562c.713.202 1.478 1.316 1.953.617m1.676-1.806a2.025 2.025 0 0 1 2.06-.902 1.93 1.93 0 0 1 1.69 1.316s-1.012-.9-1.735-.78c-.724.122-1.605 1.124-2.015.365" fill="#263238"/>
  <path d="M36.368 46.348s-2.465-.375-3.235 1.265.066 4.556-1.043 7.39c-1.108 2.835.248 6.844.507 7.396.258.552-1.079 1.483-2.192-1.286s.749-5.806.582-8.787-1.23-6.145 1.518-8.22c2.75-2.076 3.448-1.094 3.448-1.094z" fill="#263238" stroke="#263238" stroke-width=".506" stroke-linecap="round" stroke-linejoin="round"/>
  <path d="M48.653 49.416c-.785-1.65-1.068-4.81-3.67-7.087-1.63-1.438-4.495-2.025-6.752-1.828a3.8 3.8 0 0 0-1.114.071c-3.589.724-5.65 2.91-4.809 4.262.84 1.352 4.05 1.519 4.05 1.519l.506.137a4 4 0 0 1-.076-.507c.506-.298 1.346-.561 2.379.304a9.8 9.8 0 0 1 3.265 6.186c.344 3.64 2.323 4.758 2.505 6.282.183 1.523-2.257 3.76-2.768 4.307-.512.547 2.495.507 2.703.466 3.037-.567 4.854-2.82 5.81-5.654 1.135-3.326-.688-5.624-2.03-8.458" fill="#263238" stroke="#263238" stroke-width=".506" stroke-linecap="round" stroke-linejoin="round"/>
  <path d="M46.582 61.245c-.114.251-.272.48-.465.678m-9.795-15.955s-2.44-.961-.648-2.146c1.792-1.184 5.685 1.341 6.88 4.004 1.194 2.663.906 5.897 2.414 7.942.714.972 1.686 2.607 1.802 4.085" stroke="#fff" stroke-width=".253" stroke-linecap="round" stroke-linejoin="round"/>
  <path d="M34.434 44.48c-.106-.258 0-.653.603-1.26 1.559-1.544 4.788-1.256 6.616.263s2.657 3.543 3.148 6.013 1.058 3.939 2.581 5.3c1.524 1.362 2.48 2.896 1.377 4.966M34.51 46.186s-2.81-.82-1.458-2.435m-.03 18.193c.244.278.538.51.866.683m-2.137-6.398s-.324 2.936.729 4.95" stroke="#fff" stroke-width=".253" stroke-linecap="round" stroke-linejoin="round"/>
  <path d="M44.35 44.11a10.5 10.5 0 0 1 1.909 3.949c.8 3.386-.111 4.662 1.731 6.277a4.24 4.24 0 0 1 1.478 2.632m-6.479-14.325s.157.126.4.37" stroke="#fff" stroke-width=".253" stroke-linecap="round" stroke-linejoin="round"/>
  <path d="M38.66 169.99a8.05 8.05 0 0 1-4.914-.694c0 .213.035.334.035.334a26 26 0 0 0-1.352 4.976c-.222 2.025 1.408 2.809 3.721 4.05s7.3 3.826 8.099 2.065-2.9-5.963-4.773-9.031a9.6 9.6 0 0 1-.815-1.7" fill="#fff" stroke="#263238" stroke-width=".506" stroke-linecap="round" stroke-linejoin="round"/>
  <path d="M39.116 177.056c-2.43-.698-5.122-3.543-6.195-4.773a15.4 15.4 0 0 0-.507 2.323c-.222 2.025 1.408 2.809 3.72 4.05 2.314 1.24 7.3 3.826 8.1 2.065.425-.942-.43-2.577-1.605-4.358-.49.784-1.533 1.255-3.513.693" fill="#1E42A2" stroke="#263238" stroke-width=".506" stroke-linecap="round" stroke-linejoin="round"/>
  <path d="M36.798 177.947a35.6 35.6 0 0 1-4.389-2.966c0 1.751 1.58 2.531 3.74 3.695 2.32 1.26 7.3 3.827 8.1 2.065.099-.242.134-.505.101-.764-2.384 1.088-4.46-.274-7.552-2.03" fill="#fff" stroke="#263238" stroke-width=".506" stroke-linecap="round" stroke-linejoin="round"/>
</svg>
