<svg xmlns="http://www.w3.org/2000/svg" width="208" height="208" fill="none">
  <path fill="#ECF6FC" d="M198.241 92.252c2.546-22.401-5.03-44.899-20.929-60.886-7.821-7.858-18.512-15.263-32.719-18.84-39.844-10.03-65.665-.845-78.574 23.57s-49.953 20.205-55.844 62.3 22.73 88.388 71.278 90.921c48.547 2.534 42.299-21.632 68.856-32.007 20.309-7.929 44.129-31.624 47.932-65.058"/>
  <path fill="#ECF6FC" d="M198.241 92.252c2.546-22.401-5.03-44.899-20.929-60.886-7.821-7.858-18.512-15.263-32.719-18.84-39.844-10.03-65.665-.845-78.574 23.57s-49.953 20.205-55.844 62.3 22.73 88.388 71.278 90.921c48.547 2.534 42.299-21.632 68.856-32.007 20.309-7.929 44.129-31.624 47.932-65.058" opacity=".7"/>
  <path stroke="#263238" stroke-linecap="round" stroke-linejoin="round" stroke-width=".416" d="m182.341 142.185-.944.952-6.016 6.016-6.019-6.016-.949-.952a4.26 4.26 0 0 1-.922-4.636 4.26 4.26 0 0 1 3.93-2.626 4.25 4.25 0 0 1 3.008 1.246l.952.953.949-.953a4.254 4.254 0 0 1 7.258 3.009 4.26 4.26 0 0 1-1.247 3.007M29.515 152.98l.89 2.733h2.88l-2.33 1.693.89 2.737-2.33-1.693-2.325 1.693.89-2.737-2.33-1.693h2.88zm8.961 0 .89 2.733h2.875l-2.326 1.693.886 2.737-2.325-1.693-2.33 1.693.89-2.737-2.325-1.693h2.875zm8.956 0 .89 2.733h2.875l-2.326 1.693.89 2.737-2.329-1.693-2.325 1.693.886-2.737-2.326-1.693h2.875zm8.961 0 .886 2.733h2.879l-2.33 1.693.89 2.737-2.325-1.693-2.33 1.693.89-2.737-2.329-1.693h2.879zm8.957 0 .886 2.733h2.878l-2.325 1.693.886 2.737-2.326-1.693-2.33 1.693.891-2.737-2.33-1.693h2.88zm86.49-123.748h29.536a1.83 1.83 0 0 1 1.83 1.83v20.01h-33.188v-20.01a1.833 1.833 0 0 1 1.822-1.83"/>
  <path stroke="#263238" stroke-linecap="round" stroke-linejoin="round" stroke-width=".416" d="M152.834 29.99h27.556a1.665 1.665 0 0 1 1.664 1.663v18.662H151.17V31.653a1.665 1.665 0 0 1 1.664-1.664Zm-4.959 21.14h37.47a1.99 1.99 0 0 1-1.985 1.989h-33.496a1.99 1.99 0 0 1-1.989-1.988ZM43.788 24.328H31.882c-.997 0-1.805.808-1.805 1.805v27.419c0 .997.808 1.805 1.805 1.805h11.906c.997 0 1.806-.808 1.806-1.805V26.133c0-.997-.809-1.805-1.806-1.805"/>
  <path stroke="#263238" stroke-linecap="round" stroke-linejoin="round" stroke-width=".416" d="M30.077 51.547v1.726c0 1.152.77 2.08 1.722 2.08h12.064c.953 0 1.722-.932 1.722-2.08v-1.727zM45.59 28.138v-1.726c0-1.152-.77-2.08-1.723-2.08H31.803c-.953 0-1.722.932-1.722 2.08v1.726h15.508Z"/>
  <path fill="#263238" stroke="#263238" stroke-linecap="round" stroke-linejoin="round" stroke-width=".416" d="M137.488 124.205v-17.293a2.15 2.15 0 0 1 1.383-1.942c.264-.1.544-.147.826-.138h2.658l-.345-5.5 4.514 5.5h10.724a2.14 2.14 0 0 1 1.536.582 2.15 2.15 0 0 1 .673 1.498v17.31a2.15 2.15 0 0 1-.673 1.498 2.14 2.14 0 0 1-1.536.582h-17.551a2.14 2.14 0 0 1-1.542-.588 2.15 2.15 0 0 1-.667-1.509"/>
  <path fill="#fff" stroke="#263238" stroke-linecap="round" stroke-linejoin="round" stroke-width=".416" d="M144.265 113.048s3.244-.416 3.956-.711c.711-.296 1.926-1.115 1.518-3.245s.416-1.926 1.219-1.623c.803.304 1.419 1.926 1.319 2.738a8.7 8.7 0 0 0 .1 2.03s3.744.303 4.056.416.416 1.115.416 1.622 0 1.319-.416 1.523-1.115.507-1.115.507-.508 3.041-.608 3.744 0 1.319-.811 1.623a3.84 3.84 0 0 1-2.13.104c-.711-.104-7.808-.712-7.808-.712z"/>
  <path fill="#1E42A2" stroke="#263238" stroke-linecap="round" stroke-linejoin="round" stroke-width=".416" d="M145.38 112.133h-5.983v10.446h5.983z"/>
  <path fill="#fff" stroke="#263238" stroke-linecap="round" stroke-linejoin="round" stroke-width=".416" d="M167.698 67.542h-21.42a2.08 2.08 0 0 0-2.08 2.08v3.665l-5.504-.325 5.504 4.218v4.194a2.08 2.08 0 0 0 2.08 2.08h21.42a2.08 2.08 0 0 0 2.08-2.08V69.605a2.08 2.08 0 0 0-2.08-2.063"/>
  <path fill="#263238" stroke="#263238" stroke-linecap="round" stroke-linejoin="round" stroke-width=".416" d="m153.437 78.807-.911 9.427 4.46-3.649 4.364 3.449-1.627-9.734z"/>
  <path fill="#1E42A2" stroke="#263238" stroke-linecap="round" stroke-linejoin="round" stroke-width=".416" d="M163.072 73.083c0-.753.69-1.61.47-2.288-.221-.678-1.298-.99-1.726-1.577-.429-.586-.375-1.697-.966-2.13-.59-.432-1.618-.033-2.325-.262-.707-.228-1.277-1.152-2.034-1.152s-1.352.932-2.034 1.152c-.683.22-1.735-.166-2.322.262-.586.429-.536 1.536-.969 2.13-.433.595-1.498.87-1.726 1.577-.229.707.47 1.535.47 2.288s-.691 1.61-.47 2.292 1.302.99 1.726 1.577c.424.586.374 1.697.969 2.13s1.618.033 2.322.262c.703.229 1.281 1.152 2.034 1.152s1.352-.932 2.034-1.152 1.735.166 2.325-.262.533-1.535.966-2.13 1.497-.87 1.726-1.577-.47-1.535-.47-2.292"/>
  <path fill="#fff" stroke="#263238" stroke-linecap="round" stroke-linejoin="round" stroke-width=".416" d="M157.329 78.833a5.803 5.803 0 1 0-1.727-11.477 5.803 5.803 0 0 0 1.727 11.477"/>
  <path fill="#263238" d="M156.154 76.49v-5.504l-.212.1-.25.108-.258.108-.224.1v-1.056l.262-.142q.172-.087.37-.2c.133-.074.25-.15.366-.224a1.7 1.7 0 0 0 .254-.204h1.119v6.914z"/>
  <path fill="#fff" stroke="#263238" stroke-linecap="round" stroke-linejoin="round" stroke-width=".416" d="M140.263 20.521h-21.42a2.08 2.08 0 0 0-2.08 2.08v9.29a2.08 2.08 0 0 0 2.08 2.08h1.339l-1.743 4.576 4.851-4.576h16.973a2.083 2.083 0 0 0 2.08-2.08v-9.306a2.08 2.08 0 0 0-2.08-2.063Z"/>
  <path fill="#263238" d="M125.062 28.234a.836.836 0 1 0 0-1.672.836.836 0 0 0 0 1.672m4.177 0a.836.836 0 1 0 0-1.672.836.836 0 0 0 0 1.672m4.176 0a.837.837 0 1 0 0-1.674.837.837 0 0 0 0 1.674"/>
  <path fill="#263238" stroke="#263238" stroke-linecap="round" stroke-linejoin="round" stroke-width=".416" d="m87.131 45.173-4.347-2.454v-4.834a2.08 2.08 0 0 0-2.08-2.08H55.328a2.08 2.08 0 0 0-2.08 2.08v10.729a2.08 2.08 0 0 0 2.08 2.08h25.376a2.08 2.08 0 0 0 2.08-2.08v-3.062z"/>
  <path fill="#fff" d="m57.803 40.964.516 1.584h1.66l-1.344.974.512 1.58-1.344-.973-1.343.974.511-1.581-1.343-.974h1.663zm5.175 0 .516 1.584h1.66l-1.344.974.516 1.58-1.348-.973-1.343.974.515-1.581-1.347-.974h1.664zm5.179 0 .512 1.584h1.664l-1.348.974.516 1.58-1.344-.973-1.347.974.515-1.581-1.347-.974h1.664zm5.175 0 .512 1.584h1.664l-1.343.974.511 1.58-1.344-.973-1.347.974.516-1.581-1.344-.974h1.66l.516-1.584Zm5.175 0 .516 1.584h1.66l-1.344.974.512 1.58-1.344-.973-1.343.974.511-1.581-1.343-.974h1.664z"/>
  <path fill="#fff" stroke="#263238" stroke-linecap="round" stroke-linejoin="round" stroke-width=".416" d="M59.488 78.978h-6.494v-3.445a2.08 2.08 0 0 0-2.08-2.08h-16a2.08 2.08 0 0 0-2.08 2.08v9.306a2.08 2.08 0 0 0 2.08 2.08h16.017a2.08 2.08 0 0 0 2.08-2.08v-2.966z"/>
  <path fill="#1E42A2" stroke="#263238" stroke-linecap="round" stroke-linejoin="round" stroke-width=".416" d="m47.15 80.637-.633.637-3.994 3.998-4.001-3.998-.633-.637a2.825 2.825 0 1 1 3.998-3.993l.636.632.629-.632a2.826 2.826 0 0 1 3.998 3.993"/>
  <path fill="#fff" stroke="#263238" stroke-linecap="round" stroke-linejoin="round" stroke-width=".416" d="M42.523 102.502h23.271a2.47 2.47 0 0 1 2.229 1.6c.114.303.166.626.155.95v1.86l6.207-2.575-6.207 7.392v17.976a2.473 2.473 0 0 1-2.383 2.55H42.523a2.47 2.47 0 0 1-2.383-2.55v-24.653a2.46 2.46 0 0 1 1.446-2.33c.295-.134.614-.209.938-.22Z"/>
  <path fill="#263238" stroke="#263238" stroke-linecap="round" stroke-linejoin="round" stroke-width=".416" d="M52.466 120.956a7.708 7.708 0 1 0 0-15.417 7.709 7.709 0 0 0 0 15.417"/>
  <path fill="#fff" d="M52.333 119.055v-1.123a2.3 2.3 0 0 1-1.748-.753 3.44 3.44 0 0 1-.628-2.143l1.73-.258q.001.48.1.949c.038.195.13.376.267.52a.6.6 0 0 0 .416.158.42.42 0 0 0 .416-.212c.065-.142.097-.297.096-.454a1.66 1.66 0 0 0-.263-.956 4 4 0 0 0-.72-.799l-.802-.691a7 7 0 0 1-.616-.628 2.6 2.6 0 0 1-.445-.744 2.7 2.7 0 0 1-.17-1.016 2.27 2.27 0 0 1 .615-1.684 2.54 2.54 0 0 1 1.664-.691v-1.073h.579v1.061c.371.005.735.11 1.052.303.25.163.456.388.595.653.13.263.221.543.27.832q.072.401.084.807l-1.752.217q0-.417-.05-.712a1.06 1.06 0 0 0-.158-.47.42.42 0 0 0-.383-.154.46.46 0 0 0-.416.238.94.94 0 0 0-.137.474c-.016.316.083.628.279.878q.278.337.603.628l.77.665q.38.349.707.749c.217.265.39.563.516.882.134.358.198.737.191 1.119.004.381-.081.757-.25 1.098a2.1 2.1 0 0 1-.71.812 2.46 2.46 0 0 1-1.107.378v1.132z"/>
  <path fill="#1E42A2" stroke="#263238" stroke-linecap="round" stroke-linejoin="round" stroke-width=".416" d="m66.348 113.451-5.196 1.781 1.43 1.248-7.28 8.32-4.384-2.417a.83.83 0 0 0-.907.071l-6.88 5.258a.831.831 0 1 0 1.01 1.323l6.461-4.942 4.493 2.475a.834.834 0 0 0 1.027-.179l7.725-8.807 1.432 1.248z"/>
  <path fill="#263238" stroke="#263238" stroke-linecap="round" stroke-linejoin="round" stroke-width=".416" d="M88.342 117.125s1.81 34.528 2.716 41.525 2.717 17.206 2.717 17.206-1.294.907-1.552 1.813c-.258.907.129 4.269.129 4.269l9.443.644s.387-2.325.387-7.633v-7.904c0-1.032 1.556-45.278 1.556-45.278l1.161 45.411s-.387 14.098.262 14.356c.638.33 1.244.72 1.809 1.165l8.279-.258c.35-1.53.567-3.088.649-4.655 0-1.814-1.165-5.304-1.036-7.247s3.494-17.721 3.494-20.438v-42.295H88.608z"/>
  <path fill="#fff" stroke="#263238" stroke-linecap="round" stroke-linejoin="round" stroke-width=".416" d="M100.888 181.938s-3.49-2.975-5.042-2.717-2.978 1.165-3.107 1.552c-.13.387-1.036 1.165-1.294 1.938-.258.774-4.397 4.66-5.304 5.695s-1.552 1.165-.774 1.81a3.75 3.75 0 0 0 1.664.778h14.764s.52-1.165.387-3.494-.387-4.918-.387-4.918z"/>
  <path fill="#fff" stroke="#263238" stroke-linecap="round" stroke-linejoin="round" stroke-width=".416" d="M85.022 189.696c0 .15.092.304.345.516a3.75 3.75 0 0 0 1.664.778h14.764q.238-.628.312-1.294zm22.002-7.758s3.291-2.975 4.755-2.717c1.465.258 2.804 1.165 2.912 1.552s.974 1.165 1.219 1.938c.246.774 4.16 4.66 4.992 5.695s1.464 1.165.732 1.81a3.4 3.4 0 0 1-1.585.778h-13.894s-.487-1.165-.366-3.494c.12-2.33.366-4.918.366-4.918z"/>
  <path fill="#fff" stroke="#263238" stroke-linecap="round" stroke-linejoin="round" stroke-width=".416" d="M121.975 189.696c0 .15-.087.304-.324.516a3.44 3.44 0 0 1-1.585.778h-13.894a5.8 5.8 0 0 1-.296-1.294zM99.245 61.43l-3.744 3.179.674 43.913h16.178s.77-44.878.483-45.552-2.022-1.348-2.022-1.348l-11.569-.191Z"/>
  <path fill="#1E42A2" stroke="#263238" stroke-linecap="round" stroke-linejoin="round" stroke-width=".416" d="m126.684 80.563 6.436 1.78s-6.519-11.956-7.704-14.822c-.928-2.238-2.08-2.912-2.559-3.09-2.467-1.594-12.039-2.809-12.039-2.809l-.749 21.927-1.144 36.392h13.616s-1.148-12.85-1.78-16.923l-.895-5.728s1.103-8.736 2.08-17.102l4.738.374Z"/>
  <path stroke="#263238" stroke-linecap="round" stroke-linejoin="round" stroke-width=".416" d="M112.32 89.207a17.6 17.6 0 0 1-1.581 3.153m2.084-29.39 2.263 5.038-1.859 2.017 2.945 3.565s-1.148 7.767-3.174 13.782"/>
  <path fill="#fff" stroke="#263238" stroke-linecap="round" stroke-linejoin="round" stroke-width=".416" d="M98.139 50.781s-1.211-1.664-2.08-.47c-.87 1.194 2.42 5.316 2.42 5.316zm13.998 0s1.211-1.664 2.08-.47-2.421 5.316-2.421 5.316z"/>
  <path fill="#fff" stroke="#263238" stroke-linecap="round" stroke-linejoin="round" stroke-width=".416" d="M97.868 49.841s.74 7.738.878 9.085c.137 1.348.603 4.24 1.144 5.246s4.239 4.78 5.246 4.377c1.006-.404 4.509-4.04 5.453-5.117.945-1.078.604-3.029.741-3.499s.67-5.112.67-5.112l.32-4.901s.137-.47-.067-3.499c-.203-3.028-.199-4.376-.536-5.116s-1.211-1.144-2.762-1.548c-1.552-.403-5.246-.333-7.534.811s-3.432 2.758-3.499 3.362c-.066.603-.054 5.911-.054 5.911"/>
  <path stroke="#263238" stroke-linecap="round" stroke-linejoin="round" stroke-width=".416" d="M104.062 47.62s-2.08-1.348-3.232.416m6.124-.283a2.306 2.306 0 0 1 2.828.337m-3.432.336c.278.51.421 1.084.416 1.664.067 1.211-.137 3.699-.137 3.699l-2.554-.27m-1.36.898s1.277 2.08 4.509 1.007"/>
  <path fill="#263238" d="M103.118 49.604c0 .39-.179.707-.416.707s-.416-.316-.416-.707.183-.707.416-.707.416.316.416.707m5.72 0c0 .39-.179.707-.416.707s-.416-.316-.416-.707.179-.707.416-.707.416.316.416.707"/>
  <path stroke="#263238" stroke-linecap="round" stroke-linejoin="round" stroke-width=".416" d="M103.659 50.515a4.6 4.6 0 0 1-1.885 1.073m5.854-1.073s.807.94 1.751 1.073m-6.598 9.289s1.281 1.548 4.847.067"/>
  <path fill="#263238" stroke="#263238" stroke-linecap="round" stroke-linejoin="round" stroke-width=".416" d="M97.132 43.514s.2 6.797.416 6.93.807.27.94-.2q.124-1.108.067-2.221s.673-.067.807-1.144c.133-1.077-.47-2.962-.47-2.962s2.421-1.747 4.709-2.421 3.502.337 4.913.416a3.33 3.33 0 0 0 2.288-.74s-.674 1.01-.674 1.48.877 2.962.74 3.703-.266 1.547.137 1.814c.404.266.874.607.874.607s0 1.818.27 1.951c.271.133.741-.603.807-1.614.067-1.01.067-3.432.416-4.16.35-.728.874-1.277.471-2.355-.404-1.077-1.818-2.017-2.018-2.08-.2-.062-2.758-3.36-6.057-4.16-3.299-.798-8.545 3.907-9.085 5.388s.449 1.768.449 1.768"/>
  <path fill="#fff" stroke="#263238" stroke-linecap="round" stroke-linejoin="round" stroke-width=".416" d="M67.438 67.392a20.6 20.6 0 0 1-.928-2.912c-.145-.928-1.29-2.43-2.43-2.858a8.4 8.4 0 0 1-3.215-2.217c-1.003-1.07-1.573-1.427-1.718-.358-.146 1.07.574 1.573 1.29 2.217a37 37 0 0 0 1.426 1.215 8.8 8.8 0 0 1-2.213.416 14.2 14.2 0 0 1-3.931-.358c-1.073-.287-4.788-3-4.43-1.93.357 1.07 2.142 2.43 3.573 3.79s2.359 2.08 4.002 2.57c1.643.492 4.285 1.145 4.285 1.145l1.502 2z"/>
  <path fill="#fff" d="M56.364 65.466s-2.288-1.714-2.646-3.644-.212-2.642.287-2.359c.5.283 1.714 3.074 1.714 3.074l2.142 2.359"/>
  <path stroke="#263238" stroke-linecap="round" stroke-linejoin="round" stroke-width=".416" d="M56.364 65.466s-2.288-1.714-2.646-3.644-.212-2.642.287-2.359c.5.283 1.714 3.074 1.714 3.074l2.142 2.359"/>
  <path fill="#fff" d="M58.29 66.398s-2.142-1.29-2.355-2.575c-.212-1.286-.715-5.071-.216-4.788.5.282 1.502 4.289 1.502 4.289l1.215 1.073"/>
  <path stroke="#263238" stroke-linecap="round" stroke-linejoin="round" stroke-width=".416" d="M58.29 66.398s-2.142-1.29-2.355-2.575c-.212-1.286-.715-5.071-.216-4.788.5.282 1.502 4.289 1.502 4.289l1.215 1.073"/>
  <path fill="#fff" d="M59.488 66.469s-1.285-2.496-1.572-3.287-.928-4.073-.283-3.931c.645.141 1.214 3.428 1.214 3.428l1.644 2.08s2.283-.716 2.912-.574c.628.141 1.43 1.43 1.43 1.43"/>
  <path stroke="#263238" stroke-linecap="round" stroke-linejoin="round" stroke-width=".416" d="M59.488 66.469s-1.285-2.496-1.572-3.287-.928-4.073-.283-3.931c.645.141 1.214 3.428 1.214 3.428l1.644 2.08s2.283-.716 2.912-.574c.628.141 1.43 1.43 1.43 1.43"/>
  <path fill="#fff" stroke="#263238" stroke-linecap="round" stroke-linejoin="round" stroke-width=".416" d="m69.135 68.528-1.71-1.585-4.222 4.405 1.24 1.627z"/>
  <path fill="#1E42A2" stroke="#263238" stroke-linecap="round" stroke-linejoin="round" stroke-width=".416" d="M99.245 61.43s-1.448 11.457-1.639 18.01c-.191 6.551.483 40.93.483 40.93l-12.809-.387s1.444-12.135 2.496-16.565c.724-3.417.983-6.915.77-10.4-.096-.579-.77-5.874-.77-5.874s-7.226 4.813-8.091 4.717-5.874-3.744-9.726-8.57a41.5 41.5 0 0 1-5.874-10.4l4.555-5.204 10.787 10.787s5.583-11.265 6.16-11.556c.58-.292 13.658-5.487 13.658-5.487Z"/>
  <path stroke="#263238" stroke-linecap="round" stroke-linejoin="round" stroke-width=".416" d="M93.925 81.232a70 70 0 0 0 3.003 10.97m-.141-28.849-2.33 5.894 1.864 1.552-3.258 3.411q.115 2.64.558 5.246"/>
  <path fill="#fff" d="M87.493 85.6s-1.926-8.474-2.496-11.843z"/>
  <path stroke="#263238" stroke-linecap="round" stroke-linejoin="round" stroke-width=".416" d="M87.493 85.6s-1.926-8.474-2.496-11.843"/>
  <path fill="#fff" d="m99.037 67.974 1.643 4.822 4.46-4.248 3.54 4.576 1.552-4.114"/>
  <path stroke="#263238" stroke-linecap="round" stroke-linejoin="round" stroke-width=".416" d="m99.037 67.974 1.643 4.822 4.46-4.248 3.54 4.576 1.552-4.114"/>
  <path fill="#263238" stroke="#263238" stroke-linecap="round" stroke-linejoin="round" stroke-width=".416" d="m106.854 71.04-2.014 3.594-2.313-3.619 2.613-2.466zm-2.014 3.595-4.484 30.026 3.998 3.216 3.12-3.311z"/>
  <path fill="#fff" stroke="#263238" stroke-linecap="round" stroke-linejoin="round" stroke-width=".416" d="M122.659 62.44a5.95 5.95 0 0 0 4.411-7.163 5.948 5.948 0 1 0-11.575 2.75 5.95 5.95 0 0 0 7.164 4.413m-5.285 1.865s-.203 2.663-.05 3.174 1.248 2.559 1.248 2.559-.153 1.435.1 1.897c.254.462 2.713 3.378 2.713 3.378l2.912-2.563-1.652-3.278-.05-4.247s-3.203-2.758-5.221-.92"/>
  <path fill="#fff" stroke="#263238" stroke-linecap="round" stroke-linejoin="round" stroke-width=".416" d="m118.822 61.368.899 7.384A1.45 1.45 0 0 0 121.318 70a1.45 1.45 0 0 0 1.286-1.489l-.258-7.542s-2.222-1.668-3.524.4Z"/>
  <path fill="#fff" stroke="#263238" stroke-linecap="round" stroke-linejoin="round" stroke-width=".416" d="M118.976 62.978s-1.914.229-1.914.832.687 3.37 1.298 3.524c.612.154 1.074.154 1.074-1.074a20 20 0 0 0-.458-3.282"/>
  <path fill="#fff" stroke="#263238" stroke-linecap="round" stroke-linejoin="round" stroke-width=".416" d="M123.494 65.046s-4.443.382-4.518.832.075 1.61.383 1.61 4.285.029 4.364-.416.307-1.415-.229-2.026"/>
  <path fill="#fff" stroke="#263238" stroke-linecap="round" stroke-linejoin="round" stroke-width=".416" d="M123.357 67.2s-3.957.221-4.04.629c-.083.407.025 1.43.3 1.44.274.007 3.806.14 3.889-.246.084-.387.312-1.265-.149-1.822Z"/>
  <path fill="#fff" stroke="#263238" stroke-linecap="round" stroke-linejoin="round" stroke-width=".416" d="M122.816 69.123s-3.278.183-3.328.52.021 1.185.249 1.194c.229.008 3.149.116 3.216-.204s.245-1.049-.137-1.51m.37-6.07s-4.443.383-4.518.832c-.075.45.075 1.606.383 1.606s4.285.033 4.364-.416c.079-.45.308-1.427-.229-2.022"/>
  <path fill="#fff" stroke="#263238" stroke-linecap="round" stroke-linejoin="round" stroke-width=".416" d="m124.226 71.294-1.29-.661-3.498 4.289 1.435 1.913z"/>
  <path fill="#1E42A2" stroke="#263238" stroke-linecap="round" stroke-linejoin="round" stroke-width=".416" d="M123.968 70.537s-1.273 2.966-2.226 4.027a30 30 0 0 1-2.017 2.013s4.451 10.496 5.075 12.51 3.074 3.39 4.135 3.706 3.603-.528 4.576-1.59c.973-1.06 2.33-4.45 1.589-6.356-.74-1.905-11.132-14.31-11.132-14.31m7.292-5.993c5.754-1.489 9.211-7.36 7.722-13.115-1.489-5.754-7.361-9.211-13.115-7.722-5.754 1.49-9.211 7.36-7.722 13.115 1.489 5.754 7.361 9.211 13.115 7.722"/>
  <path fill="#263238" stroke="#263238" stroke-linecap="round" stroke-linejoin="round" stroke-width=".416" d="M130.537 62.666a8.77 8.77 0 0 0 6.568-10.52 8.769 8.769 0 1 0-17.087 3.951 8.77 8.77 0 0 0 10.519 6.569"/>
  <path fill="#fff" stroke="#263238" stroke-linecap="round" stroke-linejoin="round" stroke-width=".416" d="M127.716 58.111a3.557 3.557 0 1 0 0-7.113 3.557 3.557 0 0 0 0 7.113"/>
  <path fill="#1E42A2" stroke="#263238" stroke-linecap="round" stroke-linejoin="round" stroke-width=".416" d="M130.524 54.134a1.96 1.96 0 0 0-3.35-1.394 1.964 1.964 0 1 0 3.35 1.394"/>
  <path stroke="#263238" stroke-linecap="round" stroke-linejoin="round" stroke-width=".416" d="M189.309 190.994h4.51m-173.601 0h165.996"/>
</svg>
