<svg width="192" height="195" viewBox="0 0 192 195" fill="none" xmlns="http://www.w3.org/2000/svg">
  <path d="M183.326 58.402c1.289-17.142-1.706-36.063-14.806-47.737C156.769.189 138.844-2.138 123.439 2.05s-28.56 14.01-39.511 25.255C72.977 38.548 63.89 51.32 53.713 63.226c-10.581 12.387-22.356 23.892-31.551 37.257-9.195 13.366-15.807 29.146-14.408 45.136.585 6.653 2.61 13.306 6.685 18.715 4.897 6.503 12.387 10.778 20.12 13.773 14.293 5.533 29.821 7.229 45.13 8.88l49.032 5.276c10.059 1.089 20.795 2.072 29.886-2.245 8.002-3.804 13.58-11.312 16.657-19.383s3.933-16.744 4.614-25.318c2.346-29.612 3.448-86.915 3.448-86.915" fill="#ECF6FC"/>
  <path d="M183.326 58.32c1.289-17.142-1.706-36.063-14.806-47.737C156.769.107 138.844-2.22 123.439 1.968S94.879 15.97 83.928 27.222 63.89 51.237 53.713 63.144c-10.581 12.387-22.356 23.892-31.551 37.257-9.195 13.366-15.807 29.146-14.408 45.136.585 6.653 2.61 13.306 6.685 18.715 4.897 6.502 12.387 10.778 20.12 13.773 14.293 5.532 29.821 7.233 45.13 8.88l49.032 5.281c10.059 1.084 20.795 2.067 29.886-2.25 8.002-3.804 13.58-11.312 16.657-19.383s3.933-16.745 4.614-25.313c2.346-29.617 3.448-86.92 3.448-86.92" fill="#ECF6FC" opacity=".7"/>
  <path d="M93.846 45.449s-2.181-4.34-7.184-4.358m7.865 9.982s3.228-3.452 4.385-9.552m-66.764 99.736s3.412-3.274 4.902-9.3m-7.517 37.952a14.9 14.9 0 0 0-4.07-6.438m2.853-3.924s2.36-5.912.714-14.257" stroke="#5C5C5C" stroke-width=".457" stroke-linecap="round" stroke-linejoin="round"/>
  <path d="M133.503 42.183H33.017v147.73h100.486z" fill="#263238"/>
  <path d="M129.434 188.057H27.311l4.947-58.62a295 295 0 0 0 .988-30.54l-1.143-58.57h99.942l.457 71.844a317 317 0 0 1-.348 17.375z" fill="#BFBFBF" stroke="#263238" stroke-width=".457" stroke-linecap="round" stroke-linejoin="round"/>
  <path d="M125.163 186.068H21.947l3.164-16.434c6.735-40.197 8.414-57.998 7.48-110.088l-1.06-21.208h97.921l1.152 20.028c2.478 87.166-5.441 127.702-5.441 127.702" fill="#fff" stroke="#263238" stroke-width=".457" stroke-linecap="round" stroke-linejoin="round"/>
  <mask id="a" maskUnits="userSpaceOnUse" x="41.778" y="50.837" width="78" height="9" fill="#000">
    <path fill="#fff" d="M41.778 50.837h78v9h-78z"/>
    <path d="M42.778 52.004h2.01q.53 0 .967.112.436.102.743.326.307.222.475.567.167.344.167.828 0 .492-.186.846a1.5 1.5 0 0 1-.502.577q-.316.222-.763.334a4.2 4.2 0 0 1-.948.103h-1.042v2.892h-.92zm.921 2.912h.977q.334-.001.613-.056.29-.066.493-.186a.9.9 0 0 0 .317-.335q.111-.205.111-.502a.92.92 0 0 0-.437-.819 1.2 1.2 0 0 0-.474-.176 3 3 0 0 0-.605-.056H43.7zm6.461 3.674h-.92v-6.586h2.11q.476 0 .903.103.427.093.744.307.326.213.512.567.186.344.186.846 0 .726-.447 1.172-.446.447-1.153.568l1.841 3.022H52.82l-1.674-2.93h-.986zm0-3.702h1.06q.327 0 .605-.056.279-.055.484-.177a1 1 0 0 0 .335-.325.97.97 0 0 0 .12-.503.9.9 0 0 0-.12-.493.9.9 0 0 0-.326-.325 1.3 1.3 0 0 0-.465-.167 3 3 0 0 0-.567-.056H50.16zm12.363.4q0 .762-.27 1.404a3.3 3.3 0 0 1-.725 1.097q-.465.456-1.107.716a3.8 3.8 0 0 1-1.395.252q-.753 0-1.395-.252a3.4 3.4 0 0 1-1.097-.716 3.3 3.3 0 0 1-.726-1.097 3.7 3.7 0 0 1-.26-1.404q0-.772.26-1.405.261-.641.726-1.088.464-.456 1.097-.707a3.8 3.8 0 0 1 1.395-.251q.753 0 1.395.251.642.252 1.107.707.465.447.726 1.088.27.633.27 1.404m-.995 0q0-.54-.177-1.014a2.6 2.6 0 0 0-.502-.847 2.3 2.3 0 0 0-.79-.567 2.4 2.4 0 0 0-1.033-.214q-.567 0-1.032.214a2.3 2.3 0 0 0-.781.567q-.317.363-.493.847a2.9 2.9 0 0 0-.177 1.014q0 .548.177 1.032.176.483.502.846.325.354.781.558a2.5 2.5 0 0 0 1.023.205q.567 0 1.033-.205.465-.204.79-.558.326-.363.502-.846.177-.484.177-1.032m4.097 3.303h-.92v-6.586h4.11v.81h-3.19v2.046h2.986v.79h-2.986zm6.216 0h-.92v-6.586h.92zm5.808-5.367a1.4 1.4 0 0 0-.53-.437 1.6 1.6 0 0 0-.753-.177q-.223 0-.456.065a1.1 1.1 0 0 0-.41.195 1.1 1.1 0 0 0-.306.335.94.94 0 0 0-.112.474q0 .27.103.456.111.177.288.307.186.12.428.214l.53.177q.335.102.679.232t.623.344q.279.215.456.54.177.315.177.809 0 .512-.196.893a1.8 1.8 0 0 1-.502.623q-.316.242-.735.363-.41.12-.846.12a3.1 3.1 0 0 1-1.21-.241 2.4 2.4 0 0 1-.957-.716l.716-.605q.233.345.623.558a1.73 1.73 0 0 0 1.311.149q.234-.065.419-.205.195-.139.316-.344.12-.213.121-.511a.87.87 0 0 0-.13-.493 1.04 1.04 0 0 0-.335-.344 2 2 0 0 0-.502-.233 16 16 0 0 0-.595-.204 6 6 0 0 1-.623-.224 2.4 2.4 0 0 1-.55-.344 1.6 1.6 0 0 1-.39-.52q-.15-.308-.149-.763 0-.493.196-.847.204-.352.52-.586.327-.232.726-.334.41-.112.818-.112.577 0 1.08.205.501.204.808.548zm6.226 0a1.4 1.4 0 0 0-.53-.437 1.6 1.6 0 0 0-.754-.177q-.223 0-.456.065a1.1 1.1 0 0 0-.409.195 1.1 1.1 0 0 0-.307.335.94.94 0 0 0-.111.474q0 .27.102.456.111.177.288.307.186.12.428.214l.53.177q.335.102.68.232.343.13.622.344.279.215.456.54.177.315.177.809 0 .512-.196.893a1.8 1.8 0 0 1-.502.623q-.316.242-.735.363-.409.12-.846.12a3.1 3.1 0 0 1-1.209-.241 2.4 2.4 0 0 1-.958-.716l.716-.605q.233.345.623.558a1.73 1.73 0 0 0 1.312.149q.232-.065.418-.205.196-.139.316-.344.121-.213.121-.511a.87.87 0 0 0-.13-.493 1.04 1.04 0 0 0-.335-.344 2 2 0 0 0-.502-.233 16 16 0 0 0-.595-.204 6 6 0 0 1-.623-.224 2.4 2.4 0 0 1-.55-.344 1.6 1.6 0 0 1-.39-.52q-.148-.308-.148-.763 0-.493.195-.847.204-.352.52-.586.327-.232.726-.334.41-.112.819-.112.577 0 1.078.205.502.204.81.548zm3.872 5.367h-.921v-6.586h.92zm9.175-3.302q0 .762-.27 1.404a3.3 3.3 0 0 1-.726 1.097q-.465.456-1.106.716a3.8 3.8 0 0 1-1.395.252q-.754 0-1.396-.252a3.4 3.4 0 0 1-1.097-.716 3.3 3.3 0 0 1-.726-1.097 3.7 3.7 0 0 1-.26-1.404q0-.772.26-1.405.261-.641.726-1.088.465-.456 1.097-.707a3.8 3.8 0 0 1 1.395-.251q.754 0 1.396.251.64.252 1.106.707.465.447.726 1.088.27.633.27 1.404m-.996 0q0-.54-.176-1.014a2.6 2.6 0 0 0-.503-.847 2.3 2.3 0 0 0-.79-.567 2.4 2.4 0 0 0-1.032-.214q-.568 0-1.033.214a2.3 2.3 0 0 0-.781.567q-.315.363-.493.847a2.9 2.9 0 0 0-.177 1.014q0 .548.177 1.032.177.483.502.846.326.354.781.558.456.205 1.023.205.568 0 1.033-.205.465-.204.79-.558.326-.363.503-.846.176-.484.176-1.032m7.819 1.982h.018v-5.265h.921v6.585h-1.163l-3.478-5.375h-.019v5.375h-.92v-6.585h1.199zm3.743 1.321h-1.023l2.855-6.586h.837l2.827 6.585h-1.041l-.67-1.618h-3.125zm.986-2.428h2.464l-1.227-3.088zm7.207 1.608h2.939v.82h-3.86v-6.586h.921z"/>
  </mask>
  <path d="M42.778 52.004h2.01q.53 0 .967.112.436.102.743.326.307.222.475.567.167.344.167.828 0 .492-.186.846a1.5 1.5 0 0 1-.502.577q-.316.222-.763.334a4.2 4.2 0 0 1-.948.103h-1.042v2.892h-.92zm.921 2.912h.977q.334-.001.613-.056.29-.066.493-.186a.9.9 0 0 0 .317-.335q.111-.205.111-.502a.92.92 0 0 0-.437-.819 1.2 1.2 0 0 0-.474-.176 3 3 0 0 0-.605-.056H43.7zm6.461 3.674h-.92v-6.586h2.11q.476 0 .903.103.427.093.744.307.326.213.512.567.186.344.186.846 0 .726-.447 1.172-.446.447-1.153.568l1.841 3.022H52.82l-1.674-2.93h-.986zm0-3.702h1.06q.327 0 .605-.056.279-.055.484-.177a1 1 0 0 0 .335-.325.97.97 0 0 0 .12-.503.9.9 0 0 0-.12-.493.9.9 0 0 0-.326-.325 1.3 1.3 0 0 0-.465-.167 3 3 0 0 0-.567-.056H50.16zm12.363.4q0 .762-.27 1.404a3.3 3.3 0 0 1-.725 1.097q-.465.456-1.107.716a3.8 3.8 0 0 1-1.395.252q-.753 0-1.395-.252a3.4 3.4 0 0 1-1.097-.716 3.3 3.3 0 0 1-.726-1.097 3.7 3.7 0 0 1-.26-1.404q0-.772.26-1.405.261-.641.726-1.088.464-.456 1.097-.707a3.8 3.8 0 0 1 1.395-.251q.753 0 1.395.251.642.252 1.107.707.465.447.726 1.088.27.633.27 1.404m-.995 0q0-.54-.177-1.014a2.6 2.6 0 0 0-.502-.847 2.3 2.3 0 0 0-.79-.567 2.4 2.4 0 0 0-1.033-.214q-.567 0-1.032.214a2.3 2.3 0 0 0-.781.567q-.317.363-.493.847a2.9 2.9 0 0 0-.177 1.014q0 .548.177 1.032.176.483.502.846.325.354.781.558a2.5 2.5 0 0 0 1.023.205q.567 0 1.033-.205.465-.204.79-.558.326-.363.502-.846.177-.484.177-1.032m4.097 3.303h-.92v-6.586h4.11v.81h-3.19v2.046h2.986v.79h-2.986zm6.216 0h-.92v-6.586h.92zm5.808-5.367a1.4 1.4 0 0 0-.53-.437 1.6 1.6 0 0 0-.753-.177q-.223 0-.456.065a1.1 1.1 0 0 0-.41.195 1.1 1.1 0 0 0-.306.335.94.94 0 0 0-.112.474q0 .27.103.456.111.177.288.307.186.12.428.214l.53.177q.335.102.679.232t.623.344q.279.215.456.54.177.315.177.809 0 .512-.196.893a1.8 1.8 0 0 1-.502.623q-.316.242-.735.363-.41.12-.846.12a3.1 3.1 0 0 1-1.21-.241 2.4 2.4 0 0 1-.957-.716l.716-.605q.233.345.623.558a1.73 1.73 0 0 0 1.311.149q.234-.065.419-.205.195-.139.316-.344.12-.213.121-.511a.87.87 0 0 0-.13-.493 1.04 1.04 0 0 0-.335-.344 2 2 0 0 0-.502-.233 16 16 0 0 0-.595-.204 6 6 0 0 1-.623-.224 2.4 2.4 0 0 1-.55-.344 1.6 1.6 0 0 1-.39-.52q-.15-.308-.149-.763 0-.493.196-.847.204-.352.52-.586.327-.232.726-.334.41-.112.818-.112.577 0 1.08.205.501.204.808.548zm6.226 0a1.4 1.4 0 0 0-.53-.437 1.6 1.6 0 0 0-.754-.177q-.223 0-.456.065a1.1 1.1 0 0 0-.409.195 1.1 1.1 0 0 0-.307.335.94.94 0 0 0-.111.474q0 .27.102.456.111.177.288.307.186.12.428.214l.53.177q.335.102.68.232.343.13.622.344.279.215.456.54.177.315.177.809 0 .512-.196.893a1.8 1.8 0 0 1-.502.623q-.316.242-.735.363-.409.12-.846.12a3.1 3.1 0 0 1-1.209-.241 2.4 2.4 0 0 1-.958-.716l.716-.605q.233.345.623.558a1.73 1.73 0 0 0 1.312.149q.232-.065.418-.205.196-.139.316-.344.121-.213.121-.511a.87.87 0 0 0-.13-.493 1.04 1.04 0 0 0-.335-.344 2 2 0 0 0-.502-.233 16 16 0 0 0-.595-.204 6 6 0 0 1-.623-.224 2.4 2.4 0 0 1-.55-.344 1.6 1.6 0 0 1-.39-.52q-.148-.308-.148-.763 0-.493.195-.847.204-.352.52-.586.327-.232.726-.334.41-.112.819-.112.577 0 1.078.205.502.204.81.548zm3.872 5.367h-.921v-6.586h.92zm9.175-3.302q0 .762-.27 1.404a3.3 3.3 0 0 1-.726 1.097q-.465.456-1.106.716a3.8 3.8 0 0 1-1.395.252q-.754 0-1.396-.252a3.4 3.4 0 0 1-1.097-.716 3.3 3.3 0 0 1-.726-1.097 3.7 3.7 0 0 1-.26-1.404q0-.772.26-1.405.261-.641.726-1.088.465-.456 1.097-.707a3.8 3.8 0 0 1 1.395-.251q.754 0 1.396.251.64.252 1.106.707.465.447.726 1.088.27.633.27 1.404m-.996 0q0-.54-.176-1.014a2.6 2.6 0 0 0-.503-.847 2.3 2.3 0 0 0-.79-.567 2.4 2.4 0 0 0-1.032-.214q-.568 0-1.033.214a2.3 2.3 0 0 0-.781.567q-.315.363-.493.847a2.9 2.9 0 0 0-.177 1.014q0 .548.177 1.032.177.483.502.846.326.354.781.558.456.205 1.023.205.568 0 1.033-.205.465-.204.79-.558.326-.363.503-.846.176-.484.176-1.032m7.819 1.982h.018v-5.265h.921v6.585h-1.163l-3.478-5.375h-.019v5.375h-.92v-6.585h1.199zm3.743 1.321h-1.023l2.855-6.586h.837l2.827 6.585h-1.041l-.67-1.618h-3.125zm.986-2.428h2.464l-1.227-3.088zm7.207 1.608h2.939v.82h-3.86v-6.586h.921z" fill="#263238"/>
  <path d="M42.778 52.004h2.01q.53 0 .967.112.436.102.743.326.307.222.475.567.167.344.167.828 0 .492-.186.846a1.5 1.5 0 0 1-.502.577q-.316.222-.763.334a4.2 4.2 0 0 1-.948.103h-1.042v2.892h-.92zm.921 2.912h.977q.334-.001.613-.056.29-.066.493-.186a.9.9 0 0 0 .317-.335q.111-.205.111-.502a.92.92 0 0 0-.437-.819 1.2 1.2 0 0 0-.474-.176 3 3 0 0 0-.605-.056H43.7zm6.461 3.674h-.92v-6.586h2.11q.476 0 .903.103.427.093.744.307.326.213.512.567.186.344.186.846 0 .726-.447 1.172-.446.447-1.153.568l1.841 3.022H52.82l-1.674-2.93h-.986zm0-3.702h1.06q.327 0 .605-.056.279-.055.484-.177a1 1 0 0 0 .335-.325.97.97 0 0 0 .12-.503.9.9 0 0 0-.12-.493.9.9 0 0 0-.326-.325 1.3 1.3 0 0 0-.465-.167 3 3 0 0 0-.567-.056H50.16zm12.363.4q0 .762-.27 1.404a3.3 3.3 0 0 1-.725 1.097q-.465.456-1.107.716a3.8 3.8 0 0 1-1.395.252q-.753 0-1.395-.252a3.4 3.4 0 0 1-1.097-.716 3.3 3.3 0 0 1-.726-1.097 3.7 3.7 0 0 1-.26-1.404q0-.772.26-1.405.261-.641.726-1.088.464-.456 1.097-.707a3.8 3.8 0 0 1 1.395-.251q.753 0 1.395.251.642.252 1.107.707.465.447.726 1.088.27.633.27 1.404Zm-.995 0q0-.54-.177-1.014a2.6 2.6 0 0 0-.502-.847 2.3 2.3 0 0 0-.79-.567 2.4 2.4 0 0 0-1.033-.214q-.567 0-1.032.214a2.3 2.3 0 0 0-.781.567q-.317.363-.493.847a2.9 2.9 0 0 0-.177 1.014q0 .548.177 1.032.176.483.502.846.325.354.781.558a2.5 2.5 0 0 0 1.023.205q.567 0 1.033-.205.465-.204.79-.558.326-.363.502-.846.177-.484.177-1.032Zm4.098 3.302h-.92v-6.586h4.11v.81h-3.19v2.046h2.986v.79h-2.986zm6.216 0h-.92v-6.586h.92zm5.808-5.367a1.4 1.4 0 0 0-.53-.437 1.6 1.6 0 0 0-.753-.177q-.223 0-.456.065a1.1 1.1 0 0 0-.41.195 1.1 1.1 0 0 0-.306.335.94.94 0 0 0-.112.474q0 .27.103.456.111.177.288.307.186.12.428.214l.53.177q.335.102.679.232t.623.344q.279.215.456.54.177.315.177.809 0 .512-.196.893a1.8 1.8 0 0 1-.502.623q-.316.242-.735.363-.41.12-.846.12a3.1 3.1 0 0 1-1.21-.241 2.4 2.4 0 0 1-.957-.716l.716-.605q.233.345.623.558a1.73 1.73 0 0 0 1.311.149q.234-.065.419-.205.195-.139.316-.344.12-.213.121-.511a.87.87 0 0 0-.13-.493 1.04 1.04 0 0 0-.335-.344 2 2 0 0 0-.502-.233 16 16 0 0 0-.595-.204 6 6 0 0 1-.623-.224 2.4 2.4 0 0 1-.55-.344 1.6 1.6 0 0 1-.39-.52q-.15-.308-.149-.763 0-.493.196-.847.204-.352.52-.586.327-.232.726-.334.41-.112.818-.112.577 0 1.08.205.501.204.808.548zm6.226 0a1.4 1.4 0 0 0-.53-.437 1.6 1.6 0 0 0-.754-.177q-.223 0-.456.065a1.1 1.1 0 0 0-.409.195 1.1 1.1 0 0 0-.307.335.94.94 0 0 0-.111.474q0 .27.102.456.111.177.288.307.186.12.428.214l.53.177q.335.102.68.232.343.13.622.344.279.215.456.54.177.315.177.809 0 .512-.196.893a1.8 1.8 0 0 1-.502.623q-.316.242-.735.363-.409.12-.846.12a3.1 3.1 0 0 1-1.209-.241 2.4 2.4 0 0 1-.958-.716l.716-.605q.233.345.623.558a1.73 1.73 0 0 0 1.312.149q.232-.065.418-.205.196-.139.316-.344.121-.213.121-.511a.87.87 0 0 0-.13-.493 1.04 1.04 0 0 0-.335-.344 2 2 0 0 0-.502-.233 16 16 0 0 0-.595-.204 6 6 0 0 1-.623-.224 2.4 2.4 0 0 1-.55-.344 1.6 1.6 0 0 1-.39-.52q-.148-.308-.148-.763 0-.493.195-.847.204-.352.52-.586.327-.232.726-.334.41-.112.819-.112.577 0 1.078.205.502.204.81.548zm3.872 5.367h-.921v-6.586h.92zm9.175-3.302q0 .762-.27 1.404a3.3 3.3 0 0 1-.726 1.097q-.465.456-1.106.716a3.8 3.8 0 0 1-1.395.252q-.754 0-1.396-.252a3.4 3.4 0 0 1-1.097-.716 3.3 3.3 0 0 1-.726-1.097 3.7 3.7 0 0 1-.26-1.404q0-.772.26-1.405.261-.641.726-1.088.465-.456 1.097-.707a3.8 3.8 0 0 1 1.395-.251q.754 0 1.396.251.64.252 1.106.707.465.447.726 1.088.27.633.27 1.404Zm-.996 0q0-.54-.176-1.014a2.6 2.6 0 0 0-.503-.847 2.3 2.3 0 0 0-.79-.567 2.4 2.4 0 0 0-1.032-.214q-.568 0-1.033.214a2.3 2.3 0 0 0-.781.567q-.315.363-.493.847a2.9 2.9 0 0 0-.177 1.014q0 .548.177 1.032.177.483.502.846.326.354.781.558.456.205 1.023.205.568 0 1.033-.205.465-.204.79-.558.326-.363.503-.846.176-.484.176-1.032Zm7.819 1.981h.018v-5.265h.921v6.585h-1.163l-3.478-5.375h-.019v5.375h-.92v-6.585h1.199zm3.743 1.321h-1.023l2.855-6.586h.837l2.827 6.585h-1.041l-.67-1.618h-3.125zm.986-2.428h2.464l-1.227-3.088zm7.207 1.608h2.939v.82h-3.86v-6.586h.921z" stroke="#201F23" stroke-width="1.163" mask="url(#a)"/>
  <path d="M37.329 45.791a2.666 2.666 0 0 1 0-5.331.398.398 0 1 1 0 .795 1.87 1.87 0 1 0 1.87 1.87.398.398 0 0 1 .796 0 2.67 2.67 0 0 1-2.666 2.666" fill="#263238"/>
  <path d="M37.265 44.69c-2.432 0-2.565-5.264-2.57-6.315v-.037c0-1.06.124-6.347 2.57-6.347s2.616 5.707 2.63 6.36l-2.118.042a13 13 0 0 0-.526-3.626 12.8 12.8 0 0 0-.457 3.57v.037a12.5 12.5 0 0 0 .457 3.59c0-.078.05-.16.078-.256l.165-.576 1.477.43a.586.586 0 0 1 .397.722c-.42 1.578-1.134 2.405-2.103 2.405" fill="#BFBFBF" stroke="#263238" stroke-width=".457" stroke-linecap="round" stroke-linejoin="round"/>
  <path d="M39.597 43.523a.4.4 0 0 1-.398-.398 1.87 1.87 0 0 0-1.87-1.87.398.398 0 1 1 0-.796 2.67 2.67 0 0 1 2.666 2.666.4.4 0 0 1-.398.398m10.293 2.268a2.666 2.666 0 0 1 0-5.331.398.398 0 1 1 0 .795 1.87 1.87 0 1 0 1.87 1.87.398.398 0 1 1 .796 0 2.67 2.67 0 0 1-2.666 2.666" fill="#263238"/>
  <path d="M49.826 44.69c-2.433 0-2.566-5.264-2.57-6.315v-.037c0-1.06.123-6.347 2.57-6.347s2.633 5.707 2.633 6.383l-2.117.042a13 13 0 0 0-.526-3.626 12.8 12.8 0 0 0-.457 3.57v.014a12.8 12.8 0 0 0 .457 3.59c.028-.078.05-.16.078-.256l.165-.576 1.486.443a.585.585 0 0 1 .393.723c-.43 1.563-1.143 2.391-2.112 2.391" fill="#BFBFBF" stroke="#263238" stroke-width=".457" stroke-linecap="round" stroke-linejoin="round"/>
  <path d="M52.158 43.523a.4.4 0 0 1-.398-.398 1.87 1.87 0 0 0-1.87-1.87.398.398 0 1 1 0-.796 2.67 2.67 0 0 1 2.666 2.666.4.4 0 0 1-.398.398m10.292 2.268a2.666 2.666 0 1 1 0-5.331.398.398 0 0 1 0 .795 1.87 1.87 0 1 0 1.87 1.87.398.398 0 1 1 .796 0 2.67 2.67 0 0 1-2.666 2.666" fill="#263238"/>
  <path d="M62.392 44.69c-2.438 0-2.57-5.264-2.57-6.315v-.037c0-1.06.123-6.347 2.57-6.347s2.615 5.707 2.624 6.36l-2.117.042a13 13 0 0 0-.526-3.626 12.8 12.8 0 0 0-.457 3.57v.037a12.8 12.8 0 0 0 .457 3.59c.028-.078.05-.16.078-.256l.17-.576 1.476.43a.585.585 0 0 1 .393.722c-.42 1.578-1.134 2.405-2.098 2.405" fill="#BFBFBF" stroke="#263238" stroke-width=".457" stroke-linecap="round" stroke-linejoin="round"/>
  <path d="M64.719 43.523a.4.4 0 0 1-.398-.398 1.87 1.87 0 0 0-1.87-1.87.398.398 0 1 1 0-.796 2.67 2.67 0 0 1 2.665 2.666.4.4 0 0 1-.397.398m10.296 2.268a2.666 2.666 0 0 1 0-5.331.398.398 0 1 1 0 .795 1.87 1.87 0 1 0 1.866 1.87.398.398 0 1 1 .796 0 2.665 2.665 0 0 1-2.662 2.666" fill="#263238"/>
  <path d="M74.952 44.69c-2.437 0-2.57-5.264-2.57-6.315v-.037c0-1.06.124-6.347 2.57-6.347s2.616 5.707 2.63 6.36l-2.122.042a12.9 12.9 0 0 0-.526-3.626 12.8 12.8 0 0 0-.457 3.57v.037a12.6 12.6 0 0 0 .457 3.59c.023-.078.05-.16.073-.256l.17-.576 1.517.443a.585.585 0 0 1 .394.723c-.458 1.563-1.166 2.391-2.136 2.391" fill="#BFBFBF" stroke="#263238" stroke-width=".457" stroke-linecap="round" stroke-linejoin="round"/>
  <path d="M77.28 43.523a.4.4 0 0 1-.398-.398 1.87 1.87 0 0 0-1.866-1.87.398.398 0 1 1 0-.796 2.666 2.666 0 0 1 2.661 2.666.4.4 0 0 1-.398.398m10.22 2.268a2.666 2.666 0 0 1 0-5.331.398.398 0 1 1 0 .795 1.87 1.87 0 1 0 1.87 1.87.398.398 0 1 1 .791 0 2.665 2.665 0 0 1-2.661 2.666" fill="#263238"/>
  <path d="M87.435 44.69c-2.437 0-2.57-5.264-2.57-6.315v-.037c0-1.06.124-6.347 2.57-6.347s2.615 5.707 2.63 6.36l-2.122.042a12.9 12.9 0 0 0-.526-3.626 12.8 12.8 0 0 0-.435 3.57v.037c-.02 1.213.133 2.422.458 3.59 0-.078.05-.16.073-.256l.155-.59 1.477.43a.586.586 0 0 1 .393.722c-.42 1.591-1.134 2.42-2.103 2.42" fill="#BFBFBF" stroke="#263238" stroke-width=".457" stroke-linecap="round" stroke-linejoin="round"/>
  <path d="M89.763 43.523a.393.393 0 0 1-.394-.398 1.87 1.87 0 0 0-1.87-1.87.398.398 0 1 1 0-.796 2.666 2.666 0 0 1 2.662 2.666.4.4 0 0 1-.398.398m10.297 2.268a2.666 2.666 0 1 1 0-5.331.397.397 0 1 1 0 .795 1.87 1.87 0 1 0 1.87 1.87.397.397 0 0 1 .679-.281.4.4 0 0 1 .117.281 2.673 2.673 0 0 1-2.666 2.666" fill="#263238"/>
  <path d="M100.014 44.69c-2.438 0-2.57-5.264-2.57-6.315v-.037c0-1.06.123-6.347 2.57-6.347s2.615 5.707 2.629 6.36l-2.122.042a12.7 12.7 0 0 0-.526-3.626 13 13 0 0 0-.43 3.57v.037a12.5 12.5 0 0 0 .458 3.59c.023-.078.05-.16.073-.256l.169-.576 1.477.43a.59.59 0 0 1 .393.722c-.457 1.578-1.17 2.405-2.121 2.405" fill="#BFBFBF" stroke="#263238" stroke-width=".457" stroke-linecap="round" stroke-linejoin="round"/>
  <path d="M102.327 43.523a.4.4 0 0 1-.397-.398 1.87 1.87 0 0 0-1.871-1.87.398.398 0 0 1 0-.796 2.67 2.67 0 0 1 2.666 2.666.4.4 0 0 1-.398.398m10.293 2.268a2.666 2.666 0 0 1 0-5.331.4.4 0 0 1 .398.397.4.4 0 0 1-.398.398 1.87 1.87 0 0 0-1.727 1.155 1.868 1.868 0 0 0 1.363 2.55 1.87 1.87 0 0 0 2.235-1.835.396.396 0 0 1 .397-.398.4.4 0 0 1 .398.398 2.67 2.67 0 0 1-2.666 2.666" fill="#263238"/>
  <path d="M112.556 44.69c-2.432 0-2.565-5.264-2.57-6.315v-.037c0-1.06.124-6.347 2.57-6.347s2.616 5.707 2.629 6.36l-2.121.042a13 13 0 0 0-.522-3.626 12.8 12.8 0 0 0-.434 3.57v.037a12.5 12.5 0 0 0 .457 3.59c.023-.078.051-.16.073-.256l.179-.59 1.477.43a.583.583 0 0 1 .397.722c-.452 1.591-1.166 2.42-2.135 2.42" fill="#BFBFBF" stroke="#263238" stroke-width=".457" stroke-linecap="round" stroke-linejoin="round"/>
  <path d="M114.888 43.523a.4.4 0 0 1-.397-.398 1.87 1.87 0 0 0-1.871-1.87.399.399 0 0 1 0-.796 2.67 2.67 0 0 1 2.666 2.666.4.4 0 0 1-.398.398m10.275 2.268a2.666 2.666 0 0 1 0-5.331.4.4 0 0 1 .398.397.4.4 0 0 1-.398.398 1.87 1.87 0 1 0 1.871 1.87.396.396 0 0 1 .397-.398.4.4 0 0 1 .398.398 2.67 2.67 0 0 1-2.666 2.666" fill="#263238"/>
  <path d="M125.118 44.69c-2.433 0-2.566-5.264-2.57-6.315v-.037c0-1.06.123-6.347 2.57-6.347s2.62 5.707 2.629 6.36l-2.126.023a13 13 0 0 0-.526-3.626 12.8 12.8 0 0 0-.435 3.572v.054a12.8 12.8 0 0 0 .458 3.59c.027-.078.05-.16.077-.256l.165-.576 1.477.43a.59.59 0 0 1 .398.722c-.435 1.578-1.157 2.405-2.117 2.405" fill="#BFBFBF" stroke="#263238" stroke-width=".457" stroke-linecap="round" stroke-linejoin="round"/>
  <path d="M127.449 43.523a.4.4 0 0 1-.398-.398 1.873 1.873 0 0 0-1.889-1.87.399.399 0 0 1 0-.796 2.67 2.67 0 0 1 2.666 2.666.397.397 0 0 1-.379.398m-5.711 132.814h-21.491v.457h21.491z" fill="#263238"/>
  <path d="M111.207 177.993q-.46 0-.914-.064c-7.133-1.011-7.362-7.87-7.129-10.769.284-3.571 2.158-8.281 6.502-9.799 4.116-1.445 7.874 3.201 8.876 5.894a14.58 14.58 0 0 1-.046 10.115c-1.011 2.638-4.266 4.623-7.289 4.623m-7.576-10.796c-.275 3.443.233 9.355 6.74 10.279 3.049.457 6.657-1.564 7.713-4.275a14.1 14.1 0 0 0 .042-9.786c-.947-2.547-4.459-6.964-8.295-5.619-4.138 1.445-5.944 5.967-6.2 9.401" fill="#1E42A2"/>
  <path d="M104.966 172.076a.23.23 0 0 1-.219-.156 13.5 13.5 0 0 1-.673-4.43 10 10 0 0 1 2.067-5.945.23.23 0 0 1 .32-.045.23.23 0 0 1 .046.32 9.56 9.56 0 0 0-1.975 5.674 13 13 0 0 0 .649 4.28q.015.044.013.089a.24.24 0 0 1-.077.159.2.2 0 0 1-.078.045.2.2 0 0 1-.073.009m4.504 4.389h-.055a6.24 6.24 0 0 1-4.116-3.306.22.22 0 0 1-.018-.172.2.2 0 0 1 .041-.078.233.233 0 0 1 .323-.033.2.2 0 0 1 .057.068 5.81 5.81 0 0 0 3.832 3.078.23.23 0 0 1 .141.105.23.23 0 0 1 .028.174.23.23 0 0 1-.233.164m1.852.233a.229.229 0 1 1 0-.457c3.589 0 5.857-2.057 6.561-5.944a.24.24 0 0 1 .097-.15.3.3 0 0 1 .083-.036.3.3 0 0 1 .09-.002.24.24 0 0 1 .15.096.24.24 0 0 1 .038.174c-.755 4.129-3.178 6.319-7.019 6.319m6.954-7.435a.22.22 0 0 1-.2-.158.2.2 0 0 1-.01-.089c.045-.484.064-.996.064-1.522a9.25 9.25 0 0 0-1.185-4.436.23.23 0 0 1 .004-.269.23.23 0 0 1 .259-.079.23.23 0 0 1 .135.129 9.64 9.64 0 0 1 1.244 4.655c0 .535-.023 1.061-.064 1.564a.23.23 0 0 1-.247.205m-1.636-6.881a.2.2 0 0 1-.093-.028.2.2 0 0 1-.072-.064 9.7 9.7 0 0 0-2.743-2.743.2.2 0 0 1-.067-.059.22.22 0 0 1-.007-.252.23.23 0 0 1 .143-.104.22.22 0 0 1 .173.031 10.1 10.1 0 0 1 2.885 2.857.23.23 0 0 1-.064.316.22.22 0 0 1-.155.046m-8.949-1.962a.2.2 0 0 1-.169-.078.22.22 0 0 1-.069-.16.22.22 0 0 1 .069-.16c1.248-1.106 2.625-1.742 3.781-1.742a4.4 4.4 0 0 1 1.756.416.23.23 0 0 1 .118.128.24.24 0 0 1-.003.174.2.2 0 0 1-.051.074.23.23 0 0 1-.251.045 3.9 3.9 0 0 0-1.569-.379c-1.042 0-2.313.594-3.479 1.627a.23.23 0 0 1-.133.055" fill="#1E42A2"/>
  <path d="M105.675 170.114a.23.23 0 0 1-.145-.051.24.24 0 0 1-.079-.132 12.7 12.7 0 0 1-.22-2.378c0-4.371 3.709-7.663 6.114-7.663a4.2 4.2 0 0 1 2.026.613.23.23 0 0 1 .107.137.226.226 0 0 1-.161.28.24.24 0 0 1-.175-.02 3.76 3.76 0 0 0-1.797-.553c-2.222 0-5.656 3.096-5.656 7.206q-.004 1.154.21 2.287a.22.22 0 0 1-.032.171.22.22 0 0 1-.146.094zm2.204 3.996a.23.23 0 0 1-.142-.05 6.1 6.1 0 0 1-1.893-2.743.23.23 0 0 1-.01-.187.2.2 0 0 1 .053-.08.2.2 0 0 1 .08-.051.22.22 0 0 1 .186.011.23.23 0 0 1 .116.147 5.63 5.63 0 0 0 1.751 2.524.227.227 0 0 1 .037.324.2.2 0 0 1-.076.075.2.2 0 0 1-.102.03m3.466 1.112a6.3 6.3 0 0 1-2.319-.416.235.235 0 0 1-.128-.298.23.23 0 0 1 .21-.144q.046 0 .087.016a5.9 5.9 0 0 0 2.15.384c3.658 0 5.656-2.56 5.656-7.21a.23.23 0 0 1 .228-.229.24.24 0 0 1 .161.068c.042.043.067.1.068.161 0 4.942-2.172 7.668-6.113 7.668m5.807-8.469a.23.23 0 0 1-.224-.197 8.12 8.12 0 0 0-2.675-4.856.2.2 0 0 1-.05-.074.24.24 0 0 1 0-.176.23.23 0 0 1 .37-.074 8.6 8.6 0 0 1 2.817 5.116.233.233 0 0 1-.197.261z" fill="#1E42A2"/>
  <path d="M111.367 173.722c-3.068 0-4.974-2.346-4.974-6.118a6.6 6.6 0 0 1 1.554-4.171.23.23 0 0 1 .157-.079.228.228 0 0 1 .239.295.2.2 0 0 1-.044.077 6.1 6.1 0 0 0-1.449 3.878c0 3.493 1.728 5.66 4.517 5.66.79.02 1.57-.167 2.264-.544a.23.23 0 0 1 .229.394 4.93 4.93 0 0 1-2.493.608m3.54-1.569a.23.23 0 0 1-.179-.37c.755-.969 1.157-2.41 1.157-4.161 0-3.233-2.743-5.665-4.518-5.665a3.4 3.4 0 0 0-1.865.676.23.23 0 0 1-.161.019.23.23 0 0 1-.095-.394 3.8 3.8 0 0 1 2.121-.759c1.957 0 4.975 2.629 4.975 6.123 0 1.829-.434 3.388-1.253 4.44a.23.23 0 0 1-.182.091" fill="#1E42A2"/>
  <path d="M108.894 171.244a.22.22 0 0 1-.165-.074 5.03 5.03 0 0 1-1.18-3.484c0-2.465 2.113-4.572 3.841-4.572.325.004.646.069.947.192a.23.23 0 0 1 .114.121.23.23 0 0 1 .001.168.23.23 0 0 1-.28.136 2.2 2.2 0 0 0-.782-.16c-1.522 0-3.384 1.902-3.384 4.115a4.62 4.62 0 0 0 1.052 3.173.2.2 0 0 1 .05.075.22.22 0 0 1 0 .176.215.215 0 0 1-.214.134m2.497 1.019a3.9 3.9 0 0 1-1.486-.279.23.23 0 0 1-.145-.209.2.2 0 0 1 .017-.088.22.22 0 0 1 .122-.125.2.2 0 0 1 .087-.017.2.2 0 0 1 .088.018c.419.165.866.247 1.317.243 2.117 0 3.379-1.541 3.379-4.116a4.46 4.46 0 0 0-1.656-3.393.22.22 0 0 1-.099-.156.23.23 0 0 1 .123-.238.2.2 0 0 1 .091-.025.23.23 0 0 1 .174.067 4.92 4.92 0 0 1 1.829 3.745c-.005 2.863-1.441 4.573-3.841 4.573" fill="#1E42A2"/>
  <path d="M111.409 170.782a2.58 2.58 0 0 1-1.712-.596c-.479-.4-.797-.96-.895-1.576a.3.3 0 0 1-.002-.092.24.24 0 0 1 .097-.151.23.23 0 0 1 .175-.038.24.24 0 0 1 .151.096q.027.039.037.084a2.14 2.14 0 0 0 2.162 1.829c1.372 0 2.246-.983 2.246-2.574 0-.061.024-.119.066-.162a.23.23 0 0 1 .324 0 .23.23 0 0 1 .067.162c-.014 1.843-1.075 3.018-2.716 3.018m-2.474-2.804a.23.23 0 0 1-.162-.066.23.23 0 0 1-.066-.162c0-1.71 1.454-3.032 2.702-3.032.974 0 2.007.778 2.465 1.857a.24.24 0 0 1 0 .176.24.24 0 0 1-.124.126.24.24 0 0 1-.176 0 .24.24 0 0 1-.126-.124 2.44 2.44 0 0 0-2.039-1.577c-1.038 0-2.245 1.124-2.245 2.574a.23.23 0 0 1-.067.162.23.23 0 0 1-.162.066" fill="#1E42A2"/>
  <path d="M111.445 169.305a1.494 1.494 0 0 1-1.054-2.545 1.5 1.5 0 0 1 1.054-.437.229.229 0 1 1 0 .457 1.05 1.05 0 0 0-.556.21 1.05 1.05 0 0 0-.379 1.074 1.04 1.04 0 0 0 1.424.703c.185-.081.343-.214.453-.384.111-.169.17-.367.169-.569a1 1 0 0 0-.352-.75.23.23 0 0 1-.078-.158.23.23 0 0 1 .213-.245.23.23 0 0 1 .167.055 1.47 1.47 0 0 1 .508 1.098 1.53 1.53 0 0 1-1.569 1.491" fill="#1E42A2"/>
  <path d="M102.565 172.908a.3.3 0 0 1-.077 0 .3.3 0 0 1-.099-.07.25.25 0 0 1-.052-.109 10.12 10.12 0 0 1 4.572-10.059 5.55 5.55 0 0 1 2.529-.915q.103-.322.192-.649a9.6 9.6 0 0 0-8.473 10.284.22.22 0 0 1-.054.167.23.23 0 0 1-.156.08.23.23 0 0 1-.247-.211 10.06 10.06 0 0 1 9.223-10.828.22.22 0 0 1 .192.078.22.22 0 0 1 .045.206q-.108.426-.237.846a2.94 2.94 0 0 1 2.345 1.28c.208.324.336.692.375 1.075l.22-.266a.228.228 0 0 1 .384.243c-.457 1.02-.819 1.939-.617 2.844.054.221.156.429.297.608a8.7 8.7 0 0 1 3.086-2.048.2.2 0 0 1 .114-.013.2.2 0 0 1 .106.045.24.24 0 0 1 .087.141 23.7 23.7 0 0 1 5.331-2.926.23.23 0 0 1 .183-.006.23.23 0 0 1 .129.13.227.227 0 0 1-.147.301 23.2 23.2 0 0 0-5.588 3.142 6.64 6.64 0 0 1-3.777 4.572l-1.554 1.582a.23.23 0 0 1-.126.066.23.23 0 0 1-.14-.02.25.25 0 0 1-.123-.242 8.87 8.87 0 0 1 2.103-4.395 2.1 2.1 0 0 1-.425-.846 3 3 0 0 1-.068-.713l-.138.215a9.1 9.1 0 0 1-2.684 2.286.228.228 0 0 1-.297-.338l3.201-3.836a2.2 2.2 0 0 0-.311-1.372 2.55 2.55 0 0 0-2.103-1.07 24.1 24.1 0 0 1-7.07 10.672.24.24 0 0 1-.151.069m6.731-10.7a5.3 5.3 0 0 0-2.14.823 9.67 9.67 0 0 0-4.426 9.195 23.6 23.6 0 0 0 6.566-10.018m1.925 9.022-.096.333.366-.375-.183.042a.14.14 0 0 1-.087 0m2.419-2.675a22 22 0 0 0-1.792 2.053 6 6 0 0 0 .343-.133l1.829-1.829a1.8 1.8 0 0 1-.38-.091m-.699-.38a8.4 8.4 0 0 0-1.267 1.916q.716-.91 1.523-1.738a2 2 0 0 1-.256-.178m1.477.686-.503.512q.269-.239.503-.512m-.389-.695a.92.92 0 0 0 .585-.151.23.23 0 0 1 .16-.035.23.23 0 0 1 .142.081.2.2 0 0 1 .046.082c.283-.436.509-.906.672-1.399a22 22 0 0 0-1.605 1.422m-.777-.329q.128.106.278.178a24 24 0 0 1 2.214-1.939 8.3 8.3 0 0 0-2.47 1.761zm-1.308-2.195-1.509 1.829a5.7 5.7 0 0 0 1.17-1.207q.2-.294.339-.622m14.371-101.419h-5.071v.457h5.071zm-7.293 0h-3.054v.457h3.054zm-5.368 0H37.33v.457h76.324zM92.955 167h-4.038v.458h4.037zm-6.987 0H71.463v.458h14.505zm5.464 9.795a435 435 0 0 0-16.242 0v-.458c5.633-.1 10.645-.1 16.255 0zm-19.192-.458h-2.295v.458h2.295zm23.805-83.741H93.21v.457h2.835zm-7.665-.006-.002.457 1.865.012.003-.458zm-13.821.463v-.457c3.612-.023 7.229-.032 10.75-.023v.457c-3.526-.009-7.138 0-10.75.023m21.491 8.88h-6.246v.457h6.246zm-9.315 0H74.56v.457h12.176zm1.166 9.822c-2.656 0-5.308 0-8.102-.032v-.458c5.587.042 10.599.042 16.241 0v.458c-2.816.018-5.477.032-8.139.032m-11.148-.49H74.56v.458h2.194zm19.297 9.333H74.559v.457h21.49zm-8.382 9.881h-3.224v-.457c3.773.032 7.678 0 11.596-.073v.457c-2.807.046-5.629.073-8.372.073m-6.31-.05-1.829-.036v-.458l1.83.037zm-4.806-.494H74.56v.458h1.993zm10.888 9.671c-2.638 0-5.277-.05-8.066-.15v-.458c5.565.201 10.517.201 16.09 0v.458c-2.766.1-5.386.15-8.024.15m-11.038-.608H74v.458h2.4zm18.582 9.337H91.92v.457h3.064zm-13.717.462h-7.773v-.457H89.04v.457zm-3.397 9.328v-.457c5.729-.179 10.7-.179 16.122 0v.457a243 243 0 0 0-16.122 0m-2.99-.457h-2.401v.457h2.4zM41.554 90.346v.457h-.983v1.83h-.457V88.37h1.692v.457H40.57v1.55zm1.089-1.984v4.261h-.458v-4.261zm1.435-.001c.668 0 .951.343.951.974v.348c0 .457-.164.763-.53.878.389.114.535.43.535.887v.663c-.015.175.015.352.087.512h-.485a1.1 1.1 0 0 1-.078-.517v-.69c0-.457-.224-.631-.621-.631h-.334v1.829h-.458v-4.262zm-.123 2.008c.38 0 .603-.12.603-.58v-.408c0-.384-.137-.585-.493-.585h-.458v1.573zm3.415-.983v.114h-.457v-.137c0-.384-.146-.608-.484-.608-.339 0-.49.224-.49.599 0 .956 1.431 1.047 1.431 2.245 0 .645-.31 1.066-.96 1.066s-.955-.421-.955-1.066v-.242h.457v.27c0 .379.16.608.498.608.339 0 .499-.229.499-.609 0-.95-1.422-1.042-1.422-2.24 0-.658.306-1.065.941-1.065.636 0 .943.42.943 1.065m1.038 3.237v-3.827h-.782v-.457h2.044v.457h-.787v3.827zm2.953 0h-.425v-4.261h.608l.988 3.082v-3.082h.42v4.261h-.493l-1.09-3.443zm2.547-.86-.165.86h-.457l.819-4.262h.685l.814 4.262h-.457l-.165-.86zm.06-.407h.95l-.457-2.455zm3.598 1.258h-.457l-.704-3.388v3.397h-.416v-4.261h.663l.7 3.402.676-3.402h.663v4.261h-.457V89.2zm3.123-2.364v.425h-1.042v1.514h1.28v.434h-1.756V88.36h1.756v.458h-1.28v1.454zm9.603-.535v.59h-.458v-.59zm0 2.318v.59h-.458v-.59zm-30.179 10.124V97.9h.457v3.827h1.216v.43zm2.515-.855-.165.855h-.434l.814-4.257h.686l.818 4.257h-.457l-.165-.855zm.064-.407h.946l-.48-2.46zm3.868-1.971v.114h-.457v-.141c0-.385-.146-.609-.484-.609-.339 0-.485.225-.485.604 0 .956 1.426 1.047 1.426 2.245 0 .645-.31 1.066-.96 1.066s-.956-.421-.956-1.066v-.242h.458v.265c0 .384.16.608.498.608.339 0 .499-.224.499-.608 0-.946-1.422-1.038-1.422-2.236 0-.658.306-1.065.942-1.065s.941.416.941 1.065m1.039 3.233v-3.823h-.783V97.9h2.044v.434h-.786v3.823zm2.953 0h-.425V97.9h.599l.988 3.077V97.9h.42v4.257h-.494l-1.088-3.425zm2.547-.855-.165.855h-.434l.814-4.257H54l.814 4.257h-.458l-.164-.855zm.064-.407h.947l-.48-2.46zm3.594 1.257H56.3l-.704-3.388v3.393h-.393V97.9h.663l.7 3.402.676-3.402h.664v4.257h-.458v-3.425zm3.128-2.364v.425h-1.024v1.514h1.28v.43h-1.756V97.9h1.756v.434h-1.28v1.454zm10.563-.539v.594h-.458v-.594zm0 2.318v.59h-.458v-.59zm-29.878 5.634v4.257h-.457v-4.257zm1.486 0c.663 0 .97.397.97 1.056v2.149c0 .649-.307 1.052-.97 1.052h-.997v-4.257zm0 3.827c.339 0 .503-.215.503-.604v-2.19c0-.389-.164-.603-.507-.603h-.512v3.397zm2.776.43h-.425v-4.257h.603l.983 3.077v-3.077h.421v4.257h-.494l-1.088-3.443zm2.519-1.006c0 .384.15.617.498.617s.494-.233.494-.617v-3.251h.457v3.228c0 .645-.297 1.079-.955 1.079-.659 0-.951-.434-.951-1.079v-3.228h.457zm3.475 1.001h-.457l-.709-3.388v3.393h-.402v-4.257h.663l.709 3.42.676-3.397h.663v4.257h-.457v-3.425zm2.547-4.252c.663 0 .914.315.914.942v.192c0 .457-.127.727-.498.846.416.114.572.457.572.914v.361a.88.88 0 0 1-.974.997h-.928v-4.257zm-.114 1.829c.375 0 .571-.124.571-.567v-.247c0-.38-.128-.563-.457-.563h-.457v1.372zm.137 2.021c.347 0 .507-.183.507-.581v-.375c0-.457-.187-.636-.599-.636h-.388v1.592zm2.94-1.966v.425H55.3v1.518h1.276v.43h-1.751v-4.257h1.751v.43H55.3v1.454zm1.61-1.884c.672 0 .95.338.95.974v.343c0 .457-.164.763-.53.878.39.114.535.429.535.887v.663c-.012.175.018.35.087.512h-.48a1.1 1.1 0 0 1-.082-.517v-.668c0-.484-.224-.635-.617-.635h-.32v1.829h-.458v-4.257zm-.12 2.007c.376 0 .6-.123.6-.585v-.407c0-.384-.137-.585-.49-.585h-.457v1.577zm12.411-.659v.59h-.457v-.59zm0 2.319v.589h-.457v-.589zm-28.258 6.127v.361h-.458v-.388c0-.384-.155-.613-.503-.613-.347 0-.498.229-.498.613v2.254c0 .379.16.613.498.613.339 0 .503-.234.503-.613v-.855h-.457v-.43h.887v1.253c0 .645-.306 1.07-.96 1.07s-.956-.425-.956-1.07v-2.199c0-.645.302-1.075.956-1.075s.988.434.988 1.079m1.966.855v.425h-1.043v1.518h1.28v.43h-1.755v-4.257h1.756v.43h-1.28v1.454zm1.093 2.373h-.426v-4.257h.604l.983 3.077v-3.077h.42v4.257h-.493l-1.089-3.443zm3.068-4.257c.663 0 .965.402.965 1.056v2.149c0 .649-.302 1.052-.965 1.052h-.997v-4.257zm0 3.827c.338 0 .503-.215.503-.604v-2.167c0-.389-.165-.604-.513-.604h-.512v3.398zm2.926-1.943v.425H49.99v1.518h1.28v.43h-1.75v-4.257h1.75v.43h-1.28v1.454zm1.624-1.884c.668 0 .951.338.951.974v.347c0 .458-.165.759-.53.874.388.114.535.434.535.887v.663a1.03 1.03 0 0 0 .087.512h-.485a1.2 1.2 0 0 1-.078-.517v-.667c0-.481-.224-.636-.622-.636h-.334v1.829h-.457v-4.257zm-.123 2.007c.379 0 .603-.123.603-.585v-.407c0-.384-.137-.585-.494-.585h-.457v1.577zm18.061-.658v.59h-.458v-.59zm0 2.318v.59h-.458v-.59zm-29.498 5.62c.663 0 .97.402.97 1.056v2.145c0 .649-.307 1.051-.97 1.051h-.983v-4.252zm0 3.827c.338 0 .503-.215.503-.603v-2.191c0-.388-.165-.603-.512-.603h-.517v3.397zm1.806-.169v.59h-.457v-.59zm.412-2.643c0-.654.324-1.07.973-1.07.65 0 .984.416.984 1.07v2.186a.94.94 0 0 1-.576 1.006.95.95 0 0 1-.408.068c-.649 0-.973-.43-.973-1.074zm.457 2.227c0 .388.164.613.503.613s.507-.225.507-.613v-2.254c0-.38-.16-.613-.507-.613-.348 0-.503.233-.503.613zm2.318.416v.59h-.457v-.59zm1.445-3.658c.663 0 .914.315.914.942v.201c0 .457-.128.732-.498.846.411.114.571.457.571.914v.357a.876.876 0 0 1-.576.955.9.9 0 0 1-.398.042h-.978v-4.257zm-.115 1.806c.375 0 .572-.123.572-.567v-.247c0-.379-.128-.562-.457-.562h-.458v1.372zm.137 2.021c.348 0 .508-.183.508-.581v-.375c0-.457-.192-.631-.599-.631h-.412v1.587zm22.607-2.492v.59h-.457v-.59zm0 2.318v.59h-.457v-.585zm-30.411 7.961v1.916h-.458v-4.257h.458v1.916H40.8v-1.916h.457v4.257H40.8v-1.916zm3.52-.457v.425h-1.038v1.518h1.276v.43H41.76v-4.257h1.751v.43h-1.276v1.454zm1.149-1.884v4.257h-.458v-4.257zm2.368 1.029v.366h-.457v-.394c0-.379-.156-.612-.503-.612-.348 0-.499.233-.499.612v2.255c0 .384.16.612.499.612s.503-.228.503-.612v-.855h-.457v-.426h.887v1.253c0 .645-.302 1.075-.96 1.075-.66 0-.956-.43-.956-1.075v-2.199c0-.645.301-1.07.955-1.07s.988.425.988 1.07m.923 1.312v1.916h-.457v-4.257h.457v1.916h1.047v-1.916h.458v4.257h-.458v-1.916zm2.63 1.916v-3.827h-.787v-.43H51.6v.43h-.782v3.827zm19.035-2.908v.59h-.457v-.59zm0 2.318v.59h-.457v-.59zm-29.982 9.355h-.654l-.58-4.257h.456l.499 3.626.457-3.621h.457l.458 3.626.484-3.631h.412l-.576 4.257h-.627l-.411-2.89zm3.919-2.368v.425h-1.038v1.513h1.276v.43H41.8v-4.257h1.752v.435h-1.276v1.454zm1.161-1.889v4.257h-.457v-4.257zm2.364 1.029v.366h-.457v-.388c0-.384-.155-.618-.498-.618s-.499.234-.499.618v2.249c0 .384.156.613.499.613s.498-.229.498-.613v-.85h-.457v-.425h.887v1.252c0 .645-.302 1.07-.96 1.07-.659 0-.956-.425-.956-1.07v-2.204c0-.644.306-1.07.956-1.07s.987.426.987 1.07m.923 1.312v1.916h-.457v-4.257h.457v1.916h1.038v-1.916h.458v4.257H48.8v-1.916zm2.63 1.916v-3.822h-.782v-.435h2.044v.435h-.786v3.822zm18.071-2.907v.594h-.458v-.594zm0 2.318v.59h-.458v-.59zm-30.179 6.113c.663 0 .914.316.914.942v.201c0 .458-.128.732-.498.846.416.115.571.458.571.915v.37a.876.876 0 0 1-.576.955.9.9 0 0 1-.398.042h-.978v-4.257zm-.115 1.829c.375 0 .572-.119.572-.567v-.274c0-.38-.128-.558-.457-.558h-.458v1.372zm.137 2.021c.348 0 .508-.183.508-.576v-.379c0-.458-.187-.631-.599-.631h-.389v1.586zm1.423.407v-4.257h.457v3.827h1.216v.43zm2.012-3.228c0-.649.324-1.07.974-1.07s.978.421.978 1.07v2.204c0 .645-.32 1.07-.978 1.07-.659 0-.974-.425-.974-1.07zm.457 2.227c0 .388.165.613.503.613s.503-.225.503-.613v-2.268c0-.384-.156-.617-.503-.617-.348 0-.503.233-.503.617zm1.911-2.227c0-.649.32-1.07.974-1.07s.978.421.978 1.07v2.204a.91.91 0 0 1-.568 1.011.9.9 0 0 1-.41.059c-.654 0-.974-.425-.974-1.07zm.457 2.227c0 .388.165.613.508.613s.503-.225.503-.613v-2.268c0-.384-.16-.617-.503-.617s-.508.233-.508.617zm2.941-3.256c.663 0 .97.402.97 1.061v2.144c0 .654-.307 1.052-.97 1.052h-.992v-4.257zm0 3.827c.343 0 .507-.215.507-.603v-2.191c0-.388-.164-.599-.512-.599h-.53v3.393zm2.977.43v-3.822h-.769v-.458h2.049v.458h-.787v3.822zm2.341-1.527-.915-2.744h.494l.663 2.095.672-2.095h.457l-.914 2.744v1.527h-.457zm2.648-2.73c.667 0 .955.398.955 1.043v.507c0 .677-.315 1.029-.992 1.029h-.42v1.678h-.458v-4.257zm-.037 2.154c.352 0 .526-.165.526-.572v-.567c0-.389-.142-.581-.49-.581h-.457v1.72zm2.894-.252v.43h-1.038v1.514h1.276v.43h-1.751v-4.257h1.751v.457h-1.276v1.426zm9.62-.553v.59h-.457v-.59zm0 2.318v.59h-.457v-.59zm-31.317 8.108v1.915h-.457v-4.257h.457v1.916h1.047v-1.916h.457v4.257h-.457v-1.915zm1.976-1.313c0-.654.32-1.07.973-1.07.654 0 .979.416.979 1.07v2.199c0 .645-.325 1.075-.979 1.075s-.974-.43-.974-1.075zm.457 2.227c0 .389.164.613.507.613s.503-.224.503-.613v-2.254c0-.38-.16-.613-.503-.613s-.507.233-.507.613zm3.512.997h-.457l-.71-3.388v3.392h-.383v-4.257h.663l.7 3.402.676-3.402h.663v4.257h-.457v-3.424zm3.127-2.369v.425h-1.02v1.519h1.276v.429h-1.751v-4.257h1.751v.43h-1.276v1.454zm2.099 1.518-.165.855h-.457l.814-4.257h.686l.818 4.257h-.457l-.164-.855zm.064-.411h.933l-.458-2.456zm3.021-2.991c.664 0 .966.403.966 1.057v2.149c0 .649-.302 1.051-.965 1.051h-.997v-4.257zm0 3.828c.34 0 .504-.215.504-.604v-2.19c0-.389-.165-.604-.512-.604h-.512v3.398zm2.36-3.828c.672 0 .951.339.951.974v.348c0 .457-.164.759-.53.873.389.114.535.457.535.887v.663c-.015.176.014.352.087.512h-.457a1.1 1.1 0 0 1-.083-.516v-.668c0-.48-.224-.635-.617-.635h-.338v1.829h-.458v-4.257zm-.119 2.008c.375 0 .6-.124.6-.586v-.407c0-.384-.138-.585-.49-.585h-.457v1.578zm3.083-.124v.425h-1.038v1.519h1.276v.429H54.7v-4.257h1.752v.43h-1.276v1.454zm2.52-.864v.137h-.458v-.142c0-.384-.141-.608-.484-.608s-.485.224-.485.604c0 .955 1.427 1.047 1.427 2.245 0 .645-.311 1.065-.96 1.065-.65 0-.956-.42-.956-1.065v-.27h.457v.27c0 .384.16.608.498.608.339 0 .503-.224.503-.608 0-.951-1.426-1.038-1.426-2.241 0-.654.306-1.061.942-1.061s.942.421.942 1.066m2.263 0v.137h-.457v-.142c0-.384-.142-.608-.485-.608s-.485.224-.485.604c0 .955 1.427 1.047 1.427 2.245 0 .645-.311 1.065-.96 1.065-.65 0-.956-.42-.956-1.065v-.27h.457v.27c0 .384.16.608.499.608s.498-.224.498-.608c0-.951-1.422-1.038-1.422-2.241 0-.654.306-1.061.942-1.061s.942.421.942 1.066m5.593.329v.59h-.458v-.59zm0 2.319v.589h-.458v-.589zm-31.017 6.113c.668 0 .956.393.956 1.038v.512c0 .677-.32 1.029-.992 1.029h-.421v1.678h-.457v-4.257zm-.036 2.154c.352 0 .52-.165.52-.572v-.567c0-.389-.14-.585-.484-.585h-.457v1.724zm1.833.196v1.916h-.457v-4.257h.457v1.916h1.047v-1.916h.458v4.257h-.458v-1.916zm1.976-1.321c0-.654.32-1.075.97-1.075.648 0 .982.421.982 1.075v2.199a.92.92 0 0 1-.57 1.012.9.9 0 0 1-.413.058c-.65 0-.97-.425-.97-1.07zm.457 2.227c0 .388.165.612.503.612s.508-.224.508-.612v-2.255c0-.384-.16-.612-.508-.612s-.503.228-.503.612zm2.364 1.001h-.425v-4.257h.603l.983 3.077v-3.077h.444v4.257h-.494L42.19 173.1zm3.585-2.364v.425H44.71v1.518h1.275v.43H44.23v-4.257h1.75v.43h-1.275v1.454zm2.034 2.364h-.425v-4.257h.603l.983 3.077v-3.077h.421v4.257h-.494l-1.088-3.443zm2.52-.992c0 .379.15.613.498.613s.494-.234.494-.613v-3.256h.457v3.228c0 .645-.297 1.079-.956 1.079-.658 0-.946-.434-.946-1.079v-3.228h.457zm3.475.987h-.457l-.704-3.388v3.393h-.416v-4.257h.663l.7 3.402.676-3.402h.663v4.257h-.457v-3.425zm2.565-4.252c.663 0 .915.315.915.942v.201c0 .457-.128.732-.499.846.412.114.572.457.572.914v.362a.872.872 0 0 1-.974.997h-.983v-4.258zm-.114 1.806c.38 0 .572-.123.572-.567v-.261c0-.379-.128-.562-.458-.562h-.457v1.372zm.142 2.021c.347 0 .503-.183.503-.581v-.375c0-.457-.188-.635-.595-.635h-.416v1.591zm2.917-1.934v.425h-1.038v1.518h1.276v.43h-1.751v-4.257h1.751v.43h-1.276v1.454zm1.629-1.893c.667 0 .946.338.946.974v.347c0 .458-.165.759-.53.874.392.114.534.434.534.887v.663c-.013.175.017.351.087.512h-.48a1.1 1.1 0 0 1-.078-.517v-.667c0-.48-.228-.636-.622-.636h-.333v1.829h-.458v-4.257zm-.124 2.007c.375 0 .603-.123.603-.585v-.407c0-.384-.142-.585-.494-.585h-.457v1.577zm4.856-.658v.59h-.458v-.59zm0 2.318v.59h-.458v-.59z" fill="#263238"/>
  <path d="M126.036 67.223h-24.76v31.596h24.76z" fill="#BFBFBF"/>
  <path d="M124.395 98.929h-21.491l.457-2.597v-.535a14.3 14.3 0 0 1 1.372-6.1v-.055l5.391-1.463a4 4 0 0 1 .425-1.294c.299-.202.628-.357.974-.457v-.983a9.4 9.4 0 0 1-.956-2.09.5.5 0 0 1-.192-.041 1.1 1.1 0 0 1-.315-.215 3.7 3.7 0 0 1-.64-.659 1.37 1.37 0 0 1-.275-.864c.002-.3.063-.596.179-.873a1.2 1.2 0 0 1 .48-.37q.05-.54 0-1.08c-.668-6.232 8.185-7.928 8.294.224 0 .307.023.695.023.695a.77.77 0 0 1 .425.458q.097.465.138.937c.007.31-.09.615-.275.864a3.8 3.8 0 0 1-.644.659 1.1 1.1 0 0 1-.316.215.4.4 0 0 1-.247.031 9 9 0 0 1-1.143 2.374v.914c.645.188 1.253.54 1.289 1.157q.011.143.037.283c2.012.48 5.144 1.372 5.144 1.372l.041.215a14.24 14.24 0 0 1 1.372 6.118l.457 3.169z" fill="#263238"/>
  <path d="M147.093 60.844h-4.838m4.678 8.313h-4.678m4.513 8.313h-4.513m4.353 8.313h-4.353m4.193 8.313h-4.193m4.028 8.312h-4.028m3.868 8.313h-3.868m3.708 8.313h-3.708m3.544 8.313h-3.544m3.384 8.313h-3.384m3.224 8.313h-3.224m3.059 8.313h-3.059m2.899 8.313h-2.899m2.739 8.312h-2.739m2.574 8.314h-2.574m2.414 8.312h-2.414m2.254 8.313h-2.254M142.2 60.844V193.85m30.86-144.236c-1.093 1.372-2.689 2.743-4.202 4.152l-1.034.914h-.022l-1.084-.914a35 35 0 0 1-3.891-3.754" stroke="#5C5C5C" stroke-width=".457" stroke-linecap="round" stroke-linejoin="round"/>
  <path d="m173.316 48.507-1.829.078-.521 1.06-1.244-3.36-.786 3.375-.791-1.683-.983 3.05-1.655-6.562-.951 4.408-2.022.091c-1.321-1.719-1.829-3.447-.278-5.066 1.915-2.035 4.321-.33 5.551.796 1.188-1.148 3.813-3.498 6.031-.69 1.129 1.39.567 3.003-.522 4.503M139.118 28.47a4.156 4.156 0 0 0-4.156 4.152c0 2.287 4.156 8.345 4.156 8.345s4.152-6.045 4.152-8.345a4.157 4.157 0 0 0-4.152-4.151m0 6.2a1.895 1.895 0 0 1-1.861-2.259 1.89 1.89 0 0 1 1.486-1.49 1.892 1.892 0 1 1 .375 3.75m31.907.593a4.16 4.16 0 0 0 4.157-4.156c0-2.286-4.157-8.345-4.157-8.345s-4.156 6.05-4.156 8.345a4.16 4.16 0 0 0 4.156 4.156m.001-7.448v2.995m-1.501-1.496h2.995m-2.995 2.991h2.995M153.055 50.68c0 1.343-.914 2.523-2.835 2.884a7.4 7.4 0 0 1-2.007.074 7.5 7.5 0 0 1-2.405-.618.91.91 0 0 1-.54-.867.9.9 0 0 1 .082-.349v0a.92.92 0 0 1 .522-.493.92.92 0 0 1 .718.036 6 6 0 0 0 1.609.457q.375.06.755.06c.427.016.853-.054 1.252-.206a.84.84 0 0 0 .608-.812.84.84 0 0 0-.608-.812 11 11 0 0 0-2.007-.571c-1.463-.361-2.995-.915-2.995-2.79 0-1.408.979-2.615 2.995-2.926a6.6 6.6 0 0 1 1.075-.082q.459.003.914.06a6.7 6.7 0 0 1 1.573.379.9.9 0 0 1 .522.493.9.9 0 0 1 .004.718v0a.9.9 0 0 1-.498.506.9.9 0 0 1-.709-.002 5.5 5.5 0 0 0-.892-.261 4.5 4.5 0 0 0-.946-.096c-.36-.009-.718.04-1.061.146a1 1 0 0 0-.773.956c0 .416.306.663.773.85q.99.318 2.007.526c1.45.38 2.867.951 2.867 2.74m-4.837-7.925v-1.17h2.007v1.147m0 11.843v1.088h-2.007v-1.01m5.253-42.548-6.401 6.402h2.4v6.013h2.767v-3.942h2.419v3.942h2.766v-6.036h2.405z" stroke="#5C5C5C" stroke-width=".457" stroke-linecap="round" stroke-linejoin="round"/>
  <path d="M157.207 92.55h-41.464v55.213h41.464z" fill="#BFBFBF" stroke="#263238" stroke-width=".457" stroke-linecap="round" stroke-linejoin="round"/>
  <path d="M122.42 147.608h-6.452l.864-4.984v-1.047a27.4 27.4 0 0 1 2.629-11.701v-.037l2.959 17.751zm34.751 0h-6.47l2.286-13.814.663-4.005a27.3 27.3 0 0 1 2.643 11.738l.882 6.081z" fill="#1E42A2" stroke="#263238" stroke-width=".457" stroke-linecap="round" stroke-linejoin="round"/>
  <path d="M153.577 129.368s-.261 1.916-.585 4.417c-.481 3.658-1.098 8.569-1.258 10.608-.05.659-.128 1.793-.219 3.201h-29.502c-.952-7.156-2.378-16.607-2.543-17.714v-.105l10.343-2.807 1.409-.385a4 4 0 0 1 1.285-.521 10.3 10.3 0 0 1 1.774-.26h.283a29 29 0 0 1 4.202.123 45 45 0 0 1 2.415.288h.032c.567.087 1.458.284 2.515.535 3.84.905 9.849 2.62 9.849 2.62" fill="#1E42A2"/>
  <mask id="b" style="mask-type:luminance" maskUnits="userSpaceOnUse" x="119" y="125" width="35" height="23">
    <path d="M153.576 129.368s-.26 1.916-.585 4.417c-.48 3.658-1.097 8.569-1.257 10.608a318 318 0 0 0-.22 3.201h-29.502c-.951-7.156-2.378-16.607-2.542-17.714v-.105l10.343-2.807 1.408-.385a4 4 0 0 1 1.285-.521 10.3 10.3 0 0 1 1.774-.26h.284a29 29 0 0 1 4.202.123c.914.082 1.751.192 2.414.288h.032c.567.087 1.459.284 2.515.535 3.841.905 9.849 2.62 9.849 2.62" fill="#fff"/>
  </mask>
  <g mask="url(#b)">
    <path opacity=".2" d="m129.378 134.526 4.358-2.428c.425-.238.974-.457 1.371-.169.398.288.316.873.567 1.271a1.375 1.375 0 0 0 1.532.425c.553-.146 1.038-1.372 1.578-1.564 1.774-.58 3.626 1.423 5.18 2.46q-.37-3.621-.736-7.242c0 .123-10.059-.055-10.974.146-2.977.672-2.519 4.636-2.876 7.101" fill="#000"/>
  </g>
  <path d="M153.577 129.368s-.261 1.916-.585 4.417c-.481 3.658-1.098 8.569-1.258 10.608-.05.659-.128 1.793-.219 3.201h-29.502c-.952-7.156-2.378-16.607-2.543-17.714v-.105l10.343-2.807 1.409-.385a4 4 0 0 1 1.285-.521 10.3 10.3 0 0 1 1.774-.26h.283a29 29 0 0 1 4.202.123 45 45 0 0 1 2.415.288h.032c.567.087 1.458.284 2.515.535 3.84.905 9.849 2.62 9.849 2.62" stroke="#263238" stroke-width=".457" stroke-linecap="round" stroke-linejoin="round"/>
  <path d="M133.531 123.259s-2.438.732-2.922 1.217c-.485.484-.851 3.063-1.345 4.385-.493 1.321-2.066 3.658-1.577 3.772s7.956-2.337 7.956-2.337l1.418 5.771.905-5.784s7.119 2.83 7.357 2.46-1.568-4.747-1.687-6.576-2.803-2.437-4.385-2.551-5.72-.357-5.72-.357" fill="#263238"/>
  <path d="M132.484 120.31v7.12l4.399 2.236.041 5.935-.041-5.935 4.275-2.337v-7.435zm-4.065-7.357c-.274.395-.45.85-.513 1.326a2.6 2.6 0 0 0 .522 1.66 7 7 0 0 0 1.234 1.266c.178.171.382.313.604.421a.71.71 0 0 0 .987-.351.7.7 0 0 0 .046-.385 3 3 0 0 0-.192-.782c-.366-1.088-.251-2.254-.562-3.306-.352-1.207-1.614-.686-2.126.151m17.27 0c.273.395.448.85.507 1.326a2.6 2.6 0 0 1-.525 1.66c-.357.471-.77.897-1.23 1.266a2.3 2.3 0 0 1-.609.421.8.8 0 0 1-.713-.027.82.82 0 0 1-.32-.709q.041-.405.197-.782c.361-1.088.247-2.254.558-3.306.356-1.207 1.623-.686 2.135.151" fill="#fff" stroke="#263238" stroke-width=".457" stroke-linecap="round" stroke-linejoin="round"/>
  <path d="M132.479 121.714s1.34 5.08 4.028 5.19c2.689.109 4.66-4.664 4.66-4.664s-2.78-2.017-8.688-.526" fill="#263238"/>
  <path d="M144.367 111.673c0 5.619-3.306 13.365-7.38 13.365s-7.384-7.746-7.384-13.365c0-5.62 3.305-10.17 7.384-10.17s7.38 4.546 7.38 10.17" fill="#fff" stroke="#263238" stroke-width=".457" stroke-linecap="round" stroke-linejoin="round"/>
  <path d="M134.308 112.624c.229 0 .412.457.412 1.056s-.183 1.061-.412 1.061-.416-.457-.416-1.061.169-1.056.416-1.056m5.139 0c.229 0 .412.457.412 1.056s-.183 1.061-.412 1.061-.416-.457-.416-1.061.188-1.056.416-1.056" fill="#263238"/>
  <path d="m137.742 112.093-.27.544s.183 2.853.261 3.471-.375 1.312-1.047.946l-.677-.366m-1.075 2.758c0 .562 4.115.562 4.115 0" stroke="#263238" stroke-width=".457" stroke-linecap="round" stroke-linejoin="round"/>
  <path d="m129.959 115.463.864.169a13.3 13.3 0 0 1-.594-2.807c-.078-.809 1.083-2.021 1.083-2.588 0-3.077 1.674-2.991 2.017-2.538.046-.562 2.679-3.278 4.646.485.503.96 5.852 1.829 5.834 2.679a28.6 28.6 0 0 1-.457 4.545c.434.083.818-.37.873-.813.055-.444.165-2.154.535-2.401a.86.86 0 0 0 .915.457 4.4 4.4 0 0 1-.403-1.701c.028-.59.334-.201.915-.366.297-.086 2.798-1.774 3.109-2.675-1.134.142-2.204-.635-2.853-1.577s-1.001-2.049-1.55-3.05c-1.372-2.497-4.115-4.27-6.955-4.161-2.839.11-5.565 2.286-5.995 5.103a1.63 1.63 0 0 0-1.673.274c-.444.401-.81.88-1.079 1.413a9.4 9.4 0 0 0-1.285 2.95c-.197 1.056.878 2.546 1.696 3.246.133-.247.06 3.356.357 3.356" fill="#263238"/>
  <path d="M130.353 105.765a3.5 3.5 0 0 0-1.249 1.701m1.331-.682a3 3 0 0 0-.526.723m1.033-.137a1.7 1.7 0 0 0-.416.695m6.224-3.233a1.52 1.52 0 0 1 1.266 1.097m-1.202-2.295a2.88 2.88 0 0 1 2.172 2.062m.059-2.012a2.23 2.23 0 0 1 .722 1.569m.545-1.317c.234.289.355.652.342 1.024m.586-.777a.82.82 0 0 1 .197.631m.782-.535q.047.169.1.338" stroke="#5C5C5C" stroke-width=".457" stroke-linecap="round" stroke-linejoin="round"/>
  <path d="M132.109 111.924c.288-.242.48-.581.786-.8a1.74 1.74 0 0 1 1.413-.197c.473.138.923.345 1.335.613m2.84-.004a5 5 0 0 1 1.335-.613 1.74 1.74 0 0 1 1.413.197c.302.219.498.557.786.8" stroke="#263238" stroke-width=".457" stroke-linecap="round" stroke-linejoin="round"/>
  <path d="M134.116 124.759a7.06 7.06 0 0 0 1.783 4.294z" fill="#fff"/>
  <path d="M134.116 124.759a7.06 7.06 0 0 0 1.783 4.294m-1.774-21.422c.168-.418.398-.808.681-1.157.127-.172.291-.312.48-.412a.6.6 0 0 1 .608.041m-.932 1.71a2.61 2.61 0 0 1 2.094-1.394m-1.175 1.458c.283-.379 2.501-1.609 3.009.288m-6.379.11a2.46 2.46 0 0 0-2.035.874m1.399-.055a2.48 2.48 0 0 0-1.76 1.655m-13.182 31.815a4.74 4.74 0 0 0 .836 2.845m3.736-6.854c.402 2.982.576 5.99.521 8.998m31.624-11.129q-.974 4.047-1.953 8.098" stroke="#263238" stroke-width=".457" stroke-linecap="round" stroke-linejoin="round"/>
  <path d="M155.342 142.935a14.8 14.8 0 0 1-2.68 4.852m-33.64-10.906a18.85 18.85 0 0 0 2.465 7.499m15.436-8.779-.173 7.453h1.733l.114-12.661" stroke="#263238" stroke-width=".457" stroke-miterlimit="10"/>
  <path d="M137.632 142.085a.422.422 0 1 0-.001-.843.422.422 0 0 0 .001.843Zm.508-5.725a.42.42 0 0 1-.506.407.421.421 0 1 1 .506-.407Z" stroke="#263238" stroke-width=".457" stroke-miterlimit="10"/>
  <path d="M152.461 127.937c-.041.146 1.125 5.089 1.125 5.089s.773.329.892-.727c.032-.283-.115-1.399-.097-1.911.051-1.491.417-2.776-.946-2.936 0 0-.8-.114-.974.485" fill="#fff" stroke="#263238" stroke-width=".457" stroke-linecap="round" stroke-linejoin="round"/>
  <path d="M152.827 129.611c-.247-.028.339.946.371 3.045.03.595.199 1.174.493 1.692 0 0 .609.27.59-.791 0-.663-.274-2.405-.306-2.675-.229-1.806-.21-1.559-.178-1.372a3.8 3.8 0 0 1-.97.101" fill="#fff" stroke="#263238" stroke-width=".457" stroke-linecap="round" stroke-linejoin="round"/>
  <path d="M151.853 130.1a41 41 0 0 0 .732 4.435c.242 1.253 1.371.608 1.307-.649a19 19 0 0 1-.279-2.332 5 5 0 0 0-.329-2.035s-1.257-.023-1.431.581" fill="#fff" stroke="#263238" stroke-width=".457" stroke-linecap="round" stroke-linejoin="round"/>
  <path d="M156.361 108.234c-.292 5.853-.887 12.954-.942 13.653l-.114 2.2c.227.672.348 1.376.357 2.085a3.5 3.5 0 0 1-.293 1.472q-.302.556-.7 1.047c-.283 1.624-.388 2.04-1.481 1.962-.055 0-.069 1.692-.069 1.692.176.648.215 1.325.115 1.989a.77.77 0 0 1-.732.585s-.357-.32-.709-2.117a34 34 0 0 1-.242-1.957c-.024-.957.045-1.914.206-2.858q.012-.12.036-.238s.631-3.365.691-3.411l-.457-10.777a82 82 0 0 1 .342-8.455c.138-1.426-.283-3.127-.288-5.944 0-2.497.782-7.092.915-8.866.032-.43 1.44-.403 1.477-.48l2.419.809s-.22 11.523-.531 17.609" fill="#fff" stroke="#263238" stroke-width=".457" stroke-linecap="round" stroke-linejoin="round"/>
  <path d="M153.614 126.775c-.371 1.162-.307 2.049-.604 3.11-.064.228.087.686.297.727" fill="#fff"/>
  <path d="M153.614 126.775c-.371 1.162-.307 2.049-.604 3.11-.064.228.087.686.297.727" stroke="#263238" stroke-width=".457" stroke-linecap="round" stroke-linejoin="round"/>
  <path d="m153.092 126.776.151 1.079z" fill="#fff"/>
  <path d="m153.092 126.776.151 1.079" stroke="#263238" stroke-width=".457" stroke-linecap="round" stroke-linejoin="round"/>
  <path d="M182.809 128.454c.041.142-1.12 5.089-1.12 5.089s-.773.325-.892-.732c-.032-.283.11-1.394.096-1.911-.055-1.486-.416-2.771.942-2.931 0-.009.8-.123.974.485" fill="#fff" stroke="#263238" stroke-width=".457" stroke-linecap="round" stroke-linejoin="round"/>
  <path d="M182.443 130.118c.252-.028-.338.942-.366 3.045a3.8 3.8 0 0 1-.493 1.687s-.613.275-.595-.786c0-.663.275-2.41.311-2.675.229-1.806.206-1.559.174-1.372q.478.111.969.101" fill="#fff" stroke="#263238" stroke-width=".457" stroke-linecap="round" stroke-linejoin="round"/>
  <path d="M183.417 130.603a40 40 0 0 1-.727 4.44c-.242 1.248-1.399.608-1.307-.65q.21-1.159.278-2.336a5 5 0 0 1 .325-2.035s1.248-.018 1.431.581" fill="#fff" stroke="#263238" stroke-width=".457" stroke-linecap="round" stroke-linejoin="round"/>
  <path d="M178.909 108.741c.297 5.849.887 12.954.946 13.654l.11 2.199a6.9 6.9 0 0 0-.352 2.086 3.55 3.55 0 0 0 .288 1.467q.308.554.7 1.052c.288 1.619.388 2.039 1.481 1.962q.08.844.069 1.691a4.9 4.9 0 0 0-.115 1.99.766.766 0 0 0 .732.58s.361-.315.713-2.117c.042-.21.229-1.715.238-1.952.029-.959-.04-1.918-.206-2.863a2 2 0 0 0-.032-.233s-.631-3.365-.695-3.411l.458-10.778a83 83 0 0 0-.343-8.454c-.142-1.427.279-3.132.283-5.945 0-2.496-.777-7.091-.914-8.87-.032-.425-1.441-.403-1.473-.457l-2.419.804s.224 11.509.531 17.595" fill="#fff" stroke="#263238" stroke-width=".457" stroke-linecap="round" stroke-linejoin="round"/>
  <path d="M181.657 127.279c.375 1.161.306 2.048.603 3.109.069.233-.087.686-.297.727" fill="#fff"/>
  <path d="M181.657 127.279c.375 1.161.306 2.048.603 3.109.069.233-.087.686-.297.727" stroke="#263238" stroke-width=".457" stroke-linecap="round" stroke-linejoin="round"/>
  <path d="M182.178 127.279q-.07.542-.146 1.083z" fill="#fff"/>
  <path d="M182.178 127.279q-.07.542-.146 1.083" stroke="#263238" stroke-width=".457" stroke-linecap="round" stroke-linejoin="round"/>
  <path d="M161.286 187.257a9.8 9.8 0 0 1-2.99 3.9 4.86 4.86 0 0 0-1.454 1.728 1.09 1.09 0 0 0 .101 1.03 1.09 1.09 0 0 0 .914.484h7.416a1.08 1.08 0 0 0 1.043-.695c.238-.645.389-1.77-.165-3.535l-.722-3.717z" fill="#fff" stroke="#263238" stroke-width=".343" stroke-linecap="round" stroke-linejoin="round"/>
  <path d="M166.315 193.704c.238-.645.389-1.77-.164-3.535l-.233-1.193-.517.695s-.53-.85-2.419-.85c-1.888 0-2.643.85-2.643.85l-.206-.407a10.8 10.8 0 0 1-1.829 1.893 4.9 4.9 0 0 0-1.454 1.729 1.1 1.1 0 0 0 .497 1.386c.16.084.338.128.518.127h7.417a1.08 1.08 0 0 0 1.033-.695" fill="#263238" stroke="#263238" stroke-width=".343" stroke-linecap="round" stroke-linejoin="round"/>
  <path d="M156.778 193.205a1.103 1.103 0 0 0 1.097 1.194h7.417a1.09 1.09 0 0 0 1.024-.695q.09-.244.137-.499z" fill="#fff" stroke="#263238" stroke-width=".343" stroke-linecap="round" stroke-linejoin="round"/>
  <path d="m168.342 120.936-.654 36.782-.54 29.589h-7.444l-3.955-54.871.965-13.74a13.6 13.6 0 0 1 5.736-.276 13.65 13.65 0 0 1 5.343 2.105c.352.247.549.411.549.411" fill="#263238"/>
  <path d="M174.035 187.257a9.8 9.8 0 0 0 2.99 3.9 4.86 4.86 0 0 1 1.454 1.728 1.09 1.09 0 0 1-.101 1.03 1.09 1.09 0 0 1-.914.484h-7.416a1.09 1.09 0 0 1-1.025-.695c-.233-.645-.384-1.77.17-3.535l.722-3.717z" fill="#fff" stroke="#263238" stroke-width=".343" stroke-linecap="round" stroke-linejoin="round"/>
  <path d="M169.023 193.704c-.233-.645-.384-1.77.17-3.535l.233-1.193.498.695s.531-.85 2.419-.85 2.638.85 2.638.85l.211-.407c.53.703 1.144 1.339 1.829 1.893a4.9 4.9 0 0 1 1.454 1.729 1.1 1.1 0 0 1-.497 1.386c-.16.084-.338.128-.518.127h-7.412a1.09 1.09 0 0 1-1.025-.695" fill="#263238" stroke="#263238" stroke-width=".343" stroke-linecap="round" stroke-linejoin="round"/>
  <path d="M178.562 193.205a1.12 1.12 0 0 1-.287.838 1.1 1.1 0 0 1-.811.356h-7.417a1.09 1.09 0 0 1-1.024-.695q-.084-.245-.132-.499z" fill="#fff" stroke="#263238" stroke-width=".343" stroke-linecap="round" stroke-linejoin="round"/>
  <path d="m179.576 132.45-3.96 54.871h-7.403l-.525-29.603.672-36.8s-.197-.164-.563-.411a16.32 16.32 0 0 1 10.974-.869z" fill="#263238"/>
  <path d="M156.384 98.53h-5.318l.673-3.872v-.8c0-3.146-.106-6.544 2.428-9.095.082.54 1.527 4.582 2.217 13.768" fill="#1E42A2"/>
  <mask id="c" style="mask-type:luminance" maskUnits="userSpaceOnUse" x="151" y="84" width="6" height="15">
    <path d="M156.384 98.53h-5.318l.673-3.872v-.8c0-3.146-.106-6.544 2.428-9.095.082.54 1.527 4.582 2.217 13.768" fill="#fff"/>
  </mask>
  <g mask="url(#c)">
    <path opacity=".2" d="m155.145 96.363-1.66-.864q.788 1.45 1.568 2.9l-4.032.25q.36-2.139.731-4.284l.787 1.372c-.7-1.216-1.473-4.705-.165-5.67 1.312 1.518 1.98 4.38 2.771 6.296" fill="#000"/>
  </g>
  <path d="M156.384 98.53h-5.318l.673-3.872v-.8c0-3.146-.106-6.544 2.428-9.095.082.54 1.527 4.582 2.217 13.768" stroke="#263238" stroke-width=".457" stroke-linecap="round" stroke-linejoin="round"/>
  <path d="m178.387 98.174 1.779-10.732.517-3.118c2.743 2.995 2.432 7.545 2.432 9.122l.727 4.728z" fill="#1E42A2"/>
  <mask id="d" style="mask-type:luminance" maskUnits="userSpaceOnUse" x="178" y="84" width="6" height="15">
    <path d="m178.387 98.174 1.779-10.732.517-3.118c2.743 2.995 2.432 7.545 2.432 9.122l.727 4.728z" fill="#fff"/>
  </mask>
  <g mask="url(#d)">
    <path opacity=".2" d="M179.896 91.718q.445-.996.883-1.994l-.851 3.444a1.47 1.47 0 0 0 0 1.033.98.98 0 0 0 1.134.361 2.84 2.84 0 0 0 1.061-.713 3.61 3.61 0 0 0-.946 3.914 1.495 1.495 0 0 1-2.415-.517c-.1-.43-.1-.877 0-1.308.307-1.925.517-3.918.938-5.816.064.348.334 1.294.196 1.596" fill="#000"/>
  </g>
  <path d="m178.387 98.174 1.779-10.732.517-3.118c2.743 2.995 2.432 7.545 2.432 9.122l.727 4.728z" stroke="#263238" stroke-width=".457" stroke-linecap="round" stroke-linejoin="round"/>
  <path d="M179.151 93.583c-1.152 10.7-.361 25.79-.361 25.79-8.848 4.005-22.323-.183-22.328-.188a162 162 0 0 0-.078-20.654c-.69-9.186-2.135-13.229-2.217-13.782v-.078l8.033-2.18 1.089-.302c.308-.19.647-.326 1.001-.403q.676-.162 1.372-.206h.224a23 23 0 0 1 3.269.097 32 32 0 0 1 1.875.224h.023c.457.064 1.134.219 1.952.411 3 .722 7.678 2.049 7.678 2.049s-1.363 7.645-1.532 9.222" fill="#1E42A2"/>
  <mask id="e" style="mask-type:luminance" maskUnits="userSpaceOnUse" x="154" y="81" width="27" height="41">
    <path d="M179.151 93.583c-1.152 10.7-.361 25.79-.361 25.79-8.848 4.005-22.323-.183-22.328-.188a162 162 0 0 0-.078-20.654c-.69-9.186-2.135-13.229-2.217-13.782v-.078l8.033-2.18 1.089-.302c.308-.19.647-.326 1.001-.403q.676-.162 1.372-.206h.224a23 23 0 0 1 3.269.097 32 32 0 0 1 1.875.224h.023c.457.064 1.134.219 1.952.411 3 .722 7.678 2.049 7.678 2.049s-1.363 7.645-1.532 9.222" fill="#fff"/>
  </mask>
  <g mask="url(#e)" fill="#000">
    <path opacity=".2" d="m156.485 96.387 5.377 8.088-1.893-5.03a31 31 0 0 0 14.07 13.567 11.55 11.55 0 0 1-9.41-2.652 11.84 11.84 0 0 0 8.957 5.126 19.1 19.1 0 0 1-11.495 1.093 21.84 21.84 0 0 0 10.059 3.777 54.7 54.7 0 0 1-10.233.082c-2.149-.187-4.655-.764-5.487-2.743a6.4 6.4 0 0 1-.32-2.63l.347-18.226c-.059.265-.123.53-.182.791m19.218 10.247c-3.603-1.024-7.604-3.319-10.599-5.089 1.193 1.029 2.981 3.173 4.495 3.832 1.733.745 4.344.951 6.104 1.257"/>
  </g>
  <path d="M179.151 93.583c-1.152 10.7-.361 25.79-.361 25.79-8.848 4.005-22.323-.183-22.328-.188a162 162 0 0 0-.078-20.654c-.69-9.186-2.135-13.229-2.217-13.782v-.078l8.033-2.18 1.089-.302c.308-.19.647-.326 1.001-.403q.676-.162 1.372-.206h.224a23 23 0 0 1 3.269.097 32 32 0 0 1 1.875.224h.023c.457.064 1.134.219 1.952.411 3 .722 7.678 2.049 7.678 2.049s-1.363 7.645-1.532 9.222" stroke="#263238" stroke-width=".457" stroke-linecap="round" stroke-linejoin="round"/>
  <path d="M174.24 82.728a8 8 0 0 1-10.042 2.522 8 8 0 0 1-2.862-2.375l-.109-.147 3.054-.965v-4.467l6.745-.325v4.843l.155-.032zm-13.118-11.129c-.21.31-.343.666-.389 1.038-.015.462.128.915.407 1.285.278.367.601.699.96.987q.204.197.457.325a.56.56 0 0 0 .578-.037.55.55 0 0 0 .223-.535 2 2 0 0 0-.147-.612c-.283-.842-.192-1.752-.434-2.565-.265-.938-1.253-.535-1.655.114m13.425 0c.211.31.345.665.388 1.038a2 2 0 0 1-.407 1.285c-.278.367-.6.699-.96.987a1.8 1.8 0 0 1-.457.325.6.6 0 0 1-.553-.023.63.63 0 0 1-.247-.549q.029-.316.146-.612c.284-.842.197-1.752.457-2.565.261-.938 1.235-.535 1.633.114" fill="#fff" stroke="#263238" stroke-width=".457" stroke-linecap="round" stroke-linejoin="round"/>
  <path d="M164.281 78.407s1.043 3.947 3.132 4.033 3.613-3.626 3.613-3.626-2.158-1.573-6.745-.407" fill="#263238"/>
  <path d="M173.527 70.607c0 4.366-2.57 10.384-5.739 10.384s-5.738-6.036-5.738-10.384 2.57-7.906 5.738-7.906 5.739 3.539 5.739 7.906" fill="#fff" stroke="#263238" stroke-width=".457" stroke-linecap="round" stroke-linejoin="round"/>
  <path d="M165.685 71.343c.178 0 .32.37.32.823s-.142.823-.32.823-.32-.37-.32-.823.141-.823.32-.823m4.01 0c.174 0 .32.37.32.823s-.146.823-.32.823c-.173 0-.324-.37-.324-.823s.146-.823.324-.823" fill="#263238"/>
  <path d="m168.369 70.931-.21.42s.142 2.223.206 2.703-.293 1.015-.819.736l-.521-.288m-.837 2.145c0 .457 3.2.457 3.2 0" stroke="#263238" stroke-width=".457" stroke-linecap="round" stroke-linejoin="round"/>
  <path d="m162.32 73.551.672.128a10.3 10.3 0 0 1-.457-2.18c-.06-.627.841-1.57.841-2.008 0-2.396 1.303-2.328 1.568-1.976.037-.434 2.085-2.546 3.613.38.388.745 4.549 1.404 4.536 2.08a23 23 0 0 1-.348 3.53c.339.069.636-.288.677-.63.041-.344.128-1.674.416-1.866a.67.67 0 0 0 .722.352 3.3 3.3 0 0 1-.31-1.322c0-.457.256-.155.695-.283.228-.069 2.176-1.372 2.414-2.08-.878.11-1.71-.494-2.213-1.226a24 24 0 0 1-1.207-2.373 6.12 6.12 0 0 0-5.405-3.228c-2.209.082-4.326 1.778-4.66 3.964a1.25 1.25 0 0 0-1.298.215 3.7 3.7 0 0 0-.842 1.093 7.2 7.2 0 0 0-.996 2.286c-.151.828.681 1.985 1.317 2.529.082-.183.036 2.615.265 2.615" fill="#263238"/>
  <path d="M163.989 70.798c.224-.187.379-.457.612-.617a1.38 1.38 0 0 1 1.102-.155c.365.102.713.256 1.034.457m2.208.018c.321-.2.669-.354 1.033-.457a1.35 1.35 0 0 1 1.102.156c.238.169.389.43.613.617" stroke="#263238" stroke-width=".457" stroke-linecap="round" stroke-linejoin="round"/>
  <path d="M165.552 80.772a5.44 5.44 0 0 0 1.372 3.337z" fill="#fff"/>
  <path d="M165.552 80.772a5.44 5.44 0 0 0 1.372 3.337m-1.367-16.644a3.5 3.5 0 0 1 .531-.914 1.1 1.1 0 0 1 .374-.32.46.46 0 0 1 .458.032m-.709 1.344a2.01 2.01 0 0 1 1.628-1.084m-.915 1.116c.219-.297 1.943-1.253 2.336.224m-4.956.101a1.9 1.9 0 0 0-1.582.68m1.088-.044a1.93 1.93 0 0 0-1.372 1.284" stroke="#263238" stroke-width=".457" stroke-linecap="round" stroke-linejoin="round"/>
  <path d="M163.628 131.942a34 34 0 0 0 4.239 1.61l4.851-1.674m-16.516-4.796c.809-.105 1.371-.846 1.783-1.55a18 18 0 0 0 1.829-4.326m19.09 5.876c-.809-.105-1.371-.846-1.783-1.55a18 18 0 0 1-1.829-4.326" stroke="#5C5C5C" stroke-width=".457" stroke-linecap="round" stroke-linejoin="round"/>
  <path d="M167.386 121.211v.658s7.339.329 10.613-1.495m-20.677-.297c2.574 1.399 7.138 1.646 10.059 1.792" stroke="#5C5C5C" stroke-width=".457" stroke-linecap="round" stroke-linejoin="round"/>
  <path d="m167.797 121.883.091 4.6v.38l.055 2.542a1.16 1.16 0 0 0 .878-.194 1.15 1.15 0 0 0 .471-.766c.169-.942.05-5.117 0-6.557" stroke="#5C5C5C" stroke-width=".457" stroke-linecap="round" stroke-linejoin="round"/>
  <path d="M167.596 161.655c-.069-2.698.293-35.172.293-35.172" stroke="#5C5C5C" stroke-width=".457" stroke-linecap="round" stroke-linejoin="round"/>
  <path d="M159.745 113.602a14.66 14.66 0 0 0 14.02 1.866m-13.174-16.009a41.3 41.3 0 0 0 3.951 6.443c2.337 3.036 5.432 5.633 9.09 6.73M159.859 98c.124.257.138.28.261.531m-1.262-2.592c.188.388.375.781.567 1.17m5.469 5.67a14.7 14.7 0 0 0 10.288 5.194m-23.411-16.685c.046 2.744.626 3.965 1.166 4.632m3.224-4.293c.064 3.026.557 6.374.457 11.152m-2.465-12.735a14.6 14.6 0 0 0 1.916 5.83m25.204-7.174c-.503 2.099-1.093 4.408-2.19 5.542m1.668 1.628c-.315.265-.626.508-.914.727m3.292-4.079a6.7 6.7 0 0 1-1.678 2.707m9.662 99.151H1" stroke="#263238" stroke-width=".457" stroke-linecap="round" stroke-linejoin="round"/>
</svg>
