<svg xmlns="http://www.w3.org/2000/svg" width="192" height="195" fill="none"><path fill="#ECF6FC" d="M183.326 58.402c1.289-17.142-1.706-36.063-14.806-47.737C156.768.189 138.844-2.138 123.439 2.05c-15.405 4.189-28.56 14.01-39.511 25.255C72.977 38.548 63.89 51.319 53.712 63.226c-10.58 12.387-22.355 23.892-31.55 37.257-9.195 13.366-15.807 29.146-14.408 45.136.585 6.653 2.61 13.306 6.685 18.715 4.897 6.503 12.387 10.778 20.119 13.773 14.294 5.533 29.822 7.229 45.131 8.88l49.031 5.276c10.06 1.089 20.796 2.072 29.886-2.245 8.002-3.804 13.581-11.312 16.658-19.383 3.078-8.07 3.933-16.744 4.614-25.318 2.346-29.612 3.448-86.915 3.448-86.915Z"/><path fill="#ECF6FC" d="M183.326 58.32c1.289-17.142-1.706-36.063-14.806-47.737C156.768.107 138.844-2.22 123.439 1.968c-15.405 4.189-28.56 14.001-39.511 25.254C72.977 38.475 63.89 51.237 53.713 63.144c-10.581 12.387-22.356 23.892-31.551 37.257-9.195 13.366-15.807 29.146-14.408 45.136.585 6.653 2.61 13.306 6.685 18.715 4.897 6.502 12.387 10.778 20.12 13.773 14.293 5.532 29.821 7.233 45.13 8.88l49.031 5.281c10.06 1.084 20.796 2.067 29.887-2.25 8.002-3.804 13.58-11.312 16.657-19.383 3.078-8.07 3.933-16.745 4.614-25.313 2.346-29.617 3.448-86.92 3.448-86.92Z" opacity=".7"/><g stroke="#5C5C5C" stroke-linecap="round" stroke-linejoin="round" stroke-width=".457"><path d="M93.846 45.449s-2.181-4.34-7.184-4.358M94.527 51.073s3.228-3.452 4.385-9.552M32.148 141.257s3.411-3.274 4.902-9.3M29.533 169.909a14.877 14.877 0 0 0-4.07-6.438M28.316 159.548s2.36-5.913.713-14.258"/></g><path fill="#263238" d="M133.503 42.183H33.017v147.73h100.486V42.183Z"/><path fill="#BFBFBF" stroke="#263238" stroke-linecap="round" stroke-linejoin="round" stroke-width=".457" d="M129.434 188.057H27.311l4.947-58.62a294.711 294.711 0 0 0 .988-30.54l-1.143-58.57h99.942l.457 71.844a317.675 317.675 0 0 1-.347 17.375l-2.721 58.511Z"/><path fill="#fff" stroke="#263238" stroke-linecap="round" stroke-linejoin="round" stroke-width=".457" d="M125.163 186.068H21.947l3.164-16.434c6.736-40.197 8.414-57.998 7.48-110.088l-1.06-21.208h97.921l1.152 20.028c2.479 87.166-5.441 127.702-5.441 127.702Z"/><mask id="a" width="78" height="9" x="41.778" y="50.837" fill="#000" maskUnits="userSpaceOnUse"><path fill="#fff" d="M41.778 50.837h78v9h-78z"/><path d="M42.778 52.004h2.01c.353 0 .675.038.967.112.29.068.539.177.744.325.204.15.362.338.474.568.111.23.167.505.167.828 0 .328-.062.61-.186.846a1.503 1.503 0 0 1-.502.577 2.26 2.26 0 0 1-.763.334 4.159 4.159 0 0 1-.948.103h-1.042v2.892h-.92v-6.585Zm.921 2.912h.977c.223 0 .427-.02.613-.056.193-.044.357-.106.493-.186a.908.908 0 0 0 .317-.335c.074-.137.111-.304.111-.502a.922.922 0 0 0-.437-.819 1.2 1.2 0 0 0-.474-.176 3.083 3.083 0 0 0-.605-.056H43.7v2.13ZM50.16 58.59h-.92v-6.586h2.11c.317 0 .618.035.903.103.285.062.533.164.744.307.217.142.388.331.512.567.124.23.186.511.186.846 0 .484-.15.875-.447 1.172-.297.298-.682.487-1.153.567l1.842 3.023H52.82l-1.674-2.93h-.986v2.93Zm0-3.702h1.06c.218 0 .42-.019.605-.056.186-.037.347-.096.484-.177a.991.991 0 0 0 .335-.325.972.972 0 0 0 .12-.503.922.922 0 0 0-.12-.493.91.91 0 0 0-.326-.325 1.293 1.293 0 0 0-.465-.167 2.795 2.795 0 0 0-.567-.056H50.16v2.102ZM62.523 55.288c0 .508-.09.976-.27 1.404a3.324 3.324 0 0 1-.725 1.097c-.31.304-.679.543-1.107.716a3.795 3.795 0 0 1-1.395.252c-.502 0-.967-.084-1.395-.252a3.397 3.397 0 0 1-1.097-.716 3.324 3.324 0 0 1-.726-1.097 3.7 3.7 0 0 1-.26-1.404c0-.515.087-.983.26-1.405.174-.428.416-.79.726-1.088.31-.304.675-.54 1.097-.707a3.795 3.795 0 0 1 1.395-.251c.502 0 .967.084 1.395.251.428.167.797.403 1.107.707.31.298.552.66.726 1.088.18.422.27.89.27 1.404Zm-.995 0c0-.36-.059-.698-.177-1.014a2.576 2.576 0 0 0-.502-.847 2.284 2.284 0 0 0-.79-.567 2.401 2.401 0 0 0-1.033-.214c-.378 0-.722.072-1.032.214a2.307 2.307 0 0 0-.781.567c-.211.242-.376.524-.493.847a2.881 2.881 0 0 0-.177 1.014c0 .365.059.71.177 1.032.117.322.285.604.502.846.217.236.477.422.781.558a2.47 2.47 0 0 0 1.023.205c.378 0 .723-.068 1.033-.205.31-.136.573-.322.79-.558.217-.242.385-.524.502-.846.118-.323.177-.667.177-1.032ZM65.626 58.59h-.92v-6.586h4.11v.81h-3.19v2.046h2.986v.79h-2.986v2.94ZM71.842 58.59h-.92v-6.586h.92v6.585ZM77.65 53.223a1.428 1.428 0 0 0-.53-.437 1.589 1.589 0 0 0-.753-.177c-.149 0-.3.022-.456.065a1.134 1.134 0 0 0-.41.195 1.062 1.062 0 0 0-.306.335.942.942 0 0 0-.112.474c0 .18.035.332.103.456.074.118.17.22.288.307.124.08.267.152.428.214l.53.177c.223.068.45.145.679.232.23.087.437.202.623.344.186.143.338.323.456.54.118.21.177.48.177.809 0 .341-.066.639-.196.893a1.828 1.828 0 0 1-.502.623c-.21.161-.456.282-.735.363-.273.08-.555.12-.846.12a3.14 3.14 0 0 1-1.21-.241 2.398 2.398 0 0 1-.957-.716l.716-.605c.155.23.363.415.623.558a1.733 1.733 0 0 0 1.311.149c.156-.043.295-.112.419-.205.13-.093.236-.207.316-.344.08-.142.121-.313.121-.511a.87.87 0 0 0-.13-.493 1.043 1.043 0 0 0-.335-.344 2.09 2.09 0 0 0-.502-.233 16.367 16.367 0 0 0-.595-.205 5.74 5.74 0 0 1-.623-.223 2.348 2.348 0 0 1-.55-.344 1.643 1.643 0 0 1-.39-.52c-.099-.205-.149-.46-.149-.763 0-.329.066-.611.196-.847.136-.235.31-.43.52-.586.218-.155.46-.266.726-.334a3.1 3.1 0 0 1 .818-.112c.385 0 .744.068 1.08.205.334.136.604.319.808.548l-.65.633ZM83.876 53.223a1.427 1.427 0 0 0-.53-.437 1.589 1.589 0 0 0-.754-.177c-.149 0-.3.022-.456.065a1.134 1.134 0 0 0-.409.195 1.062 1.062 0 0 0-.307.335.942.942 0 0 0-.111.474c0 .18.034.332.102.456.074.118.17.22.288.307.124.08.267.152.428.214l.53.177c.223.068.45.145.68.232.228.087.436.202.622.344.186.143.338.323.456.54.118.21.177.48.177.809 0 .341-.065.639-.196.893a1.827 1.827 0 0 1-.502.623c-.21.161-.456.282-.735.363-.272.08-.555.12-.846.12a3.14 3.14 0 0 1-1.209-.241 2.397 2.397 0 0 1-.958-.716l.716-.605c.155.23.363.415.623.558a1.733 1.733 0 0 0 1.312.149c.155-.043.294-.112.418-.205.13-.093.236-.207.316-.344.081-.142.121-.313.121-.511a.87.87 0 0 0-.13-.493 1.043 1.043 0 0 0-.335-.344 2.09 2.09 0 0 0-.502-.233 16.309 16.309 0 0 0-.595-.205 5.745 5.745 0 0 1-.623-.223 2.348 2.348 0 0 1-.549-.344 1.643 1.643 0 0 1-.39-.52c-.1-.205-.15-.46-.15-.763 0-.329.066-.611.196-.847.136-.235.31-.43.52-.586.218-.155.46-.266.726-.334a3.1 3.1 0 0 1 .819-.112c.384 0 .744.068 1.078.205.335.136.605.319.81.548l-.651.633ZM87.748 58.59h-.921v-6.586h.92v6.585ZM96.922 55.288c0 .508-.09.976-.27 1.404a3.324 3.324 0 0 1-.725 1.097c-.31.304-.679.543-1.106.716a3.795 3.795 0 0 1-1.395.252c-.503 0-.968-.084-1.396-.252a3.398 3.398 0 0 1-1.097-.716 3.326 3.326 0 0 1-.726-1.097 3.7 3.7 0 0 1-.26-1.404c0-.515.087-.983.26-1.405.174-.428.416-.79.726-1.088.31-.304.676-.54 1.097-.707a3.796 3.796 0 0 1 1.395-.251c.503 0 .968.084 1.396.251.427.167.796.403 1.106.707.31.298.552.66.726 1.088.18.422.27.89.27 1.404Zm-.995 0c0-.36-.059-.698-.176-1.014a2.576 2.576 0 0 0-.503-.847 2.282 2.282 0 0 0-.79-.567 2.402 2.402 0 0 0-1.032-.214c-.379 0-.723.072-1.033.214a2.306 2.306 0 0 0-.781.567c-.21.242-.375.524-.493.847a2.881 2.881 0 0 0-.177 1.014c0 .365.06.71.177 1.032.118.322.285.604.502.846.217.236.478.422.782.558a2.47 2.47 0 0 0 1.022.205c.379 0 .723-.068 1.033-.205.31-.136.573-.322.79-.558.217-.242.385-.524.503-.846.117-.323.176-.667.176-1.032ZM103.746 57.269h.018v-5.265h.921v6.585h-1.163l-3.478-5.375h-.019v5.375h-.92v-6.585h1.2l3.441 5.265ZM107.489 58.59h-1.023l2.855-6.586h.837l2.827 6.585h-1.041l-.67-1.618h-3.125l-.66 1.618Zm.986-2.428h2.464l-1.227-3.088-1.237 3.088ZM115.682 57.77h2.939v.82h-3.86v-6.586h.921v5.767Z"/></mask><path fill="#263238" d="M42.778 52.004h2.01c.353 0 .675.038.967.112.29.068.539.177.744.325.204.15.362.338.474.568.111.23.167.505.167.828 0 .328-.062.61-.186.846a1.503 1.503 0 0 1-.502.577 2.26 2.26 0 0 1-.763.334 4.159 4.159 0 0 1-.948.103h-1.042v2.892h-.92v-6.585Zm.921 2.912h.977c.223 0 .427-.02.613-.056.193-.044.357-.106.493-.186a.908.908 0 0 0 .317-.335c.074-.137.111-.304.111-.502a.922.922 0 0 0-.437-.819 1.2 1.2 0 0 0-.474-.176 3.083 3.083 0 0 0-.605-.056H43.7v2.13ZM50.16 58.59h-.92v-6.586h2.11c.317 0 .618.035.903.103.285.062.533.164.744.307.217.142.388.331.512.567.124.23.186.511.186.846 0 .484-.15.875-.447 1.172-.297.298-.682.487-1.153.567l1.842 3.023H52.82l-1.674-2.93h-.986v2.93Zm0-3.702h1.06c.218 0 .42-.019.605-.056.186-.037.347-.096.484-.177a.991.991 0 0 0 .335-.325.972.972 0 0 0 .12-.503.922.922 0 0 0-.12-.493.91.91 0 0 0-.326-.325 1.293 1.293 0 0 0-.465-.167 2.795 2.795 0 0 0-.567-.056H50.16v2.102ZM62.523 55.288c0 .508-.09.976-.27 1.404a3.324 3.324 0 0 1-.725 1.097c-.31.304-.679.543-1.107.716a3.795 3.795 0 0 1-1.395.252c-.502 0-.967-.084-1.395-.252a3.397 3.397 0 0 1-1.097-.716 3.324 3.324 0 0 1-.726-1.097 3.7 3.7 0 0 1-.26-1.404c0-.515.087-.983.26-1.405.174-.428.416-.79.726-1.088.31-.304.675-.54 1.097-.707a3.795 3.795 0 0 1 1.395-.251c.502 0 .967.084 1.395.251.428.167.797.403 1.107.707.31.298.552.66.726 1.088.18.422.27.89.27 1.404Zm-.995 0c0-.36-.059-.698-.177-1.014a2.576 2.576 0 0 0-.502-.847 2.284 2.284 0 0 0-.79-.567 2.401 2.401 0 0 0-1.033-.214c-.378 0-.722.072-1.032.214a2.307 2.307 0 0 0-.781.567c-.211.242-.376.524-.493.847a2.881 2.881 0 0 0-.177 1.014c0 .365.059.71.177 1.032.117.322.285.604.502.846.217.236.477.422.781.558a2.47 2.47 0 0 0 1.023.205c.378 0 .723-.068 1.033-.205.31-.136.573-.322.79-.558.217-.242.385-.524.502-.846.118-.323.177-.667.177-1.032ZM65.626 58.59h-.92v-6.586h4.11v.81h-3.19v2.046h2.986v.79h-2.986v2.94ZM71.842 58.59h-.92v-6.586h.92v6.585ZM77.65 53.223a1.428 1.428 0 0 0-.53-.437 1.589 1.589 0 0 0-.753-.177c-.149 0-.3.022-.456.065a1.134 1.134 0 0 0-.41.195 1.062 1.062 0 0 0-.306.335.942.942 0 0 0-.112.474c0 .18.035.332.103.456.074.118.17.22.288.307.124.08.267.152.428.214l.53.177c.223.068.45.145.679.232.23.087.437.202.623.344.186.143.338.323.456.54.118.21.177.48.177.809 0 .341-.066.639-.196.893a1.828 1.828 0 0 1-.502.623c-.21.161-.456.282-.735.363-.273.08-.555.12-.846.12a3.14 3.14 0 0 1-1.21-.241 2.398 2.398 0 0 1-.957-.716l.716-.605c.155.23.363.415.623.558a1.733 1.733 0 0 0 1.311.149c.156-.043.295-.112.419-.205.13-.093.236-.207.316-.344.08-.142.121-.313.121-.511a.87.87 0 0 0-.13-.493 1.043 1.043 0 0 0-.335-.344 2.09 2.09 0 0 0-.502-.233 16.367 16.367 0 0 0-.595-.205 5.74 5.74 0 0 1-.623-.223 2.348 2.348 0 0 1-.55-.344 1.643 1.643 0 0 1-.39-.52c-.099-.205-.149-.46-.149-.763 0-.329.066-.611.196-.847.136-.235.31-.43.52-.586.218-.155.46-.266.726-.334a3.1 3.1 0 0 1 .818-.112c.385 0 .744.068 1.08.205.334.136.604.319.808.548l-.65.633ZM83.876 53.223a1.427 1.427 0 0 0-.53-.437 1.589 1.589 0 0 0-.754-.177c-.149 0-.3.022-.456.065a1.134 1.134 0 0 0-.409.195 1.062 1.062 0 0 0-.307.335.942.942 0 0 0-.111.474c0 .18.034.332.102.456.074.118.17.22.288.307.124.08.267.152.428.214l.53.177c.223.068.45.145.68.232.228.087.436.202.622.344.186.143.338.323.456.54.118.21.177.48.177.809 0 .341-.065.639-.196.893a1.827 1.827 0 0 1-.502.623c-.21.161-.456.282-.735.363-.272.08-.555.12-.846.12a3.14 3.14 0 0 1-1.209-.241 2.397 2.397 0 0 1-.958-.716l.716-.605c.155.23.363.415.623.558a1.733 1.733 0 0 0 1.312.149c.155-.043.294-.112.418-.205.13-.093.236-.207.316-.344.081-.142.121-.313.121-.511a.87.87 0 0 0-.13-.493 1.043 1.043 0 0 0-.335-.344 2.09 2.09 0 0 0-.502-.233 16.309 16.309 0 0 0-.595-.205 5.745 5.745 0 0 1-.623-.223 2.348 2.348 0 0 1-.549-.344 1.643 1.643 0 0 1-.39-.52c-.1-.205-.15-.46-.15-.763 0-.329.066-.611.196-.847.136-.235.31-.43.52-.586.218-.155.46-.266.726-.334a3.1 3.1 0 0 1 .819-.112c.384 0 .744.068 1.078.205.335.136.605.319.81.548l-.651.633ZM87.748 58.59h-.921v-6.586h.92v6.585ZM96.922 55.288c0 .508-.09.976-.27 1.404a3.324 3.324 0 0 1-.725 1.097c-.31.304-.679.543-1.106.716a3.795 3.795 0 0 1-1.395.252c-.503 0-.968-.084-1.396-.252a3.398 3.398 0 0 1-1.097-.716 3.326 3.326 0 0 1-.726-1.097 3.7 3.7 0 0 1-.26-1.404c0-.515.087-.983.26-1.405.174-.428.416-.79.726-1.088.31-.304.676-.54 1.097-.707a3.796 3.796 0 0 1 1.395-.251c.503 0 .968.084 1.396.251.427.167.796.403 1.106.707.31.298.552.66.726 1.088.18.422.27.89.27 1.404Zm-.995 0c0-.36-.059-.698-.176-1.014a2.576 2.576 0 0 0-.503-.847 2.282 2.282 0 0 0-.79-.567 2.402 2.402 0 0 0-1.032-.214c-.379 0-.723.072-1.033.214a2.306 2.306 0 0 0-.781.567c-.21.242-.375.524-.493.847a2.881 2.881 0 0 0-.177 1.014c0 .365.06.71.177 1.032.118.322.285.604.502.846.217.236.478.422.782.558a2.47 2.47 0 0 0 1.022.205c.379 0 .723-.068 1.033-.205.31-.136.573-.322.79-.558.217-.242.385-.524.503-.846.117-.323.176-.667.176-1.032ZM103.746 57.269h.018v-5.265h.921v6.585h-1.163l-3.478-5.375h-.019v5.375h-.92v-6.585h1.2l3.441 5.265ZM107.489 58.59h-1.023l2.855-6.586h.837l2.827 6.585h-1.041l-.67-1.618h-3.125l-.66 1.618Zm.986-2.428h2.464l-1.227-3.088-1.237 3.088ZM115.682 57.77h2.939v.82h-3.86v-6.586h.921v5.767Z"/><path stroke="#201F23" stroke-width="1.163" d="M42.778 52.004h2.01c.353 0 .675.038.967.112.29.068.539.177.744.325.204.15.362.338.474.568.111.23.167.505.167.828 0 .328-.062.61-.186.846a1.503 1.503 0 0 1-.502.577 2.26 2.26 0 0 1-.763.334 4.159 4.159 0 0 1-.948.103h-1.042v2.892h-.92v-6.585Zm.921 2.912h.977c.223 0 .427-.02.613-.056.193-.044.357-.106.493-.186a.908.908 0 0 0 .317-.335c.074-.137.111-.304.111-.502a.922.922 0 0 0-.437-.819 1.2 1.2 0 0 0-.474-.176 3.083 3.083 0 0 0-.605-.056H43.7v2.13ZM50.16 58.59h-.92v-6.586h2.11c.317 0 .618.035.903.103.285.062.533.164.744.307.217.142.388.331.512.567.124.23.186.511.186.846 0 .484-.15.875-.447 1.172-.297.298-.682.487-1.153.567l1.842 3.023H52.82l-1.674-2.93h-.986v2.93Zm0-3.702h1.06c.218 0 .42-.019.605-.056.186-.037.347-.096.484-.177a.991.991 0 0 0 .335-.325.972.972 0 0 0 .12-.503.922.922 0 0 0-.12-.493.91.91 0 0 0-.326-.325 1.293 1.293 0 0 0-.465-.167 2.795 2.795 0 0 0-.567-.056H50.16v2.102ZM62.523 55.288c0 .508-.09.976-.27 1.404a3.324 3.324 0 0 1-.725 1.097c-.31.304-.679.543-1.107.716a3.795 3.795 0 0 1-1.395.252c-.502 0-.967-.084-1.395-.252a3.397 3.397 0 0 1-1.097-.716 3.324 3.324 0 0 1-.726-1.097 3.7 3.7 0 0 1-.26-1.404c0-.515.087-.983.26-1.405.174-.428.416-.79.726-1.088.31-.304.675-.54 1.097-.707a3.795 3.795 0 0 1 1.395-.251c.502 0 .967.084 1.395.251.428.167.797.403 1.107.707.31.298.552.66.726 1.088.18.422.27.89.27 1.404Zm-.995 0c0-.36-.059-.698-.177-1.014a2.576 2.576 0 0 0-.502-.847 2.284 2.284 0 0 0-.79-.567 2.401 2.401 0 0 0-1.033-.214c-.378 0-.722.072-1.032.214a2.307 2.307 0 0 0-.781.567c-.211.242-.376.524-.493.847a2.881 2.881 0 0 0-.177 1.014c0 .365.059.71.177 1.032.117.322.285.604.502.846.217.236.477.422.781.558a2.47 2.47 0 0 0 1.023.205c.378 0 .723-.068 1.033-.205.31-.136.573-.322.79-.558.217-.242.385-.524.502-.846.118-.323.177-.667.177-1.032ZM65.626 58.59h-.92v-6.586h4.11v.81h-3.19v2.046h2.986v.79h-2.986v2.94ZM71.842 58.59h-.92v-6.586h.92v6.585ZM77.65 53.223a1.428 1.428 0 0 0-.53-.437 1.589 1.589 0 0 0-.753-.177c-.149 0-.3.022-.456.065a1.134 1.134 0 0 0-.41.195 1.062 1.062 0 0 0-.306.335.942.942 0 0 0-.112.474c0 .18.035.332.103.456.074.118.17.22.288.307.124.08.267.152.428.214l.53.177c.223.068.45.145.679.232.23.087.437.202.623.344.186.143.338.323.456.54.118.21.177.48.177.809 0 .341-.066.639-.196.893a1.828 1.828 0 0 1-.502.623c-.21.161-.456.282-.735.363-.273.08-.555.12-.846.12a3.14 3.14 0 0 1-1.21-.241 2.398 2.398 0 0 1-.957-.716l.716-.605c.155.23.363.415.623.558a1.733 1.733 0 0 0 1.311.149c.156-.043.295-.112.419-.205.13-.093.236-.207.316-.344.08-.142.121-.313.121-.511a.87.87 0 0 0-.13-.493 1.043 1.043 0 0 0-.335-.344 2.09 2.09 0 0 0-.502-.233 16.367 16.367 0 0 0-.595-.205 5.74 5.74 0 0 1-.623-.223 2.348 2.348 0 0 1-.55-.344 1.643 1.643 0 0 1-.39-.52c-.099-.205-.149-.46-.149-.763 0-.329.066-.611.196-.847.136-.235.31-.43.52-.586.218-.155.46-.266.726-.334a3.1 3.1 0 0 1 .818-.112c.385 0 .744.068 1.08.205.334.136.604.319.808.548l-.65.633ZM83.876 53.223a1.427 1.427 0 0 0-.53-.437 1.589 1.589 0 0 0-.754-.177c-.149 0-.3.022-.456.065a1.134 1.134 0 0 0-.409.195 1.062 1.062 0 0 0-.307.335.942.942 0 0 0-.111.474c0 .18.034.332.102.456.074.118.17.22.288.307.124.08.267.152.428.214l.53.177c.223.068.45.145.68.232.228.087.436.202.622.344.186.143.338.323.456.54.118.21.177.48.177.809 0 .341-.065.639-.196.893a1.827 1.827 0 0 1-.502.623c-.21.161-.456.282-.735.363-.272.08-.555.12-.846.12a3.14 3.14 0 0 1-1.209-.241 2.397 2.397 0 0 1-.958-.716l.716-.605c.155.23.363.415.623.558a1.733 1.733 0 0 0 1.312.149c.155-.043.294-.112.418-.205.13-.093.236-.207.316-.344.081-.142.121-.313.121-.511a.87.87 0 0 0-.13-.493 1.043 1.043 0 0 0-.335-.344 2.09 2.09 0 0 0-.502-.233 16.309 16.309 0 0 0-.595-.205 5.745 5.745 0 0 1-.623-.223 2.348 2.348 0 0 1-.549-.344 1.643 1.643 0 0 1-.39-.52c-.1-.205-.15-.46-.15-.763 0-.329.066-.611.196-.847.136-.235.31-.43.52-.586.218-.155.46-.266.726-.334a3.1 3.1 0 0 1 .819-.112c.384 0 .744.068 1.078.205.335.136.605.319.81.548l-.651.633ZM87.748 58.59h-.921v-6.586h.92v6.585ZM96.922 55.288c0 .508-.09.976-.27 1.404a3.324 3.324 0 0 1-.725 1.097c-.31.304-.679.543-1.106.716a3.795 3.795 0 0 1-1.395.252c-.503 0-.968-.084-1.396-.252a3.398 3.398 0 0 1-1.097-.716 3.326 3.326 0 0 1-.726-1.097 3.7 3.7 0 0 1-.26-1.404c0-.515.087-.983.26-1.405.174-.428.416-.79.726-1.088.31-.304.676-.54 1.097-.707a3.796 3.796 0 0 1 1.395-.251c.503 0 .968.084 1.396.251.427.167.796.403 1.106.707.31.298.552.66.726 1.088.18.422.27.89.27 1.404Zm-.995 0c0-.36-.059-.698-.176-1.014a2.576 2.576 0 0 0-.503-.847 2.282 2.282 0 0 0-.79-.567 2.402 2.402 0 0 0-1.032-.214c-.379 0-.723.072-1.033.214a2.306 2.306 0 0 0-.781.567c-.21.242-.375.524-.493.847a2.881 2.881 0 0 0-.177 1.014c0 .365.06.71.177 1.032.118.322.285.604.502.846.217.236.478.422.782.558a2.47 2.47 0 0 0 1.022.205c.379 0 .723-.068 1.033-.205.31-.136.573-.322.79-.558.217-.242.385-.524.503-.846.117-.323.176-.667.176-1.032ZM103.746 57.269h.018v-5.265h.921v6.585h-1.163l-3.478-5.375h-.019v5.375h-.92v-6.585h1.2l3.441 5.265ZM107.489 58.59h-1.023l2.855-6.586h.837l2.827 6.585h-1.041l-.67-1.618h-3.125l-.66 1.618Zm.986-2.428h2.464l-1.227-3.088-1.237 3.088ZM115.682 57.77h2.939v.82h-3.86v-6.586h.921v5.767Z" mask="url(#a)"/><path fill="#263238" d="M37.33 45.791a2.666 2.666 0 0 1 0-5.331.398.398 0 1 1 0 .795 1.87 1.87 0 1 0 1.87 1.87.398.398 0 1 1 .795 0 2.67 2.67 0 0 1-2.666 2.666Z"/><path fill="#BFBFBF" stroke="#263238" stroke-linecap="round" stroke-linejoin="round" stroke-width=".457" d="M37.265 44.69c-2.432 0-2.565-5.264-2.57-6.316v-.036c0-1.06.124-6.347 2.57-6.347 2.447 0 2.616 5.707 2.63 6.36l-2.117.042a13.067 13.067 0 0 0-.526-3.626 12.804 12.804 0 0 0-.458 3.57v.037a12.489 12.489 0 0 0 .458 3.59c0-.078.05-.16.077-.256l.165-.576 1.477.43a.586.586 0 0 1 .398.722c-.42 1.578-1.134 2.405-2.104 2.405Z"/><path fill="#263238" d="M39.597 43.523a.398.398 0 0 1-.398-.398 1.87 1.87 0 0 0-1.87-1.87.398.398 0 1 1 0-.796 2.67 2.67 0 0 1 2.666 2.666.398.398 0 0 1-.398.398ZM49.89 45.791a2.666 2.666 0 0 1 0-5.331.398.398 0 1 1 0 .795 1.87 1.87 0 1 0 1.87 1.87.398.398 0 0 1 .796 0 2.67 2.67 0 0 1-2.666 2.666Z"/><path fill="#BFBFBF" stroke="#263238" stroke-linecap="round" stroke-linejoin="round" stroke-width=".457" d="M49.826 44.69c-2.433 0-2.565-5.264-2.57-6.316v-.036c0-1.06.123-6.347 2.57-6.347 2.446 0 2.633 5.707 2.633 6.383l-2.117.042a13.06 13.06 0 0 0-.525-3.626 12.8 12.8 0 0 0-.458 3.57v.014c-.018 1.213.136 2.421.458 3.59.027-.078.05-.16.077-.256l.165-.576 1.486.443a.585.585 0 0 1 .393.723c-.43 1.563-1.143 2.391-2.112 2.391Z"/><path fill="#263238" d="M52.158 43.523a.398.398 0 0 1-.398-.398 1.87 1.87 0 0 0-1.87-1.87.398.398 0 1 1 0-.796 2.67 2.67 0 0 1 2.666 2.666.398.398 0 0 1-.398.398ZM62.45 45.791a2.666 2.666 0 0 1 0-5.331.398.398 0 1 1 0 .795 1.87 1.87 0 1 0 1.87 1.87.398.398 0 1 1 .796 0 2.67 2.67 0 0 1-2.666 2.666Z"/><path fill="#BFBFBF" stroke="#263238" stroke-linecap="round" stroke-linejoin="round" stroke-width=".457" d="M62.392 44.69c-2.438 0-2.57-5.264-2.57-6.316v-.036c0-1.06.123-6.347 2.57-6.347 2.446 0 2.615 5.707 2.624 6.36l-2.117.042a13.067 13.067 0 0 0-.526-3.626 12.804 12.804 0 0 0-.457 3.57v.037c-.018 1.213.136 2.421.457 3.59.028-.078.05-.16.078-.256l.17-.576 1.476.43a.586.586 0 0 1 .394.722c-.421 1.578-1.135 2.405-2.1 2.405Z"/><path fill="#263238" d="M64.719 43.523a.398.398 0 0 1-.398-.398 1.87 1.87 0 0 0-1.87-1.87.398.398 0 1 1 0-.796 2.67 2.67 0 0 1 2.666 2.666.398.398 0 0 1-.398.398ZM75.016 45.791a2.666 2.666 0 1 1 0-5.331.398.398 0 1 1 0 .795 1.87 1.87 0 1 0 1.865 1.87.398.398 0 1 1 .796 0 2.666 2.666 0 0 1-2.661 2.666Z"/><path fill="#BFBFBF" stroke="#263238" stroke-linecap="round" stroke-linejoin="round" stroke-width=".457" d="M74.952 44.69c-2.437 0-2.57-5.264-2.57-6.316v-.036c0-1.06.124-6.347 2.57-6.347 2.446 0 2.615 5.707 2.63 6.36l-2.122.042a12.895 12.895 0 0 0-.526-3.626 12.804 12.804 0 0 0-.457 3.57v.037c-.021 1.213.133 2.422.457 3.59.023-.078.05-.16.073-.256l.17-.576 1.517.443a.585.585 0 0 1 .393.723c-.457 1.563-1.166 2.391-2.135 2.391Z"/><path fill="#263238" d="M77.28 43.523a.398.398 0 0 1-.398-.398 1.87 1.87 0 0 0-1.866-1.87.398.398 0 1 1 0-.796 2.666 2.666 0 0 1 2.661 2.666.398.398 0 0 1-.398.398ZM87.499 45.791a2.666 2.666 0 0 1 0-5.331.398.398 0 1 1 0 .795 1.87 1.87 0 1 0 1.87 1.87.398.398 0 1 1 .791 0 2.666 2.666 0 0 1-2.661 2.666Z"/><path fill="#BFBFBF" stroke="#263238" stroke-linecap="round" stroke-linejoin="round" stroke-width=".457" d="M87.435 44.69c-2.437 0-2.57-5.264-2.57-6.316v-.036c0-1.06.124-6.347 2.57-6.347 2.447 0 2.616 5.707 2.63 6.36l-2.122.042a12.89 12.89 0 0 0-.526-3.626 12.802 12.802 0 0 0-.434 3.57v.037c-.021 1.213.133 2.422.457 3.59 0-.078.05-.16.073-.256l.155-.59 1.477.43a.585.585 0 0 1 .394.722c-.421 1.591-1.134 2.42-2.104 2.42Z"/><path fill="#263238" d="M89.763 43.523a.392.392 0 0 1-.394-.398 1.87 1.87 0 0 0-1.87-1.87.398.398 0 1 1 0-.796 2.666 2.666 0 0 1 2.662 2.666.398.398 0 0 1-.398.398ZM100.06 45.791a2.666 2.666 0 1 1 0-5.331.399.399 0 0 1 0 .795 1.87 1.87 0 1 0 1.87 1.87.4.4 0 0 1 .398-.398.399.399 0 0 1 .398.398 2.673 2.673 0 0 1-2.666 2.666Z"/><path fill="#BFBFBF" stroke="#263238" stroke-linecap="round" stroke-linejoin="round" stroke-width=".457" d="M100.014 44.69c-2.438 0-2.57-5.264-2.57-6.316v-.036c0-1.06.123-6.347 2.57-6.347 2.446 0 2.615 5.707 2.629 6.36l-2.122.042a12.699 12.699 0 0 0-.526-3.626 13.01 13.01 0 0 0-.43 3.57v.037a12.482 12.482 0 0 0 .458 3.59c.023-.078.05-.16.073-.256l.169-.576 1.477.43a.585.585 0 0 1 .393.722c-.457 1.578-1.17 2.405-2.121 2.405Z"/><path fill="#263238" d="M102.328 43.523a.4.4 0 0 1-.398-.398 1.87 1.87 0 0 0-1.87-1.87.398.398 0 1 1 0-.796 2.669 2.669 0 0 1 2.665 2.666.4.4 0 0 1-.397.398ZM112.621 45.791a2.666 2.666 0 0 1 0-5.331.399.399 0 0 1 0 .795 1.869 1.869 0 0 0-1.835 2.235 1.872 1.872 0 0 0 3.705-.365.4.4 0 0 1 .398-.398.399.399 0 0 1 .397.398 2.668 2.668 0 0 1-2.665 2.666Z"/><path fill="#BFBFBF" stroke="#263238" stroke-linecap="round" stroke-linejoin="round" stroke-width=".457" d="M112.556 44.69c-2.432 0-2.565-5.264-2.569-6.316v-.036c0-1.06.123-6.347 2.569-6.347 2.447 0 2.616 5.707 2.63 6.36l-2.122.042a12.937 12.937 0 0 0-.521-3.626 12.81 12.81 0 0 0-.435 3.57v.037a12.507 12.507 0 0 0 .458 3.59c.022-.078.05-.16.073-.256l.178-.59 1.477.43a.588.588 0 0 1 .398.722c-.453 1.591-1.166 2.42-2.136 2.42Z"/><path fill="#263238" d="M114.888 43.523a.399.399 0 0 1-.397-.398 1.87 1.87 0 0 0-1.871-1.87.399.399 0 0 1 0-.796 2.671 2.671 0 0 1 2.666 2.666.4.4 0 0 1-.398.398ZM125.163 45.791a2.666 2.666 0 0 1 0-5.331.4.4 0 0 1 .398.397.4.4 0 0 1-.398.398 1.87 1.87 0 1 0 1.871 1.87.396.396 0 0 1 .397-.398.4.4 0 0 1 .398.398 2.668 2.668 0 0 1-2.666 2.666Z"/><path fill="#BFBFBF" stroke="#263238" stroke-linecap="round" stroke-linejoin="round" stroke-width=".457" d="M125.118 44.69c-2.433 0-2.565-5.264-2.57-6.316v-.036c0-1.06.123-6.347 2.57-6.347 2.446 0 2.62 5.707 2.629 6.36l-2.126.023a13.051 13.051 0 0 0-.526-3.626 12.808 12.808 0 0 0-.434 3.572v.054c-.018 1.213.136 2.421.457 3.59.027-.078.05-.16.078-.256l.164-.576 1.477.43a.588.588 0 0 1 .398.722c-.435 1.578-1.157 2.405-2.117 2.405Z"/><path fill="#263238" d="M127.449 43.523a.397.397 0 0 1-.398-.398 1.873 1.873 0 0 0-1.888-1.87.4.4 0 0 1-.398-.398.4.4 0 0 1 .398-.398 2.669 2.669 0 0 1 2.665 2.666.396.396 0 0 1-.379.398ZM121.738 176.337h-21.491v.457h21.491v-.457Z"/><path fill="#1E42A2" d="M111.207 177.993c-.306 0-.611-.022-.914-.064-7.133-1.011-7.362-7.87-7.129-10.769.284-3.571 2.159-8.281 6.502-9.799 4.116-1.445 7.874 3.201 8.876 5.894a14.575 14.575 0 0 1-.046 10.115c-1.011 2.638-4.266 4.623-7.289 4.623Zm-7.576-10.796c-.275 3.443.233 9.355 6.74 10.279 3.049.457 6.657-1.564 7.713-4.275a14.098 14.098 0 0 0 .042-9.786c-.947-2.547-4.459-6.964-8.295-5.619-4.138 1.445-5.944 5.967-6.2 9.401Z"/><path fill="#1E42A2" d="M104.966 172.076a.236.236 0 0 1-.22-.156 13.572 13.572 0 0 1-.672-4.431 10.011 10.011 0 0 1 2.067-5.944.232.232 0 0 1 .151-.087.23.23 0 0 1 .169.041.227.227 0 0 1 .089.151.226.226 0 0 1-.043.169 9.56 9.56 0 0 0-1.975 5.675 13.04 13.04 0 0 0 .649 4.28c.01.028.014.059.013.089a.235.235 0 0 1-.155.204.225.225 0 0 1-.073.009ZM109.47 176.465h-.055a6.243 6.243 0 0 1-4.115-3.306.213.213 0 0 1-.027-.084.227.227 0 0 1 .118-.222.228.228 0 0 1 .311.091 5.813 5.813 0 0 0 3.832 3.078c.059.015.11.052.141.105a.23.23 0 0 1 .028.174.227.227 0 0 1-.233.164ZM111.322 176.698a.229.229 0 1 1 0-.457c3.589 0 5.857-2.058 6.561-5.944a.241.241 0 0 1 .096-.15.24.24 0 0 1 .174-.038.26.26 0 0 1 .085.033.236.236 0 0 1 .103.237c-.755 4.129-3.178 6.319-7.019 6.319ZM118.276 169.263a.217.217 0 0 1-.086-.024.224.224 0 0 1-.124-.222c.046-.485.064-.997.064-1.523a9.25 9.25 0 0 0-1.184-4.435.229.229 0 1 1 .398-.22 9.653 9.653 0 0 1 1.243 4.655c0 .535-.023 1.061-.064 1.564a.227.227 0 0 1-.247.205ZM116.64 162.382a.22.22 0 0 1-.165-.092 9.675 9.675 0 0 0-2.744-2.743.221.221 0 0 1-.073-.311.23.23 0 0 1 .142-.104.228.228 0 0 1 .09-.003c.03.006.058.017.084.034a10.083 10.083 0 0 1 2.885 2.858.226.226 0 0 1-.064.315.218.218 0 0 1-.155.046ZM107.691 160.42a.2.2 0 0 1-.093-.019.191.191 0 0 1-.076-.059.215.215 0 0 1-.069-.16.219.219 0 0 1 .069-.16c1.248-1.106 2.625-1.742 3.782-1.742a4.408 4.408 0 0 1 1.755.416.231.231 0 0 1 .118.128.238.238 0 0 1-.003.174.229.229 0 0 1-.302.119 3.88 3.88 0 0 0-1.568-.379c-1.043 0-2.314.594-3.48 1.627a.226.226 0 0 1-.133.055Z"/><path fill="#1E42A2" d="M105.675 170.114a.227.227 0 0 1-.224-.183 12.647 12.647 0 0 1-.22-2.378c0-4.371 3.709-7.663 6.114-7.663a4.18 4.18 0 0 1 2.026.613.227.227 0 0 1-.054.417.237.237 0 0 1-.175-.02 3.752 3.752 0 0 0-1.797-.553c-2.222 0-5.656 3.096-5.656 7.206-.003.767.067 1.533.21 2.287a.222.222 0 0 1-.032.171.219.219 0 0 1-.146.094l-.046.009ZM107.879 174.11a.228.228 0 0 1-.142-.05 6.096 6.096 0 0 1-1.893-2.743.23.23 0 0 1 .042-.267.237.237 0 0 1 .175-.066.227.227 0 0 1 .166.087c.02.025.034.054.042.086a5.633 5.633 0 0 0 1.751 2.524.227.227 0 0 1 .037.324.216.216 0 0 1-.178.105ZM111.345 175.222a6.315 6.315 0 0 1-2.319-.416.24.24 0 0 1-.124-.123.24.24 0 0 1-.004-.175.232.232 0 0 1 .21-.144c.03 0 .06.005.088.016a5.844 5.844 0 0 0 2.149.384c3.658 0 5.656-2.56 5.656-7.21a.229.229 0 0 1 .229-.229.231.231 0 0 1 .228.229c0 4.942-2.172 7.668-6.113 7.668ZM117.152 166.753a.232.232 0 0 1-.224-.197 8.119 8.119 0 0 0-2.675-4.856.236.236 0 0 1-.05-.074.242.242 0 0 1 0-.176.229.229 0 0 1 .37-.074 8.59 8.59 0 0 1 2.817 5.116.233.233 0 0 1-.197.261h-.041Z"/><path fill="#1E42A2" d="M111.367 173.722c-3.068 0-4.974-2.346-4.974-6.118a6.587 6.587 0 0 1 1.554-4.17.233.233 0 0 1 .381.041.219.219 0 0 1 .015.174.212.212 0 0 1-.044.077 6.113 6.113 0 0 0-1.449 3.878c0 3.493 1.728 5.661 4.517 5.661.79.019 1.57-.168 2.264-.545a.23.23 0 0 1 .228.394 4.916 4.916 0 0 1-2.492.608ZM114.907 172.153a.23.23 0 0 1-.179-.37c.755-.969 1.157-2.41 1.157-4.161 0-3.233-2.743-5.665-4.518-5.665a3.389 3.389 0 0 0-1.865.676.225.225 0 0 1-.161.019.226.226 0 0 1-.172-.25.23.23 0 0 1 .077-.144 3.814 3.814 0 0 1 2.121-.759c1.957 0 4.975 2.63 4.975 6.123 0 1.829-.434 3.388-1.253 4.44a.228.228 0 0 1-.182.091Z"/><path fill="#1E42A2" d="M108.894 171.243a.206.206 0 0 1-.165-.073 5.033 5.033 0 0 1-1.18-3.484c0-2.465 2.113-4.573 3.841-4.573.325.004.646.07.947.192a.23.23 0 0 1 .002.413.235.235 0 0 1-.167.013 2.18 2.18 0 0 0-.782-.16c-1.522 0-3.383 1.902-3.383 4.115a4.61 4.61 0 0 0 1.051 3.173.22.22 0 0 1 .05.075.22.22 0 0 1 0 .176.215.215 0 0 1-.214.133ZM111.391 172.263a3.895 3.895 0 0 1-1.486-.279.222.222 0 0 1-.075-.049.21.21 0 0 1-.051-.073.239.239 0 0 1-.019-.087.242.242 0 0 1 .065-.163.236.236 0 0 1 .074-.05.242.242 0 0 1 .088-.017c.03 0 .059.006.087.018.419.165.866.247 1.317.243 2.117 0 3.379-1.541 3.379-4.116a4.458 4.458 0 0 0-1.655-3.392.229.229 0 1 1 .288-.353 4.91 4.91 0 0 1 1.829 3.745c-.005 2.863-1.441 4.573-3.841 4.573Z"/><path fill="#1E42A2" d="M111.409 170.782a2.576 2.576 0 0 1-2.606-2.172.22.22 0 0 1-.002-.092.222.222 0 0 1 .033-.085.233.233 0 0 1 .238-.104.233.233 0 0 1 .188.18 2.144 2.144 0 0 0 2.163 1.829c1.371 0 2.245-.983 2.245-2.574a.229.229 0 1 1 .457 0c-.014 1.842-1.075 3.018-2.716 3.018ZM108.935 167.978a.228.228 0 0 1-.228-.228c0-1.71 1.454-3.032 2.702-3.032.974 0 2.007.777 2.465 1.857a.238.238 0 0 1 .018.088c0 .03-.006.06-.017.088a.24.24 0 0 1-.05.075.21.21 0 0 1-.075.05.223.223 0 0 1-.176.001.21.21 0 0 1-.075-.05.223.223 0 0 1-.051-.074 2.438 2.438 0 0 0-2.039-1.578c-1.038 0-2.245 1.125-2.245 2.575a.229.229 0 0 1-.229.228Z"/><path fill="#1E42A2" d="M111.445 169.304c-.395 0-.774-.157-1.054-.436a1.494 1.494 0 0 1 0-2.108 1.49 1.49 0 0 1 1.054-.437.229.229 0 1 1 0 .457 1.046 1.046 0 0 0-.905.69 1.039 1.039 0 1 0 2.017.344 1.007 1.007 0 0 0-.353-.75.23.23 0 0 1-.022-.325.227.227 0 0 1 .157-.078.226.226 0 0 1 .167.055 1.472 1.472 0 0 1 .508 1.098 1.532 1.532 0 0 1-1.569 1.49Z"/><path fill="#263238" d="M102.565 172.908a.249.249 0 0 1-.077 0 .256.256 0 0 1-.099-.07.245.245 0 0 1-.052-.109 10.118 10.118 0 0 1 4.572-10.059 5.55 5.55 0 0 1 2.529-.915c.069-.215.133-.43.192-.649a9.602 9.602 0 0 0-8.473 10.283.236.236 0 0 1-.054.168.226.226 0 0 1-.156.079.225.225 0 0 1-.167-.054.225.225 0 0 1-.08-.156 10.06 10.06 0 0 1 9.223-10.828.22.22 0 0 1 .192.078.222.222 0 0 1 .045.206c-.073.283-.15.567-.237.846a2.935 2.935 0 0 1 2.345 1.28c.207.324.336.692.375 1.075l.22-.266a.235.235 0 0 1 .14-.082.23.23 0 0 1 .257.163.227.227 0 0 1-.013.162c-.457 1.019-.819 1.938-.617 2.844.054.221.156.429.297.608a8.68 8.68 0 0 1 3.086-2.049.235.235 0 0 1 .114-.013.239.239 0 0 1 .106.045.239.239 0 0 1 .087.142 23.661 23.661 0 0 1 5.331-2.926.225.225 0 0 1 .183-.006.24.24 0 0 1 .078.051.244.244 0 0 1 .051.079c.011.029.016.06.015.092a.235.235 0 0 1-.08.164.22.22 0 0 1-.082.045 23.252 23.252 0 0 0-5.588 3.141 6.647 6.647 0 0 1-1.349 2.732 6.648 6.648 0 0 1-2.428 1.841l-1.554 1.582a.227.227 0 0 1-.126.066.234.234 0 0 1-.14-.02.25.25 0 0 1-.099-.102.245.245 0 0 1-.024-.141 8.873 8.873 0 0 1 2.103-4.394 2.09 2.09 0 0 1-.425-.846 2.944 2.944 0 0 1-.069-.713l-.137.215a9.142 9.142 0 0 1-2.684 2.286.228.228 0 0 1-.297-.338l3.201-3.837a2.214 2.214 0 0 0-.311-1.371 2.55 2.55 0 0 0-2.104-1.07 24.095 24.095 0 0 1-7.069 10.672.238.238 0 0 1-.151.069Zm6.731-10.7a5.325 5.325 0 0 0-2.14.823 9.674 9.674 0 0 0-4.426 9.195 23.587 23.587 0 0 0 6.566-10.018Zm1.925 9.021-.096.334.366-.375-.183.041a.13.13 0 0 1-.087 0Zm2.419-2.674a22.415 22.415 0 0 0-1.792 2.053c.114-.042.228-.083.343-.133l1.829-1.829a1.769 1.769 0 0 1-.38-.091Zm-.699-.38a8.383 8.383 0 0 0-1.267 1.916c.477-.606.985-1.186 1.523-1.738a2.386 2.386 0 0 1-.256-.178Zm1.476.686-.503.512c.18-.159.348-.33.503-.512Zm-.388-.695a.918.918 0 0 0 .585-.151.23.23 0 0 1 .16-.035.231.231 0 0 1 .142.081.208.208 0 0 1 .046.082c.283-.436.509-.906.672-1.399a22.09 22.09 0 0 0-1.605 1.422Zm-.778-.329c.086.07.18.13.279.178a23.577 23.577 0 0 1 2.214-1.939 8.282 8.282 0 0 0-2.47 1.761h-.023Zm-1.307-2.195-1.509 1.829a5.65 5.65 0 0 0 1.17-1.207c.133-.196.246-.404.339-.622Z"/><g fill="#263238"><path d="M126.315 64.223h-5.071v.457h5.071v-.457ZM119.022 64.223h-3.054v.457h3.054v-.457ZM113.654 64.223H37.33v.457h76.324v-.457ZM92.954 167h-4.037v.458h4.037V167ZM85.967 167H71.463v.458h14.504V167ZM91.432 176.795a435.339 435.339 0 0 0-16.242 0v-.458c5.633-.1 10.645-.1 16.255 0l-.013.458ZM72.24 176.337h-2.295v.458h2.295v-.458ZM96.045 92.596H93.21v.457h2.835v-.457ZM88.38 92.59l-.002.457 1.866.012.002-.458-1.865-.011ZM74.559 93.053v-.457c3.612-.023 7.229-.032 10.75-.023v.457c-3.526-.009-7.138 0-10.75.023ZM96.05 101.933h-6.246v.457h6.246v-.457ZM86.735 101.933H74.56v.457h12.176v-.457ZM87.901 111.755c-2.656 0-5.308 0-8.102-.032v-.458c5.587.042 10.599.042 16.241 0v.458c-2.816.018-5.478.032-8.139.032ZM76.753 111.265H74.56v.458h2.194v-.458ZM96.05 120.598H74.558v.457h21.49v-.457ZM87.668 130.48h-3.224v-.458c3.773.032 7.678 0 11.596-.073v.457c-2.807.046-5.628.074-8.372.074ZM81.358 130.429l-1.829-.037v-.457l1.83.037v.457ZM76.552 129.935H74.56v.457h1.993v-.457ZM87.44 139.606c-2.639 0-5.277-.05-8.066-.151v-.457c5.565.201 10.517.201 16.09 0v.457a217.83 217.83 0 0 1-8.024.151ZM76.402 138.998H74v.457h2.4v-.457ZM94.984 148.335h-3.063v.457h3.063v-.457ZM81.267 148.797h-7.773v-.457H89.04v.457h-7.773ZM77.87 158.125v-.457c5.729-.179 10.7-.179 16.122 0v.457a243.421 243.421 0 0 0-16.123 0ZM74.88 157.668h-2.401v.457h2.4v-.457ZM41.554 90.346v.457h-.983v1.83h-.457V88.37h1.692v.457H40.57v1.55l.983-.032ZM42.643 88.362v4.261h-.457v-4.261h.457ZM44.078 88.361c.668 0 .951.343.951.974v.348c0 .457-.164.763-.53.878.389.114.535.43.535.887v.663c-.015.175.015.351.087.512h-.485a1.128 1.128 0 0 1-.078-.517v-.69c0-.457-.224-.631-.621-.631h-.334v1.829h-.458v-4.262l.933.01Zm-.123 2.008c.38 0 .604-.12.604-.581v-.407c0-.384-.138-.585-.494-.585h-.458v1.573h.348ZM47.37 89.386v.114h-.457v-.137c0-.384-.146-.608-.484-.608-.339 0-.49.224-.49.599 0 .955 1.432 1.047 1.432 2.245 0 .645-.311 1.065-.96 1.065-.65 0-.956-.42-.956-1.065v-.243h.457v.27c0 .38.16.608.498.608.339 0 .499-.228.499-.608 0-.95-1.422-1.042-1.422-2.24 0-.659.306-1.066.942-1.066.635 0 .942.421.942 1.066ZM48.409 92.623v-3.827h-.782v-.458h2.044v.458h-.787v3.827h-.475ZM51.362 92.623h-.425v-4.261h.608l.988 3.082v-3.082h.42v4.261h-.493L51.37 89.18l-.009 3.443ZM53.91 91.763l-.166.86h-.457l.819-4.262h.686l.813 4.262h-.457l-.164-.86h-1.075Zm.059-.407h.95l-.457-2.455-.494 2.455ZM57.567 92.614h-.457l-.704-3.388v3.397h-.416v-4.261h.663l.7 3.402.676-3.402h.663v4.261h-.457v-3.425l-.668 3.416ZM60.69 90.25v.425h-1.042v1.513h1.28v.435h-1.756V88.36h1.756v.457h-1.28v1.454l1.042-.022ZM70.292 89.715v.59h-.457v-.59h.457Zm0 2.318v.59h-.457v-.59h.457ZM40.114 102.157V97.9h.457v3.827h1.216v.43h-1.673ZM42.629 101.302l-.165.855h-.434l.814-4.257h.686l.818 4.257h-.457l-.165-.855H42.63Zm.064-.407h.946l-.48-2.46-.466 2.46ZM46.561 98.924v.114h-.457v-.142c0-.384-.146-.608-.485-.608-.338 0-.484.224-.484.604 0 .956 1.426 1.047 1.426 2.245 0 .645-.31 1.065-.96 1.065-.65 0-.956-.42-.956-1.065v-.242h.458v.265c0 .384.16.608.498.608.338 0 .498-.224.498-.608 0-.947-1.422-1.038-1.422-2.236 0-.659.307-1.066.942-1.066.636 0 .942.417.942 1.066ZM47.6 102.157v-3.823h-.783V97.9h2.044v.434h-.786v3.823h-.476ZM50.553 102.157h-.425V97.9h.599l.987 3.077V97.9h.421v4.257h-.494l-1.088-3.425v3.425ZM53.1 101.302l-.165.855h-.434l.814-4.257H54l.814 4.257h-.458l-.164-.855H53.1Zm.064-.407h.947l-.48-2.46-.467 2.46ZM56.758 102.152h-.457l-.705-3.388v3.393h-.393V97.9h.663l.7 3.402.677-3.402h.663v4.257h-.458v-3.425l-.69 3.42ZM59.886 99.788v.425h-1.024v1.514h1.28v.43h-1.756V97.9h1.756v.434h-1.28v1.454h1.024ZM70.448 99.249v.594h-.457v-.594h.457Zm0 2.318v.59h-.457v-.59h.457ZM40.571 107.201v4.257h-.457v-4.257h.457ZM42.057 107.201c.663 0 .97.397.97 1.056v2.149c0 .649-.307 1.052-.97 1.052h-.997v-4.257h.997Zm0 3.827c.339 0 .503-.215.503-.604v-2.19c0-.389-.164-.604-.507-.604h-.512v3.398h.516ZM44.833 111.458h-.425v-4.257h.603l.983 3.077v-3.077h.421v4.257h-.494l-1.088-3.444v3.444ZM47.352 110.452c0 .384.15.617.498.617s.494-.233.494-.617v-3.251h.457v3.228c0 .644-.297 1.079-.955 1.079-.659 0-.951-.435-.951-1.079v-3.228h.457v3.251ZM50.827 111.453h-.457l-.709-3.388v3.393h-.402v-4.257h.663l.709 3.42.676-3.398h.663v4.257h-.457v-3.424l-.686 3.397ZM53.374 107.201c.663 0 .915.315.915.941v.193c0 .457-.128.727-.499.845.416.115.572.458.572.915v.361a.88.88 0 0 1-.974.997h-.928v-4.257l.914.005Zm-.114 1.829c.375 0 .571-.124.571-.567v-.247c0-.38-.128-.563-.457-.563h-.457v1.372l.343.005Zm.137 2.021c.348 0 .508-.183.508-.581v-.375c0-.457-.188-.636-.6-.636h-.388v1.592h.48ZM56.337 109.084v.426H55.3v1.518h1.276v.43h-1.751v-4.257h1.751v.429H55.3v1.454h1.038ZM57.947 107.201c.672 0 .95.338.95.973v.343c0 .458-.164.764-.53.878.389.115.535.43.535.887v.663c-.012.176.017.351.087.513h-.48a1.114 1.114 0 0 1-.082-.517v-.668c0-.484-.224-.635-.618-.635h-.32v1.829h-.457v-4.257l.915-.009Zm-.12 2.007c.376 0 .6-.124.6-.585v-.407c0-.384-.138-.586-.49-.586h-.457v1.578h.348ZM70.238 108.549v.59h-.457v-.59h.457Zm0 2.318v.59h-.457v-.59h.457ZM41.98 116.995v.361h-.458v-.388c0-.385-.155-.613-.503-.613-.347 0-.498.228-.498.613v2.254c0 .379.16.613.498.613.338 0 .503-.234.503-.613v-.855h-.457v-.43h.887v1.253c0 .645-.306 1.07-.96 1.07-.654 0-.956-.425-.956-1.07v-2.2c0-.644.302-1.074.956-1.074.654 0 .987.434.987 1.079ZM43.946 117.85v.425h-1.043v1.518h1.28v.43h-1.755v-4.257h1.755v.43h-1.28v1.454h1.043ZM45.038 120.223h-.425v-4.257h.604l.983 3.077v-3.077h.42v4.257h-.493l-1.089-3.443v3.443ZM48.107 115.966c.663 0 .965.402.965 1.056v2.149c0 .649-.302 1.052-.965 1.052h-.997v-4.257h.997Zm0 3.827c.338 0 .503-.215.503-.604v-2.167c0-.389-.165-.604-.512-.604h-.512v3.398l.52-.023ZM51.033 117.85v.425h-1.042v1.518h1.28v.43H49.52v-4.257h1.75v.43h-1.28v1.454h1.043ZM52.657 115.966c.667 0 .95.338.95.974v.347c0 .457-.164.759-.53.874.389.114.535.434.535.887v.663a1.03 1.03 0 0 0 .087.512h-.484a1.166 1.166 0 0 1-.078-.517v-.667c0-.481-.224-.636-.622-.636h-.334v1.829h-.457v-4.257l.933-.009Zm-.124 2.007c.38 0 .604-.123.604-.585v-.407c0-.384-.137-.585-.494-.585h-.457v1.577h.347ZM70.594 117.315v.59h-.457v-.59h.457Zm0 2.318v.59h-.457v-.59h.457ZM41.097 125.253c.663 0 .97.402.97 1.056v2.145c0 .649-.307 1.051-.97 1.051h-.983v-4.252h.983Zm0 3.827c.338 0 .503-.215.503-.604v-2.19c0-.388-.165-.603-.512-.603h-.517v3.397h.526ZM42.903 128.911v.59h-.457v-.59h.457ZM43.315 126.268c0-.654.324-1.07.974-1.07.649 0 .983.416.983 1.07v2.185a.945.945 0 0 1-.983 1.075c-.65 0-.974-.43-.974-1.075v-2.185Zm.457 2.227c0 .388.165.612.503.612.338 0 .507-.224.507-.612v-2.255c0-.379-.16-.612-.507-.612-.348 0-.503.233-.503.612v2.255ZM46.09 128.911v.59h-.457v-.59h.457ZM47.535 125.253c.663 0 .914.315.914.942v.201c0 .457-.128.732-.498.846.411.114.572.457.572.914v.357a.875.875 0 0 1-.975.997h-.978v-4.257h.965Zm-.114 1.806c.374 0 .571-.124.571-.567v-.247c0-.379-.128-.562-.457-.562h-.457v1.371l.342.005Zm.137 2.021c.347 0 .507-.183.507-.581v-.375c0-.457-.192-.631-.599-.631h-.411v1.587h.503ZM70.164 126.588v.59h-.457v-.59h.457Zm0 2.318v.59h-.457v-.585l.457-.005ZM39.752 136.867v1.916h-.457v-4.257h.457v1.916H40.8v-1.916h.458v4.257H40.8v-1.916h-1.048ZM43.273 136.41v.425h-1.038v1.518h1.276v.43H41.76v-4.257h1.751v.43h-1.276v1.454h1.038ZM44.421 134.526v4.257h-.457v-4.257h.457ZM46.79 135.555v.366h-.457v-.394c0-.379-.156-.612-.503-.612-.348 0-.499.233-.499.612v2.255c0 .384.16.612.499.612.338 0 .503-.228.503-.612v-.855h-.457v-.426h.887v1.253c0 .645-.302 1.075-.96 1.075-.66 0-.956-.43-.956-1.075v-2.199c0-.645.301-1.07.955-1.07.654 0 .988.425.988 1.07ZM47.713 136.867v1.916h-.457v-4.257h.457v1.916h1.047v-1.916h.457v4.257h-.457v-1.916h-1.047ZM50.342 138.783v-3.827h-.786v-.43H51.6v.43h-.782v3.827h-.476ZM69.378 135.875v.59h-.457v-.59h.457Zm0 2.318v.59h-.457v-.59h.457ZM39.396 147.548h-.654l-.58-4.257h.456l.499 3.626.457-3.621h.457l.458 3.626.484-3.631h.412l-.576 4.257h-.627l-.411-2.89-.375 2.89ZM43.315 145.18v.425h-1.038v1.513h1.276v.43H41.8v-4.257h1.752v.435h-1.276v1.454h1.038ZM44.476 143.291v4.257h-.457v-4.257h.457ZM46.84 144.32v.366h-.457v-.389c0-.384-.155-.617-.498-.617-.343 0-.499.233-.499.617v2.25c0 .384.156.613.499.613.343 0 .498-.229.498-.613v-.85h-.457v-.426h.887v1.253c0 .645-.302 1.07-.96 1.07-.659 0-.956-.425-.956-1.07v-2.204c0-.644.306-1.07.956-1.07.65 0 .987.426.987 1.07ZM47.764 145.632v1.916h-.458v-4.257h.458v1.916H48.8v-1.916h.458v4.257H48.8v-1.916h-1.038ZM50.393 147.548v-3.822h-.782v-.435h2.044v.435h-.786v3.822h-.476ZM68.464 144.64v.595h-.458v-.595h.458Zm0 2.319v.59h-.458v-.59h.458ZM38.284 153.072c.663 0 .915.316.915.942v.201c0 .457-.128.732-.499.846.416.114.572.457.572.915v.37a.876.876 0 0 1-.576.955.867.867 0 0 1-.398.042h-.979v-4.257l.965-.014Zm-.114 1.829c.375 0 .572-.119.572-.567v-.274c0-.38-.128-.558-.458-.558h-.457v1.372l.343.027Zm.137 2.021c.348 0 .508-.183.508-.576v-.379c0-.458-.188-.632-.6-.632h-.388v1.587h.48ZM39.73 157.329v-4.257h.457v3.827h1.216v.43H39.73ZM41.742 154.101c0-.649.324-1.07.974-1.07.649 0 .978.421.978 1.07v2.204c0 .645-.32 1.07-.978 1.07-.659 0-.974-.425-.974-1.07v-2.204Zm.457 2.227c0 .388.165.612.503.612.338 0 .503-.224.503-.612v-2.268c0-.384-.156-.618-.503-.618-.348 0-.503.234-.503.618v2.268ZM44.11 154.101c0-.649.32-1.07.974-1.07.654 0 .978.421.978 1.07v2.204a.913.913 0 0 1-.978 1.07c-.654 0-.974-.425-.974-1.07v-2.204Zm.457 2.227c0 .388.165.612.508.612.343 0 .503-.224.503-.612v-2.268c0-.384-.16-.618-.503-.618-.343 0-.508.234-.508.618v2.268ZM47.508 153.072c.663 0 .97.402.97 1.061v2.144c0 .654-.307 1.052-.97 1.052h-.992v-4.257h.992Zm0 3.827c.343 0 .507-.215.507-.604v-2.19c0-.388-.164-.599-.512-.599h-.53v3.393h.535ZM50.485 157.329v-3.823h-.769v-.457h2.049v.457h-.787v3.823h-.493ZM52.826 155.802l-.915-2.744h.494l.663 2.094.672-2.094h.457l-.914 2.744v1.527h-.457v-1.527ZM55.473 153.072c.668 0 .956.398.956 1.042v.508c0 .677-.316 1.029-.992 1.029h-.42v1.678h-.458v-4.257h.914Zm-.036 2.154c.352 0 .526-.165.526-.572v-.567c0-.389-.142-.581-.49-.581h-.457v1.72h.42ZM58.331 154.974v.43h-1.038v1.514h1.276v.43h-1.751v-4.257h1.75v.457h-1.275v1.426h1.038ZM67.951 154.421v.59h-.457v-.59h.457Zm0 2.318v.59h-.457v-.59h.457ZM36.634 164.846v1.916h-.458v-4.257h.458v1.916h1.047v-1.916h.457v4.257h-.457v-1.916h-1.047ZM38.61 163.534c0-.654.32-1.07.973-1.07.654 0 .979.416.979 1.07v2.199c0 .645-.325 1.075-.979 1.075-.654 0-.974-.43-.974-1.075v-2.199Zm.457 2.227c0 .389.164.613.507.613.343 0 .503-.224.503-.613v-2.254c0-.38-.16-.613-.503-.613-.343 0-.507.233-.507.613v2.254ZM42.579 166.758h-.458l-.708-3.389v3.393h-.384v-4.257h.663l.7 3.402.676-3.402h.663v4.257h-.457v-3.425l-.695 3.421ZM45.706 164.389v.425h-1.02v1.518h1.276v.43h-1.751v-4.257h1.751v.43h-1.276v1.454h1.02ZM47.805 165.907l-.165.855h-.457l.814-4.257h.686l.818 4.257h-.457l-.164-.855h-1.075Zm.064-.411h.933l-.457-2.456-.476 2.456ZM50.89 162.505c.664 0 .966.403.966 1.057v2.149c0 .649-.302 1.051-.965 1.051h-.997v-4.257h.997Zm0 3.827c.34 0 .504-.214.504-.603v-2.19c0-.389-.165-.604-.512-.604h-.512v3.397h.52ZM53.25 162.505c.673 0 .952.339.952.974v.348c0 .457-.165.759-.53.873.388.114.534.457.534.887v.663c-.015.175.015.352.087.512h-.457a1.087 1.087 0 0 1-.083-.516v-.668c0-.48-.224-.636-.617-.636h-.338v1.829h-.458v-4.257l.91-.009Zm-.118 2.008c.375 0 .599-.124.599-.586v-.407c0-.384-.138-.585-.49-.585h-.457v1.578h.348ZM56.214 164.389v.425h-1.038v1.518h1.275v.43h-1.75v-4.257h1.75v.43h-1.275v1.454h1.038ZM58.733 163.525v.137h-.457v-.142c0-.384-.142-.608-.484-.608-.343 0-.485.224-.485.604 0 .955 1.426 1.047 1.426 2.245 0 .644-.31 1.065-.96 1.065-.649 0-.955-.421-.955-1.065v-.27h.457v.27c0 .384.16.608.498.608.339 0 .503-.224.503-.608 0-.951-1.426-1.038-1.426-2.241 0-.654.306-1.061.942-1.061.635 0 .941.421.941 1.066ZM60.997 163.525v.137h-.458v-.142c0-.384-.141-.608-.484-.608-.343 0-.485.224-.485.604 0 .955 1.427 1.047 1.427 2.245 0 .644-.311 1.065-.96 1.065-.65 0-.956-.421-.956-1.065v-.27h.457v.27c0 .384.16.608.499.608.338 0 .498-.224.498-.608 0-.951-1.422-1.038-1.422-2.241 0-.654.306-1.061.942-1.061.635 0 .942.421.942 1.066ZM66.589 163.854v.59h-.457v-.59h.457Zm0 2.318v.59h-.457v-.59h.457ZM35.573 172.286c.668 0 .956.393.956 1.038v.512c0 .677-.32 1.029-.993 1.029h-.42v1.678h-.457v-4.257h.914Zm-.037 2.154c.353 0 .522-.165.522-.572v-.567c0-.389-.142-.585-.485-.585h-.457v1.724h.42ZM37.37 174.636v1.916h-.457v-4.257h.457v1.916h1.047v-1.916h.457v4.257h-.457v-1.916H37.37ZM39.346 173.315c0-.654.32-1.075.969-1.075.65 0 .983.421.983 1.075v2.199a.916.916 0 0 1-.983 1.07c-.65 0-.97-.425-.97-1.07v-2.199Zm.457 2.226c0 .389.165.613.503.613.338 0 .507-.224.507-.613v-2.254c0-.384-.16-.613-.507-.613-.348 0-.503.229-.503.613v2.254ZM42.167 176.543h-.425v-4.257h.603l.983 3.077v-3.077h.444v4.257h-.494L42.19 173.1l-.023 3.443ZM45.752 174.179v.425H44.71v1.518h1.275v.43H44.23v-4.257h1.75v.43h-1.275v1.454h1.047ZM47.786 176.543h-.425v-4.257h.603l.983 3.077v-3.077h.421v4.257h-.494l-1.088-3.443v3.443ZM50.306 175.551c0 .379.15.613.498.613s.494-.234.494-.613v-3.256h.457v3.228c0 .645-.297 1.079-.955 1.079-.659 0-.947-.434-.947-1.079v-3.228h.457l-.004 3.256ZM53.781 176.538h-.457l-.704-3.388v3.393h-.416v-4.257h.663l.7 3.402.676-3.402h.663v4.257h-.457v-3.425l-.668 3.42ZM56.346 172.286c.663 0 .915.315.915.942v.201c0 .457-.128.732-.499.846.412.114.572.457.572.914v.362a.872.872 0 0 1-.974.996h-.983v-4.257l.97-.004Zm-.114 1.806c.38 0 .572-.123.572-.567v-.261c0-.379-.129-.562-.458-.562h-.457v1.372l.343.018Zm.142 2.021c.347 0 .503-.183.503-.581v-.375c0-.457-.188-.635-.595-.635h-.416v1.591h.508ZM59.291 174.179v.425h-1.037v1.518h1.275v.43h-1.751v-4.257h1.751v.43h-1.276v1.454h1.038ZM60.919 172.286c.668 0 .947.338.947.974v.347c0 .458-.165.759-.53.874.392.114.534.434.534.887v.663c-.013.175.017.351.087.512h-.48a1.103 1.103 0 0 1-.078-.517v-.667c0-.481-.229-.636-.622-.636h-.334v1.829h-.457v-4.257l.933-.009Zm-.123 2.007c.374 0 .603-.123.603-.585v-.407c0-.384-.142-.585-.494-.585h-.457v1.577h.348ZM65.651 173.635v.59h-.457v-.59h.457Zm0 2.318v.59h-.457v-.59h.457Z"/></g><path fill="#BFBFBF" d="M126.036 67.223h-24.76v31.596h24.76V67.223Z"/><path fill="#263238" d="M124.395 98.929h-21.491l.457-2.597v-.535c.003-2.11.472-4.192 1.372-6.1a.503.503 0 0 1 0-.055l5.391-1.463a4.05 4.05 0 0 1 .425-1.294c.299-.202.628-.356.974-.457v-.983a9.442 9.442 0 0 1-.955-2.09.454.454 0 0 1-.192-.041 1.125 1.125 0 0 1-.316-.215 3.667 3.667 0 0 1-.64-.659 1.365 1.365 0 0 1-.274-.864c.002-.3.062-.596.178-.873.125-.163.291-.29.48-.37a5.72 5.72 0 0 0 0-1.08c-.667-6.232 8.185-7.928 8.295.224 0 .307.023.695.023.695a.774.774 0 0 1 .425.458c.064.31.11.622.137.937.007.31-.09.615-.274.864a3.828 3.828 0 0 1-.645.659 1.127 1.127 0 0 1-.316.215.42.42 0 0 1-.247.032 9.037 9.037 0 0 1-1.143 2.373v.914c.645.188 1.253.54 1.29 1.157.007.095.019.19.036.284 2.012.48 5.144 1.371 5.144 1.371l.042.215a14.24 14.24 0 0 1 1.371 6.118l.458 3.17-.005-.01Z"/><g stroke="#5C5C5C" stroke-linecap="round" stroke-linejoin="round" stroke-width=".457"><path d="M147.093 60.844h-4.838M146.933 69.157h-4.678M146.768 77.47h-4.513M146.608 85.783h-4.353M146.448 94.096h-4.193M146.283 102.408h-4.028M146.123 110.721h-3.868M145.963 119.034h-3.708M145.799 127.347h-3.544M145.639 135.66h-3.384M145.479 143.973h-3.224M145.314 152.286h-3.059M145.154 160.599h-2.899M144.994 168.911h-2.739M144.829 177.224h-2.574M144.669 185.537h-2.414M144.509 193.85h-2.254M142.2 60.844V193.85M173.06 49.614c-1.093 1.372-2.688 2.743-4.202 4.152l-1.033.914h-.023l-1.084-.914a34.638 34.638 0 0 1-3.891-3.754"/><path d="m173.316 48.507-1.829.078-.521 1.06-1.244-3.36-.786 3.375-.791-1.683-.983 3.05-1.655-6.562-.951 4.408-2.022.091c-1.321-1.719-1.829-3.447-.278-5.066 1.915-2.035 4.321-.33 5.551.796 1.188-1.148 3.813-3.498 6.031-.69 1.129 1.39.567 3.003-.522 4.503ZM139.118 28.47a4.156 4.156 0 0 0-4.156 4.152c0 2.287 4.156 8.345 4.156 8.345s4.152-6.045 4.152-8.345a4.157 4.157 0 0 0-4.152-4.151v0Zm0 6.2a1.895 1.895 0 0 1-1.861-2.259 1.886 1.886 0 0 1 1.486-1.49 1.892 1.892 0 1 1 .375 3.75v0ZM171.025 35.265a4.163 4.163 0 0 0 4.156-4.156c0-2.286-4.156-8.345-4.156-8.345s-4.157 6.05-4.157 8.345a4.155 4.155 0 0 0 4.157 4.156v0ZM171.026 27.817v2.995M169.525 29.316h2.995M169.525 32.307h2.995M153.055 50.68c0 1.343-.914 2.523-2.835 2.884a7.421 7.421 0 0 1-2.007.074 7.481 7.481 0 0 1-2.405-.618.912.912 0 0 1-.458-1.216v0a.923.923 0 0 1 .522-.493.915.915 0 0 1 .717.036 5.926 5.926 0 0 0 1.61.457c.25.04.502.06.754.06a3.17 3.17 0 0 0 1.253-.206.842.842 0 0 0 .608-.812.843.843 0 0 0-.608-.812 10.999 10.999 0 0 0-2.007-.571c-1.463-.361-2.995-.915-2.995-2.79 0-1.408.979-2.615 2.995-2.926a6.61 6.61 0 0 1 1.075-.082c.305.002.611.022.914.06.538.062 1.066.19 1.573.379a.905.905 0 0 1 .522.493.92.92 0 0 1 .004.718v0a.92.92 0 0 1-.853.576.912.912 0 0 1-.354-.072c-.29-.112-.588-.2-.892-.261a4.486 4.486 0 0 0-.946-.096c-.36-.009-.718.04-1.061.146a.996.996 0 0 0-.773.956c0 .416.306.663.773.85.659.212 1.329.387 2.007.526 1.45.38 2.867.951 2.867 2.74ZM148.218 42.755v-1.17h2.007v1.147M150.225 54.575v1.088h-2.007v-1.01M153.471 12.105l-6.401 6.402h2.4v6.013h2.767v-3.942h2.418v3.942h2.767v-6.036h2.405l-6.356-6.379Z"/></g><path fill="#BFBFBF" stroke="#263238" stroke-linecap="round" stroke-linejoin="round" stroke-width=".457" d="M157.207 92.55h-41.464v55.213h41.464V92.55Z"/><path fill="#1E42A2" stroke="#263238" stroke-linecap="round" stroke-linejoin="round" stroke-width=".457" d="M122.42 147.608h-6.452l.864-4.984v-1.047a27.399 27.399 0 0 1 2.629-11.701v-.037l2.959 17.751v.018ZM157.171 147.608H150.7l2.287-13.814.663-4.005a27.324 27.324 0 0 1 2.643 11.738l.882 6.081h-.004Z"/><path fill="#1E42A2" d="M153.577 129.368s-.261 1.916-.586 4.417c-.48 3.658-1.097 8.569-1.257 10.609-.05.658-.128 1.792-.219 3.2h-29.503c-.951-7.156-2.377-16.607-2.542-17.714v-.105l10.343-2.807 1.409-.385a4.005 4.005 0 0 1 1.284-.521 10.326 10.326 0 0 1 1.775-.26h.283a29.187 29.187 0 0 1 4.202.123 44.82 44.82 0 0 1 2.415.288h.032c.567.087 1.458.284 2.514.535 3.841.905 9.85 2.62 9.85 2.62Z"/><mask id="b" width="35" height="23" x="119" y="125" maskUnits="userSpaceOnUse" style="mask-type:luminance"><path fill="#fff" d="M153.576 129.368s-.26 1.916-.585 4.417c-.48 3.658-1.097 8.569-1.258 10.609-.05.658-.128 1.792-.219 3.2h-29.502c-.951-7.156-2.378-16.607-2.542-17.714v-.105l10.343-2.807 1.408-.385a4.02 4.02 0 0 1 1.285-.521 10.314 10.314 0 0 1 1.774-.26h.284a29.19 29.19 0 0 1 4.202.123c.914.082 1.751.192 2.414.288h.032c.567.087 1.459.284 2.515.535 3.841.905 9.849 2.62 9.849 2.62Z"/></mask><g mask="url(#b)"><path fill="#000" d="m129.378 134.526 4.358-2.428c.425-.238.974-.457 1.371-.169.398.288.316.873.567 1.271a1.375 1.375 0 0 0 1.532.425c.554-.146 1.038-1.371 1.578-1.563 1.774-.581 3.626 1.422 5.18 2.46-.246-2.415-.492-4.829-.736-7.243 0 .123-10.059-.055-10.974.146-2.977.672-2.519 4.637-2.876 7.101Z" opacity=".2"/></g><path stroke="#263238" stroke-linecap="round" stroke-linejoin="round" stroke-width=".457" d="M153.577 129.368s-.261 1.916-.586 4.417c-.48 3.658-1.097 8.569-1.257 10.609-.05.658-.128 1.792-.219 3.2h-29.503c-.951-7.156-2.377-16.607-2.542-17.714v-.105l10.343-2.807 1.409-.385a4.005 4.005 0 0 1 1.284-.521 10.326 10.326 0 0 1 1.775-.26h.283a29.187 29.187 0 0 1 4.202.123 44.82 44.82 0 0 1 2.415.288h.032c.567.087 1.458.284 2.514.535 3.841.905 9.85 2.62 9.85 2.62Z"/><path fill="#263238" d="M133.531 123.259s-2.438.732-2.922 1.217c-.485.484-.851 3.063-1.345 4.385-.493 1.321-2.066 3.658-1.577 3.772.489.114 7.956-2.336 7.956-2.336l1.418 5.77.905-5.784s7.119 2.83 7.357 2.46c.238-.371-1.568-4.746-1.687-6.575-.119-1.829-2.803-2.438-4.385-2.552-1.582-.114-5.72-.357-5.72-.357Z"/><path fill="#fff" stroke="#263238" stroke-linecap="round" stroke-linejoin="round" stroke-width=".457" d="M132.484 120.31v7.12l4.398 2.235.042 5.936-.042-5.936 4.276-2.336v-7.435l-8.674.416ZM128.418 112.953c-.273.395-.449.85-.512 1.326a2.61 2.61 0 0 0 .522 1.66 7.01 7.01 0 0 0 1.234 1.266c.178.171.382.313.604.421a.712.712 0 0 0 .987-.351.705.705 0 0 0 .046-.385 2.935 2.935 0 0 0-.192-.782c-.366-1.088-.251-2.254-.562-3.306-.352-1.207-1.615-.686-2.127.151ZM145.689 112.953c.273.395.448.85.508 1.326a2.598 2.598 0 0 1-.526 1.66c-.357.471-.77.897-1.23 1.266a2.263 2.263 0 0 1-.609.421.792.792 0 0 1-.713-.027.816.816 0 0 1-.32-.709c.027-.269.094-.532.197-.782.361-1.088.247-2.254.558-3.306.356-1.207 1.623-.686 2.135.151Z"/><path fill="#263238" d="M132.479 121.714s1.34 5.08 4.029 5.19c2.688.11 4.659-4.664 4.659-4.664s-2.78-2.017-8.688-.526Z"/><path fill="#fff" stroke="#263238" stroke-linecap="round" stroke-linejoin="round" stroke-width=".457" d="M144.367 111.673c0 5.619-3.306 13.365-7.38 13.365s-7.384-7.746-7.384-13.365c0-5.62 3.306-10.17 7.384-10.17 4.079 0 7.38 4.545 7.38 10.17Z"/><path fill="#263238" d="M134.308 112.624c.229 0 .412.457.412 1.056s-.183 1.061-.412 1.061c-.228 0-.416-.458-.416-1.061 0-.604.169-1.056.416-1.056ZM139.447 112.624c.229 0 .412.457.412 1.056s-.183 1.061-.412 1.061c-.228 0-.416-.458-.416-1.061 0-.604.188-1.056.416-1.056Z"/><path stroke="#263238" stroke-linecap="round" stroke-linejoin="round" stroke-width=".457" d="m137.742 112.093-.27.544s.183 2.853.261 3.471c.078.617-.375 1.312-1.047.946l-.677-.366M134.934 119.446c0 .562 4.115.562 4.115 0"/><path fill="#263238" d="m129.959 115.463.864.169a13.325 13.325 0 0 1-.594-2.807c-.078-.809 1.084-2.021 1.084-2.588 0-3.077 1.673-2.991 2.016-2.538.046-.562 2.68-3.278 4.646.485.503.96 5.853 1.829 5.834 2.679a28.634 28.634 0 0 1-.457 4.545c.434.083.819-.37.873-.814.055-.443.165-2.153.535-2.4a.864.864 0 0 0 .915.457 4.391 4.391 0 0 1-.403-1.701c.028-.59.334-.201.915-.366.297-.087 2.798-1.774 3.109-2.675-1.134.142-2.204-.635-2.853-1.577s-1.001-2.049-1.55-3.05c-1.372-2.497-4.115-4.27-6.955-4.161-2.839.11-5.565 2.286-5.994 5.103a1.63 1.63 0 0 0-1.674.274c-.444.401-.81.88-1.079 1.413a9.359 9.359 0 0 0-1.285 2.949c-.197 1.057.878 2.547 1.696 3.247.133-.247.06 3.356.357 3.356Z"/><path stroke="#5C5C5C" stroke-linecap="round" stroke-linejoin="round" stroke-width=".457" d="M130.353 105.765a3.52 3.52 0 0 0-1.248 1.701M130.435 106.784a2.926 2.926 0 0 0-.526.723M130.942 107.37a1.672 1.672 0 0 0-.416.695M136.749 104.832c.296.038.574.162.799.358.226.195.388.452.468.74M136.814 103.634a2.88 2.88 0 0 1 2.172 2.062M139.045 103.684a2.225 2.225 0 0 1 .722 1.569M140.312 103.936c.234.289.356.653.343 1.024M141.24 104.183a.815.815 0 0 1 .197.631M142.219 104.279c.032.114.064.224.1.338"/><path stroke="#263238" stroke-linecap="round" stroke-linejoin="round" stroke-width=".457" d="M132.109 111.924c.288-.242.48-.58.786-.8a1.737 1.737 0 0 1 1.413-.197c.473.138.923.345 1.335.613M138.483 111.536a5.005 5.005 0 0 1 1.335-.613c.236-.069.484-.087.728-.054.243.034.477.12.685.25.302.22.498.558.786.801"/><path fill="#fff" d="M134.116 124.759a7.057 7.057 0 0 0 1.783 4.294l-1.783-4.294Z"/><path stroke="#263238" stroke-linecap="round" stroke-linejoin="round" stroke-width=".457" d="M134.116 124.759a7.057 7.057 0 0 0 1.783 4.294M134.125 107.631c.168-.418.398-.808.681-1.157.127-.172.291-.312.48-.412a.596.596 0 0 1 .608.041M134.962 107.813a2.61 2.61 0 0 1 2.094-1.394M135.881 107.877c.283-.379 2.501-1.609 3.009.288M132.511 108.275a2.47 2.47 0 0 0-2.035.874M131.875 109.094a2.485 2.485 0 0 0-1.76 1.655M116.933 142.564a4.743 4.743 0 0 0 .836 2.845M121.505 138.555c.402 2.982.576 5.99.521 8.998M153.65 136.424l-1.953 8.098"/><path stroke="#263238" stroke-miterlimit="10" stroke-width=".457" d="M155.342 142.935a14.808 14.808 0 0 1-2.68 4.852M119.022 136.881a18.847 18.847 0 0 0 2.465 7.499M136.923 135.601l-.174 7.453h1.733l.115-12.661"/><path stroke="#263238" stroke-miterlimit="10" stroke-width=".457" d="M137.632 142.084a.42.42 0 1 0 .002-.84.42.42 0 0 0-.002.84ZM138.14 136.36a.419.419 0 0 1-.506.407.421.421 0 1 1 .506-.407Z"/><path fill="#fff" stroke="#263238" stroke-linecap="round" stroke-linejoin="round" stroke-width=".457" d="M152.461 127.937c-.041.146 1.125 5.089 1.125 5.089s.773.329.892-.727c.032-.283-.115-1.399-.096-1.911.05-1.491.416-2.776-.947-2.936 0 0-.8-.114-.974.485Z"/><path fill="#fff" stroke="#263238" stroke-linecap="round" stroke-linejoin="round" stroke-width=".457" d="M152.827 129.611c-.247-.028.338.946.37 3.045.031.595.2 1.174.494 1.692 0 0 .608.27.59-.791 0-.663-.274-2.405-.306-2.675-.229-1.806-.211-1.559-.179-1.372a3.805 3.805 0 0 1-.969.101Z"/><path fill="#fff" stroke="#263238" stroke-linecap="round" stroke-linejoin="round" stroke-width=".457" d="M151.853 130.1a41.04 41.04 0 0 0 .732 4.435c.242 1.253 1.371.608 1.307-.649a18.664 18.664 0 0 1-.279-2.332 4.994 4.994 0 0 0-.329-2.035s-1.257-.023-1.431.581Z"/><path fill="#fff" stroke="#263238" stroke-linecap="round" stroke-linejoin="round" stroke-width=".457" d="M156.361 108.234c-.293 5.853-.887 12.954-.942 13.653l-.114 2.2c.227.672.348 1.376.357 2.085a3.5 3.5 0 0 1-.293 1.472c-.202.37-.436.72-.7 1.047-.283 1.624-.388 2.04-1.481 1.962-.055 0-.069 1.692-.069 1.692.176.648.215 1.325.115 1.989a.768.768 0 0 1-.732.585s-.357-.32-.709-2.117a32.784 32.784 0 0 1-.242-1.957c-.024-.957.045-1.914.206-2.858.008-.08.02-.159.036-.238 0 0 .631-3.365.691-3.411l-.458-10.777a81.738 81.738 0 0 1 .343-8.455c.137-1.426-.283-3.127-.288-5.944 0-2.497.782-7.092.915-8.866.032-.43 1.44-.403 1.477-.48l2.419.809s-.22 11.523-.531 17.609Z"/><path fill="#fff" d="M153.613 126.775c-.37 1.162-.306 2.049-.603 3.11-.064.228.087.686.297.727"/><path stroke="#263238" stroke-linecap="round" stroke-linejoin="round" stroke-width=".457" d="M153.613 126.775c-.37 1.162-.306 2.049-.603 3.11-.064.228.087.686.297.727"/><path fill="#fff" d="m153.092 126.776.151 1.079-.151-1.079Z"/><path stroke="#263238" stroke-linecap="round" stroke-linejoin="round" stroke-width=".457" d="m153.092 126.776.151 1.079"/><path fill="#fff" stroke="#263238" stroke-linecap="round" stroke-linejoin="round" stroke-width=".457" d="M182.809 128.454c.041.142-1.12 5.089-1.12 5.089s-.773.325-.892-.732c-.032-.283.11-1.394.096-1.911-.055-1.486-.416-2.771.942-2.931 0-.009.8-.123.974.485Z"/><path fill="#fff" stroke="#263238" stroke-linecap="round" stroke-linejoin="round" stroke-width=".457" d="M182.443 130.118c.252-.027-.338.942-.366 3.045a3.785 3.785 0 0 1-.494 1.688s-.612.274-.594-.787c0-.663.274-2.41.311-2.675.229-1.806.206-1.559.174-1.372.317.074.643.108.969.101Z"/><path fill="#fff" stroke="#263238" stroke-linecap="round" stroke-linejoin="round" stroke-width=".457" d="M183.417 130.603a40.427 40.427 0 0 1-.727 4.44c-.242 1.248-1.399.608-1.308-.65.14-.772.233-1.552.279-2.336a4.958 4.958 0 0 1 .325-2.035s1.248-.018 1.431.581Z"/><path fill="#fff" stroke="#263238" stroke-linecap="round" stroke-linejoin="round" stroke-width=".457" d="M178.909 108.741c.297 5.849.887 12.954.946 13.654l.11 2.199a6.848 6.848 0 0 0-.352 2.086c-.01.504.089 1.004.288 1.467.205.369.439.72.699 1.052.288 1.619.389 2.039 1.482 1.962.053.562.075 1.127.068 1.691a4.93 4.93 0 0 0-.114 1.99.766.766 0 0 0 .732.58s.361-.315.713-2.117c.041-.21.229-1.715.238-1.952a14.23 14.23 0 0 0-.206-2.863 2.038 2.038 0 0 0-.032-.233s-.631-3.365-.695-3.411l.457-10.778a82.553 82.553 0 0 0-.343-8.454c-.141-1.427.279-3.132.284-5.945 0-2.496-.777-7.091-.915-8.87-.032-.425-1.44-.403-1.472-.457l-2.419.804s.224 11.509.531 17.595Z"/><path fill="#fff" d="M181.657 127.279c.375 1.161.306 2.048.603 3.109.069.233-.087.686-.297.727"/><path stroke="#263238" stroke-linecap="round" stroke-linejoin="round" stroke-width=".457" d="M181.657 127.279c.375 1.161.306 2.048.603 3.109.069.233-.087.686-.297.727"/><path fill="#fff" d="M182.178 127.279c-.046.361-.096.722-.146 1.083l.146-1.083Z"/><path stroke="#263238" stroke-linecap="round" stroke-linejoin="round" stroke-width=".457" d="M182.178 127.279c-.046.361-.096.722-.146 1.083"/><path fill="#fff" stroke="#263238" stroke-linecap="round" stroke-linejoin="round" stroke-width=".343" d="M161.286 187.257a9.838 9.838 0 0 1-2.991 3.9 4.877 4.877 0 0 0-1.454 1.728 1.109 1.109 0 0 0-.079.528c.018.179.08.352.18.502a1.102 1.102 0 0 0 .914.484h7.417a1.085 1.085 0 0 0 1.043-.695c.237-.645.388-1.77-.165-3.535l-.722-3.717-4.143.805Z"/><path fill="#263238" stroke="#263238" stroke-linecap="round" stroke-linejoin="round" stroke-width=".343" d="M166.316 193.704c.237-.645.388-1.77-.165-3.535l-.233-1.193-.517.695s-.53-.85-2.419-.85c-1.888 0-2.643.85-2.643.85l-.206-.407a10.782 10.782 0 0 1-1.829 1.893 4.872 4.872 0 0 0-1.454 1.729 1.102 1.102 0 0 0 .101 1.029 1.09 1.09 0 0 0 .914.484h7.417a1.084 1.084 0 0 0 1.034-.695Z"/><path fill="#fff" stroke="#263238" stroke-linecap="round" stroke-linejoin="round" stroke-width=".343" d="M156.778 193.205a1.103 1.103 0 0 0 1.097 1.194h7.417a1.09 1.09 0 0 0 1.024-.695c.06-.162.106-.329.137-.499h-9.675Z"/><path fill="#263238" d="m168.342 120.936-.654 36.782-.54 29.589h-7.444l-3.955-54.871.965-13.74a13.658 13.658 0 0 1 11.079 1.829c.352.247.549.411.549.411Z"/><path fill="#fff" stroke="#263238" stroke-linecap="round" stroke-linejoin="round" stroke-width=".343" d="M174.035 187.257a9.826 9.826 0 0 0 2.99 3.9 4.856 4.856 0 0 1 1.454 1.728 1.085 1.085 0 0 1-.101 1.03 1.088 1.088 0 0 1-.914.484h-7.417a1.088 1.088 0 0 1-1.024-.695c-.233-.645-.384-1.77.169-3.535l.723-3.717 4.12.805Z"/><path fill="#263238" stroke="#263238" stroke-linecap="round" stroke-linejoin="round" stroke-width=".343" d="M169.023 193.704c-.233-.645-.384-1.77.169-3.535l.234-1.193.498.695s.53-.85 2.419-.85c1.888 0 2.638.85 2.638.85l.211-.407c.53.703 1.144 1.339 1.829 1.893a4.872 4.872 0 0 1 1.454 1.729 1.102 1.102 0 0 1-.101 1.029 1.09 1.09 0 0 1-.915.484h-7.412a1.089 1.089 0 0 1-1.024-.695Z"/><path fill="#fff" stroke="#263238" stroke-linecap="round" stroke-linejoin="round" stroke-width=".343" d="M178.561 193.205a1.103 1.103 0 0 1-1.097 1.194h-7.417a1.088 1.088 0 0 1-1.024-.695c-.056-.163-.1-.33-.132-.499h9.67Z"/><path fill="#263238" d="m179.576 132.45-3.96 54.871h-7.403l-.526-29.603.673-36.8s-.197-.164-.563-.411a16.32 16.32 0 0 1 10.974-.869l.805 12.812Z"/><path fill="#1E42A2" d="M156.384 98.531h-5.318l.672-3.873v-.8c0-3.146-.105-6.544 2.428-9.095.083.54 1.528 4.582 2.218 13.768Z"/><mask id="c" width="6" height="15" x="151" y="84" maskUnits="userSpaceOnUse" style="mask-type:luminance"><path fill="#fff" d="M156.384 98.531h-5.318l.672-3.873v-.8c0-3.146-.105-6.544 2.428-9.095.083.54 1.528 4.582 2.218 13.768Z"/></mask><g mask="url(#c)"><path fill="#000" d="m155.145 96.364-1.66-.865c.526.965 1.047 1.934 1.568 2.9l-4.033.25c.241-1.426.485-2.854.732-4.284l.786 1.372c-.699-1.216-1.472-4.705-.164-5.67 1.312 1.518 1.98 4.38 2.771 6.297Z" opacity=".2"/></g><path stroke="#263238" stroke-linecap="round" stroke-linejoin="round" stroke-width=".457" d="M156.384 98.531h-5.318l.672-3.873v-.8c0-3.146-.105-6.544 2.428-9.095.083.54 1.528 4.582 2.218 13.768Z"/><path fill="#1E42A2" d="m178.387 98.174 1.779-10.732.517-3.118c2.743 2.995 2.432 7.545 2.432 9.122l.727 4.728h-5.455Z"/><mask id="d" width="6" height="15" x="178" y="84" maskUnits="userSpaceOnUse" style="mask-type:luminance"><path fill="#fff" d="m178.387 98.174 1.779-10.732.517-3.118c2.743 2.995 2.432 7.545 2.432 9.122l.727 4.728h-5.455Z"/></mask><g mask="url(#d)"><path fill="#000" d="M179.896 91.718c.298-.663.59-1.33.883-1.994l-.851 3.444a1.47 1.47 0 0 0 0 1.033.98.98 0 0 0 1.134.361 2.839 2.839 0 0 0 1.061-.713 3.61 3.61 0 0 0-.946 3.914 1.497 1.497 0 0 1-2.415-.517c-.1-.43-.1-.877 0-1.307.307-1.925.517-3.92.938-5.817.064.348.334 1.294.196 1.596Z" opacity=".2"/></g><path stroke="#263238" stroke-linecap="round" stroke-linejoin="round" stroke-width=".457" d="m178.387 98.174 1.779-10.732.517-3.118c2.743 2.995 2.432 7.545 2.432 9.122l.727 4.728h-5.455Z"/><path fill="#1E42A2" d="M179.151 93.584c-1.153 10.699-.362 25.789-.362 25.789-8.847 4.005-22.323-.183-22.327-.188.413-6.879.387-13.778-.078-20.654-.691-9.186-2.135-13.228-2.218-13.782v-.077l8.034-2.181 1.088-.302a3.21 3.21 0 0 1 1.002-.403c.45-.108.909-.177 1.372-.206h.224a22.964 22.964 0 0 1 3.269.097c.704.064 1.372.146 1.875.224h.023c.457.064 1.134.22 1.952.411 3 .723 7.677 2.049 7.677 2.049s-1.362 7.645-1.531 9.222Z"/><mask id="e" width="27" height="41" x="154" y="81" maskUnits="userSpaceOnUse" style="mask-type:luminance"><path fill="#fff" d="M179.151 93.584c-1.153 10.699-.362 25.789-.362 25.789-8.847 4.005-22.323-.183-22.327-.188.413-6.879.387-13.778-.078-20.654-.691-9.186-2.135-13.228-2.218-13.782v-.077l8.034-2.181 1.088-.302a3.21 3.21 0 0 1 1.002-.403c.45-.108.909-.177 1.372-.206h.224a22.964 22.964 0 0 1 3.269.097c.704.064 1.372.146 1.875.224h.023c.457.064 1.134.22 1.952.411 3 .723 7.677 2.049 7.677 2.049s-1.362 7.645-1.531 9.222Z"/></mask><g fill="#000" mask="url(#e)"><path d="m156.485 96.387 5.377 8.088-1.893-5.03a30.989 30.989 0 0 0 14.07 13.567 11.556 11.556 0 0 1-9.411-2.652 11.847 11.847 0 0 0 8.958 5.126 19.092 19.092 0 0 1-11.495 1.093 21.833 21.833 0 0 0 10.059 3.777 54.66 54.66 0 0 1-10.233.082c-2.149-.187-4.655-.763-5.487-2.743a6.364 6.364 0 0 1-.32-2.63l.347-18.226c-.059.266-.123.53-.183.791M175.493 107.877c-3.603-1.024-7.604-3.319-10.599-5.089 1.193 1.029 2.981 3.174 4.494 3.832 1.733.745 4.344.951 6.105 1.257Z" opacity=".2"/></g><path stroke="#263238" stroke-linecap="round" stroke-linejoin="round" stroke-width=".457" d="M179.151 93.584c-1.153 10.699-.362 25.789-.362 25.789-8.847 4.005-22.323-.183-22.327-.188.413-6.879.387-13.778-.078-20.654-.691-9.186-2.135-13.228-2.218-13.782v-.077l8.034-2.181 1.088-.302a3.21 3.21 0 0 1 1.002-.403c.45-.108.909-.177 1.372-.206h.224a22.964 22.964 0 0 1 3.269.097c.704.064 1.372.146 1.875.224h.023c.457.064 1.134.22 1.952.411 3 .723 7.677 2.049 7.677 2.049s-1.362 7.645-1.531 9.222Z"/><path fill="#fff" stroke="#263238" stroke-linecap="round" stroke-linejoin="round" stroke-width=".457" d="M174.24 82.728a8 8 0 0 1-12.904.147l-.109-.147 3.054-.965v-4.467l6.745-.325v4.843l.155-.032 3.059.946ZM161.122 71.599c-.21.31-.343.666-.389 1.038-.015.462.128.916.407 1.285.278.367.601.699.96.987.135.131.289.241.458.325a.548.548 0 0 0 .8-.572 2.056 2.056 0 0 0-.147-.612c-.283-.842-.192-1.751-.434-2.565-.265-.938-1.253-.535-1.655.114ZM174.547 71.599c.211.31.345.665.388 1.038a1.99 1.99 0 0 1-.407 1.285c-.278.367-.6.699-.96.987a1.758 1.758 0 0 1-.457.325.606.606 0 0 1-.553-.023.63.63 0 0 1-.247-.549c.019-.21.068-.416.146-.612.283-.842.197-1.751.457-2.565.261-.938 1.235-.535 1.633.114Z"/><path fill="#263238" d="M164.281 78.407s1.043 3.946 3.132 4.033c2.09.087 3.613-3.626 3.613-3.626s-2.159-1.573-6.745-.407Z"/><path fill="#fff" stroke="#263238" stroke-linecap="round" stroke-linejoin="round" stroke-width=".457" d="M173.527 70.607c0 4.366-2.57 10.384-5.739 10.384s-5.738-6.036-5.738-10.384c0-4.349 2.569-7.906 5.738-7.906 3.169 0 5.739 3.539 5.739 7.906Z"/><path fill="#263238" d="M165.685 71.343c.178 0 .32.37.32.823 0 .452-.142.823-.32.823-.179 0-.32-.37-.32-.823 0-.453.141-.823.32-.823ZM169.695 71.343c.174 0 .32.37.32.823 0 .452-.146.823-.32.823-.174 0-.325-.37-.325-.823 0-.453.147-.823.325-.823Z"/><path stroke="#263238" stroke-linecap="round" stroke-linejoin="round" stroke-width=".457" d="m168.369 70.931-.21.42s.142 2.223.206 2.703-.293 1.015-.819.736l-.521-.288M166.188 76.647c0 .457 3.2.457 3.2 0"/><path fill="#263238" d="m162.32 73.551.672.128a10.35 10.35 0 0 1-.458-2.18c-.059-.627.842-1.57.842-2.008 0-2.396 1.303-2.328 1.568-1.976.037-.434 2.085-2.546 3.612.38.389.745 4.55 1.404 4.536 2.08a22.84 22.84 0 0 1-.347 3.53c.338.069.635-.288.677-.63.041-.344.128-1.674.416-1.866a.67.67 0 0 0 .722.352 3.302 3.302 0 0 1-.311-1.322c0-.457.256-.155.695-.283.229-.069 2.177-1.372 2.415-2.08-.878.11-1.711-.494-2.214-1.226a24.42 24.42 0 0 1-1.207-2.373 6.112 6.112 0 0 0-5.404-3.228c-2.209.082-4.326 1.778-4.66 3.964a1.248 1.248 0 0 0-1.298.215 3.653 3.653 0 0 0-.842 1.093 7.25 7.25 0 0 0-.997 2.286c-.15.828.682 1.985 1.317 2.529.083-.183.037 2.615.266 2.615Z"/><path stroke="#263238" stroke-linecap="round" stroke-linejoin="round" stroke-width=".457" d="M163.988 70.799c.225-.188.38-.458.613-.618a1.373 1.373 0 0 1 1.102-.155c.365.102.713.256 1.034.457M168.945 70.501c.321-.2.669-.354 1.033-.457a1.346 1.346 0 0 1 1.102.156c.238.169.389.43.613.617"/><path fill="#fff" d="M165.552 80.771a5.444 5.444 0 0 0 1.372 3.338l-1.372-3.338Z"/><path stroke="#263238" stroke-linecap="round" stroke-linejoin="round" stroke-width=".457" d="M165.552 80.771a5.444 5.444 0 0 0 1.372 3.338M165.557 67.465c.13-.33.309-.637.53-.914.099-.134.228-.243.375-.32a.458.458 0 0 1 .458.032M166.211 67.607a2.014 2.014 0 0 1 1.628-1.084M166.924 67.639c.219-.297 1.943-1.253 2.337.224M164.304 67.963a1.91 1.91 0 0 0-1.582.682M163.81 68.6a1.933 1.933 0 0 0-1.372 1.284"/><path stroke="#5C5C5C" stroke-linecap="round" stroke-linejoin="round" stroke-width=".457" d="M163.628 131.943a33.75 33.75 0 0 0 4.238 1.609l4.852-1.673M156.201 127.082c.81-.105 1.372-.846 1.784-1.55a17.991 17.991 0 0 0 1.829-4.326M178.904 127.082c-.809-.105-1.372-.846-1.783-1.55a18.106 18.106 0 0 1-1.829-4.326"/><path stroke="#5C5C5C" stroke-linecap="round" stroke-linejoin="round" stroke-width=".457" d="M167.386 121.211v.658s7.339.329 10.613-1.495M157.322 120.077c2.574 1.399 7.137 1.646 10.059 1.792"/><path stroke="#5C5C5C" stroke-linecap="round" stroke-linejoin="round" stroke-width=".457" d="m167.797 121.883.091 4.6v.379l.055 2.543a1.163 1.163 0 0 0 .878-.194 1.146 1.146 0 0 0 .471-.766c.169-.942.05-5.117 0-6.557"/><path stroke="#5C5C5C" stroke-linecap="round" stroke-linejoin="round" stroke-width=".457" d="M167.596 161.655c-.068-2.698.293-35.172.293-35.172"/><path stroke="#263238" stroke-linecap="round" stroke-linejoin="round" stroke-width=".457" d="M159.745 113.602a14.66 14.66 0 0 0 14.019 1.866M160.591 99.459a41.266 41.266 0 0 0 3.951 6.443c2.336 3.036 5.432 5.633 9.09 6.731M159.86 98c.123.257.137.28.26.531M158.858 95.938c.188.39.375.782.567 1.171M164.894 102.779a14.691 14.691 0 0 0 10.288 5.194M151.771 91.288c.045 2.744.626 3.965 1.166 4.632M156.161 91.627c.064 3.027.557 6.374.457 11.152M154.153 90.044a14.584 14.584 0 0 0 1.916 5.83M181.273 88.7c-.503 2.099-1.093 4.408-2.19 5.542M180.752 95.87a24.77 24.77 0 0 1-.915.727M183.129 92.518a6.686 6.686 0 0 1-1.678 2.707M191.113 194.376H1"/></svg>