<svg xmlns="http://www.w3.org/2000/svg" width="194" height="182" fill="none">
  <g fill="#ECF6FC">
    <path d="M172.553 65.087a189 189 0 0 0-4.738-19.357c-5.771-18.42-17.256-37.058-36.982-43.324-14.563-4.622-30.281-1.433-42.586 7.987-19.301 14.771-33.348 34.928-54.466 47.719-17.63 10.685-26.858 27.946-20.93 52.345 5.927 24.398 25.729 38.612 47.399 36.886 18.01-1.453 36.84.101 52.41 8.843 13.916 7.81 38.501 1.012 58.84-20.324 11.85-12.437 10.701-28.25 6.838-43.026-2.389-9.151-3.938-18.486-5.785-27.749"/>
    <path d="M172.553 65.087a189 189 0 0 0-4.738-19.357c-5.771-18.42-17.256-37.058-36.982-43.324-14.563-4.622-30.281-1.433-42.586 7.987-19.301 14.771-33.348 34.928-54.466 47.719-17.63 10.685-26.858 27.946-20.93 52.345 5.927 24.398 25.729 38.612 47.399 36.886 18.01-1.453 36.84.101 52.41 8.843 13.916 7.81 38.501 1.012 58.84-20.324 11.85-12.437 10.701-28.25 6.838-43.026-2.389-9.151-3.938-18.486-5.785-27.749" opacity=".7"/>
  </g>
  <path fill="#1E42A2" d="M193.078 178.463c0 1.58-43.026 2.865-96.084 2.865s-96.09-1.285-96.09-2.865c0-1.579 43.026-2.865 96.09-2.865s96.084 1.286 96.084 2.865"/>
  <path fill="#fff" d="M193.078 178.463c0 1.58-43.026 2.865-96.084 2.865s-96.09-1.285-96.09-2.865c0-1.579 43.026-2.865 96.09-2.865s96.084 1.286 96.084 2.865" opacity=".3"/>
  <path fill="#263238" stroke="#263238" stroke-miterlimit="10" stroke-width=".506" d="M139.585 25.604H61.429a3.417 3.417 0 0 0-3.417 3.417v146.334a3.417 3.417 0 0 0 3.417 3.417h78.156a3.416 3.416 0 0 0 3.416-3.417V29.021a3.416 3.416 0 0 0-3.416-3.417Z"/>
  <path fill="#1E42A2" d="M106.384 34.756h-10.58a1.088 1.088 0 0 1-.416-2.09q.2-.082.416-.081h10.58a1.08 1.08 0 0 1 1.083 1.083 1.08 1.08 0 0 1-.668 1.005 1.1 1.1 0 0 1-.415.083"/>
  <path fill="#fff" d="M137.631 165.085H63.383V34.883h17.62l1.98 1.64a3.82 3.82 0 0 0 2.46.89h31.049a3.87 3.87 0 0 0 2.531-.961l1.787-1.57h16.826z"/>
  <mask id="a" width="75" height="132" x="63" y="34" maskUnits="userSpaceOnUse" style="mask-type:luminance">
    <path fill="#fff" d="M137.631 165.085H63.383V34.883h17.62l1.98 1.64a3.82 3.82 0 0 0 2.46.89h31.049a3.87 3.87 0 0 0 2.531-.961l1.787-1.57h16.826z"/>
  </mask>
  <g mask="url(#a)">
    <path fill="#1E42A2" d="M119.018 36.452c-.7.615-1.599.957-2.531.962H85.422a3.83 3.83 0 0 1-2.46-.891l-1.959-1.64h-17.62v14.26h74.248V34.867h-16.826z"/>
  </g>
  <path stroke="#263238" stroke-linecap="round" stroke-linejoin="round" stroke-width=".475" d="M137.631 165.085H63.383V34.883h17.62l1.98 1.64a3.82 3.82 0 0 0 2.46.89h31.049a3.87 3.87 0 0 0 2.531-.961l1.787-1.57h16.826z"/>
  <path fill="#fff" d="M132.103 50.61h-62.97v107.221h62.97z"/>
  <path fill="#1E42A2" d="M102.881 169.109a1.692 1.692 0 0 0-2.885-1.203 1.7 1.7 0 0 0-.368 1.844 1.69 1.69 0 0 0 1.562 1.044 1.695 1.695 0 0 0 1.691-1.685m18.087-68.088c11.255-11.256 11.255-29.505 0-40.761s-29.506-11.256-40.761 0-11.256 29.505 0 40.761c11.255 11.255 29.505 11.255 40.761 0"/>
  <mask id="b" width="59" height="59" x="71" y="51" maskUnits="userSpaceOnUse" style="mask-type:luminance">
    <path fill="#fff" d="M120.968 101.021c11.256-11.256 11.256-29.505 0-40.761s-29.505-11.256-40.761 0-11.256 29.505 0 40.761 29.505 11.256 40.761 0"/>
  </mask>
  <g mask="url(#b)">
    <path fill="#fff" stroke="#263238" stroke-linecap="round" stroke-linejoin="round" stroke-width=".506" d="M93.608 85.224s1.756 4.47 1.275 7.663c-.48 3.194-2.237 4.956-6.074 6.87s-9.9 4.631-10.544 6.549c-.642 1.919 0 10.888 0 10.888h46.959s-1.118-9.288-3.512-12.487-11.977-5.745-14.68-7.507-1.594-11.82-1.594-11.82-7.198 2.233-11.83-.156"/>
    <path fill="#263238" stroke="#263238" stroke-linecap="round" stroke-linejoin="round" stroke-width=".506" d="M88.09 100.131c-.87.425-1.827.891-2.783 1.366 1.665 5.062.126 11.496-1.296 15.692h33.256a12.4 12.4 0 0 1-1.058-3.513c-.541-3.801-.182-9.541.071-12.502a83 83 0 0 0-3.447-1.443c-1.665 3.943-5.831 11.602-12.822 10.655-6.93-.926-10.528-7.081-11.92-10.255ZM85.62 87.78s.952 2.394 4.495 2.87 1.792-4.667 12.26-5.027c7.37-.253.041 5.822 1.64 6.145 1.6.324 5.568-.162 7.826-5.43 2.257-5.27 2.713-18.69-1.919-23.002-4.631-4.313-18.222-4.156-20.283-.319s-.642 10.539-2.53 14.214c-1.889 3.675-2.77 8.63-1.489 10.549"/>
    <path fill="#fff" stroke="#263238" stroke-linecap="round" stroke-linejoin="round" stroke-width=".506" d="M90.115 75.464s-1.275-3.356-1.756-.957c-.48 2.4 0 4.789 1.119 5.75s1.756.795 1.756.795l-1.118-5.588Z"/>
    <path fill="#fff" stroke="#263238" stroke-linecap="round" stroke-linejoin="round" stroke-width=".506" d="M95.142 58.37s-2.698.674-4.5 5.624-.395 17.96.729 19.311c1.123 1.352 4.864 6.965 8.463 7.188 2.293.142 8.044-5.128 8.945-7.826s1.214-14.846.536-17.772-6.297-9.678-14.173-6.525"/>
    <path fill="#263238" d="M96.787 74.36a.74.74 0 1 1-1.478 0 .74.74 0 0 1 1.478 0m7.345 0a.74.74 0 0 1-.884.725.738.738 0 0 1 .145-1.463.73.73 0 0 1 .739.739Z"/>
    <path stroke="#263238" stroke-linecap="round" stroke-linejoin="round" stroke-width=".506" d="M96.969 81.948s2.394 1.347 5.826 0m-1.493-4.925s1.048 1.342 0 2.09a2.99 2.99 0 0 1-3.138.147c-.896-.445.152-2.389.152-2.389"/>
    <path fill="#263238" d="M97.338 70.974a3.39 3.39 0 0 0-3.639-.886c-2.273.76-2.384 2.648-2.384 2.648s1.382-1.762 2.617-1.782 2.991 1.367 3.406.02m4.116.167a3.37 3.37 0 0 1 3.579-1.078c2.313.633 2.531 2.531 2.531 2.531s-1.483-1.68-2.714-1.635c-1.23.046-2.91 1.508-3.396.182"/>
    <path fill="#263238" stroke="#263238" stroke-linecap="round" stroke-linejoin="round" stroke-width=".506" d="M97.44 62.385s-3.994-1.094-5.594 1.437-.794 7.507-3.194 11.976-.957 11.34-.638 12.3c.32.963-2.075 2.238-3.35-2.555-1.276-4.794 2.394-9.426 2.713-14.376s-.805-10.382 4.15-13.257c4.956-2.875 5.913-1.119 5.913-1.119z"/>
    <path fill="#263238" stroke="#263238" stroke-linecap="round" stroke-linejoin="round" stroke-width=".506" d="M117.085 69.896c-.957-2.875-.8-8.15-4.631-12.462-2.405-2.703-7.001-4.272-10.772-4.363a6.3 6.3 0 0 0-1.848-.107c-6.074.506-9.9 3.675-8.782 6.075 1.119 2.399 6.388 3.355 6.388 3.355l.8.32a7 7 0 0 1-.03-.816c.86-.4 2.328-.663 3.862.972a16.32 16.32 0 0 1 4.15 10.863c-.157 6.074 2.876 8.307 2.876 10.863s-4.47 5.75-5.432 6.55c-1.063.886 4.05 1.321 4.369 1.3 5.147-.318 8.569-3.68 10.716-8.164 2.525-5.274-.016-9.44-1.666-14.386"/>
    <path stroke="#fff" stroke-linecap="round" stroke-linejoin="round" stroke-width=".506" d="M111.284 88.99c-.238.39-.545.733-.906 1.012M97.44 61.742s-3.832-2.076-.638-3.67c3.194-1.595 9.112 3.35 10.539 7.982 1.428 4.632.319 9.906 2.399 13.576.982 1.747 2.258 4.642 2.162 7.087"/>
    <path stroke="#fff" stroke-linecap="round" stroke-linejoin="round" stroke-width=".506" d="M94.59 58.902c-.121-.44.122-1.073 1.25-1.949 2.876-2.237 8.15-1.119 10.863 1.756s3.675 6.388 3.994 10.54c.319 4.15.957 6.722 3.209 9.252s3.513 5.27 1.276 8.464M94.403 61.742s-4.47-1.914-1.914-4.313m-3.685 30.007a5.1 5.1 0 0 0 1.286 1.3m-2.232-11.019s-1.124 4.773.212 8.301"/>
    <path stroke="#fff" stroke-linecap="round" stroke-linejoin="round" stroke-width=".506" d="M111.051 60.278a17.5 17.5 0 0 1 2.349 6.895c.638 5.75-1.119 7.668 1.6 10.7a7.03 7.03 0 0 1 1.913 4.637m-7.816-24.92s.233.239.588.69"/>
  </g>
  <path fill="#263238" d="M123.422 108.928a6.682 6.682 0 1 0 0-13.364 6.682 6.682 0 0 0 0 13.364"/>
  <path fill="#fff" d="M126.803 100.328h-.243a.856.856 0 0 1-.855-.85.857.857 0 0 0-.851-.856h-2.85a.854.854 0 0 0-.855.856.85.85 0 0 1-.525.785.9.9 0 0 1-.325.065h-.243a.856.856 0 0 0-.856.855v3.837a.853.853 0 0 0 .856.856h6.762a.856.856 0 0 0 .851-.856v-3.837a.86.86 0 0 0-.254-.608.86.86 0 0 0-.612-.247m-3.381 5.214a2.719 2.719 0 1 1 2.713-2.714 2.72 2.72 0 0 1-2.713 2.714"/>
  <path fill="#fff" d="M123.422 104.985a2.157 2.157 0 1 0-.001-4.313 2.157 2.157 0 0 0 .001 4.313"/>
  <path stroke="#263238" stroke-linecap="round" stroke-linejoin="round" stroke-width=".506" d="M76.7 118.039h9.365M76.7 141.83h9.365"/>
  <path stroke="#263238" stroke-linecap="round" stroke-linejoin="round" stroke-width="1.012" d="M76.7 121.583h34.421M76.7 145.374h34.421"/>
  <path stroke="#263238" stroke-linecap="round" stroke-linejoin="round" stroke-width=".506" d="M76.7 155.244h9.365"/>
  <path stroke="#263238" stroke-linecap="round" stroke-linejoin="round" stroke-width="1.012" d="M76.7 158.788h34.421"/>
  <path stroke="#263238" stroke-linecap="round" stroke-linejoin="round" stroke-width=".506" d="M76.7 126.645h53.403M76.7 129.176h53.403M76.7 131.707h53.403"/>
  <path fill="#263238" d="M70.44 118.799a2.025 2.025 0 1 0-.002-4.05 2.025 2.025 0 0 0 .001 4.05Zm0 .506c-1.737 0-3.17 1.103-3.387 2.531h6.767c-.217-1.428-1.65-2.531-3.38-2.531m-.208 34.421a3.16 3.16 0 0 0-2.923 1.953 3.163 3.163 0 1 0 2.923-1.953m-1.114.84.425-.283a.1.1 0 0 1 .077-.013q.04.009.065.043l.744 1.215a.1.1 0 0 1-.005.115.1.1 0 0 1-.03.026l-.476.279a.1.1 0 0 1-.077.008.1.1 0 0 1-.06-.049l-.693-1.209a.103.103 0 0 1 .03-.132m2.314 4.657c-.17.099-.361.154-.557.157-.32 0-.623-.309-.942-.628a10.4 10.4 0 0 1-1.164-1.716 3.27 3.27 0 0 1-.38-1.771c.09-.214.249-.392.45-.507a.1.1 0 0 1 .147.036l.633 1.078a.1.1 0 0 1 .022.061.1.1 0 0 1-.022.06.7.7 0 0 0-.157.279c0 .432.142.852.405 1.194.289.345.542.507.684.507a.8.8 0 0 0 .192 0 .1.1 0 0 1 .067.006q.031.014.05.044l.617 1.068a.1.1 0 0 1-.046.132Zm.784-.39-.476.279a.1.1 0 0 1-.136-.041l-.694-1.21a.1.1 0 0 1 .03-.131l.446-.264a.11.11 0 0 1 .142.031l.744 1.215a.1.1 0 0 1-.056.121m-1.843-17.878a2.716 2.716 0 0 0-2.666 3.248 2.72 2.72 0 0 0 5.384-.53 2.724 2.724 0 0 0-2.718-2.718m.258 4.358a.4.4 0 0 1-.096.283.33.33 0 0 1-.248.102.36.36 0 0 1-.253-.102.4.4 0 0 1-.096-.283v-2.02a.4.4 0 0 1 .096-.283.34.34 0 0 1 .389-.08.3.3 0 0 1 .112.08.38.38 0 0 1 .096.283zm-.055-3.037a.45.45 0 0 1-.582 0 .36.36 0 0 1-.112-.279.35.35 0 0 1 .111-.273.4.4 0 0 1 .294-.106.4.4 0 0 1 .289.106.35.35 0 0 1 .111.273.36.36 0 0 1-.091.284z"/>
  <path fill="#fff" d="M48.182 143.556s-5.74 3.933-7.314 6.409c-1.575 2.475-5.852 8.888-8.773 10.69s-7.425.223-7.987 1.909.562 4.611.334 6.074-.785 5.401.567 6.975 2.698 1.574 2.809.901 0-4.161 1.352-6.525c1.351-2.363 3.599-5.735 11.475-11.358s11.698-9.451 13.383-11.253c1.686-1.802.451-4.389.451-4.389"/>
  <path stroke="#263238" stroke-linecap="round" stroke-linejoin="round" stroke-width=".506" d="M48.182 143.556s-5.74 3.933-7.314 6.409c-1.575 2.475-5.852 8.888-8.773 10.69s-7.425.223-7.987 1.909.562 4.611.334 6.074-.785 5.401.567 6.975 2.698 1.574 2.809.901 0-4.161 1.352-6.525c1.351-2.363 3.599-5.735 11.475-11.358s11.698-9.451 13.383-11.253c1.686-1.802.451-4.389.451-4.389"/>
  <path fill="#263238" stroke="#263238" stroke-linecap="round" stroke-linejoin="round" stroke-width=".506" d="M48.182 143.556s-5.74 3.934-7.315 6.409c-1.574 2.475-5.851 8.888-8.772 10.69a5.7 5.7 0 0 1-1.488.618 9.53 9.53 0 0 0 1.22 4.961c1.71-1.964 4.363-4.424 8.818-7.593 7.871-5.629 11.698-9.451 13.383-11.253 1.686-1.802.45-4.388.45-4.388z"/>
  <path fill="#1E42A2" stroke="#263238" stroke-linecap="round" stroke-linejoin="round" stroke-width=".506" d="M26.806 169.878c.288-2.024 1.564-6.919 1.928-8.296-2.197.172-4.257-.122-4.626.982-.562 1.691.562 4.611.334 6.074s-.785 5.401.567 6.975c1.351 1.575 2.698 1.575 2.809.901.066-.379.056-1.66.278-3.123a3.9 3.9 0 0 1-1.29-3.513"/>
  <path fill="#fff" stroke="#263238" stroke-linecap="round" stroke-linejoin="round" stroke-width=".506" d="M25.009 172.014c0-2.024.562-3.487.111-6.297a7.6 7.6 0 0 1 .37-3.963c-.71.101-1.215.314-1.382.81-.562 1.69.562 4.611.334 6.074s-.785 5.401.567 6.975c.42.53.967.946 1.59 1.21-1.337-1.189-1.59-3.042-1.59-4.809"/>
  <path fill="#263238" stroke="#263238" stroke-linecap="round" stroke-linejoin="round" stroke-width=".506" d="M33.381 93.51c.122-.208.233-.416.34-.613q-.159.295-.34.613m.714-1.342c.091-.177.167-.339.243-.506a4 4 0 0 1-.243.506m-1.145 2.106.34-.603zm1.433-2.688c.071-.162.137-.314.188-.45-.05.136-.137.288-.188.45m16.401 2.389v-.364q-.015.162 0 .364m2.794 23.032c-.506-3.219-2.359-9-1.797-12.037.41-2.222-.324-6.313-.744-9.05-9.91 1.042-15.52-.451-18.136-1.555-1.656 2.895-3.969 6.864-4.971 10.944-1.458 5.963-2.36 10.685-.562 14.735s3.493 13.935 3.153 17.985-2.364 6.302-1.913 9.45c.45 3.149 2.582 9.871 3.483 12.007.9 2.136 1.69 10.124 1.69 10.124a26 26 0 0 0-1.351 4.976c-.223 2.025 1.407 2.809 3.72 4.049s7.3 3.827 8.1 2.066-2.901-5.963-4.774-9.031c-1.873-3.067-1.797-7.507-2.025-12.224-.278-5.406-.045-16.73-.045-20.106s3.71-21.022 3.71-21.022 2.247 9.111 4.05 13.5 1.862 12.336 3.887 14.138 6.074 2.247 6.074-2.025.213-16.304-1.549-26.924M50.83 94.436c0-.147-.03-.294-.041-.42.01.126.02.268.04.42Zm.156 1.174c0-.157-.04-.303-.065-.45.025.147.045.293.065.45M27.752 78.552l.076-.107zm-.334.455.147-.197zm.187-.263c.046-.066.086-.117.127-.167z"/>
  <path stroke="#fff" stroke-linecap="round" stroke-linejoin="round" stroke-width=".38" d="M40.948 119.072s1.519-5.998.896-8.043-3.194-6.13-3.194-6.13m4.47 6.894s4.212-2.298 5.234-4.723m-3.447 4.212s3.194-1.66 4.728-4.596"/>
  <path fill="#fff" stroke="#263238" stroke-linecap="round" stroke-linejoin="round" stroke-width=".506" d="M56.615 70.549c-1.685-3.149-3.148-4.161-5.173-4.5s-5.852.228-7.648-.901c-1.797-1.129-1.802-6.074-1.575-6.409s-5.512-.116-5.512-.116.784 5.512.334 6.641-2.607 1.595-5.285 1.595a7.48 7.48 0 0 0-6.636 4.272c-1.351 2.698-12.33 18.83-12.33 18.83s-.638.724-.598 1.013l3.999.678c3.938-2.91 11.739-13.313 11.739-13.313l.79-.445s1.35 4.834 3.71 6.858c2.358 2.025 3.037 3.939 2.14 6.414a26 26 0 0 1-1.67 3.23c2.617 1.103 8.226 2.596 18.137 1.553a18 18 0 0 1-.268-2.308c0-1.802-.112-5.29-.112-7.537 0-2.248 2.248-4.277 1.575-6.525a27 27 0 0 1-.901-4.16l1.123-1.352s3.59 6.241 4.84 7.623c2.556 2.825 5.623 5.766 6.185 5.426s1.914-.79 1.463-3.826c-.45-3.038-6.636-9.593-8.327-12.741"/>
  <path fill="#1E42A2" stroke="#263238" stroke-linecap="round" stroke-linejoin="round" stroke-width=".506" d="M50.769 93.687c-2.592.374-9.78 1.068-16.755-1.316-.36.693-.82 1.518-1.342 2.414 1.757.734 7.229 2.8 12.245 2.339 3.265-.304 5.097-.866 6.074-1.321a18 18 0 0 1-.222-2.116"/>
  <path fill="#1E42A2" stroke="#263238" stroke-linecap="round" stroke-linejoin="round" stroke-width=".506" d="M50.834 94.512q-.056-.45-.065-.901c0-1.802-.112-5.29-.112-7.537 0-2.248 2.248-4.278 1.575-6.525a27 27 0 0 1-.901-4.16l.096-.117c-1.392-2.896-2.43-7.639-2.78-9.36-.632 0-1.28 0-1.903-.055-.035 1.888-.577 6.074-4.636 6.828-4.247.815-8.059-3.958-9.395-5.867H31.37a18.26 18.26 0 0 1 1.62 8.54c-.248 3.953-1.949 5.639-2.789 6.241a10.2 10.2 0 0 0 2.227 3.093c2.364 2.025 3.038 3.938 2.142 6.413a16 16 0 0 1-1.013 2.025 22.95 22.95 0 0 0 17.276 1.382Z"/>
  <path stroke="#263238" stroke-linecap="round" stroke-linejoin="round" stroke-width=".506" d="M39.749 85.588s2.278-.506 6.833-2.025"/>
  <path fill="#fff" d="M16.611 88.939s1.645 2.758 6.485 4.555 7.76 1.575 7.76 1.575 2.566-3.913 3.148-3.913 5.33 1.777 5.239 2.025.445.506-.4.354-2.997-.936-3.305-.982c-.31-.046 3.077 2.278 3.391 2.46s.268.76-.046.805c-.313.045-3.66-1.61-3.66-1.61l3.26 2.025s.178.36-.4.445c-.576.086-3.619-1.564-3.619-1.564l2.456 2.055s.268.405-.507.314c-.774-.09-2.769-1.518-2.769-1.518a7.4 7.4 0 0 1-2.591 1.655c-1.473.506-5.492-.673-8.575-1.013s-8.798-1.908-10.17-3.38c-1.371-1.474.714-3.711.714-3.711"/>
  <path stroke="#263238" stroke-linecap="round" stroke-linejoin="round" stroke-width=".506" d="M16.611 88.939s1.645 2.758 6.485 4.555 7.76 1.575 7.76 1.575 2.566-3.913 3.148-3.913 5.33 1.777 5.239 2.025.445.506-.4.354-2.997-.936-3.305-.982c-.31-.046 3.077 2.278 3.391 2.46s.268.76-.046.805c-.313.045-3.66-1.61-3.66-1.61l3.26 2.025s.178.36-.4.445c-.576.086-3.619-1.564-3.619-1.564l2.456 2.055s.268.405-.507.314c-.774-.09-2.769-1.518-2.769-1.518a7.4 7.4 0 0 1-2.591 1.655c-1.473.506-5.492-.673-8.575-1.013s-8.798-1.908-10.17-3.38c-1.371-1.474.714-3.711.714-3.711"/>
  <path fill="#fff" d="M60.665 83.872s-1.489 3.467-2.531 5.385c-1.043 1.919-3.852 5.887-4.115 6.222a1.58 1.58 0 0 1-.866.48s-.476-1.341-1.053-2.779a2.147 2.147 0 0 0-2.779-1.371s-.81.41-.506.648c.303.238 1.28.177 1.64.177.303.06.58.213.795.435 0 0-2.309.101-2.39.456-.08.354.203.46.876.46a6 6 0 0 1 1.741.162c.198.117-2.298.213-2.576.73-.279.516 1.559.212 2.025.298a.79.79 0 0 1 .718.784s-1.867-.425-2.227.132c-.288.44.896.47 1.114.532.784.222.577 1.047 1.053 1.695.405.552.506.846 1.331.846 1.392 0 5.285-5.103 7.31-7.006s4.89-4.733 5.365-6.2c.476-1.469-.916-3.736-1.235-3.817"/>
  <path stroke="#263238" stroke-linecap="round" stroke-linejoin="round" stroke-width=".506" d="M60.665 83.872s-1.489 3.467-2.531 5.385c-1.043 1.919-3.852 5.887-4.115 6.222a1.58 1.58 0 0 1-.866.48s-.476-1.341-1.053-2.779a2.147 2.147 0 0 0-2.779-1.371s-.81.41-.506.648c.303.238 1.28.177 1.64.177.303.06.58.213.795.435 0 0-2.309.101-2.39.456-.08.354.203.46.876.46a6 6 0 0 1 1.741.162c.198.117-2.298.213-2.576.73-.279.516 1.559.212 2.025.298a.79.79 0 0 1 .718.784s-1.867-.425-2.227.132c-.288.44.896.47 1.114.532.784.222.577 1.047 1.053 1.695.405.552.506.846 1.331.846 1.392 0 5.285-5.103 7.31-7.006s4.89-4.733 5.365-6.2c.476-1.469-.916-3.736-1.235-3.817"/>
  <path fill="#fff" d="M53.163 95.96c.204.778.325 1.575.36 2.379z"/>
  <path stroke="#263238" stroke-linecap="round" stroke-linejoin="round" stroke-width=".506" d="M53.163 95.96c.204.778.325 1.575.36 2.379m-1.069-24.302 2.03-1.828M28.72 77.863l2.652-.931"/>
  <path fill="#263238" stroke="#263238" stroke-linecap="round" stroke-linejoin="round" stroke-width=".506" d="M31.144 62.379s.749 1.362 2.88 1.397.734-2.92 6.965-3.893c4.384-.683.44 3.478 1.422 3.544.983.066 3.326-.506 4.283-3.812s.268-11.364-2.81-13.606c-3.077-2.242-11.181-1.16-12.148 1.28s.38 6.343-.506 8.677-.987 5.36-.086 6.413"/>
  <path fill="#fff" stroke="#263238" stroke-linecap="round" stroke-linejoin="round" stroke-width=".506" d="M32.915 54.71s-1.012-1.908-1.118-.445.349 2.865 1.083 3.356 1.108.35 1.108.35l-1.073-3.26Z"/>
  <path fill="#fff" stroke="#263238" stroke-linecap="round" stroke-linejoin="round" stroke-width=".506" d="M34.707 44.12s-1.564.598-2.283 3.686 1.063 10.761 1.833 11.485 3.412 3.807 5.568 3.68c1.377-.076 4.434-3.644 4.778-5.32.344-1.675-.349-8.96-.967-10.66-.617-1.7-4.454-5.325-8.929-2.87Z"/>
  <path fill="#263238" d="M37.102 53.526c0 .243-.699-.107-.947-.122s-.967.248-.952 0 .73-.4.977-.384c.248.015.937.258.922.506m4.12-.679a.444.444 0 0 1-.385.507.45.45 0 0 1-.506-.39.445.445 0 0 1 .88-.106z"/>
  <path stroke="#263238" stroke-linecap="round" stroke-linejoin="round" stroke-width=".506" d="M38.322 57.93a4.3 4.3 0 0 0 3.295-1.2m-1.878-1.914s.719.73.152 1.25a1.79 1.79 0 0 1-1.863.315c-.572-.203-.086-1.438-.086-1.438"/>
  <path fill="#263238" d="M37.41 52.346a2.02 2.02 0 0 0-1.933-1.154 1.94 1.94 0 0 0-1.843 1.099s1.109-.765 1.823-.562c.713.202 1.478 1.316 1.953.617m1.676-1.806a2.02 2.02 0 0 1 2.06-.902 1.93 1.93 0 0 1 1.69 1.316s-1.011-.9-1.735-.78c-.724.122-1.605 1.124-2.015.365Z"/>
  <path fill="#263238" stroke="#263238" stroke-linecap="round" stroke-linejoin="round" stroke-width=".506" d="M36.368 46.348s-2.465-.375-3.235 1.265.066 4.556-1.043 7.39c-1.108 2.835.248 6.844.506 7.396.259.552-1.078 1.483-2.191-1.285-1.114-2.77.749-5.806.582-8.788-.167-2.981-1.23-6.145 1.518-8.22s3.447-1.094 3.447-1.094z"/>
  <path fill="#263238" stroke="#263238" stroke-linecap="round" stroke-linejoin="round" stroke-width=".506" d="M48.653 49.416c-.785-1.65-1.068-4.81-3.67-7.087-1.63-1.438-4.495-2.025-6.753-1.828a3.8 3.8 0 0 0-1.113.071c-3.59.724-5.65 2.911-4.81 4.262.841 1.352 4.05 1.52 4.05 1.52l.507.136a4 4 0 0 1-.076-.507c.506-.298 1.346-.561 2.379.304a9.8 9.8 0 0 1 3.265 6.186c.344 3.64 2.323 4.758 2.505 6.282.183 1.523-2.257 3.76-2.768 4.307-.512.547 2.495.507 2.703.466 3.037-.567 4.854-2.82 5.81-5.654 1.134-3.326-.688-5.624-2.03-8.459Z"/>
  <path stroke="#fff" stroke-linecap="round" stroke-linejoin="round" stroke-width=".253" d="M46.583 61.245a2.4 2.4 0 0 1-.466.678m-9.795-15.955s-2.44-.961-.648-2.146c1.792-1.184 5.685 1.341 6.88 4.004 1.194 2.663.906 5.897 2.414 7.942.714.972 1.686 2.607 1.802 4.085"/>
  <path stroke="#fff" stroke-linecap="round" stroke-linejoin="round" stroke-width=".253" d="M34.434 44.48c-.106-.258 0-.653.603-1.26 1.559-1.544 4.788-1.256 6.616.263s2.657 3.543 3.148 6.013 1.058 3.939 2.581 5.3c1.524 1.362 2.48 2.896 1.377 4.966M34.51 46.186s-2.81-.82-1.458-2.435m-.03 18.193c.244.278.538.51.866.683m-2.137-6.398s-.324 2.936.73 4.95"/>
  <path stroke="#fff" stroke-linecap="round" stroke-linejoin="round" stroke-width=".253" d="M44.35 44.11a10.5 10.5 0 0 1 1.909 3.949c.8 3.386-.112 4.662 1.73 6.277a4.24 4.24 0 0 1 1.479 2.632m-6.479-14.325s.157.126.4.37"/>
  <path fill="#fff" stroke="#263238" stroke-linecap="round" stroke-linejoin="round" stroke-width=".506" d="M38.66 169.99a8.05 8.05 0 0 1-4.914-.694c0 .213.035.334.035.334a26 26 0 0 0-1.351 4.976c-.223 2.025 1.407 2.809 3.72 4.05s7.3 3.826 8.1 2.065-2.901-5.963-4.774-9.031a9.6 9.6 0 0 1-.815-1.7Z"/>
  <path fill="#1E42A2" stroke="#263238" stroke-linecap="round" stroke-linejoin="round" stroke-width=".506" d="M39.116 177.056c-2.43-.699-5.122-3.543-6.195-4.773a15.4 15.4 0 0 0-.507 2.323c-.222 2.025 1.408 2.809 3.72 4.05 2.314 1.24 7.3 3.826 8.1 2.065.425-.942-.43-2.577-1.605-4.358-.49.784-1.533 1.255-3.513.693"/>
  <path fill="#fff" stroke="#263238" stroke-linecap="round" stroke-linejoin="round" stroke-width=".506" d="M36.798 177.947a35.6 35.6 0 0 1-4.389-2.966c0 1.751 1.58 2.531 3.741 3.695 2.318 1.26 7.3 3.827 8.099 2.065.099-.242.134-.505.101-.764-2.384 1.088-4.46-.274-7.552-2.03"/>
</svg>
